%TF.GenerationSoftware,KiCad,Pcbnew,10.0.3*%
%TF.CreationDate,2026-05-29T17:16:22-05:00*%
%TF.ProjectId,Handheld-Gaming-Device,48616e64-6865-46c6-942d-47616d696e67,rev?*%
%TF.SameCoordinates,Original*%
%TF.FileFunction,Soldermask,Top*%
%TF.FilePolarity,Negative*%
%FSLAX46Y46*%
G04 Gerber Fmt 4.6, Leading zero omitted, Abs format (unit mm)*
G04 Created by KiCad (PCBNEW 10.0.3) date 2026-05-29 17:16:22*
%MOMM*%
%LPD*%
G01*
G04 APERTURE LIST*
G04 Aperture macros list*
%AMRoundRect*
0 Rectangle with rounded corners*
0 $1 Rounding radius*
0 $2 $3 $4 $5 $6 $7 $8 $9 X,Y pos of 4 corners*
0 Add a 4 corners polygon primitive as box body*
4,1,4,$2,$3,$4,$5,$6,$7,$8,$9,$2,$3,0*
0 Add four circle primitives for the rounded corners*
1,1,$1+$1,$2,$3*
1,1,$1+$1,$4,$5*
1,1,$1+$1,$6,$7*
1,1,$1+$1,$8,$9*
0 Add four rect primitives between the rounded corners*
20,1,$1+$1,$2,$3,$4,$5,0*
20,1,$1+$1,$4,$5,$6,$7,0*
20,1,$1+$1,$6,$7,$8,$9,0*
20,1,$1+$1,$8,$9,$2,$3,0*%
G04 Aperture macros list end*
%ADD10C,2.000000*%
%ADD11C,1.700000*%
%ADD12R,1.700000X1.700000*%
%ADD13C,1.600000*%
%ADD14O,1.600000X1.200000*%
%ADD15C,1.200000*%
%ADD16C,1.440000*%
%ADD17RoundRect,0.250000X-0.550000X0.550000X-0.550000X-0.550000X0.550000X-0.550000X0.550000X0.550000X0*%
%ADD18R,1.905000X2.000000*%
%ADD19O,1.905000X2.000000*%
G04 APERTURE END LIST*
D10*
%TO.C,SW1*%
X170000000Y-95000000D03*
X176500000Y-95000000D03*
X170000000Y-99500000D03*
X176500000Y-99500000D03*
%TD*%
%TO.C,SW2*%
X184500000Y-95000000D03*
X191000000Y-95000000D03*
X184500000Y-99500000D03*
X191000000Y-99500000D03*
%TD*%
D11*
%TO.C,J2*%
X123500000Y-96000000D03*
X120960000Y-96000000D03*
X118420000Y-96000000D03*
X115880000Y-96000000D03*
D12*
X113340000Y-96000000D03*
%TD*%
D13*
%TO.C,C4*%
X194500000Y-73000000D03*
X199500000Y-73000000D03*
%TD*%
%TO.C,R4*%
X186500000Y-55080000D03*
X186500000Y-44920000D03*
%TD*%
%TO.C,R2*%
X196500000Y-44000000D03*
X196500000Y-54160000D03*
%TD*%
D14*
%TO.C,Q1*%
X183920000Y-36500000D03*
D15*
X186460000Y-39040000D03*
X189000000Y-36500000D03*
%TD*%
D16*
%TO.C,RV1*%
X182960000Y-65040000D03*
X185500000Y-62500000D03*
X188040000Y-65040000D03*
%TD*%
D11*
%TO.C,LS1*%
X196500000Y-38540000D03*
D12*
X196500000Y-36000000D03*
%TD*%
D13*
%TO.C,C5*%
X182000000Y-73000000D03*
X187000000Y-73000000D03*
%TD*%
%TO.C,R5*%
X210080000Y-83000000D03*
X199920000Y-83000000D03*
%TD*%
%TO.C,R3*%
X196500000Y-58000000D03*
X196500000Y-68160000D03*
%TD*%
%TO.C,C8*%
X81960000Y-33500000D03*
X81960000Y-38500000D03*
%TD*%
%TO.C,C2*%
X135500000Y-40500000D03*
X135500000Y-35500000D03*
%TD*%
D12*
%TO.C,J5*%
X100540000Y-35500000D03*
D11*
X98000000Y-35500000D03*
X95460000Y-35500000D03*
X92920000Y-35500000D03*
X90380000Y-35500000D03*
%TD*%
D12*
%TO.C,J3*%
X201840000Y-96500000D03*
D11*
X204380000Y-96500000D03*
X206920000Y-96500000D03*
X209460000Y-96500000D03*
X212000000Y-96500000D03*
%TD*%
D17*
%TO.C,U1*%
X166000000Y-43000000D03*
D13*
X163460000Y-43000000D03*
X160920000Y-43000000D03*
X158380000Y-43000000D03*
X155840000Y-43000000D03*
X153300000Y-43000000D03*
X150760000Y-43000000D03*
X148220000Y-43000000D03*
X145680000Y-43000000D03*
X143140000Y-43000000D03*
X140600000Y-43000000D03*
X138060000Y-43000000D03*
X135520000Y-43000000D03*
X132980000Y-43000000D03*
X132980000Y-50620000D03*
X135520000Y-50620000D03*
X138060000Y-50620000D03*
X140600000Y-50620000D03*
X143140000Y-50620000D03*
X145680000Y-50620000D03*
X148220000Y-50620000D03*
X150760000Y-50620000D03*
X153300000Y-50620000D03*
X155840000Y-50620000D03*
X158380000Y-50620000D03*
X160920000Y-50620000D03*
X163460000Y-50620000D03*
X166000000Y-50620000D03*
%TD*%
%TO.C,R1*%
X166000000Y-25000000D03*
X166000000Y-35160000D03*
%TD*%
%TO.C,C6*%
X100500000Y-38500000D03*
X100500000Y-43500000D03*
%TD*%
D12*
%TO.C,J1*%
X114500000Y-34500000D03*
D11*
X114500000Y-37040000D03*
X114500000Y-39580000D03*
X114500000Y-42120000D03*
X114500000Y-44660000D03*
X114500000Y-47200000D03*
X114500000Y-49740000D03*
X114500000Y-52280000D03*
%TD*%
D12*
%TO.C,J4*%
X157080000Y-96000000D03*
D11*
X154540000Y-96000000D03*
X152000000Y-96000000D03*
X149460000Y-96000000D03*
X146920000Y-96000000D03*
X144380000Y-96000000D03*
X141840000Y-96000000D03*
X139300000Y-96000000D03*
%TD*%
D18*
%TO.C,J6*%
X87000000Y-43000000D03*
D19*
X84460000Y-43000000D03*
X81920000Y-43000000D03*
%TD*%
D13*
%TO.C,C7*%
X79000000Y-32500000D03*
X74000000Y-32500000D03*
%TD*%
%TO.C,C3*%
X166000000Y-58000000D03*
X166000000Y-53000000D03*
%TD*%
%TO.C,C1*%
X144500000Y-53000000D03*
X144500000Y-58000000D03*
%TD*%
M02*
