%TF.GenerationSoftware,KiCad,Pcbnew,10.0.3*%
%TF.CreationDate,2026-05-29T17:16:22-05:00*%
%TF.ProjectId,Handheld-Gaming-Device,48616e64-6865-46c6-942d-47616d696e67,rev?*%
%TF.SameCoordinates,Original*%
%TF.FileFunction,Legend,Top*%
%TF.FilePolarity,Positive*%
%FSLAX46Y46*%
G04 Gerber Fmt 4.6, Leading zero omitted, Abs format (unit mm)*
G04 Created by KiCad (PCBNEW 10.0.3) date 2026-05-29 17:16:22*
%MOMM*%
%LPD*%
G01*
G04 APERTURE LIST*
G04 Aperture macros list*
%AMRoundRect*
0 Rectangle with rounded corners*
0 $1 Rounding radius*
0 $2 $3 $4 $5 $6 $7 $8 $9 X,Y pos of 4 corners*
0 Add a 4 corners polygon primitive as box body*
4,1,4,$2,$3,$4,$5,$6,$7,$8,$9,$2,$3,0*
0 Add four circle primitives for the rounded corners*
1,1,$1+$1,$2,$3*
1,1,$1+$1,$4,$5*
1,1,$1+$1,$6,$7*
1,1,$1+$1,$8,$9*
0 Add four rect primitives between the rounded corners*
20,1,$1+$1,$2,$3,$4,$5,0*
20,1,$1+$1,$4,$5,$6,$7,0*
20,1,$1+$1,$6,$7,$8,$9,0*
20,1,$1+$1,$8,$9,$2,$3,0*%
G04 Aperture macros list end*
%ADD10C,0.100000*%
%ADD11C,0.150000*%
%ADD12C,0.120000*%
%ADD13C,2.000000*%
%ADD14C,1.700000*%
%ADD15R,1.700000X1.700000*%
%ADD16C,1.600000*%
%ADD17O,1.600000X1.200000*%
%ADD18C,1.200000*%
%ADD19C,1.440000*%
%ADD20RoundRect,0.250000X-0.550000X0.550000X-0.550000X-0.550000X0.550000X-0.550000X0.550000X0.550000X0*%
%ADD21R,1.905000X2.000000*%
%ADD22O,1.905000X2.000000*%
G04 APERTURE END LIST*
D10*
X82803884Y-67712755D02*
X82803884Y-66712755D01*
X82803884Y-67188945D02*
X83375312Y-67188945D01*
X83375312Y-67712755D02*
X83375312Y-66712755D01*
X84280074Y-67712755D02*
X84280074Y-67188945D01*
X84280074Y-67188945D02*
X84232455Y-67093707D01*
X84232455Y-67093707D02*
X84137217Y-67046088D01*
X84137217Y-67046088D02*
X83946741Y-67046088D01*
X83946741Y-67046088D02*
X83851503Y-67093707D01*
X84280074Y-67665136D02*
X84184836Y-67712755D01*
X84184836Y-67712755D02*
X83946741Y-67712755D01*
X83946741Y-67712755D02*
X83851503Y-67665136D01*
X83851503Y-67665136D02*
X83803884Y-67569897D01*
X83803884Y-67569897D02*
X83803884Y-67474659D01*
X83803884Y-67474659D02*
X83851503Y-67379421D01*
X83851503Y-67379421D02*
X83946741Y-67331802D01*
X83946741Y-67331802D02*
X84184836Y-67331802D01*
X84184836Y-67331802D02*
X84280074Y-67284183D01*
X84756265Y-67046088D02*
X84756265Y-67712755D01*
X84756265Y-67141326D02*
X84803884Y-67093707D01*
X84803884Y-67093707D02*
X84899122Y-67046088D01*
X84899122Y-67046088D02*
X85041979Y-67046088D01*
X85041979Y-67046088D02*
X85137217Y-67093707D01*
X85137217Y-67093707D02*
X85184836Y-67188945D01*
X85184836Y-67188945D02*
X85184836Y-67712755D01*
X86089598Y-67712755D02*
X86089598Y-66712755D01*
X86089598Y-67665136D02*
X85994360Y-67712755D01*
X85994360Y-67712755D02*
X85803884Y-67712755D01*
X85803884Y-67712755D02*
X85708646Y-67665136D01*
X85708646Y-67665136D02*
X85661027Y-67617516D01*
X85661027Y-67617516D02*
X85613408Y-67522278D01*
X85613408Y-67522278D02*
X85613408Y-67236564D01*
X85613408Y-67236564D02*
X85661027Y-67141326D01*
X85661027Y-67141326D02*
X85708646Y-67093707D01*
X85708646Y-67093707D02*
X85803884Y-67046088D01*
X85803884Y-67046088D02*
X85994360Y-67046088D01*
X85994360Y-67046088D02*
X86089598Y-67093707D01*
X86565789Y-67712755D02*
X86565789Y-66712755D01*
X86994360Y-67712755D02*
X86994360Y-67188945D01*
X86994360Y-67188945D02*
X86946741Y-67093707D01*
X86946741Y-67093707D02*
X86851503Y-67046088D01*
X86851503Y-67046088D02*
X86708646Y-67046088D01*
X86708646Y-67046088D02*
X86613408Y-67093707D01*
X86613408Y-67093707D02*
X86565789Y-67141326D01*
X87851503Y-67665136D02*
X87756265Y-67712755D01*
X87756265Y-67712755D02*
X87565789Y-67712755D01*
X87565789Y-67712755D02*
X87470551Y-67665136D01*
X87470551Y-67665136D02*
X87422932Y-67569897D01*
X87422932Y-67569897D02*
X87422932Y-67188945D01*
X87422932Y-67188945D02*
X87470551Y-67093707D01*
X87470551Y-67093707D02*
X87565789Y-67046088D01*
X87565789Y-67046088D02*
X87756265Y-67046088D01*
X87756265Y-67046088D02*
X87851503Y-67093707D01*
X87851503Y-67093707D02*
X87899122Y-67188945D01*
X87899122Y-67188945D02*
X87899122Y-67284183D01*
X87899122Y-67284183D02*
X87422932Y-67379421D01*
X88470551Y-67712755D02*
X88375313Y-67665136D01*
X88375313Y-67665136D02*
X88327694Y-67569897D01*
X88327694Y-67569897D02*
X88327694Y-66712755D01*
X89280075Y-67712755D02*
X89280075Y-66712755D01*
X89280075Y-67665136D02*
X89184837Y-67712755D01*
X89184837Y-67712755D02*
X88994361Y-67712755D01*
X88994361Y-67712755D02*
X88899123Y-67665136D01*
X88899123Y-67665136D02*
X88851504Y-67617516D01*
X88851504Y-67617516D02*
X88803885Y-67522278D01*
X88803885Y-67522278D02*
X88803885Y-67236564D01*
X88803885Y-67236564D02*
X88851504Y-67141326D01*
X88851504Y-67141326D02*
X88899123Y-67093707D01*
X88899123Y-67093707D02*
X88994361Y-67046088D01*
X88994361Y-67046088D02*
X89184837Y-67046088D01*
X89184837Y-67046088D02*
X89280075Y-67093707D01*
X91041980Y-66760374D02*
X90946742Y-66712755D01*
X90946742Y-66712755D02*
X90803885Y-66712755D01*
X90803885Y-66712755D02*
X90661028Y-66760374D01*
X90661028Y-66760374D02*
X90565790Y-66855612D01*
X90565790Y-66855612D02*
X90518171Y-66950850D01*
X90518171Y-66950850D02*
X90470552Y-67141326D01*
X90470552Y-67141326D02*
X90470552Y-67284183D01*
X90470552Y-67284183D02*
X90518171Y-67474659D01*
X90518171Y-67474659D02*
X90565790Y-67569897D01*
X90565790Y-67569897D02*
X90661028Y-67665136D01*
X90661028Y-67665136D02*
X90803885Y-67712755D01*
X90803885Y-67712755D02*
X90899123Y-67712755D01*
X90899123Y-67712755D02*
X91041980Y-67665136D01*
X91041980Y-67665136D02*
X91089599Y-67617516D01*
X91089599Y-67617516D02*
X91089599Y-67284183D01*
X91089599Y-67284183D02*
X90899123Y-67284183D01*
X91946742Y-67712755D02*
X91946742Y-67188945D01*
X91946742Y-67188945D02*
X91899123Y-67093707D01*
X91899123Y-67093707D02*
X91803885Y-67046088D01*
X91803885Y-67046088D02*
X91613409Y-67046088D01*
X91613409Y-67046088D02*
X91518171Y-67093707D01*
X91946742Y-67665136D02*
X91851504Y-67712755D01*
X91851504Y-67712755D02*
X91613409Y-67712755D01*
X91613409Y-67712755D02*
X91518171Y-67665136D01*
X91518171Y-67665136D02*
X91470552Y-67569897D01*
X91470552Y-67569897D02*
X91470552Y-67474659D01*
X91470552Y-67474659D02*
X91518171Y-67379421D01*
X91518171Y-67379421D02*
X91613409Y-67331802D01*
X91613409Y-67331802D02*
X91851504Y-67331802D01*
X91851504Y-67331802D02*
X91946742Y-67284183D01*
X92422933Y-67712755D02*
X92422933Y-67046088D01*
X92422933Y-67141326D02*
X92470552Y-67093707D01*
X92470552Y-67093707D02*
X92565790Y-67046088D01*
X92565790Y-67046088D02*
X92708647Y-67046088D01*
X92708647Y-67046088D02*
X92803885Y-67093707D01*
X92803885Y-67093707D02*
X92851504Y-67188945D01*
X92851504Y-67188945D02*
X92851504Y-67712755D01*
X92851504Y-67188945D02*
X92899123Y-67093707D01*
X92899123Y-67093707D02*
X92994361Y-67046088D01*
X92994361Y-67046088D02*
X93137218Y-67046088D01*
X93137218Y-67046088D02*
X93232457Y-67093707D01*
X93232457Y-67093707D02*
X93280076Y-67188945D01*
X93280076Y-67188945D02*
X93280076Y-67712755D01*
X93756266Y-67712755D02*
X93756266Y-67046088D01*
X93756266Y-66712755D02*
X93708647Y-66760374D01*
X93708647Y-66760374D02*
X93756266Y-66807993D01*
X93756266Y-66807993D02*
X93803885Y-66760374D01*
X93803885Y-66760374D02*
X93756266Y-66712755D01*
X93756266Y-66712755D02*
X93756266Y-66807993D01*
X94232456Y-67046088D02*
X94232456Y-67712755D01*
X94232456Y-67141326D02*
X94280075Y-67093707D01*
X94280075Y-67093707D02*
X94375313Y-67046088D01*
X94375313Y-67046088D02*
X94518170Y-67046088D01*
X94518170Y-67046088D02*
X94613408Y-67093707D01*
X94613408Y-67093707D02*
X94661027Y-67188945D01*
X94661027Y-67188945D02*
X94661027Y-67712755D01*
X95565789Y-67046088D02*
X95565789Y-67855612D01*
X95565789Y-67855612D02*
X95518170Y-67950850D01*
X95518170Y-67950850D02*
X95470551Y-67998469D01*
X95470551Y-67998469D02*
X95375313Y-68046088D01*
X95375313Y-68046088D02*
X95232456Y-68046088D01*
X95232456Y-68046088D02*
X95137218Y-67998469D01*
X95565789Y-67665136D02*
X95470551Y-67712755D01*
X95470551Y-67712755D02*
X95280075Y-67712755D01*
X95280075Y-67712755D02*
X95184837Y-67665136D01*
X95184837Y-67665136D02*
X95137218Y-67617516D01*
X95137218Y-67617516D02*
X95089599Y-67522278D01*
X95089599Y-67522278D02*
X95089599Y-67236564D01*
X95089599Y-67236564D02*
X95137218Y-67141326D01*
X95137218Y-67141326D02*
X95184837Y-67093707D01*
X95184837Y-67093707D02*
X95280075Y-67046088D01*
X95280075Y-67046088D02*
X95470551Y-67046088D01*
X95470551Y-67046088D02*
X95565789Y-67093707D01*
X96803885Y-67712755D02*
X96803885Y-66712755D01*
X96803885Y-66712755D02*
X97041980Y-66712755D01*
X97041980Y-66712755D02*
X97184837Y-66760374D01*
X97184837Y-66760374D02*
X97280075Y-66855612D01*
X97280075Y-66855612D02*
X97327694Y-66950850D01*
X97327694Y-66950850D02*
X97375313Y-67141326D01*
X97375313Y-67141326D02*
X97375313Y-67284183D01*
X97375313Y-67284183D02*
X97327694Y-67474659D01*
X97327694Y-67474659D02*
X97280075Y-67569897D01*
X97280075Y-67569897D02*
X97184837Y-67665136D01*
X97184837Y-67665136D02*
X97041980Y-67712755D01*
X97041980Y-67712755D02*
X96803885Y-67712755D01*
X98184837Y-67665136D02*
X98089599Y-67712755D01*
X98089599Y-67712755D02*
X97899123Y-67712755D01*
X97899123Y-67712755D02*
X97803885Y-67665136D01*
X97803885Y-67665136D02*
X97756266Y-67569897D01*
X97756266Y-67569897D02*
X97756266Y-67188945D01*
X97756266Y-67188945D02*
X97803885Y-67093707D01*
X97803885Y-67093707D02*
X97899123Y-67046088D01*
X97899123Y-67046088D02*
X98089599Y-67046088D01*
X98089599Y-67046088D02*
X98184837Y-67093707D01*
X98184837Y-67093707D02*
X98232456Y-67188945D01*
X98232456Y-67188945D02*
X98232456Y-67284183D01*
X98232456Y-67284183D02*
X97756266Y-67379421D01*
X98565790Y-67046088D02*
X98803885Y-67712755D01*
X98803885Y-67712755D02*
X99041980Y-67046088D01*
X99422933Y-67712755D02*
X99422933Y-67046088D01*
X99422933Y-66712755D02*
X99375314Y-66760374D01*
X99375314Y-66760374D02*
X99422933Y-66807993D01*
X99422933Y-66807993D02*
X99470552Y-66760374D01*
X99470552Y-66760374D02*
X99422933Y-66712755D01*
X99422933Y-66712755D02*
X99422933Y-66807993D01*
X100327694Y-67665136D02*
X100232456Y-67712755D01*
X100232456Y-67712755D02*
X100041980Y-67712755D01*
X100041980Y-67712755D02*
X99946742Y-67665136D01*
X99946742Y-67665136D02*
X99899123Y-67617516D01*
X99899123Y-67617516D02*
X99851504Y-67522278D01*
X99851504Y-67522278D02*
X99851504Y-67236564D01*
X99851504Y-67236564D02*
X99899123Y-67141326D01*
X99899123Y-67141326D02*
X99946742Y-67093707D01*
X99946742Y-67093707D02*
X100041980Y-67046088D01*
X100041980Y-67046088D02*
X100232456Y-67046088D01*
X100232456Y-67046088D02*
X100327694Y-67093707D01*
X101137218Y-67665136D02*
X101041980Y-67712755D01*
X101041980Y-67712755D02*
X100851504Y-67712755D01*
X100851504Y-67712755D02*
X100756266Y-67665136D01*
X100756266Y-67665136D02*
X100708647Y-67569897D01*
X100708647Y-67569897D02*
X100708647Y-67188945D01*
X100708647Y-67188945D02*
X100756266Y-67093707D01*
X100756266Y-67093707D02*
X100851504Y-67046088D01*
X100851504Y-67046088D02*
X101041980Y-67046088D01*
X101041980Y-67046088D02*
X101137218Y-67093707D01*
X101137218Y-67093707D02*
X101184837Y-67188945D01*
X101184837Y-67188945D02*
X101184837Y-67284183D01*
X101184837Y-67284183D02*
X100708647Y-67379421D01*
X83375312Y-70837404D02*
X83327693Y-70885024D01*
X83327693Y-70885024D02*
X83184836Y-70932643D01*
X83184836Y-70932643D02*
X83089598Y-70932643D01*
X83089598Y-70932643D02*
X82946741Y-70885024D01*
X82946741Y-70885024D02*
X82851503Y-70789785D01*
X82851503Y-70789785D02*
X82803884Y-70694547D01*
X82803884Y-70694547D02*
X82756265Y-70504071D01*
X82756265Y-70504071D02*
X82756265Y-70361214D01*
X82756265Y-70361214D02*
X82803884Y-70170738D01*
X82803884Y-70170738D02*
X82851503Y-70075500D01*
X82851503Y-70075500D02*
X82946741Y-69980262D01*
X82946741Y-69980262D02*
X83089598Y-69932643D01*
X83089598Y-69932643D02*
X83184836Y-69932643D01*
X83184836Y-69932643D02*
X83327693Y-69980262D01*
X83327693Y-69980262D02*
X83375312Y-70027881D01*
X83803884Y-70932643D02*
X83803884Y-70265976D01*
X83803884Y-70456452D02*
X83851503Y-70361214D01*
X83851503Y-70361214D02*
X83899122Y-70313595D01*
X83899122Y-70313595D02*
X83994360Y-70265976D01*
X83994360Y-70265976D02*
X84089598Y-70265976D01*
X84803884Y-70885024D02*
X84708646Y-70932643D01*
X84708646Y-70932643D02*
X84518170Y-70932643D01*
X84518170Y-70932643D02*
X84422932Y-70885024D01*
X84422932Y-70885024D02*
X84375313Y-70789785D01*
X84375313Y-70789785D02*
X84375313Y-70408833D01*
X84375313Y-70408833D02*
X84422932Y-70313595D01*
X84422932Y-70313595D02*
X84518170Y-70265976D01*
X84518170Y-70265976D02*
X84708646Y-70265976D01*
X84708646Y-70265976D02*
X84803884Y-70313595D01*
X84803884Y-70313595D02*
X84851503Y-70408833D01*
X84851503Y-70408833D02*
X84851503Y-70504071D01*
X84851503Y-70504071D02*
X84375313Y-70599309D01*
X85708646Y-70932643D02*
X85708646Y-70408833D01*
X85708646Y-70408833D02*
X85661027Y-70313595D01*
X85661027Y-70313595D02*
X85565789Y-70265976D01*
X85565789Y-70265976D02*
X85375313Y-70265976D01*
X85375313Y-70265976D02*
X85280075Y-70313595D01*
X85708646Y-70885024D02*
X85613408Y-70932643D01*
X85613408Y-70932643D02*
X85375313Y-70932643D01*
X85375313Y-70932643D02*
X85280075Y-70885024D01*
X85280075Y-70885024D02*
X85232456Y-70789785D01*
X85232456Y-70789785D02*
X85232456Y-70694547D01*
X85232456Y-70694547D02*
X85280075Y-70599309D01*
X85280075Y-70599309D02*
X85375313Y-70551690D01*
X85375313Y-70551690D02*
X85613408Y-70551690D01*
X85613408Y-70551690D02*
X85708646Y-70504071D01*
X86041980Y-70265976D02*
X86422932Y-70265976D01*
X86184837Y-69932643D02*
X86184837Y-70789785D01*
X86184837Y-70789785D02*
X86232456Y-70885024D01*
X86232456Y-70885024D02*
X86327694Y-70932643D01*
X86327694Y-70932643D02*
X86422932Y-70932643D01*
X87137218Y-70885024D02*
X87041980Y-70932643D01*
X87041980Y-70932643D02*
X86851504Y-70932643D01*
X86851504Y-70932643D02*
X86756266Y-70885024D01*
X86756266Y-70885024D02*
X86708647Y-70789785D01*
X86708647Y-70789785D02*
X86708647Y-70408833D01*
X86708647Y-70408833D02*
X86756266Y-70313595D01*
X86756266Y-70313595D02*
X86851504Y-70265976D01*
X86851504Y-70265976D02*
X87041980Y-70265976D01*
X87041980Y-70265976D02*
X87137218Y-70313595D01*
X87137218Y-70313595D02*
X87184837Y-70408833D01*
X87184837Y-70408833D02*
X87184837Y-70504071D01*
X87184837Y-70504071D02*
X86708647Y-70599309D01*
X88041980Y-70932643D02*
X88041980Y-69932643D01*
X88041980Y-70885024D02*
X87946742Y-70932643D01*
X87946742Y-70932643D02*
X87756266Y-70932643D01*
X87756266Y-70932643D02*
X87661028Y-70885024D01*
X87661028Y-70885024D02*
X87613409Y-70837404D01*
X87613409Y-70837404D02*
X87565790Y-70742166D01*
X87565790Y-70742166D02*
X87565790Y-70456452D01*
X87565790Y-70456452D02*
X87613409Y-70361214D01*
X87613409Y-70361214D02*
X87661028Y-70313595D01*
X87661028Y-70313595D02*
X87756266Y-70265976D01*
X87756266Y-70265976D02*
X87946742Y-70265976D01*
X87946742Y-70265976D02*
X88041980Y-70313595D01*
X89613409Y-70408833D02*
X89756266Y-70456452D01*
X89756266Y-70456452D02*
X89803885Y-70504071D01*
X89803885Y-70504071D02*
X89851504Y-70599309D01*
X89851504Y-70599309D02*
X89851504Y-70742166D01*
X89851504Y-70742166D02*
X89803885Y-70837404D01*
X89803885Y-70837404D02*
X89756266Y-70885024D01*
X89756266Y-70885024D02*
X89661028Y-70932643D01*
X89661028Y-70932643D02*
X89280076Y-70932643D01*
X89280076Y-70932643D02*
X89280076Y-69932643D01*
X89280076Y-69932643D02*
X89613409Y-69932643D01*
X89613409Y-69932643D02*
X89708647Y-69980262D01*
X89708647Y-69980262D02*
X89756266Y-70027881D01*
X89756266Y-70027881D02*
X89803885Y-70123119D01*
X89803885Y-70123119D02*
X89803885Y-70218357D01*
X89803885Y-70218357D02*
X89756266Y-70313595D01*
X89756266Y-70313595D02*
X89708647Y-70361214D01*
X89708647Y-70361214D02*
X89613409Y-70408833D01*
X89613409Y-70408833D02*
X89280076Y-70408833D01*
X90184838Y-70265976D02*
X90422933Y-70932643D01*
X90661028Y-70265976D02*
X90422933Y-70932643D01*
X90422933Y-70932643D02*
X90327695Y-71170738D01*
X90327695Y-71170738D02*
X90280076Y-71218357D01*
X90280076Y-71218357D02*
X90184838Y-71265976D01*
X91041981Y-70837404D02*
X91089600Y-70885024D01*
X91089600Y-70885024D02*
X91041981Y-70932643D01*
X91041981Y-70932643D02*
X90994362Y-70885024D01*
X90994362Y-70885024D02*
X91041981Y-70837404D01*
X91041981Y-70837404D02*
X91041981Y-70932643D01*
X91041981Y-70313595D02*
X91089600Y-70361214D01*
X91089600Y-70361214D02*
X91041981Y-70408833D01*
X91041981Y-70408833D02*
X90994362Y-70361214D01*
X90994362Y-70361214D02*
X91041981Y-70313595D01*
X91041981Y-70313595D02*
X91041981Y-70408833D01*
X92280076Y-70932643D02*
X92280076Y-69932643D01*
X92280076Y-69932643D02*
X92518171Y-69932643D01*
X92518171Y-69932643D02*
X92661028Y-69980262D01*
X92661028Y-69980262D02*
X92756266Y-70075500D01*
X92756266Y-70075500D02*
X92803885Y-70170738D01*
X92803885Y-70170738D02*
X92851504Y-70361214D01*
X92851504Y-70361214D02*
X92851504Y-70504071D01*
X92851504Y-70504071D02*
X92803885Y-70694547D01*
X92803885Y-70694547D02*
X92756266Y-70789785D01*
X92756266Y-70789785D02*
X92661028Y-70885024D01*
X92661028Y-70885024D02*
X92518171Y-70932643D01*
X92518171Y-70932643D02*
X92280076Y-70932643D01*
X93422933Y-70932643D02*
X93327695Y-70885024D01*
X93327695Y-70885024D02*
X93280076Y-70837404D01*
X93280076Y-70837404D02*
X93232457Y-70742166D01*
X93232457Y-70742166D02*
X93232457Y-70456452D01*
X93232457Y-70456452D02*
X93280076Y-70361214D01*
X93280076Y-70361214D02*
X93327695Y-70313595D01*
X93327695Y-70313595D02*
X93422933Y-70265976D01*
X93422933Y-70265976D02*
X93565790Y-70265976D01*
X93565790Y-70265976D02*
X93661028Y-70313595D01*
X93661028Y-70313595D02*
X93708647Y-70361214D01*
X93708647Y-70361214D02*
X93756266Y-70456452D01*
X93756266Y-70456452D02*
X93756266Y-70742166D01*
X93756266Y-70742166D02*
X93708647Y-70837404D01*
X93708647Y-70837404D02*
X93661028Y-70885024D01*
X93661028Y-70885024D02*
X93565790Y-70932643D01*
X93565790Y-70932643D02*
X93422933Y-70932643D01*
X94184838Y-70265976D02*
X94184838Y-70932643D01*
X94184838Y-70361214D02*
X94232457Y-70313595D01*
X94232457Y-70313595D02*
X94327695Y-70265976D01*
X94327695Y-70265976D02*
X94470552Y-70265976D01*
X94470552Y-70265976D02*
X94565790Y-70313595D01*
X94565790Y-70313595D02*
X94613409Y-70408833D01*
X94613409Y-70408833D02*
X94613409Y-70932643D01*
X95232457Y-70932643D02*
X95137219Y-70885024D01*
X95137219Y-70885024D02*
X95089600Y-70837404D01*
X95089600Y-70837404D02*
X95041981Y-70742166D01*
X95041981Y-70742166D02*
X95041981Y-70456452D01*
X95041981Y-70456452D02*
X95089600Y-70361214D01*
X95089600Y-70361214D02*
X95137219Y-70313595D01*
X95137219Y-70313595D02*
X95232457Y-70265976D01*
X95232457Y-70265976D02*
X95375314Y-70265976D01*
X95375314Y-70265976D02*
X95470552Y-70313595D01*
X95470552Y-70313595D02*
X95518171Y-70361214D01*
X95518171Y-70361214D02*
X95565790Y-70456452D01*
X95565790Y-70456452D02*
X95565790Y-70742166D01*
X95565790Y-70742166D02*
X95518171Y-70837404D01*
X95518171Y-70837404D02*
X95470552Y-70885024D01*
X95470552Y-70885024D02*
X95375314Y-70932643D01*
X95375314Y-70932643D02*
X95232457Y-70932643D01*
X95899124Y-70265976D02*
X96137219Y-70932643D01*
X96137219Y-70932643D02*
X96375314Y-70265976D01*
X97184838Y-70932643D02*
X97184838Y-70408833D01*
X97184838Y-70408833D02*
X97137219Y-70313595D01*
X97137219Y-70313595D02*
X97041981Y-70265976D01*
X97041981Y-70265976D02*
X96851505Y-70265976D01*
X96851505Y-70265976D02*
X96756267Y-70313595D01*
X97184838Y-70885024D02*
X97089600Y-70932643D01*
X97089600Y-70932643D02*
X96851505Y-70932643D01*
X96851505Y-70932643D02*
X96756267Y-70885024D01*
X96756267Y-70885024D02*
X96708648Y-70789785D01*
X96708648Y-70789785D02*
X96708648Y-70694547D01*
X96708648Y-70694547D02*
X96756267Y-70599309D01*
X96756267Y-70599309D02*
X96851505Y-70551690D01*
X96851505Y-70551690D02*
X97089600Y-70551690D01*
X97089600Y-70551690D02*
X97184838Y-70504071D01*
X97661029Y-70265976D02*
X97661029Y-70932643D01*
X97661029Y-70361214D02*
X97708648Y-70313595D01*
X97708648Y-70313595D02*
X97803886Y-70265976D01*
X97803886Y-70265976D02*
X97946743Y-70265976D01*
X97946743Y-70265976D02*
X98041981Y-70313595D01*
X98041981Y-70313595D02*
X98089600Y-70408833D01*
X98089600Y-70408833D02*
X98089600Y-70932643D01*
X99661029Y-70408833D02*
X99803886Y-70456452D01*
X99803886Y-70456452D02*
X99851505Y-70504071D01*
X99851505Y-70504071D02*
X99899124Y-70599309D01*
X99899124Y-70599309D02*
X99899124Y-70742166D01*
X99899124Y-70742166D02*
X99851505Y-70837404D01*
X99851505Y-70837404D02*
X99803886Y-70885024D01*
X99803886Y-70885024D02*
X99708648Y-70932643D01*
X99708648Y-70932643D02*
X99327696Y-70932643D01*
X99327696Y-70932643D02*
X99327696Y-69932643D01*
X99327696Y-69932643D02*
X99661029Y-69932643D01*
X99661029Y-69932643D02*
X99756267Y-69980262D01*
X99756267Y-69980262D02*
X99803886Y-70027881D01*
X99803886Y-70027881D02*
X99851505Y-70123119D01*
X99851505Y-70123119D02*
X99851505Y-70218357D01*
X99851505Y-70218357D02*
X99803886Y-70313595D01*
X99803886Y-70313595D02*
X99756267Y-70361214D01*
X99756267Y-70361214D02*
X99661029Y-70408833D01*
X99661029Y-70408833D02*
X99327696Y-70408833D01*
X100327696Y-70932643D02*
X100327696Y-70265976D01*
X100327696Y-70456452D02*
X100375315Y-70361214D01*
X100375315Y-70361214D02*
X100422934Y-70313595D01*
X100422934Y-70313595D02*
X100518172Y-70265976D01*
X100518172Y-70265976D02*
X100613410Y-70265976D01*
X101327696Y-70885024D02*
X101232458Y-70932643D01*
X101232458Y-70932643D02*
X101041982Y-70932643D01*
X101041982Y-70932643D02*
X100946744Y-70885024D01*
X100946744Y-70885024D02*
X100899125Y-70789785D01*
X100899125Y-70789785D02*
X100899125Y-70408833D01*
X100899125Y-70408833D02*
X100946744Y-70313595D01*
X100946744Y-70313595D02*
X101041982Y-70265976D01*
X101041982Y-70265976D02*
X101232458Y-70265976D01*
X101232458Y-70265976D02*
X101327696Y-70313595D01*
X101327696Y-70313595D02*
X101375315Y-70408833D01*
X101375315Y-70408833D02*
X101375315Y-70504071D01*
X101375315Y-70504071D02*
X100899125Y-70599309D01*
X101803887Y-70265976D02*
X101803887Y-70932643D01*
X101803887Y-70361214D02*
X101851506Y-70313595D01*
X101851506Y-70313595D02*
X101946744Y-70265976D01*
X101946744Y-70265976D02*
X102089601Y-70265976D01*
X102089601Y-70265976D02*
X102184839Y-70313595D01*
X102184839Y-70313595D02*
X102232458Y-70408833D01*
X102232458Y-70408833D02*
X102232458Y-70932643D01*
X102708649Y-70265976D02*
X102708649Y-70932643D01*
X102708649Y-70361214D02*
X102756268Y-70313595D01*
X102756268Y-70313595D02*
X102851506Y-70265976D01*
X102851506Y-70265976D02*
X102994363Y-70265976D01*
X102994363Y-70265976D02*
X103089601Y-70313595D01*
X103089601Y-70313595D02*
X103137220Y-70408833D01*
X103137220Y-70408833D02*
X103137220Y-70932643D01*
X103518173Y-70265976D02*
X103756268Y-70932643D01*
X103994363Y-70265976D02*
X103756268Y-70932643D01*
X103756268Y-70932643D02*
X103661030Y-71170738D01*
X103661030Y-71170738D02*
X103613411Y-71218357D01*
X103613411Y-71218357D02*
X103518173Y-71265976D01*
X82661027Y-73152531D02*
X82994360Y-74152531D01*
X82994360Y-74152531D02*
X83327693Y-73152531D01*
X84041979Y-74104912D02*
X83946741Y-74152531D01*
X83946741Y-74152531D02*
X83756265Y-74152531D01*
X83756265Y-74152531D02*
X83661027Y-74104912D01*
X83661027Y-74104912D02*
X83613408Y-74009673D01*
X83613408Y-74009673D02*
X83613408Y-73628721D01*
X83613408Y-73628721D02*
X83661027Y-73533483D01*
X83661027Y-73533483D02*
X83756265Y-73485864D01*
X83756265Y-73485864D02*
X83946741Y-73485864D01*
X83946741Y-73485864D02*
X84041979Y-73533483D01*
X84041979Y-73533483D02*
X84089598Y-73628721D01*
X84089598Y-73628721D02*
X84089598Y-73723959D01*
X84089598Y-73723959D02*
X83613408Y-73819197D01*
X84518170Y-74152531D02*
X84518170Y-73485864D01*
X84518170Y-73676340D02*
X84565789Y-73581102D01*
X84565789Y-73581102D02*
X84613408Y-73533483D01*
X84613408Y-73533483D02*
X84708646Y-73485864D01*
X84708646Y-73485864D02*
X84803884Y-73485864D01*
X85089599Y-74104912D02*
X85184837Y-74152531D01*
X85184837Y-74152531D02*
X85375313Y-74152531D01*
X85375313Y-74152531D02*
X85470551Y-74104912D01*
X85470551Y-74104912D02*
X85518170Y-74009673D01*
X85518170Y-74009673D02*
X85518170Y-73962054D01*
X85518170Y-73962054D02*
X85470551Y-73866816D01*
X85470551Y-73866816D02*
X85375313Y-73819197D01*
X85375313Y-73819197D02*
X85232456Y-73819197D01*
X85232456Y-73819197D02*
X85137218Y-73771578D01*
X85137218Y-73771578D02*
X85089599Y-73676340D01*
X85089599Y-73676340D02*
X85089599Y-73628721D01*
X85089599Y-73628721D02*
X85137218Y-73533483D01*
X85137218Y-73533483D02*
X85232456Y-73485864D01*
X85232456Y-73485864D02*
X85375313Y-73485864D01*
X85375313Y-73485864D02*
X85470551Y-73533483D01*
X85946742Y-74152531D02*
X85946742Y-73485864D01*
X85946742Y-73152531D02*
X85899123Y-73200150D01*
X85899123Y-73200150D02*
X85946742Y-73247769D01*
X85946742Y-73247769D02*
X85994361Y-73200150D01*
X85994361Y-73200150D02*
X85946742Y-73152531D01*
X85946742Y-73152531D02*
X85946742Y-73247769D01*
X86565789Y-74152531D02*
X86470551Y-74104912D01*
X86470551Y-74104912D02*
X86422932Y-74057292D01*
X86422932Y-74057292D02*
X86375313Y-73962054D01*
X86375313Y-73962054D02*
X86375313Y-73676340D01*
X86375313Y-73676340D02*
X86422932Y-73581102D01*
X86422932Y-73581102D02*
X86470551Y-73533483D01*
X86470551Y-73533483D02*
X86565789Y-73485864D01*
X86565789Y-73485864D02*
X86708646Y-73485864D01*
X86708646Y-73485864D02*
X86803884Y-73533483D01*
X86803884Y-73533483D02*
X86851503Y-73581102D01*
X86851503Y-73581102D02*
X86899122Y-73676340D01*
X86899122Y-73676340D02*
X86899122Y-73962054D01*
X86899122Y-73962054D02*
X86851503Y-74057292D01*
X86851503Y-74057292D02*
X86803884Y-74104912D01*
X86803884Y-74104912D02*
X86708646Y-74152531D01*
X86708646Y-74152531D02*
X86565789Y-74152531D01*
X87327694Y-73485864D02*
X87327694Y-74152531D01*
X87327694Y-73581102D02*
X87375313Y-73533483D01*
X87375313Y-73533483D02*
X87470551Y-73485864D01*
X87470551Y-73485864D02*
X87613408Y-73485864D01*
X87613408Y-73485864D02*
X87708646Y-73533483D01*
X87708646Y-73533483D02*
X87756265Y-73628721D01*
X87756265Y-73628721D02*
X87756265Y-74152531D01*
X89518170Y-74152531D02*
X88946742Y-74152531D01*
X89232456Y-74152531D02*
X89232456Y-73152531D01*
X89232456Y-73152531D02*
X89137218Y-73295388D01*
X89137218Y-73295388D02*
X89041980Y-73390626D01*
X89041980Y-73390626D02*
X88946742Y-73438245D01*
X89946742Y-74057292D02*
X89994361Y-74104912D01*
X89994361Y-74104912D02*
X89946742Y-74152531D01*
X89946742Y-74152531D02*
X89899123Y-74104912D01*
X89899123Y-74104912D02*
X89946742Y-74057292D01*
X89946742Y-74057292D02*
X89946742Y-74152531D01*
X90613408Y-73152531D02*
X90708646Y-73152531D01*
X90708646Y-73152531D02*
X90803884Y-73200150D01*
X90803884Y-73200150D02*
X90851503Y-73247769D01*
X90851503Y-73247769D02*
X90899122Y-73343007D01*
X90899122Y-73343007D02*
X90946741Y-73533483D01*
X90946741Y-73533483D02*
X90946741Y-73771578D01*
X90946741Y-73771578D02*
X90899122Y-73962054D01*
X90899122Y-73962054D02*
X90851503Y-74057292D01*
X90851503Y-74057292D02*
X90803884Y-74104912D01*
X90803884Y-74104912D02*
X90708646Y-74152531D01*
X90708646Y-74152531D02*
X90613408Y-74152531D01*
X90613408Y-74152531D02*
X90518170Y-74104912D01*
X90518170Y-74104912D02*
X90470551Y-74057292D01*
X90470551Y-74057292D02*
X90422932Y-73962054D01*
X90422932Y-73962054D02*
X90375313Y-73771578D01*
X90375313Y-73771578D02*
X90375313Y-73533483D01*
X90375313Y-73533483D02*
X90422932Y-73343007D01*
X90422932Y-73343007D02*
X90470551Y-73247769D01*
X90470551Y-73247769D02*
X90518170Y-73200150D01*
X90518170Y-73200150D02*
X90613408Y-73152531D01*
X82994360Y-76372419D02*
X83089598Y-76372419D01*
X83089598Y-76372419D02*
X83184836Y-76420038D01*
X83184836Y-76420038D02*
X83232455Y-76467657D01*
X83232455Y-76467657D02*
X83280074Y-76562895D01*
X83280074Y-76562895D02*
X83327693Y-76753371D01*
X83327693Y-76753371D02*
X83327693Y-76991466D01*
X83327693Y-76991466D02*
X83280074Y-77181942D01*
X83280074Y-77181942D02*
X83232455Y-77277180D01*
X83232455Y-77277180D02*
X83184836Y-77324800D01*
X83184836Y-77324800D02*
X83089598Y-77372419D01*
X83089598Y-77372419D02*
X82994360Y-77372419D01*
X82994360Y-77372419D02*
X82899122Y-77324800D01*
X82899122Y-77324800D02*
X82851503Y-77277180D01*
X82851503Y-77277180D02*
X82803884Y-77181942D01*
X82803884Y-77181942D02*
X82756265Y-76991466D01*
X82756265Y-76991466D02*
X82756265Y-76753371D01*
X82756265Y-76753371D02*
X82803884Y-76562895D01*
X82803884Y-76562895D02*
X82851503Y-76467657D01*
X82851503Y-76467657D02*
X82899122Y-76420038D01*
X82899122Y-76420038D02*
X82994360Y-76372419D01*
X84232455Y-76372419D02*
X83756265Y-76372419D01*
X83756265Y-76372419D02*
X83708646Y-76848609D01*
X83708646Y-76848609D02*
X83756265Y-76800990D01*
X83756265Y-76800990D02*
X83851503Y-76753371D01*
X83851503Y-76753371D02*
X84089598Y-76753371D01*
X84089598Y-76753371D02*
X84184836Y-76800990D01*
X84184836Y-76800990D02*
X84232455Y-76848609D01*
X84232455Y-76848609D02*
X84280074Y-76943847D01*
X84280074Y-76943847D02*
X84280074Y-77181942D01*
X84280074Y-77181942D02*
X84232455Y-77277180D01*
X84232455Y-77277180D02*
X84184836Y-77324800D01*
X84184836Y-77324800D02*
X84089598Y-77372419D01*
X84089598Y-77372419D02*
X83851503Y-77372419D01*
X83851503Y-77372419D02*
X83756265Y-77324800D01*
X83756265Y-77324800D02*
X83708646Y-77277180D01*
X85422931Y-76324800D02*
X84565789Y-77610514D01*
X85708646Y-76467657D02*
X85756265Y-76420038D01*
X85756265Y-76420038D02*
X85851503Y-76372419D01*
X85851503Y-76372419D02*
X86089598Y-76372419D01*
X86089598Y-76372419D02*
X86184836Y-76420038D01*
X86184836Y-76420038D02*
X86232455Y-76467657D01*
X86232455Y-76467657D02*
X86280074Y-76562895D01*
X86280074Y-76562895D02*
X86280074Y-76658133D01*
X86280074Y-76658133D02*
X86232455Y-76800990D01*
X86232455Y-76800990D02*
X85661027Y-77372419D01*
X85661027Y-77372419D02*
X86280074Y-77372419D01*
X86756265Y-77372419D02*
X86946741Y-77372419D01*
X86946741Y-77372419D02*
X87041979Y-77324800D01*
X87041979Y-77324800D02*
X87089598Y-77277180D01*
X87089598Y-77277180D02*
X87184836Y-77134323D01*
X87184836Y-77134323D02*
X87232455Y-76943847D01*
X87232455Y-76943847D02*
X87232455Y-76562895D01*
X87232455Y-76562895D02*
X87184836Y-76467657D01*
X87184836Y-76467657D02*
X87137217Y-76420038D01*
X87137217Y-76420038D02*
X87041979Y-76372419D01*
X87041979Y-76372419D02*
X86851503Y-76372419D01*
X86851503Y-76372419D02*
X86756265Y-76420038D01*
X86756265Y-76420038D02*
X86708646Y-76467657D01*
X86708646Y-76467657D02*
X86661027Y-76562895D01*
X86661027Y-76562895D02*
X86661027Y-76800990D01*
X86661027Y-76800990D02*
X86708646Y-76896228D01*
X86708646Y-76896228D02*
X86756265Y-76943847D01*
X86756265Y-76943847D02*
X86851503Y-76991466D01*
X86851503Y-76991466D02*
X87041979Y-76991466D01*
X87041979Y-76991466D02*
X87137217Y-76943847D01*
X87137217Y-76943847D02*
X87184836Y-76896228D01*
X87184836Y-76896228D02*
X87232455Y-76800990D01*
X88375312Y-76324800D02*
X87518170Y-77610514D01*
X88661027Y-76467657D02*
X88708646Y-76420038D01*
X88708646Y-76420038D02*
X88803884Y-76372419D01*
X88803884Y-76372419D02*
X89041979Y-76372419D01*
X89041979Y-76372419D02*
X89137217Y-76420038D01*
X89137217Y-76420038D02*
X89184836Y-76467657D01*
X89184836Y-76467657D02*
X89232455Y-76562895D01*
X89232455Y-76562895D02*
X89232455Y-76658133D01*
X89232455Y-76658133D02*
X89184836Y-76800990D01*
X89184836Y-76800990D02*
X88613408Y-77372419D01*
X88613408Y-77372419D02*
X89232455Y-77372419D01*
X89851503Y-76372419D02*
X89946741Y-76372419D01*
X89946741Y-76372419D02*
X90041979Y-76420038D01*
X90041979Y-76420038D02*
X90089598Y-76467657D01*
X90089598Y-76467657D02*
X90137217Y-76562895D01*
X90137217Y-76562895D02*
X90184836Y-76753371D01*
X90184836Y-76753371D02*
X90184836Y-76991466D01*
X90184836Y-76991466D02*
X90137217Y-77181942D01*
X90137217Y-77181942D02*
X90089598Y-77277180D01*
X90089598Y-77277180D02*
X90041979Y-77324800D01*
X90041979Y-77324800D02*
X89946741Y-77372419D01*
X89946741Y-77372419D02*
X89851503Y-77372419D01*
X89851503Y-77372419D02*
X89756265Y-77324800D01*
X89756265Y-77324800D02*
X89708646Y-77277180D01*
X89708646Y-77277180D02*
X89661027Y-77181942D01*
X89661027Y-77181942D02*
X89613408Y-76991466D01*
X89613408Y-76991466D02*
X89613408Y-76753371D01*
X89613408Y-76753371D02*
X89661027Y-76562895D01*
X89661027Y-76562895D02*
X89708646Y-76467657D01*
X89708646Y-76467657D02*
X89756265Y-76420038D01*
X89756265Y-76420038D02*
X89851503Y-76372419D01*
X90565789Y-76467657D02*
X90613408Y-76420038D01*
X90613408Y-76420038D02*
X90708646Y-76372419D01*
X90708646Y-76372419D02*
X90946741Y-76372419D01*
X90946741Y-76372419D02*
X91041979Y-76420038D01*
X91041979Y-76420038D02*
X91089598Y-76467657D01*
X91089598Y-76467657D02*
X91137217Y-76562895D01*
X91137217Y-76562895D02*
X91137217Y-76658133D01*
X91137217Y-76658133D02*
X91089598Y-76800990D01*
X91089598Y-76800990D02*
X90518170Y-77372419D01*
X90518170Y-77372419D02*
X91137217Y-77372419D01*
X91994360Y-76372419D02*
X91803884Y-76372419D01*
X91803884Y-76372419D02*
X91708646Y-76420038D01*
X91708646Y-76420038D02*
X91661027Y-76467657D01*
X91661027Y-76467657D02*
X91565789Y-76610514D01*
X91565789Y-76610514D02*
X91518170Y-76800990D01*
X91518170Y-76800990D02*
X91518170Y-77181942D01*
X91518170Y-77181942D02*
X91565789Y-77277180D01*
X91565789Y-77277180D02*
X91613408Y-77324800D01*
X91613408Y-77324800D02*
X91708646Y-77372419D01*
X91708646Y-77372419D02*
X91899122Y-77372419D01*
X91899122Y-77372419D02*
X91994360Y-77324800D01*
X91994360Y-77324800D02*
X92041979Y-77277180D01*
X92041979Y-77277180D02*
X92089598Y-77181942D01*
X92089598Y-77181942D02*
X92089598Y-76943847D01*
X92089598Y-76943847D02*
X92041979Y-76848609D01*
X92041979Y-76848609D02*
X91994360Y-76800990D01*
X91994360Y-76800990D02*
X91899122Y-76753371D01*
X91899122Y-76753371D02*
X91708646Y-76753371D01*
X91708646Y-76753371D02*
X91613408Y-76800990D01*
X91613408Y-76800990D02*
X91565789Y-76848609D01*
X91565789Y-76848609D02*
X91518170Y-76943847D01*
X109327693Y-34872419D02*
X108756265Y-34872419D01*
X109041979Y-34872419D02*
X109041979Y-33872419D01*
X109041979Y-33872419D02*
X108946741Y-34015276D01*
X108946741Y-34015276D02*
X108851503Y-34110514D01*
X108851503Y-34110514D02*
X108756265Y-34158133D01*
X109756265Y-34491466D02*
X110518170Y-34491466D01*
X110994360Y-34205752D02*
X111756265Y-34491466D01*
X111756265Y-34491466D02*
X110994360Y-34777180D01*
D11*
X171916667Y-101907200D02*
X172059524Y-101954819D01*
X172059524Y-101954819D02*
X172297619Y-101954819D01*
X172297619Y-101954819D02*
X172392857Y-101907200D01*
X172392857Y-101907200D02*
X172440476Y-101859580D01*
X172440476Y-101859580D02*
X172488095Y-101764342D01*
X172488095Y-101764342D02*
X172488095Y-101669104D01*
X172488095Y-101669104D02*
X172440476Y-101573866D01*
X172440476Y-101573866D02*
X172392857Y-101526247D01*
X172392857Y-101526247D02*
X172297619Y-101478628D01*
X172297619Y-101478628D02*
X172107143Y-101431009D01*
X172107143Y-101431009D02*
X172011905Y-101383390D01*
X172011905Y-101383390D02*
X171964286Y-101335771D01*
X171964286Y-101335771D02*
X171916667Y-101240533D01*
X171916667Y-101240533D02*
X171916667Y-101145295D01*
X171916667Y-101145295D02*
X171964286Y-101050057D01*
X171964286Y-101050057D02*
X172011905Y-101002438D01*
X172011905Y-101002438D02*
X172107143Y-100954819D01*
X172107143Y-100954819D02*
X172345238Y-100954819D01*
X172345238Y-100954819D02*
X172488095Y-101002438D01*
X172821429Y-100954819D02*
X173059524Y-101954819D01*
X173059524Y-101954819D02*
X173250000Y-101240533D01*
X173250000Y-101240533D02*
X173440476Y-101954819D01*
X173440476Y-101954819D02*
X173678572Y-100954819D01*
X174583333Y-101954819D02*
X174011905Y-101954819D01*
X174297619Y-101954819D02*
X174297619Y-100954819D01*
X174297619Y-100954819D02*
X174202381Y-101097676D01*
X174202381Y-101097676D02*
X174107143Y-101192914D01*
X174107143Y-101192914D02*
X174011905Y-101240533D01*
X186416667Y-101907200D02*
X186559524Y-101954819D01*
X186559524Y-101954819D02*
X186797619Y-101954819D01*
X186797619Y-101954819D02*
X186892857Y-101907200D01*
X186892857Y-101907200D02*
X186940476Y-101859580D01*
X186940476Y-101859580D02*
X186988095Y-101764342D01*
X186988095Y-101764342D02*
X186988095Y-101669104D01*
X186988095Y-101669104D02*
X186940476Y-101573866D01*
X186940476Y-101573866D02*
X186892857Y-101526247D01*
X186892857Y-101526247D02*
X186797619Y-101478628D01*
X186797619Y-101478628D02*
X186607143Y-101431009D01*
X186607143Y-101431009D02*
X186511905Y-101383390D01*
X186511905Y-101383390D02*
X186464286Y-101335771D01*
X186464286Y-101335771D02*
X186416667Y-101240533D01*
X186416667Y-101240533D02*
X186416667Y-101145295D01*
X186416667Y-101145295D02*
X186464286Y-101050057D01*
X186464286Y-101050057D02*
X186511905Y-101002438D01*
X186511905Y-101002438D02*
X186607143Y-100954819D01*
X186607143Y-100954819D02*
X186845238Y-100954819D01*
X186845238Y-100954819D02*
X186988095Y-101002438D01*
X187321429Y-100954819D02*
X187559524Y-101954819D01*
X187559524Y-101954819D02*
X187750000Y-101240533D01*
X187750000Y-101240533D02*
X187940476Y-101954819D01*
X187940476Y-101954819D02*
X188178572Y-100954819D01*
X188511905Y-101050057D02*
X188559524Y-101002438D01*
X188559524Y-101002438D02*
X188654762Y-100954819D01*
X188654762Y-100954819D02*
X188892857Y-100954819D01*
X188892857Y-100954819D02*
X188988095Y-101002438D01*
X188988095Y-101002438D02*
X189035714Y-101050057D01*
X189035714Y-101050057D02*
X189083333Y-101145295D01*
X189083333Y-101145295D02*
X189083333Y-101240533D01*
X189083333Y-101240533D02*
X189035714Y-101383390D01*
X189035714Y-101383390D02*
X188464286Y-101954819D01*
X188464286Y-101954819D02*
X189083333Y-101954819D01*
X110024819Y-96333333D02*
X110739104Y-96333333D01*
X110739104Y-96333333D02*
X110881961Y-96380952D01*
X110881961Y-96380952D02*
X110977200Y-96476190D01*
X110977200Y-96476190D02*
X111024819Y-96619047D01*
X111024819Y-96619047D02*
X111024819Y-96714285D01*
X110120057Y-95904761D02*
X110072438Y-95857142D01*
X110072438Y-95857142D02*
X110024819Y-95761904D01*
X110024819Y-95761904D02*
X110024819Y-95523809D01*
X110024819Y-95523809D02*
X110072438Y-95428571D01*
X110072438Y-95428571D02*
X110120057Y-95380952D01*
X110120057Y-95380952D02*
X110215295Y-95333333D01*
X110215295Y-95333333D02*
X110310533Y-95333333D01*
X110310533Y-95333333D02*
X110453390Y-95380952D01*
X110453390Y-95380952D02*
X111024819Y-95952380D01*
X111024819Y-95952380D02*
X111024819Y-95333333D01*
X196833333Y-75859580D02*
X196785714Y-75907200D01*
X196785714Y-75907200D02*
X196642857Y-75954819D01*
X196642857Y-75954819D02*
X196547619Y-75954819D01*
X196547619Y-75954819D02*
X196404762Y-75907200D01*
X196404762Y-75907200D02*
X196309524Y-75811961D01*
X196309524Y-75811961D02*
X196261905Y-75716723D01*
X196261905Y-75716723D02*
X196214286Y-75526247D01*
X196214286Y-75526247D02*
X196214286Y-75383390D01*
X196214286Y-75383390D02*
X196261905Y-75192914D01*
X196261905Y-75192914D02*
X196309524Y-75097676D01*
X196309524Y-75097676D02*
X196404762Y-75002438D01*
X196404762Y-75002438D02*
X196547619Y-74954819D01*
X196547619Y-74954819D02*
X196642857Y-74954819D01*
X196642857Y-74954819D02*
X196785714Y-75002438D01*
X196785714Y-75002438D02*
X196833333Y-75050057D01*
X197690476Y-75288152D02*
X197690476Y-75954819D01*
X197452381Y-74907200D02*
X197214286Y-75621485D01*
X197214286Y-75621485D02*
X197833333Y-75621485D01*
X189324819Y-50166666D02*
X188848628Y-50499999D01*
X189324819Y-50738094D02*
X188324819Y-50738094D01*
X188324819Y-50738094D02*
X188324819Y-50357142D01*
X188324819Y-50357142D02*
X188372438Y-50261904D01*
X188372438Y-50261904D02*
X188420057Y-50214285D01*
X188420057Y-50214285D02*
X188515295Y-50166666D01*
X188515295Y-50166666D02*
X188658152Y-50166666D01*
X188658152Y-50166666D02*
X188753390Y-50214285D01*
X188753390Y-50214285D02*
X188801009Y-50261904D01*
X188801009Y-50261904D02*
X188848628Y-50357142D01*
X188848628Y-50357142D02*
X188848628Y-50738094D01*
X188658152Y-49309523D02*
X189324819Y-49309523D01*
X188277200Y-49547618D02*
X188991485Y-49785713D01*
X188991485Y-49785713D02*
X188991485Y-49166666D01*
X194584819Y-49246666D02*
X194108628Y-49579999D01*
X194584819Y-49818094D02*
X193584819Y-49818094D01*
X193584819Y-49818094D02*
X193584819Y-49437142D01*
X193584819Y-49437142D02*
X193632438Y-49341904D01*
X193632438Y-49341904D02*
X193680057Y-49294285D01*
X193680057Y-49294285D02*
X193775295Y-49246666D01*
X193775295Y-49246666D02*
X193918152Y-49246666D01*
X193918152Y-49246666D02*
X194013390Y-49294285D01*
X194013390Y-49294285D02*
X194061009Y-49341904D01*
X194061009Y-49341904D02*
X194108628Y-49437142D01*
X194108628Y-49437142D02*
X194108628Y-49818094D01*
X193680057Y-48865713D02*
X193632438Y-48818094D01*
X193632438Y-48818094D02*
X193584819Y-48722856D01*
X193584819Y-48722856D02*
X193584819Y-48484761D01*
X193584819Y-48484761D02*
X193632438Y-48389523D01*
X193632438Y-48389523D02*
X193680057Y-48341904D01*
X193680057Y-48341904D02*
X193775295Y-48294285D01*
X193775295Y-48294285D02*
X193870533Y-48294285D01*
X193870533Y-48294285D02*
X194013390Y-48341904D01*
X194013390Y-48341904D02*
X194584819Y-48913332D01*
X194584819Y-48913332D02*
X194584819Y-48294285D01*
X186364761Y-31240057D02*
X186269523Y-31192438D01*
X186269523Y-31192438D02*
X186174285Y-31097200D01*
X186174285Y-31097200D02*
X186031428Y-30954342D01*
X186031428Y-30954342D02*
X185936190Y-30906723D01*
X185936190Y-30906723D02*
X185840952Y-30906723D01*
X185888571Y-31144819D02*
X185793333Y-31097200D01*
X185793333Y-31097200D02*
X185698095Y-31001961D01*
X185698095Y-31001961D02*
X185650476Y-30811485D01*
X185650476Y-30811485D02*
X185650476Y-30478152D01*
X185650476Y-30478152D02*
X185698095Y-30287676D01*
X185698095Y-30287676D02*
X185793333Y-30192438D01*
X185793333Y-30192438D02*
X185888571Y-30144819D01*
X185888571Y-30144819D02*
X186079047Y-30144819D01*
X186079047Y-30144819D02*
X186174285Y-30192438D01*
X186174285Y-30192438D02*
X186269523Y-30287676D01*
X186269523Y-30287676D02*
X186317142Y-30478152D01*
X186317142Y-30478152D02*
X186317142Y-30811485D01*
X186317142Y-30811485D02*
X186269523Y-31001961D01*
X186269523Y-31001961D02*
X186174285Y-31097200D01*
X186174285Y-31097200D02*
X186079047Y-31144819D01*
X186079047Y-31144819D02*
X185888571Y-31144819D01*
X187269523Y-31144819D02*
X186698095Y-31144819D01*
X186983809Y-31144819D02*
X186983809Y-30144819D01*
X186983809Y-30144819D02*
X186888571Y-30287676D01*
X186888571Y-30287676D02*
X186793333Y-30382914D01*
X186793333Y-30382914D02*
X186698095Y-30430533D01*
X181904761Y-59454819D02*
X181571428Y-58978628D01*
X181333333Y-59454819D02*
X181333333Y-58454819D01*
X181333333Y-58454819D02*
X181714285Y-58454819D01*
X181714285Y-58454819D02*
X181809523Y-58502438D01*
X181809523Y-58502438D02*
X181857142Y-58550057D01*
X181857142Y-58550057D02*
X181904761Y-58645295D01*
X181904761Y-58645295D02*
X181904761Y-58788152D01*
X181904761Y-58788152D02*
X181857142Y-58883390D01*
X181857142Y-58883390D02*
X181809523Y-58931009D01*
X181809523Y-58931009D02*
X181714285Y-58978628D01*
X181714285Y-58978628D02*
X181333333Y-58978628D01*
X182190476Y-58454819D02*
X182523809Y-59454819D01*
X182523809Y-59454819D02*
X182857142Y-58454819D01*
X183714285Y-59454819D02*
X183142857Y-59454819D01*
X183428571Y-59454819D02*
X183428571Y-58454819D01*
X183428571Y-58454819D02*
X183333333Y-58597676D01*
X183333333Y-58597676D02*
X183238095Y-58692914D01*
X183238095Y-58692914D02*
X183142857Y-58740533D01*
X195857142Y-34074819D02*
X195380952Y-34074819D01*
X195380952Y-34074819D02*
X195380952Y-33074819D01*
X196142857Y-34027200D02*
X196285714Y-34074819D01*
X196285714Y-34074819D02*
X196523809Y-34074819D01*
X196523809Y-34074819D02*
X196619047Y-34027200D01*
X196619047Y-34027200D02*
X196666666Y-33979580D01*
X196666666Y-33979580D02*
X196714285Y-33884342D01*
X196714285Y-33884342D02*
X196714285Y-33789104D01*
X196714285Y-33789104D02*
X196666666Y-33693866D01*
X196666666Y-33693866D02*
X196619047Y-33646247D01*
X196619047Y-33646247D02*
X196523809Y-33598628D01*
X196523809Y-33598628D02*
X196333333Y-33551009D01*
X196333333Y-33551009D02*
X196238095Y-33503390D01*
X196238095Y-33503390D02*
X196190476Y-33455771D01*
X196190476Y-33455771D02*
X196142857Y-33360533D01*
X196142857Y-33360533D02*
X196142857Y-33265295D01*
X196142857Y-33265295D02*
X196190476Y-33170057D01*
X196190476Y-33170057D02*
X196238095Y-33122438D01*
X196238095Y-33122438D02*
X196333333Y-33074819D01*
X196333333Y-33074819D02*
X196571428Y-33074819D01*
X196571428Y-33074819D02*
X196714285Y-33122438D01*
X197666666Y-34074819D02*
X197095238Y-34074819D01*
X197380952Y-34074819D02*
X197380952Y-33074819D01*
X197380952Y-33074819D02*
X197285714Y-33217676D01*
X197285714Y-33217676D02*
X197190476Y-33312914D01*
X197190476Y-33312914D02*
X197095238Y-33360533D01*
X184333333Y-75859580D02*
X184285714Y-75907200D01*
X184285714Y-75907200D02*
X184142857Y-75954819D01*
X184142857Y-75954819D02*
X184047619Y-75954819D01*
X184047619Y-75954819D02*
X183904762Y-75907200D01*
X183904762Y-75907200D02*
X183809524Y-75811961D01*
X183809524Y-75811961D02*
X183761905Y-75716723D01*
X183761905Y-75716723D02*
X183714286Y-75526247D01*
X183714286Y-75526247D02*
X183714286Y-75383390D01*
X183714286Y-75383390D02*
X183761905Y-75192914D01*
X183761905Y-75192914D02*
X183809524Y-75097676D01*
X183809524Y-75097676D02*
X183904762Y-75002438D01*
X183904762Y-75002438D02*
X184047619Y-74954819D01*
X184047619Y-74954819D02*
X184142857Y-74954819D01*
X184142857Y-74954819D02*
X184285714Y-75002438D01*
X184285714Y-75002438D02*
X184333333Y-75050057D01*
X185238095Y-74954819D02*
X184761905Y-74954819D01*
X184761905Y-74954819D02*
X184714286Y-75431009D01*
X184714286Y-75431009D02*
X184761905Y-75383390D01*
X184761905Y-75383390D02*
X184857143Y-75335771D01*
X184857143Y-75335771D02*
X185095238Y-75335771D01*
X185095238Y-75335771D02*
X185190476Y-75383390D01*
X185190476Y-75383390D02*
X185238095Y-75431009D01*
X185238095Y-75431009D02*
X185285714Y-75526247D01*
X185285714Y-75526247D02*
X185285714Y-75764342D01*
X185285714Y-75764342D02*
X185238095Y-75859580D01*
X185238095Y-75859580D02*
X185190476Y-75907200D01*
X185190476Y-75907200D02*
X185095238Y-75954819D01*
X185095238Y-75954819D02*
X184857143Y-75954819D01*
X184857143Y-75954819D02*
X184761905Y-75907200D01*
X184761905Y-75907200D02*
X184714286Y-75859580D01*
X204833333Y-81084819D02*
X204500000Y-80608628D01*
X204261905Y-81084819D02*
X204261905Y-80084819D01*
X204261905Y-80084819D02*
X204642857Y-80084819D01*
X204642857Y-80084819D02*
X204738095Y-80132438D01*
X204738095Y-80132438D02*
X204785714Y-80180057D01*
X204785714Y-80180057D02*
X204833333Y-80275295D01*
X204833333Y-80275295D02*
X204833333Y-80418152D01*
X204833333Y-80418152D02*
X204785714Y-80513390D01*
X204785714Y-80513390D02*
X204738095Y-80561009D01*
X204738095Y-80561009D02*
X204642857Y-80608628D01*
X204642857Y-80608628D02*
X204261905Y-80608628D01*
X205738095Y-80084819D02*
X205261905Y-80084819D01*
X205261905Y-80084819D02*
X205214286Y-80561009D01*
X205214286Y-80561009D02*
X205261905Y-80513390D01*
X205261905Y-80513390D02*
X205357143Y-80465771D01*
X205357143Y-80465771D02*
X205595238Y-80465771D01*
X205595238Y-80465771D02*
X205690476Y-80513390D01*
X205690476Y-80513390D02*
X205738095Y-80561009D01*
X205738095Y-80561009D02*
X205785714Y-80656247D01*
X205785714Y-80656247D02*
X205785714Y-80894342D01*
X205785714Y-80894342D02*
X205738095Y-80989580D01*
X205738095Y-80989580D02*
X205690476Y-81037200D01*
X205690476Y-81037200D02*
X205595238Y-81084819D01*
X205595238Y-81084819D02*
X205357143Y-81084819D01*
X205357143Y-81084819D02*
X205261905Y-81037200D01*
X205261905Y-81037200D02*
X205214286Y-80989580D01*
X194584819Y-63246666D02*
X194108628Y-63579999D01*
X194584819Y-63818094D02*
X193584819Y-63818094D01*
X193584819Y-63818094D02*
X193584819Y-63437142D01*
X193584819Y-63437142D02*
X193632438Y-63341904D01*
X193632438Y-63341904D02*
X193680057Y-63294285D01*
X193680057Y-63294285D02*
X193775295Y-63246666D01*
X193775295Y-63246666D02*
X193918152Y-63246666D01*
X193918152Y-63246666D02*
X194013390Y-63294285D01*
X194013390Y-63294285D02*
X194061009Y-63341904D01*
X194061009Y-63341904D02*
X194108628Y-63437142D01*
X194108628Y-63437142D02*
X194108628Y-63818094D01*
X193584819Y-62913332D02*
X193584819Y-62294285D01*
X193584819Y-62294285D02*
X193965771Y-62627618D01*
X193965771Y-62627618D02*
X193965771Y-62484761D01*
X193965771Y-62484761D02*
X194013390Y-62389523D01*
X194013390Y-62389523D02*
X194061009Y-62341904D01*
X194061009Y-62341904D02*
X194156247Y-62294285D01*
X194156247Y-62294285D02*
X194394342Y-62294285D01*
X194394342Y-62294285D02*
X194489580Y-62341904D01*
X194489580Y-62341904D02*
X194537200Y-62389523D01*
X194537200Y-62389523D02*
X194584819Y-62484761D01*
X194584819Y-62484761D02*
X194584819Y-62770475D01*
X194584819Y-62770475D02*
X194537200Y-62865713D01*
X194537200Y-62865713D02*
X194489580Y-62913332D01*
X79819580Y-36166666D02*
X79867200Y-36214285D01*
X79867200Y-36214285D02*
X79914819Y-36357142D01*
X79914819Y-36357142D02*
X79914819Y-36452380D01*
X79914819Y-36452380D02*
X79867200Y-36595237D01*
X79867200Y-36595237D02*
X79771961Y-36690475D01*
X79771961Y-36690475D02*
X79676723Y-36738094D01*
X79676723Y-36738094D02*
X79486247Y-36785713D01*
X79486247Y-36785713D02*
X79343390Y-36785713D01*
X79343390Y-36785713D02*
X79152914Y-36738094D01*
X79152914Y-36738094D02*
X79057676Y-36690475D01*
X79057676Y-36690475D02*
X78962438Y-36595237D01*
X78962438Y-36595237D02*
X78914819Y-36452380D01*
X78914819Y-36452380D02*
X78914819Y-36357142D01*
X78914819Y-36357142D02*
X78962438Y-36214285D01*
X78962438Y-36214285D02*
X79010057Y-36166666D01*
X79343390Y-35595237D02*
X79295771Y-35690475D01*
X79295771Y-35690475D02*
X79248152Y-35738094D01*
X79248152Y-35738094D02*
X79152914Y-35785713D01*
X79152914Y-35785713D02*
X79105295Y-35785713D01*
X79105295Y-35785713D02*
X79010057Y-35738094D01*
X79010057Y-35738094D02*
X78962438Y-35690475D01*
X78962438Y-35690475D02*
X78914819Y-35595237D01*
X78914819Y-35595237D02*
X78914819Y-35404761D01*
X78914819Y-35404761D02*
X78962438Y-35309523D01*
X78962438Y-35309523D02*
X79010057Y-35261904D01*
X79010057Y-35261904D02*
X79105295Y-35214285D01*
X79105295Y-35214285D02*
X79152914Y-35214285D01*
X79152914Y-35214285D02*
X79248152Y-35261904D01*
X79248152Y-35261904D02*
X79295771Y-35309523D01*
X79295771Y-35309523D02*
X79343390Y-35404761D01*
X79343390Y-35404761D02*
X79343390Y-35595237D01*
X79343390Y-35595237D02*
X79391009Y-35690475D01*
X79391009Y-35690475D02*
X79438628Y-35738094D01*
X79438628Y-35738094D02*
X79533866Y-35785713D01*
X79533866Y-35785713D02*
X79724342Y-35785713D01*
X79724342Y-35785713D02*
X79819580Y-35738094D01*
X79819580Y-35738094D02*
X79867200Y-35690475D01*
X79867200Y-35690475D02*
X79914819Y-35595237D01*
X79914819Y-35595237D02*
X79914819Y-35404761D01*
X79914819Y-35404761D02*
X79867200Y-35309523D01*
X79867200Y-35309523D02*
X79819580Y-35261904D01*
X79819580Y-35261904D02*
X79724342Y-35214285D01*
X79724342Y-35214285D02*
X79533866Y-35214285D01*
X79533866Y-35214285D02*
X79438628Y-35261904D01*
X79438628Y-35261904D02*
X79391009Y-35309523D01*
X79391009Y-35309523D02*
X79343390Y-35404761D01*
X133359580Y-38166666D02*
X133407200Y-38214285D01*
X133407200Y-38214285D02*
X133454819Y-38357142D01*
X133454819Y-38357142D02*
X133454819Y-38452380D01*
X133454819Y-38452380D02*
X133407200Y-38595237D01*
X133407200Y-38595237D02*
X133311961Y-38690475D01*
X133311961Y-38690475D02*
X133216723Y-38738094D01*
X133216723Y-38738094D02*
X133026247Y-38785713D01*
X133026247Y-38785713D02*
X132883390Y-38785713D01*
X132883390Y-38785713D02*
X132692914Y-38738094D01*
X132692914Y-38738094D02*
X132597676Y-38690475D01*
X132597676Y-38690475D02*
X132502438Y-38595237D01*
X132502438Y-38595237D02*
X132454819Y-38452380D01*
X132454819Y-38452380D02*
X132454819Y-38357142D01*
X132454819Y-38357142D02*
X132502438Y-38214285D01*
X132502438Y-38214285D02*
X132550057Y-38166666D01*
X132550057Y-37785713D02*
X132502438Y-37738094D01*
X132502438Y-37738094D02*
X132454819Y-37642856D01*
X132454819Y-37642856D02*
X132454819Y-37404761D01*
X132454819Y-37404761D02*
X132502438Y-37309523D01*
X132502438Y-37309523D02*
X132550057Y-37261904D01*
X132550057Y-37261904D02*
X132645295Y-37214285D01*
X132645295Y-37214285D02*
X132740533Y-37214285D01*
X132740533Y-37214285D02*
X132883390Y-37261904D01*
X132883390Y-37261904D02*
X133454819Y-37833332D01*
X133454819Y-37833332D02*
X133454819Y-37214285D01*
X102764819Y-35833333D02*
X103479104Y-35833333D01*
X103479104Y-35833333D02*
X103621961Y-35880952D01*
X103621961Y-35880952D02*
X103717200Y-35976190D01*
X103717200Y-35976190D02*
X103764819Y-36119047D01*
X103764819Y-36119047D02*
X103764819Y-36214285D01*
X102764819Y-34880952D02*
X102764819Y-35357142D01*
X102764819Y-35357142D02*
X103241009Y-35404761D01*
X103241009Y-35404761D02*
X103193390Y-35357142D01*
X103193390Y-35357142D02*
X103145771Y-35261904D01*
X103145771Y-35261904D02*
X103145771Y-35023809D01*
X103145771Y-35023809D02*
X103193390Y-34928571D01*
X103193390Y-34928571D02*
X103241009Y-34880952D01*
X103241009Y-34880952D02*
X103336247Y-34833333D01*
X103336247Y-34833333D02*
X103574342Y-34833333D01*
X103574342Y-34833333D02*
X103669580Y-34880952D01*
X103669580Y-34880952D02*
X103717200Y-34928571D01*
X103717200Y-34928571D02*
X103764819Y-35023809D01*
X103764819Y-35023809D02*
X103764819Y-35261904D01*
X103764819Y-35261904D02*
X103717200Y-35357142D01*
X103717200Y-35357142D02*
X103669580Y-35404761D01*
X198524819Y-96833333D02*
X199239104Y-96833333D01*
X199239104Y-96833333D02*
X199381961Y-96880952D01*
X199381961Y-96880952D02*
X199477200Y-96976190D01*
X199477200Y-96976190D02*
X199524819Y-97119047D01*
X199524819Y-97119047D02*
X199524819Y-97214285D01*
X198524819Y-96452380D02*
X198524819Y-95833333D01*
X198524819Y-95833333D02*
X198905771Y-96166666D01*
X198905771Y-96166666D02*
X198905771Y-96023809D01*
X198905771Y-96023809D02*
X198953390Y-95928571D01*
X198953390Y-95928571D02*
X199001009Y-95880952D01*
X199001009Y-95880952D02*
X199096247Y-95833333D01*
X199096247Y-95833333D02*
X199334342Y-95833333D01*
X199334342Y-95833333D02*
X199429580Y-95880952D01*
X199429580Y-95880952D02*
X199477200Y-95928571D01*
X199477200Y-95928571D02*
X199524819Y-96023809D01*
X199524819Y-96023809D02*
X199524819Y-96309523D01*
X199524819Y-96309523D02*
X199477200Y-96404761D01*
X199477200Y-96404761D02*
X199429580Y-96452380D01*
X167784819Y-47571904D02*
X168594342Y-47571904D01*
X168594342Y-47571904D02*
X168689580Y-47524285D01*
X168689580Y-47524285D02*
X168737200Y-47476666D01*
X168737200Y-47476666D02*
X168784819Y-47381428D01*
X168784819Y-47381428D02*
X168784819Y-47190952D01*
X168784819Y-47190952D02*
X168737200Y-47095714D01*
X168737200Y-47095714D02*
X168689580Y-47048095D01*
X168689580Y-47048095D02*
X168594342Y-47000476D01*
X168594342Y-47000476D02*
X167784819Y-47000476D01*
X168784819Y-46000476D02*
X168784819Y-46571904D01*
X168784819Y-46286190D02*
X167784819Y-46286190D01*
X167784819Y-46286190D02*
X167927676Y-46381428D01*
X167927676Y-46381428D02*
X168022914Y-46476666D01*
X168022914Y-46476666D02*
X168070533Y-46571904D01*
X168824819Y-30246666D02*
X168348628Y-30579999D01*
X168824819Y-30818094D02*
X167824819Y-30818094D01*
X167824819Y-30818094D02*
X167824819Y-30437142D01*
X167824819Y-30437142D02*
X167872438Y-30341904D01*
X167872438Y-30341904D02*
X167920057Y-30294285D01*
X167920057Y-30294285D02*
X168015295Y-30246666D01*
X168015295Y-30246666D02*
X168158152Y-30246666D01*
X168158152Y-30246666D02*
X168253390Y-30294285D01*
X168253390Y-30294285D02*
X168301009Y-30341904D01*
X168301009Y-30341904D02*
X168348628Y-30437142D01*
X168348628Y-30437142D02*
X168348628Y-30818094D01*
X168824819Y-29294285D02*
X168824819Y-29865713D01*
X168824819Y-29579999D02*
X167824819Y-29579999D01*
X167824819Y-29579999D02*
X167967676Y-29675237D01*
X167967676Y-29675237D02*
X168062914Y-29770475D01*
X168062914Y-29770475D02*
X168110533Y-29865713D01*
X103359580Y-41166666D02*
X103407200Y-41214285D01*
X103407200Y-41214285D02*
X103454819Y-41357142D01*
X103454819Y-41357142D02*
X103454819Y-41452380D01*
X103454819Y-41452380D02*
X103407200Y-41595237D01*
X103407200Y-41595237D02*
X103311961Y-41690475D01*
X103311961Y-41690475D02*
X103216723Y-41738094D01*
X103216723Y-41738094D02*
X103026247Y-41785713D01*
X103026247Y-41785713D02*
X102883390Y-41785713D01*
X102883390Y-41785713D02*
X102692914Y-41738094D01*
X102692914Y-41738094D02*
X102597676Y-41690475D01*
X102597676Y-41690475D02*
X102502438Y-41595237D01*
X102502438Y-41595237D02*
X102454819Y-41452380D01*
X102454819Y-41452380D02*
X102454819Y-41357142D01*
X102454819Y-41357142D02*
X102502438Y-41214285D01*
X102502438Y-41214285D02*
X102550057Y-41166666D01*
X102454819Y-40309523D02*
X102454819Y-40499999D01*
X102454819Y-40499999D02*
X102502438Y-40595237D01*
X102502438Y-40595237D02*
X102550057Y-40642856D01*
X102550057Y-40642856D02*
X102692914Y-40738094D01*
X102692914Y-40738094D02*
X102883390Y-40785713D01*
X102883390Y-40785713D02*
X103264342Y-40785713D01*
X103264342Y-40785713D02*
X103359580Y-40738094D01*
X103359580Y-40738094D02*
X103407200Y-40690475D01*
X103407200Y-40690475D02*
X103454819Y-40595237D01*
X103454819Y-40595237D02*
X103454819Y-40404761D01*
X103454819Y-40404761D02*
X103407200Y-40309523D01*
X103407200Y-40309523D02*
X103359580Y-40261904D01*
X103359580Y-40261904D02*
X103264342Y-40214285D01*
X103264342Y-40214285D02*
X103026247Y-40214285D01*
X103026247Y-40214285D02*
X102931009Y-40261904D01*
X102931009Y-40261904D02*
X102883390Y-40309523D01*
X102883390Y-40309523D02*
X102835771Y-40404761D01*
X102835771Y-40404761D02*
X102835771Y-40595237D01*
X102835771Y-40595237D02*
X102883390Y-40690475D01*
X102883390Y-40690475D02*
X102931009Y-40738094D01*
X102931009Y-40738094D02*
X103026247Y-40785713D01*
X114166666Y-31184819D02*
X114166666Y-31899104D01*
X114166666Y-31899104D02*
X114119047Y-32041961D01*
X114119047Y-32041961D02*
X114023809Y-32137200D01*
X114023809Y-32137200D02*
X113880952Y-32184819D01*
X113880952Y-32184819D02*
X113785714Y-32184819D01*
X115166666Y-32184819D02*
X114595238Y-32184819D01*
X114880952Y-32184819D02*
X114880952Y-31184819D01*
X114880952Y-31184819D02*
X114785714Y-31327676D01*
X114785714Y-31327676D02*
X114690476Y-31422914D01*
X114690476Y-31422914D02*
X114595238Y-31470533D01*
X159304819Y-96333333D02*
X160019104Y-96333333D01*
X160019104Y-96333333D02*
X160161961Y-96380952D01*
X160161961Y-96380952D02*
X160257200Y-96476190D01*
X160257200Y-96476190D02*
X160304819Y-96619047D01*
X160304819Y-96619047D02*
X160304819Y-96714285D01*
X159638152Y-95428571D02*
X160304819Y-95428571D01*
X159257200Y-95666666D02*
X159971485Y-95904761D01*
X159971485Y-95904761D02*
X159971485Y-95285714D01*
X84126666Y-46554819D02*
X84126666Y-47269104D01*
X84126666Y-47269104D02*
X84079047Y-47411961D01*
X84079047Y-47411961D02*
X83983809Y-47507200D01*
X83983809Y-47507200D02*
X83840952Y-47554819D01*
X83840952Y-47554819D02*
X83745714Y-47554819D01*
X85031428Y-46554819D02*
X84840952Y-46554819D01*
X84840952Y-46554819D02*
X84745714Y-46602438D01*
X84745714Y-46602438D02*
X84698095Y-46650057D01*
X84698095Y-46650057D02*
X84602857Y-46792914D01*
X84602857Y-46792914D02*
X84555238Y-46983390D01*
X84555238Y-46983390D02*
X84555238Y-47364342D01*
X84555238Y-47364342D02*
X84602857Y-47459580D01*
X84602857Y-47459580D02*
X84650476Y-47507200D01*
X84650476Y-47507200D02*
X84745714Y-47554819D01*
X84745714Y-47554819D02*
X84936190Y-47554819D01*
X84936190Y-47554819D02*
X85031428Y-47507200D01*
X85031428Y-47507200D02*
X85079047Y-47459580D01*
X85079047Y-47459580D02*
X85126666Y-47364342D01*
X85126666Y-47364342D02*
X85126666Y-47126247D01*
X85126666Y-47126247D02*
X85079047Y-47031009D01*
X85079047Y-47031009D02*
X85031428Y-46983390D01*
X85031428Y-46983390D02*
X84936190Y-46935771D01*
X84936190Y-46935771D02*
X84745714Y-46935771D01*
X84745714Y-46935771D02*
X84650476Y-46983390D01*
X84650476Y-46983390D02*
X84602857Y-47031009D01*
X84602857Y-47031009D02*
X84555238Y-47126247D01*
X76333333Y-35359580D02*
X76285714Y-35407200D01*
X76285714Y-35407200D02*
X76142857Y-35454819D01*
X76142857Y-35454819D02*
X76047619Y-35454819D01*
X76047619Y-35454819D02*
X75904762Y-35407200D01*
X75904762Y-35407200D02*
X75809524Y-35311961D01*
X75809524Y-35311961D02*
X75761905Y-35216723D01*
X75761905Y-35216723D02*
X75714286Y-35026247D01*
X75714286Y-35026247D02*
X75714286Y-34883390D01*
X75714286Y-34883390D02*
X75761905Y-34692914D01*
X75761905Y-34692914D02*
X75809524Y-34597676D01*
X75809524Y-34597676D02*
X75904762Y-34502438D01*
X75904762Y-34502438D02*
X76047619Y-34454819D01*
X76047619Y-34454819D02*
X76142857Y-34454819D01*
X76142857Y-34454819D02*
X76285714Y-34502438D01*
X76285714Y-34502438D02*
X76333333Y-34550057D01*
X76666667Y-34454819D02*
X77333333Y-34454819D01*
X77333333Y-34454819D02*
X76904762Y-35454819D01*
X163859580Y-55666666D02*
X163907200Y-55714285D01*
X163907200Y-55714285D02*
X163954819Y-55857142D01*
X163954819Y-55857142D02*
X163954819Y-55952380D01*
X163954819Y-55952380D02*
X163907200Y-56095237D01*
X163907200Y-56095237D02*
X163811961Y-56190475D01*
X163811961Y-56190475D02*
X163716723Y-56238094D01*
X163716723Y-56238094D02*
X163526247Y-56285713D01*
X163526247Y-56285713D02*
X163383390Y-56285713D01*
X163383390Y-56285713D02*
X163192914Y-56238094D01*
X163192914Y-56238094D02*
X163097676Y-56190475D01*
X163097676Y-56190475D02*
X163002438Y-56095237D01*
X163002438Y-56095237D02*
X162954819Y-55952380D01*
X162954819Y-55952380D02*
X162954819Y-55857142D01*
X162954819Y-55857142D02*
X163002438Y-55714285D01*
X163002438Y-55714285D02*
X163050057Y-55666666D01*
X162954819Y-55333332D02*
X162954819Y-54714285D01*
X162954819Y-54714285D02*
X163335771Y-55047618D01*
X163335771Y-55047618D02*
X163335771Y-54904761D01*
X163335771Y-54904761D02*
X163383390Y-54809523D01*
X163383390Y-54809523D02*
X163431009Y-54761904D01*
X163431009Y-54761904D02*
X163526247Y-54714285D01*
X163526247Y-54714285D02*
X163764342Y-54714285D01*
X163764342Y-54714285D02*
X163859580Y-54761904D01*
X163859580Y-54761904D02*
X163907200Y-54809523D01*
X163907200Y-54809523D02*
X163954819Y-54904761D01*
X163954819Y-54904761D02*
X163954819Y-55190475D01*
X163954819Y-55190475D02*
X163907200Y-55285713D01*
X163907200Y-55285713D02*
X163859580Y-55333332D01*
X147359580Y-55666666D02*
X147407200Y-55714285D01*
X147407200Y-55714285D02*
X147454819Y-55857142D01*
X147454819Y-55857142D02*
X147454819Y-55952380D01*
X147454819Y-55952380D02*
X147407200Y-56095237D01*
X147407200Y-56095237D02*
X147311961Y-56190475D01*
X147311961Y-56190475D02*
X147216723Y-56238094D01*
X147216723Y-56238094D02*
X147026247Y-56285713D01*
X147026247Y-56285713D02*
X146883390Y-56285713D01*
X146883390Y-56285713D02*
X146692914Y-56238094D01*
X146692914Y-56238094D02*
X146597676Y-56190475D01*
X146597676Y-56190475D02*
X146502438Y-56095237D01*
X146502438Y-56095237D02*
X146454819Y-55952380D01*
X146454819Y-55952380D02*
X146454819Y-55857142D01*
X146454819Y-55857142D02*
X146502438Y-55714285D01*
X146502438Y-55714285D02*
X146550057Y-55666666D01*
X147454819Y-54714285D02*
X147454819Y-55285713D01*
X147454819Y-54999999D02*
X146454819Y-54999999D01*
X146454819Y-54999999D02*
X146597676Y-55095237D01*
X146597676Y-55095237D02*
X146692914Y-55190475D01*
X146692914Y-55190475D02*
X146740533Y-55285713D01*
%TO.C,SW1*%
D12*
X176750000Y-98000000D02*
X176750000Y-96500000D01*
X175500000Y-94000000D02*
X171000000Y-94000000D01*
X171000000Y-100500000D02*
X175500000Y-100500000D01*
X169750000Y-96500000D02*
X169750000Y-98000000D01*
%TO.C,SW2*%
X191250000Y-98000000D02*
X191250000Y-96500000D01*
X190000000Y-94000000D02*
X185500000Y-94000000D01*
X185500000Y-100500000D02*
X190000000Y-100500000D01*
X184250000Y-96500000D02*
X184250000Y-98000000D01*
%TO.C,J2*%
X124830000Y-97330000D02*
X124830000Y-94670000D01*
X114610000Y-97330000D02*
X124830000Y-97330000D01*
X114610000Y-97330000D02*
X114610000Y-94670000D01*
X114610000Y-94670000D02*
X124830000Y-94670000D01*
X112010000Y-96000000D02*
X112010000Y-94670000D01*
X112010000Y-94670000D02*
X113340000Y-94670000D01*
%TO.C,C4*%
X199620000Y-71630000D02*
X199620000Y-71967000D01*
X194380000Y-71630000D02*
X199620000Y-71630000D01*
X194380000Y-71967000D02*
X194380000Y-71630000D01*
X199620000Y-74033000D02*
X199620000Y-74370000D01*
X199620000Y-74370000D02*
X194380000Y-74370000D01*
X194380000Y-74370000D02*
X194380000Y-74033000D01*
%TO.C,R4*%
X185130000Y-46730000D02*
X187870000Y-46730000D01*
X187870000Y-53270000D01*
X185130000Y-53270000D01*
X185130000Y-46730000D01*
X186500000Y-54040000D02*
X186500000Y-53270000D01*
X186500000Y-45960000D02*
X186500000Y-46730000D01*
%TO.C,R2*%
X195130000Y-45810000D02*
X197870000Y-45810000D01*
X197870000Y-52350000D01*
X195130000Y-52350000D01*
X195130000Y-45810000D01*
X196500000Y-53120000D02*
X196500000Y-52350000D01*
X196500000Y-45040000D02*
X196500000Y-45810000D01*
%TO.C,Q1*%
X181885307Y-32688982D02*
X182698480Y-33502156D01*
X182648982Y-31925307D02*
X181885307Y-32688982D01*
X183462156Y-32738480D02*
X182648982Y-31925307D01*
X183462156Y-32738480D02*
G75*
G02*
X182698480Y-33502156I2997844J-3761520D01*
G01*
%TO.C,RV1*%
X190375000Y-69930000D02*
X180625000Y-69930000D01*
X190375000Y-60180000D02*
X190375000Y-69930000D01*
X180625000Y-69930000D02*
X180625000Y-60180000D01*
X180625000Y-60180000D02*
X190375000Y-60180000D01*
%TO.C,LS1*%
X197880000Y-37270000D02*
X197880000Y-39920000D01*
X195120000Y-39920000D02*
X197880000Y-39920000D01*
X195120000Y-37270000D02*
X197880000Y-37270000D01*
X195120000Y-37270000D02*
X195120000Y-39920000D01*
X195120000Y-36000000D02*
X195120000Y-34620000D01*
X195120000Y-34620000D02*
X196500000Y-34620000D01*
%TO.C,C5*%
X181880000Y-71630000D02*
X187120000Y-71630000D01*
X181880000Y-71967000D02*
X181880000Y-71630000D01*
X181880000Y-74370000D02*
X181880000Y-74033000D01*
X187120000Y-71630000D02*
X187120000Y-71967000D01*
X187120000Y-74033000D02*
X187120000Y-74370000D01*
X187120000Y-74370000D02*
X181880000Y-74370000D01*
%TO.C,R5*%
X201730000Y-81630000D02*
X208270000Y-81630000D01*
X208270000Y-84370000D01*
X201730000Y-84370000D01*
X201730000Y-81630000D01*
X209040000Y-83000000D02*
X208270000Y-83000000D01*
X200960000Y-83000000D02*
X201730000Y-83000000D01*
%TO.C,R3*%
X195130000Y-59810000D02*
X197870000Y-59810000D01*
X197870000Y-66350000D01*
X195130000Y-66350000D01*
X195130000Y-59810000D01*
X196500000Y-67120000D02*
X196500000Y-66350000D01*
X196500000Y-59040000D02*
X196500000Y-59810000D01*
%TO.C,C8*%
X80590000Y-38620000D02*
X80590000Y-33380000D01*
X80927000Y-38620000D02*
X80590000Y-38620000D01*
X83330000Y-38620000D02*
X82993000Y-38620000D01*
X80590000Y-33380000D02*
X80927000Y-33380000D01*
X82993000Y-33380000D02*
X83330000Y-33380000D01*
X83330000Y-33380000D02*
X83330000Y-38620000D01*
%TO.C,C2*%
X134130000Y-35380000D02*
X134467000Y-35380000D01*
X134130000Y-40620000D02*
X134130000Y-35380000D01*
X134467000Y-40620000D02*
X134130000Y-40620000D01*
X136533000Y-35380000D02*
X136870000Y-35380000D01*
X136870000Y-35380000D02*
X136870000Y-40620000D01*
X136870000Y-40620000D02*
X136533000Y-40620000D01*
%TO.C,J5*%
X89050000Y-34170000D02*
X89050000Y-36830000D01*
X99270000Y-34170000D02*
X89050000Y-34170000D01*
X99270000Y-34170000D02*
X99270000Y-36830000D01*
X99270000Y-36830000D02*
X89050000Y-36830000D01*
X101870000Y-35500000D02*
X101870000Y-36830000D01*
X101870000Y-36830000D02*
X100540000Y-36830000D01*
%TO.C,J3*%
X200510000Y-95170000D02*
X201840000Y-95170000D01*
X200510000Y-96500000D02*
X200510000Y-95170000D01*
X203110000Y-95170000D02*
X213330000Y-95170000D01*
X203110000Y-97830000D02*
X203110000Y-95170000D01*
X203110000Y-97830000D02*
X213330000Y-97830000D01*
X213330000Y-97830000D02*
X213330000Y-95170000D01*
%TO.C,U1*%
X131650000Y-44160000D02*
X131650000Y-49460000D01*
X131650000Y-49460000D02*
X167330000Y-49460000D01*
X167330000Y-44160000D02*
X131650000Y-44160000D01*
X167330000Y-45810000D02*
X167330000Y-44160000D01*
X167330000Y-49460000D02*
X167330000Y-47810000D01*
X167330000Y-47810000D02*
G75*
G02*
X167330000Y-45810000I0J1000000D01*
G01*
%TO.C,R1*%
X166000000Y-26040000D02*
X166000000Y-26810000D01*
X166000000Y-34120000D02*
X166000000Y-33350000D01*
X164630000Y-26810000D02*
X167370000Y-26810000D01*
X167370000Y-33350000D01*
X164630000Y-33350000D01*
X164630000Y-26810000D01*
%TO.C,C6*%
X99130000Y-43620000D02*
X99130000Y-38380000D01*
X99467000Y-43620000D02*
X99130000Y-43620000D01*
X101870000Y-43620000D02*
X101533000Y-43620000D01*
X99130000Y-38380000D02*
X99467000Y-38380000D01*
X101533000Y-38380000D02*
X101870000Y-38380000D01*
X101870000Y-38380000D02*
X101870000Y-43620000D01*
%TO.C,J1*%
X113170000Y-35770000D02*
X113170000Y-53610000D01*
X113170000Y-35770000D02*
X115830000Y-35770000D01*
X113170000Y-53610000D02*
X115830000Y-53610000D01*
X114500000Y-33170000D02*
X115830000Y-33170000D01*
X115830000Y-33170000D02*
X115830000Y-34500000D01*
X115830000Y-35770000D02*
X115830000Y-53610000D01*
%TO.C,J4*%
X137970000Y-94670000D02*
X137970000Y-97330000D01*
X155810000Y-94670000D02*
X137970000Y-94670000D01*
X155810000Y-94670000D02*
X155810000Y-97330000D01*
X155810000Y-97330000D02*
X137970000Y-97330000D01*
X158410000Y-96000000D02*
X158410000Y-97330000D01*
X158410000Y-97330000D02*
X157080000Y-97330000D01*
%TO.C,J6*%
X79350000Y-41640000D02*
X89570000Y-41640000D01*
X79350000Y-46260000D02*
X79350000Y-41640000D01*
X82610000Y-46260000D02*
X82610000Y-44880000D01*
X86310000Y-46260000D02*
X86310000Y-44880000D01*
X89570000Y-41640000D02*
X89570000Y-46260000D01*
X89570000Y-44880000D02*
X79350000Y-44880000D01*
X89570000Y-46260000D02*
X79350000Y-46260000D01*
%TO.C,C7*%
X73880000Y-31130000D02*
X79120000Y-31130000D01*
X73880000Y-31467000D02*
X73880000Y-31130000D01*
X73880000Y-33870000D02*
X73880000Y-33533000D01*
X79120000Y-31130000D02*
X79120000Y-31467000D01*
X79120000Y-33533000D02*
X79120000Y-33870000D01*
X79120000Y-33870000D02*
X73880000Y-33870000D01*
%TO.C,C3*%
X164630000Y-52880000D02*
X164967000Y-52880000D01*
X164630000Y-58120000D02*
X164630000Y-52880000D01*
X164967000Y-58120000D02*
X164630000Y-58120000D01*
X167033000Y-52880000D02*
X167370000Y-52880000D01*
X167370000Y-52880000D02*
X167370000Y-58120000D01*
X167370000Y-58120000D02*
X167033000Y-58120000D01*
%TO.C,C1*%
X143130000Y-52880000D02*
X143467000Y-52880000D01*
X143130000Y-58120000D02*
X143130000Y-52880000D01*
X143467000Y-58120000D02*
X143130000Y-58120000D01*
X145533000Y-52880000D02*
X145870000Y-52880000D01*
X145870000Y-52880000D02*
X145870000Y-58120000D01*
X145870000Y-58120000D02*
X145533000Y-58120000D01*
%TD*%
%LPC*%
D13*
%TO.C,SW1*%
X170000000Y-95000000D03*
X176500000Y-95000000D03*
X170000000Y-99500000D03*
X176500000Y-99500000D03*
%TD*%
%TO.C,SW2*%
X184500000Y-95000000D03*
X191000000Y-95000000D03*
X184500000Y-99500000D03*
X191000000Y-99500000D03*
%TD*%
D14*
%TO.C,J2*%
X123500000Y-96000000D03*
X120960000Y-96000000D03*
X118420000Y-96000000D03*
X115880000Y-96000000D03*
D15*
X113340000Y-96000000D03*
%TD*%
D16*
%TO.C,C4*%
X194500000Y-73000000D03*
X199500000Y-73000000D03*
%TD*%
%TO.C,R4*%
X186500000Y-55080000D03*
X186500000Y-44920000D03*
%TD*%
%TO.C,R2*%
X196500000Y-44000000D03*
X196500000Y-54160000D03*
%TD*%
D17*
%TO.C,Q1*%
X183920000Y-36500000D03*
D18*
X186460000Y-39040000D03*
X189000000Y-36500000D03*
%TD*%
D19*
%TO.C,RV1*%
X182960000Y-65040000D03*
X185500000Y-62500000D03*
X188040000Y-65040000D03*
%TD*%
D14*
%TO.C,LS1*%
X196500000Y-38540000D03*
D15*
X196500000Y-36000000D03*
%TD*%
D16*
%TO.C,C5*%
X182000000Y-73000000D03*
X187000000Y-73000000D03*
%TD*%
%TO.C,R5*%
X210080000Y-83000000D03*
X199920000Y-83000000D03*
%TD*%
%TO.C,R3*%
X196500000Y-58000000D03*
X196500000Y-68160000D03*
%TD*%
%TO.C,C8*%
X81960000Y-33500000D03*
X81960000Y-38500000D03*
%TD*%
%TO.C,C2*%
X135500000Y-40500000D03*
X135500000Y-35500000D03*
%TD*%
D15*
%TO.C,J5*%
X100540000Y-35500000D03*
D14*
X98000000Y-35500000D03*
X95460000Y-35500000D03*
X92920000Y-35500000D03*
X90380000Y-35500000D03*
%TD*%
D15*
%TO.C,J3*%
X201840000Y-96500000D03*
D14*
X204380000Y-96500000D03*
X206920000Y-96500000D03*
X209460000Y-96500000D03*
X212000000Y-96500000D03*
%TD*%
D20*
%TO.C,U1*%
X166000000Y-43000000D03*
D16*
X163460000Y-43000000D03*
X160920000Y-43000000D03*
X158380000Y-43000000D03*
X155840000Y-43000000D03*
X153300000Y-43000000D03*
X150760000Y-43000000D03*
X148220000Y-43000000D03*
X145680000Y-43000000D03*
X143140000Y-43000000D03*
X140600000Y-43000000D03*
X138060000Y-43000000D03*
X135520000Y-43000000D03*
X132980000Y-43000000D03*
X132980000Y-50620000D03*
X135520000Y-50620000D03*
X138060000Y-50620000D03*
X140600000Y-50620000D03*
X143140000Y-50620000D03*
X145680000Y-50620000D03*
X148220000Y-50620000D03*
X150760000Y-50620000D03*
X153300000Y-50620000D03*
X155840000Y-50620000D03*
X158380000Y-50620000D03*
X160920000Y-50620000D03*
X163460000Y-50620000D03*
X166000000Y-50620000D03*
%TD*%
%TO.C,R1*%
X166000000Y-25000000D03*
X166000000Y-35160000D03*
%TD*%
%TO.C,C6*%
X100500000Y-38500000D03*
X100500000Y-43500000D03*
%TD*%
D15*
%TO.C,J1*%
X114500000Y-34500000D03*
D14*
X114500000Y-37040000D03*
X114500000Y-39580000D03*
X114500000Y-42120000D03*
X114500000Y-44660000D03*
X114500000Y-47200000D03*
X114500000Y-49740000D03*
X114500000Y-52280000D03*
%TD*%
D15*
%TO.C,J4*%
X157080000Y-96000000D03*
D14*
X154540000Y-96000000D03*
X152000000Y-96000000D03*
X149460000Y-96000000D03*
X146920000Y-96000000D03*
X144380000Y-96000000D03*
X141840000Y-96000000D03*
X139300000Y-96000000D03*
%TD*%
D21*
%TO.C,J6*%
X87000000Y-43000000D03*
D22*
X84460000Y-43000000D03*
X81920000Y-43000000D03*
%TD*%
D16*
%TO.C,C7*%
X79000000Y-32500000D03*
X74000000Y-32500000D03*
%TD*%
%TO.C,C3*%
X166000000Y-58000000D03*
X166000000Y-53000000D03*
%TD*%
%TO.C,C1*%
X144500000Y-53000000D03*
X144500000Y-58000000D03*
%TD*%
%LPD*%
M02*
