M48
; DRILL file KiCad 10.0.3 date 2026-05-29T14:57:50
; FORMAT={-:-/ absolute / metric / decimal}
; #@! TF.CreationDate,2026-05-29T14:57:50-05:00
; #@! TF.GenerationSoftware,Kicad,Pcbnew,10.0.3
; #@! TF.FileFunction,Plated,1,2,PTH
FMAT,2
METRIC
; #@! TA.AperFunction,Plated,PTH,ViaDrill
T1C0.300
; #@! TA.AperFunction,Plated,PTH,ComponentDrill
T2C0.700
; #@! TA.AperFunction,Plated,PTH,ComponentDrill
T3C0.800
; #@! TA.AperFunction,Plated,PTH,ComponentDrill
T4C1.000
; #@! TA.AperFunction,Plated,PTH,ComponentDrill
T5C1.100
%
G90
G05
T1
X133.0Y-81.0
X133.0Y-84.0
X135.5Y-81.5
X135.5Y-83.5
X137.0Y-82.5
X138.735Y-82.5
X139.253Y-86.747
X140.0Y-81.825
X142.5Y-81.0
X142.5Y-90.5
X158.5Y-64.0
X158.5Y-70.5
X171.0Y-62.0
X178.0Y-62.0
X188.5Y-81.5
X188.5Y-84.5
X197.5Y-81.5
X198.0Y-85.0
T2
X238.46Y-36.5
X241.0Y-39.04
X243.54Y-36.5
T3
X59.46Y-36.55
X59.96Y-48.05
X64.46Y-36.55
X64.96Y-48.05
X95.46Y-42.55
X100.46Y-42.55
X132.98Y-43.0
X132.98Y-50.62
X135.5Y-35.5
X135.5Y-40.5
X135.52Y-43.0
X135.52Y-50.62
X138.06Y-43.0
X138.06Y-50.62
X140.6Y-43.0
X140.6Y-50.62
X143.14Y-43.0
X143.14Y-50.62
X144.5Y-53.0
X144.5Y-58.0
X145.68Y-43.0
X145.68Y-50.62
X148.22Y-43.0
X148.22Y-50.62
X150.76Y-43.0
X150.76Y-50.62
X153.3Y-43.0
X153.3Y-50.62
X155.84Y-43.0
X155.84Y-50.62
X158.38Y-43.0
X158.38Y-50.62
X160.92Y-43.0
X160.92Y-50.62
X163.46Y-43.0
X163.46Y-50.62
X166.0Y-25.0
X166.0Y-35.16
X166.0Y-43.0
X166.0Y-50.62
X166.0Y-53.0
X166.0Y-58.0
X213.34Y-83.0
X223.5Y-83.0
X227.0Y-85.5
X227.0Y-90.5
X230.0Y-83.0
X235.0Y-83.0
X238.96Y-83.04
X241.0Y-55.16
X241.0Y-65.32
X241.5Y-80.5
X244.04Y-83.04
X252.5Y-46.155
X252.5Y-56.315
X252.5Y-65.655
X252.5Y-75.815
T4
X80.46Y-33.0
X82.84Y-114.0
X83.0Y-33.0
X85.38Y-114.0
X85.54Y-33.0
X87.92Y-114.0
X88.08Y-33.0
X90.46Y-114.0
X90.62Y-33.0
X93.0Y-114.0
X114.5Y-34.5
X114.5Y-37.04
X114.5Y-39.58
X114.5Y-42.12
X114.5Y-44.66
X114.5Y-47.2
X114.5Y-49.74
X114.5Y-52.28
X139.3Y-96.0
X141.84Y-96.0
X144.38Y-96.0
X146.92Y-96.0
X149.46Y-96.0
X152.0Y-96.0
X154.54Y-96.0
X157.08Y-96.0
X252.5Y-36.0
X252.5Y-38.54
X253.84Y-116.0
X256.38Y-116.0
X258.92Y-116.0
X261.46Y-116.0
X264.0Y-116.0
T5
X77.96Y-51.05
X80.5Y-51.05
X83.04Y-51.05
X188.5Y-109.5
X188.5Y-114.0
X195.0Y-109.5
X195.0Y-114.0
X215.0Y-109.5
X215.0Y-114.0
X221.5Y-109.5
X221.5Y-114.0
M30
