%TF.GenerationSoftware,KiCad,Pcbnew,10.0.3*%
%TF.CreationDate,2026-05-29T17:16:22-05:00*%
%TF.ProjectId,Handheld-Gaming-Device,48616e64-6865-46c6-942d-47616d696e67,rev?*%
%TF.SameCoordinates,Original*%
%TF.FileFunction,Copper,L2,Bot*%
%TF.FilePolarity,Positive*%
%FSLAX46Y46*%
G04 Gerber Fmt 4.6, Leading zero omitted, Abs format (unit mm)*
G04 Created by KiCad (PCBNEW 10.0.3) date 2026-05-29 17:16:22*
%MOMM*%
%LPD*%
G01*
G04 APERTURE LIST*
G04 Aperture macros list*
%AMRoundRect*
0 Rectangle with rounded corners*
0 $1 Rounding radius*
0 $2 $3 $4 $5 $6 $7 $8 $9 X,Y pos of 4 corners*
0 Add a 4 corners polygon primitive as box body*
4,1,4,$2,$3,$4,$5,$6,$7,$8,$9,$2,$3,0*
0 Add four circle primitives for the rounded corners*
1,1,$1+$1,$2,$3*
1,1,$1+$1,$4,$5*
1,1,$1+$1,$6,$7*
1,1,$1+$1,$8,$9*
0 Add four rect primitives between the rounded corners*
20,1,$1+$1,$2,$3,$4,$5,0*
20,1,$1+$1,$4,$5,$6,$7,0*
20,1,$1+$1,$6,$7,$8,$9,0*
20,1,$1+$1,$8,$9,$2,$3,0*%
G04 Aperture macros list end*
%TA.AperFunction,ComponentPad*%
%ADD10C,2.000000*%
%TD*%
%TA.AperFunction,ComponentPad*%
%ADD11C,1.700000*%
%TD*%
%TA.AperFunction,ComponentPad*%
%ADD12R,1.700000X1.700000*%
%TD*%
%TA.AperFunction,ComponentPad*%
%ADD13C,1.600000*%
%TD*%
%TA.AperFunction,ComponentPad*%
%ADD14O,1.600000X1.200000*%
%TD*%
%TA.AperFunction,ComponentPad*%
%ADD15C,1.200000*%
%TD*%
%TA.AperFunction,ComponentPad*%
%ADD16C,1.440000*%
%TD*%
%TA.AperFunction,ComponentPad*%
%ADD17RoundRect,0.250000X-0.550000X0.550000X-0.550000X-0.550000X0.550000X-0.550000X0.550000X0.550000X0*%
%TD*%
%TA.AperFunction,ComponentPad*%
%ADD18R,1.905000X2.000000*%
%TD*%
%TA.AperFunction,ComponentPad*%
%ADD19O,1.905000X2.000000*%
%TD*%
%TA.AperFunction,ViaPad*%
%ADD20C,0.600000*%
%TD*%
%TA.AperFunction,Conductor*%
%ADD21C,0.250000*%
%TD*%
G04 APERTURE END LIST*
D10*
%TO.P,SW1,2,2_2*%
%TO.N,Net-(SW1-Pad2)*%
X170000000Y-95000000D03*
X176500000Y-95000000D03*
%TO.P,SW1,1,1_1*%
%TO.N,GND*%
X170000000Y-99500000D03*
X176500000Y-99500000D03*
%TD*%
%TO.P,SW2,2,2_2*%
%TO.N,Net-(SW2-Pad2)*%
X184500000Y-95000000D03*
X191000000Y-95000000D03*
%TO.P,SW2,1,1_1*%
%TO.N,GND*%
X184500000Y-99500000D03*
X191000000Y-99500000D03*
%TD*%
D11*
%TO.P,J2,5,Pin_5_5*%
%TO.N,+3V3*%
X123500000Y-96000000D03*
%TO.P,J2,4,Pin_4_4*%
%TO.N,Net-(J2-Pin_4)*%
X120960000Y-96000000D03*
%TO.P,J2,3,Pin_3_3*%
%TO.N,Net-(J2-Pin_3)*%
X118420000Y-96000000D03*
%TO.P,J2,2,Pin_2_2*%
%TO.N,Net-(J2-Pin_2)*%
X115880000Y-96000000D03*
D12*
%TO.P,J2,1,Pin_1_1*%
%TO.N,GND*%
X113340000Y-96000000D03*
%TD*%
D13*
%TO.P,C4,2*%
%TO.N,Net-(C4-Pad2)*%
X194500000Y-73000000D03*
%TO.P,C4,1*%
%TO.N,GND*%
X199500000Y-73000000D03*
%TD*%
%TO.P,R4,2*%
%TO.N,Net-(R4-Pad2)*%
X186500000Y-55080000D03*
%TO.P,R4,1*%
%TO.N,Net-(Q1-B)*%
X186500000Y-44920000D03*
%TD*%
%TO.P,R2,2*%
%TO.N,Net-(LS1-Pad2)*%
X196500000Y-44000000D03*
%TO.P,R2,1*%
%TO.N,Net-(R2-Pad1)*%
X196500000Y-54160000D03*
%TD*%
D14*
%TO.P,Q1,1,E_1*%
%TO.N,GND*%
X183920000Y-36500000D03*
D15*
%TO.P,Q1,2,B_2*%
%TO.N,Net-(Q1-B)*%
X186460000Y-39040000D03*
%TO.P,Q1,3,C_3*%
%TO.N,Net-(Q1-C)*%
X189000000Y-36500000D03*
%TD*%
D16*
%TO.P,RV1,3,3_3*%
%TO.N,Net-(C5-Pad2)*%
X182960000Y-65040000D03*
%TO.P,RV1,2,2_2*%
%TO.N,Net-(R4-Pad2)*%
X185500000Y-62500000D03*
%TO.P,RV1,1,1_1*%
%TO.N,GND*%
X188040000Y-65040000D03*
%TD*%
D11*
%TO.P,LS1,2,2_2*%
%TO.N,Net-(LS1-Pad2)*%
X196500000Y-38540000D03*
D12*
%TO.P,LS1,1,1_1*%
%TO.N,Net-(Q1-C)*%
X196500000Y-36000000D03*
%TD*%
D13*
%TO.P,C5,2*%
%TO.N,Net-(C5-Pad2)*%
X182000000Y-73000000D03*
%TO.P,C5,1*%
%TO.N,Net-(C4-Pad2)*%
X187000000Y-73000000D03*
%TD*%
%TO.P,R5,2*%
%TO.N,Net-(C4-Pad2)*%
X210080000Y-83000000D03*
%TO.P,R5,1*%
%TO.N,Net-(R5-Pad1)*%
X199920000Y-83000000D03*
%TD*%
%TO.P,R3,2*%
%TO.N,Net-(R2-Pad1)*%
X196500000Y-58000000D03*
%TO.P,R3,1*%
%TO.N,+3V3*%
X196500000Y-68160000D03*
%TD*%
%TO.P,C8,2*%
%TO.N,GND*%
X81960000Y-33500000D03*
%TO.P,C8,1*%
%TO.N,+3V3*%
X81960000Y-38500000D03*
%TD*%
%TO.P,C2,1*%
%TO.N,+3V3*%
X135500000Y-40500000D03*
%TO.P,C2,2*%
%TO.N,GND*%
X135500000Y-35500000D03*
%TD*%
D12*
%TO.P,J5,1,Pin_1_1*%
%TO.N,+5V*%
X100540000Y-35500000D03*
D11*
%TO.P,J5,2,Pin_2_2*%
%TO.N,unconnected-(J5-Pin_2-Pad2)*%
X98000000Y-35500000D03*
%TO.P,J5,3,Pin_3_3*%
%TO.N,unconnected-(J5-Pin_3-Pad3)*%
X95460000Y-35500000D03*
%TO.P,J5,4,Pin_4_4*%
%TO.N,unconnected-(J5-Pin_4-Pad4)*%
X92920000Y-35500000D03*
%TO.P,J5,5,Pin_5_5*%
%TO.N,GND*%
X90380000Y-35500000D03*
%TD*%
D12*
%TO.P,J3,1,Pin_1_1*%
%TO.N,GND*%
X201840000Y-96500000D03*
D11*
%TO.P,J3,2,Pin_2_2*%
%TO.N,unconnected-(J3-Pin_2-Pad2)*%
X204380000Y-96500000D03*
%TO.P,J3,3,Pin_3_3*%
%TO.N,Net-(J3-Pin_3)*%
X206920000Y-96500000D03*
%TO.P,J3,4,Pin_4_4*%
%TO.N,Net-(J3-Pin_4)*%
X209460000Y-96500000D03*
%TO.P,J3,5,Pin_5_5*%
%TO.N,+3V3*%
X212000000Y-96500000D03*
%TD*%
D17*
%TO.P,U1,1*%
%TO.N,Net-(J1-Pin_1)*%
X166000000Y-43000000D03*
D13*
%TO.P,U1,2*%
%TO.N,unconnected-(U1-Pad2)*%
X163460000Y-43000000D03*
%TO.P,U1,3*%
%TO.N,unconnected-(U1-Pad3)*%
X160920000Y-43000000D03*
%TO.P,U1,4*%
%TO.N,Net-(J1-Pin_4)*%
X158380000Y-43000000D03*
%TO.P,U1,5*%
%TO.N,Net-(J1-Pin_5)*%
X155840000Y-43000000D03*
%TO.P,U1,6*%
%TO.N,Net-(J2-Pin_2)*%
X153300000Y-43000000D03*
%TO.P,U1,7*%
%TO.N,Net-(J2-Pin_3)*%
X150760000Y-43000000D03*
%TO.P,U1,8*%
%TO.N,GND*%
X148220000Y-43000000D03*
%TO.P,U1,9*%
%TO.N,unconnected-(U1-Pad9)*%
X145680000Y-43000000D03*
%TO.P,U1,10*%
%TO.N,unconnected-(U1-Pad10)*%
X143140000Y-43000000D03*
%TO.P,U1,11*%
%TO.N,Net-(J2-Pin_4)*%
X140600000Y-43000000D03*
%TO.P,U1,12*%
%TO.N,unconnected-(U1-Pad12)*%
X138060000Y-43000000D03*
%TO.P,U1,13*%
%TO.N,+3V3*%
X135520000Y-43000000D03*
%TO.P,U1,14*%
%TO.N,Net-(R5-Pad1)*%
X132980000Y-43000000D03*
%TO.P,U1,15*%
%TO.N,Net-(J4-Pin_5)*%
X132980000Y-50620000D03*
%TO.P,U1,16*%
%TO.N,Net-(J4-Pin_6)*%
X135520000Y-50620000D03*
%TO.P,U1,17*%
%TO.N,Net-(J4-Pin_4)*%
X138060000Y-50620000D03*
%TO.P,U1,18*%
%TO.N,Net-(J4-Pin_8)*%
X140600000Y-50620000D03*
%TO.P,U1,19*%
%TO.N,GND*%
X143140000Y-50620000D03*
%TO.P,U1,20*%
%TO.N,Net-(C1-Pad1)*%
X145680000Y-50620000D03*
%TO.P,U1,21*%
%TO.N,Net-(J4-Pin_7)*%
X148220000Y-50620000D03*
%TO.P,U1,22*%
%TO.N,unconnected-(U1-Pad22)*%
X150760000Y-50620000D03*
%TO.P,U1,23*%
%TO.N,Net-(J3-Pin_3)*%
X153300000Y-50620000D03*
%TO.P,U1,24*%
%TO.N,Net-(J3-Pin_4)*%
X155840000Y-50620000D03*
%TO.P,U1,25*%
%TO.N,Net-(SW1-Pad2)*%
X158380000Y-50620000D03*
%TO.P,U1,26*%
%TO.N,Net-(SW2-Pad2)*%
X160920000Y-50620000D03*
%TO.P,U1,27*%
%TO.N,GND*%
X163460000Y-50620000D03*
%TO.P,U1,28*%
%TO.N,+3V3*%
X166000000Y-50620000D03*
%TD*%
%TO.P,R1,1*%
%TO.N,+3V3*%
X166000000Y-25000000D03*
%TO.P,R1,2*%
%TO.N,Net-(J1-Pin_1)*%
X166000000Y-35160000D03*
%TD*%
%TO.P,C6,1*%
%TO.N,+5V*%
X100500000Y-38500000D03*
%TO.P,C6,2*%
%TO.N,GND*%
X100500000Y-43500000D03*
%TD*%
D12*
%TO.P,J1,1,Pin_1_1*%
%TO.N,Net-(J1-Pin_1)*%
X114500000Y-34500000D03*
D11*
%TO.P,J1,2,Pin_2_2*%
%TO.N,+3V3*%
X114500000Y-37040000D03*
%TO.P,J1,3,Pin_3_3*%
%TO.N,GND*%
X114500000Y-39580000D03*
%TO.P,J1,4,Pin_4_4*%
%TO.N,Net-(J1-Pin_4)*%
X114500000Y-42120000D03*
%TO.P,J1,5,Pin_5_5*%
%TO.N,Net-(J1-Pin_5)*%
X114500000Y-44660000D03*
%TO.P,J1,6,Pin_6_6*%
%TO.N,unconnected-(J1-Pin_6-Pad6)*%
X114500000Y-47200000D03*
%TO.P,J1,7,Pin_7_7*%
%TO.N,unconnected-(J1-Pin_7-Pad7)*%
X114500000Y-49740000D03*
%TO.P,J1,8,Pin_8_8*%
%TO.N,unconnected-(J1-Pin_8-Pad8)*%
X114500000Y-52280000D03*
%TD*%
D12*
%TO.P,J4,1,Pin_1_1*%
%TO.N,GND*%
X157080000Y-96000000D03*
D11*
%TO.P,J4,2,Pin_2_2*%
%TO.N,+3V3*%
X154540000Y-96000000D03*
%TO.P,J4,3,Pin_3_3*%
X152000000Y-96000000D03*
%TO.P,J4,4,Pin_4_4*%
%TO.N,Net-(J4-Pin_4)*%
X149460000Y-96000000D03*
%TO.P,J4,5,Pin_5_5*%
%TO.N,Net-(J4-Pin_5)*%
X146920000Y-96000000D03*
%TO.P,J4,6,Pin_6_6*%
%TO.N,Net-(J4-Pin_6)*%
X144380000Y-96000000D03*
%TO.P,J4,7,Pin_7_7*%
%TO.N,Net-(J4-Pin_7)*%
X141840000Y-96000000D03*
%TO.P,J4,8,Pin_8_8*%
%TO.N,Net-(J4-Pin_8)*%
X139300000Y-96000000D03*
%TD*%
D18*
%TO.P,J6,1,Pin_1_1*%
%TO.N,+5V*%
X87000000Y-43000000D03*
D19*
%TO.P,J6,2,Pin_2_2*%
%TO.N,GND*%
X84460000Y-43000000D03*
%TO.P,J6,3,Pin_3_3*%
%TO.N,+3V3*%
X81920000Y-43000000D03*
%TD*%
D13*
%TO.P,C7,1*%
%TO.N,GND*%
X79000000Y-32500000D03*
%TO.P,C7,2*%
X74000000Y-32500000D03*
%TD*%
%TO.P,C3,1*%
%TO.N,GND*%
X166000000Y-58000000D03*
%TO.P,C3,2*%
%TO.N,+3V3*%
X166000000Y-53000000D03*
%TD*%
%TO.P,C1,1*%
%TO.N,Net-(C1-Pad1)*%
X144500000Y-53000000D03*
%TO.P,C1,2*%
%TO.N,GND*%
X144500000Y-58000000D03*
%TD*%
D20*
%TO.N,Net-(J4-Pin_6)*%
X135500000Y-81500000D03*
X135500000Y-83500000D03*
%TO.N,Net-(J4-Pin_7)*%
X142500000Y-81000000D03*
X142500000Y-90500000D03*
%TO.N,Net-(J4-Pin_8)*%
X139252702Y-86747298D03*
X140000000Y-81825000D03*
%TO.N,Net-(J4-Pin_5)*%
X133000000Y-81000000D03*
X133000000Y-84000000D03*
%TO.N,Net-(R5-Pad1)*%
X138735000Y-82500000D03*
X137000000Y-82500000D03*
%TO.N,Net-(SW1-Pad2)*%
X188500000Y-81500000D03*
X158500000Y-64000000D03*
X158500000Y-70500000D03*
X188500000Y-84500000D03*
%TO.N,Net-(SW2-Pad2)*%
X178000000Y-62000000D03*
X171000000Y-62000000D03*
X198000000Y-85000000D03*
X197500000Y-81500000D03*
%TD*%
%TO.N,Net-(J4-Pin_6)*%
D21*
X135500000Y-83500000D02*
X135500000Y-81500000D01*
%TO.N,Net-(J4-Pin_7)*%
X142500000Y-90500000D02*
X142500000Y-81000000D01*
%TO.N,Net-(J4-Pin_8)*%
X139252702Y-86747298D02*
X140000000Y-86000000D01*
X140000000Y-86000000D02*
X140000000Y-81825000D01*
%TO.N,Net-(J4-Pin_5)*%
X133000000Y-84000000D02*
X133000000Y-81000000D01*
%TO.N,Net-(R5-Pad1)*%
X138735000Y-82500000D02*
X137000000Y-82500000D01*
%TO.N,Net-(SW1-Pad2)*%
X158500000Y-70500000D02*
X158500000Y-64000000D01*
X188500000Y-84500000D02*
X188500000Y-81500000D01*
%TO.N,Net-(SW2-Pad2)*%
X171000000Y-62000000D02*
X178000000Y-62000000D01*
X198000000Y-82000000D02*
X198000000Y-85000000D01*
X197500000Y-81500000D02*
X198000000Y-82000000D01*
%TD*%
%TA.AperFunction,Conductor*%
%TO.N,GND*%
G36*
X144219474Y-51345922D02*
G01*
X144219474Y-51345921D01*
X144251861Y-51301347D01*
X144251861Y-51301346D01*
X144299234Y-51208371D01*
X144347208Y-51157575D01*
X144415028Y-51140779D01*
X144481164Y-51163316D01*
X144520203Y-51208369D01*
X144567713Y-51301611D01*
X144688028Y-51467213D01*
X144710298Y-51489483D01*
X144743783Y-51550806D01*
X144738799Y-51620498D01*
X144696927Y-51676431D01*
X144631463Y-51700848D01*
X144607208Y-51699809D01*
X144607203Y-51699882D01*
X144605176Y-51699722D01*
X144603229Y-51699639D01*
X144602352Y-51699500D01*
X144397648Y-51699500D01*
X144333369Y-51709681D01*
X144195464Y-51731523D01*
X144195461Y-51731523D01*
X144031181Y-51784902D01*
X143961340Y-51786897D01*
X143901507Y-51750817D01*
X143886265Y-51719817D01*
X143186447Y-51020000D01*
X143192661Y-51020000D01*
X143294394Y-50992741D01*
X143385606Y-50940080D01*
X143460080Y-50865606D01*
X143512741Y-50774394D01*
X143540000Y-50672661D01*
X143540000Y-50666448D01*
X144219474Y-51345922D01*
G37*
%TD.AperFunction*%
%TA.AperFunction,Conductor*%
G36*
X219296232Y-18200409D02*
G01*
X219342046Y-18253161D01*
X219353310Y-18304598D01*
X219499797Y-108375380D01*
X219480221Y-108442452D01*
X219427492Y-108488292D01*
X219375381Y-108499581D01*
X70623444Y-108000414D01*
X70556471Y-107980505D01*
X70510893Y-107927548D01*
X70499860Y-107876558D01*
X70490284Y-99381947D01*
X168500000Y-99381947D01*
X168500000Y-99618052D01*
X168536934Y-99851247D01*
X168609897Y-100075802D01*
X168717087Y-100286174D01*
X168777338Y-100369104D01*
X168777340Y-100369105D01*
X169476212Y-99670233D01*
X169487482Y-99712292D01*
X169559890Y-99837708D01*
X169662292Y-99940110D01*
X169787708Y-100012518D01*
X169829765Y-100023787D01*
X169130893Y-100722658D01*
X169213828Y-100782914D01*
X169424197Y-100890102D01*
X169648752Y-100963065D01*
X169648751Y-100963065D01*
X169881948Y-101000000D01*
X170118052Y-101000000D01*
X170351247Y-100963065D01*
X170575802Y-100890102D01*
X170786163Y-100782918D01*
X170786169Y-100782914D01*
X170869104Y-100722658D01*
X170869105Y-100722658D01*
X170170233Y-100023787D01*
X170212292Y-100012518D01*
X170337708Y-99940110D01*
X170440110Y-99837708D01*
X170512518Y-99712292D01*
X170523787Y-99670234D01*
X171222658Y-100369105D01*
X171222658Y-100369104D01*
X171282914Y-100286169D01*
X171282918Y-100286163D01*
X171390102Y-100075802D01*
X171463065Y-99851247D01*
X171500000Y-99618052D01*
X171500000Y-99381947D01*
X175000000Y-99381947D01*
X175000000Y-99618052D01*
X175036934Y-99851247D01*
X175109897Y-100075802D01*
X175217087Y-100286174D01*
X175277338Y-100369104D01*
X175277340Y-100369105D01*
X175976212Y-99670233D01*
X175987482Y-99712292D01*
X176059890Y-99837708D01*
X176162292Y-99940110D01*
X176287708Y-100012518D01*
X176329765Y-100023787D01*
X175630893Y-100722658D01*
X175713828Y-100782914D01*
X175924197Y-100890102D01*
X176148752Y-100963065D01*
X176148751Y-100963065D01*
X176381948Y-101000000D01*
X176618052Y-101000000D01*
X176851247Y-100963065D01*
X177075802Y-100890102D01*
X177286163Y-100782918D01*
X177286169Y-100782914D01*
X177369104Y-100722658D01*
X177369105Y-100722658D01*
X176670233Y-100023787D01*
X176712292Y-100012518D01*
X176837708Y-99940110D01*
X176940110Y-99837708D01*
X177012518Y-99712292D01*
X177023787Y-99670234D01*
X177722658Y-100369105D01*
X177722658Y-100369104D01*
X177782914Y-100286169D01*
X177782918Y-100286163D01*
X177890102Y-100075802D01*
X177963065Y-99851247D01*
X178000000Y-99618052D01*
X178000000Y-99381947D01*
X183000000Y-99381947D01*
X183000000Y-99618052D01*
X183036934Y-99851247D01*
X183109897Y-100075802D01*
X183217087Y-100286174D01*
X183277338Y-100369104D01*
X183277340Y-100369105D01*
X183976212Y-99670233D01*
X183987482Y-99712292D01*
X184059890Y-99837708D01*
X184162292Y-99940110D01*
X184287708Y-100012518D01*
X184329765Y-100023787D01*
X183630893Y-100722658D01*
X183713828Y-100782914D01*
X183924197Y-100890102D01*
X184148752Y-100963065D01*
X184148751Y-100963065D01*
X184381948Y-101000000D01*
X184618052Y-101000000D01*
X184851247Y-100963065D01*
X185075802Y-100890102D01*
X185286163Y-100782918D01*
X185286169Y-100782914D01*
X185369104Y-100722658D01*
X185369105Y-100722658D01*
X184670233Y-100023787D01*
X184712292Y-100012518D01*
X184837708Y-99940110D01*
X184940110Y-99837708D01*
X185012518Y-99712292D01*
X185023787Y-99670233D01*
X185722658Y-100369105D01*
X185722658Y-100369104D01*
X185782914Y-100286169D01*
X185782918Y-100286163D01*
X185890102Y-100075802D01*
X185963065Y-99851247D01*
X186000000Y-99618052D01*
X186000000Y-99381947D01*
X189500000Y-99381947D01*
X189500000Y-99618052D01*
X189536934Y-99851247D01*
X189609897Y-100075802D01*
X189717087Y-100286174D01*
X189777338Y-100369104D01*
X189777340Y-100369105D01*
X190476212Y-99670233D01*
X190487482Y-99712292D01*
X190559890Y-99837708D01*
X190662292Y-99940110D01*
X190787708Y-100012518D01*
X190829765Y-100023787D01*
X190130893Y-100722658D01*
X190213828Y-100782914D01*
X190424197Y-100890102D01*
X190648752Y-100963065D01*
X190648751Y-100963065D01*
X190881948Y-101000000D01*
X191118052Y-101000000D01*
X191351247Y-100963065D01*
X191575802Y-100890102D01*
X191786163Y-100782918D01*
X191786169Y-100782914D01*
X191869104Y-100722658D01*
X191869105Y-100722658D01*
X191170233Y-100023787D01*
X191212292Y-100012518D01*
X191337708Y-99940110D01*
X191440110Y-99837708D01*
X191512518Y-99712292D01*
X191523787Y-99670233D01*
X192222658Y-100369105D01*
X192222658Y-100369104D01*
X192282914Y-100286169D01*
X192282918Y-100286163D01*
X192390102Y-100075802D01*
X192463065Y-99851247D01*
X192500000Y-99618052D01*
X192500000Y-99381947D01*
X192463065Y-99148752D01*
X192390102Y-98924197D01*
X192282914Y-98713828D01*
X192222658Y-98630894D01*
X192222658Y-98630893D01*
X191523787Y-99329765D01*
X191512518Y-99287708D01*
X191440110Y-99162292D01*
X191337708Y-99059890D01*
X191212292Y-98987482D01*
X191170234Y-98976212D01*
X191869105Y-98277340D01*
X191869104Y-98277338D01*
X191786174Y-98217087D01*
X191575802Y-98109897D01*
X191351247Y-98036934D01*
X191351248Y-98036934D01*
X191118052Y-98000000D01*
X190881948Y-98000000D01*
X190648752Y-98036934D01*
X190424197Y-98109897D01*
X190213830Y-98217084D01*
X190130894Y-98277340D01*
X190829766Y-98976212D01*
X190787708Y-98987482D01*
X190662292Y-99059890D01*
X190559890Y-99162292D01*
X190487482Y-99287708D01*
X190476212Y-99329766D01*
X189777340Y-98630894D01*
X189717084Y-98713830D01*
X189609897Y-98924197D01*
X189536934Y-99148752D01*
X189500000Y-99381947D01*
X186000000Y-99381947D01*
X185963065Y-99148752D01*
X185890102Y-98924197D01*
X185782914Y-98713828D01*
X185722658Y-98630894D01*
X185722658Y-98630893D01*
X185023787Y-99329765D01*
X185012518Y-99287708D01*
X184940110Y-99162292D01*
X184837708Y-99059890D01*
X184712292Y-98987482D01*
X184670234Y-98976212D01*
X185369105Y-98277340D01*
X185369104Y-98277339D01*
X185286174Y-98217087D01*
X185075802Y-98109897D01*
X184851247Y-98036934D01*
X184851248Y-98036934D01*
X184618052Y-98000000D01*
X184381948Y-98000000D01*
X184148752Y-98036934D01*
X183924197Y-98109897D01*
X183713830Y-98217084D01*
X183630894Y-98277340D01*
X184329766Y-98976212D01*
X184287708Y-98987482D01*
X184162292Y-99059890D01*
X184059890Y-99162292D01*
X183987482Y-99287708D01*
X183976212Y-99329765D01*
X183277340Y-98630894D01*
X183217084Y-98713830D01*
X183109897Y-98924197D01*
X183036934Y-99148752D01*
X183000000Y-99381947D01*
X178000000Y-99381947D01*
X177963065Y-99148752D01*
X177890102Y-98924197D01*
X177782914Y-98713828D01*
X177722658Y-98630894D01*
X177722658Y-98630893D01*
X177023787Y-99329765D01*
X177012518Y-99287708D01*
X176940110Y-99162292D01*
X176837708Y-99059890D01*
X176712292Y-98987482D01*
X176670234Y-98976212D01*
X177369105Y-98277340D01*
X177369104Y-98277339D01*
X177286174Y-98217087D01*
X177075802Y-98109897D01*
X176851247Y-98036934D01*
X176851248Y-98036934D01*
X176618052Y-98000000D01*
X176381948Y-98000000D01*
X176148752Y-98036934D01*
X175924197Y-98109897D01*
X175713830Y-98217084D01*
X175630894Y-98277340D01*
X176329766Y-98976212D01*
X176287708Y-98987482D01*
X176162292Y-99059890D01*
X176059890Y-99162292D01*
X175987482Y-99287708D01*
X175976212Y-99329765D01*
X175277340Y-98630894D01*
X175217084Y-98713830D01*
X175109897Y-98924197D01*
X175036934Y-99148752D01*
X175000000Y-99381947D01*
X171500000Y-99381947D01*
X171463065Y-99148752D01*
X171390102Y-98924197D01*
X171282914Y-98713828D01*
X171222658Y-98630894D01*
X171222658Y-98630893D01*
X170523787Y-99329765D01*
X170512518Y-99287708D01*
X170440110Y-99162292D01*
X170337708Y-99059890D01*
X170212292Y-98987482D01*
X170170234Y-98976212D01*
X170869105Y-98277340D01*
X170869104Y-98277339D01*
X170786174Y-98217087D01*
X170575802Y-98109897D01*
X170351247Y-98036934D01*
X170351248Y-98036934D01*
X170118052Y-98000000D01*
X169881948Y-98000000D01*
X169648752Y-98036934D01*
X169424197Y-98109897D01*
X169213830Y-98217084D01*
X169130894Y-98277340D01*
X169829766Y-98976212D01*
X169787708Y-98987482D01*
X169662292Y-99059890D01*
X169559890Y-99162292D01*
X169487482Y-99287708D01*
X169476212Y-99329766D01*
X168777340Y-98630894D01*
X168717084Y-98713830D01*
X168609897Y-98924197D01*
X168536934Y-99148752D01*
X168500000Y-99381947D01*
X70490284Y-99381947D01*
X70485460Y-95102155D01*
X111990000Y-95102155D01*
X111990000Y-95750000D01*
X112906988Y-95750000D01*
X112874075Y-95807007D01*
X112840000Y-95934174D01*
X112840000Y-96065826D01*
X112874075Y-96192993D01*
X112906988Y-96250000D01*
X111990000Y-96250000D01*
X111990000Y-96897844D01*
X111996401Y-96957372D01*
X111996403Y-96957379D01*
X112046645Y-97092086D01*
X112046649Y-97092093D01*
X112132809Y-97207187D01*
X112132812Y-97207190D01*
X112247906Y-97293350D01*
X112247913Y-97293354D01*
X112382620Y-97343596D01*
X112382627Y-97343598D01*
X112442155Y-97349999D01*
X112442172Y-97350000D01*
X113090000Y-97350000D01*
X113090000Y-96433012D01*
X113147007Y-96465925D01*
X113274174Y-96500000D01*
X113405826Y-96500000D01*
X113532993Y-96465925D01*
X113590000Y-96433012D01*
X113590000Y-97350000D01*
X114237828Y-97350000D01*
X114237844Y-97349999D01*
X114297372Y-97343598D01*
X114297379Y-97343596D01*
X114432086Y-97293354D01*
X114432093Y-97293350D01*
X114547187Y-97207190D01*
X114547190Y-97207187D01*
X114633350Y-97092093D01*
X114633354Y-97092086D01*
X114682422Y-96960529D01*
X114724293Y-96904595D01*
X114789757Y-96880178D01*
X114858030Y-96895030D01*
X114886285Y-96916181D01*
X115000213Y-97030109D01*
X115172179Y-97155048D01*
X115172181Y-97155049D01*
X115172184Y-97155051D01*
X115361588Y-97251557D01*
X115563757Y-97317246D01*
X115773713Y-97350500D01*
X115773714Y-97350500D01*
X115986286Y-97350500D01*
X115986287Y-97350500D01*
X116196243Y-97317246D01*
X116398412Y-97251557D01*
X116587816Y-97155051D01*
X116674478Y-97092088D01*
X116759786Y-97030109D01*
X116759788Y-97030106D01*
X116759792Y-97030104D01*
X116910104Y-96879792D01*
X116910106Y-96879788D01*
X116910109Y-96879786D01*
X117035048Y-96707820D01*
X117035047Y-96707820D01*
X117035051Y-96707816D01*
X117039514Y-96699054D01*
X117087488Y-96648259D01*
X117155308Y-96631463D01*
X117221444Y-96653999D01*
X117260486Y-96699056D01*
X117264951Y-96707820D01*
X117389890Y-96879786D01*
X117540213Y-97030109D01*
X117712179Y-97155048D01*
X117712181Y-97155049D01*
X117712184Y-97155051D01*
X117901588Y-97251557D01*
X118103757Y-97317246D01*
X118313713Y-97350500D01*
X118313714Y-97350500D01*
X118526286Y-97350500D01*
X118526287Y-97350500D01*
X118736243Y-97317246D01*
X118938412Y-97251557D01*
X119127816Y-97155051D01*
X119214478Y-97092088D01*
X119299786Y-97030109D01*
X119299788Y-97030106D01*
X119299792Y-97030104D01*
X119450104Y-96879792D01*
X119450106Y-96879788D01*
X119450109Y-96879786D01*
X119575048Y-96707820D01*
X119575047Y-96707820D01*
X119575051Y-96707816D01*
X119579514Y-96699054D01*
X119627488Y-96648259D01*
X119695308Y-96631463D01*
X119761444Y-96653999D01*
X119800486Y-96699056D01*
X119804951Y-96707820D01*
X119929890Y-96879786D01*
X120080213Y-97030109D01*
X120252179Y-97155048D01*
X120252181Y-97155049D01*
X120252184Y-97155051D01*
X120441588Y-97251557D01*
X120643757Y-97317246D01*
X120853713Y-97350500D01*
X120853714Y-97350500D01*
X121066286Y-97350500D01*
X121066287Y-97350500D01*
X121276243Y-97317246D01*
X121478412Y-97251557D01*
X121667816Y-97155051D01*
X121754478Y-97092088D01*
X121839786Y-97030109D01*
X121839788Y-97030106D01*
X121839792Y-97030104D01*
X121990104Y-96879792D01*
X121990106Y-96879788D01*
X121990109Y-96879786D01*
X122115048Y-96707820D01*
X122115047Y-96707820D01*
X122115051Y-96707816D01*
X122119514Y-96699054D01*
X122167488Y-96648259D01*
X122235308Y-96631463D01*
X122301444Y-96653999D01*
X122340486Y-96699056D01*
X122344951Y-96707820D01*
X122469890Y-96879786D01*
X122620213Y-97030109D01*
X122792179Y-97155048D01*
X122792181Y-97155049D01*
X122792184Y-97155051D01*
X122981588Y-97251557D01*
X123183757Y-97317246D01*
X123393713Y-97350500D01*
X123393714Y-97350500D01*
X123606286Y-97350500D01*
X123606287Y-97350500D01*
X123816243Y-97317246D01*
X124018412Y-97251557D01*
X124207816Y-97155051D01*
X124294478Y-97092088D01*
X124379786Y-97030109D01*
X124379788Y-97030106D01*
X124379792Y-97030104D01*
X124530104Y-96879792D01*
X124530106Y-96879788D01*
X124530109Y-96879786D01*
X124655048Y-96707820D01*
X124655047Y-96707820D01*
X124655051Y-96707816D01*
X124751557Y-96518412D01*
X124817246Y-96316243D01*
X124850500Y-96106287D01*
X124850500Y-95893713D01*
X137949500Y-95893713D01*
X137949500Y-96106287D01*
X137982754Y-96316243D01*
X138021072Y-96434174D01*
X138048444Y-96518414D01*
X138144951Y-96707820D01*
X138269890Y-96879786D01*
X138420213Y-97030109D01*
X138592179Y-97155048D01*
X138592181Y-97155049D01*
X138592184Y-97155051D01*
X138781588Y-97251557D01*
X138983757Y-97317246D01*
X139193713Y-97350500D01*
X139193714Y-97350500D01*
X139406286Y-97350500D01*
X139406287Y-97350500D01*
X139616243Y-97317246D01*
X139818412Y-97251557D01*
X140007816Y-97155051D01*
X140094478Y-97092088D01*
X140179786Y-97030109D01*
X140179788Y-97030106D01*
X140179792Y-97030104D01*
X140330104Y-96879792D01*
X140330106Y-96879788D01*
X140330109Y-96879786D01*
X140455048Y-96707820D01*
X140455047Y-96707820D01*
X140455051Y-96707816D01*
X140459514Y-96699054D01*
X140507488Y-96648259D01*
X140575308Y-96631463D01*
X140641444Y-96653999D01*
X140680486Y-96699056D01*
X140684951Y-96707820D01*
X140809890Y-96879786D01*
X140960213Y-97030109D01*
X141132179Y-97155048D01*
X141132181Y-97155049D01*
X141132184Y-97155051D01*
X141321588Y-97251557D01*
X141523757Y-97317246D01*
X141733713Y-97350500D01*
X141733714Y-97350500D01*
X141946286Y-97350500D01*
X141946287Y-97350500D01*
X142156243Y-97317246D01*
X142358412Y-97251557D01*
X142547816Y-97155051D01*
X142634478Y-97092088D01*
X142719786Y-97030109D01*
X142719788Y-97030106D01*
X142719792Y-97030104D01*
X142870104Y-96879792D01*
X142870106Y-96879788D01*
X142870109Y-96879786D01*
X142995048Y-96707820D01*
X142995047Y-96707820D01*
X142995051Y-96707816D01*
X142999514Y-96699054D01*
X143047488Y-96648259D01*
X143115308Y-96631463D01*
X143181444Y-96653999D01*
X143220486Y-96699056D01*
X143224951Y-96707820D01*
X143349890Y-96879786D01*
X143500213Y-97030109D01*
X143672179Y-97155048D01*
X143672181Y-97155049D01*
X143672184Y-97155051D01*
X143861588Y-97251557D01*
X144063757Y-97317246D01*
X144273713Y-97350500D01*
X144273714Y-97350500D01*
X144486286Y-97350500D01*
X144486287Y-97350500D01*
X144696243Y-97317246D01*
X144898412Y-97251557D01*
X145087816Y-97155051D01*
X145174478Y-97092088D01*
X145259786Y-97030109D01*
X145259788Y-97030106D01*
X145259792Y-97030104D01*
X145410104Y-96879792D01*
X145410106Y-96879788D01*
X145410109Y-96879786D01*
X145535048Y-96707820D01*
X145535047Y-96707820D01*
X145535051Y-96707816D01*
X145539514Y-96699054D01*
X145587488Y-96648259D01*
X145655308Y-96631463D01*
X145721444Y-96653999D01*
X145760486Y-96699056D01*
X145764951Y-96707820D01*
X145889890Y-96879786D01*
X146040213Y-97030109D01*
X146212179Y-97155048D01*
X146212181Y-97155049D01*
X146212184Y-97155051D01*
X146401588Y-97251557D01*
X146603757Y-97317246D01*
X146813713Y-97350500D01*
X146813714Y-97350500D01*
X147026286Y-97350500D01*
X147026287Y-97350500D01*
X147236243Y-97317246D01*
X147438412Y-97251557D01*
X147627816Y-97155051D01*
X147714478Y-97092088D01*
X147799786Y-97030109D01*
X147799788Y-97030106D01*
X147799792Y-97030104D01*
X147950104Y-96879792D01*
X147950106Y-96879788D01*
X147950109Y-96879786D01*
X148075048Y-96707820D01*
X148075047Y-96707820D01*
X148075051Y-96707816D01*
X148079514Y-96699054D01*
X148127488Y-96648259D01*
X148195308Y-96631463D01*
X148261444Y-96653999D01*
X148300486Y-96699056D01*
X148304951Y-96707820D01*
X148429890Y-96879786D01*
X148580213Y-97030109D01*
X148752179Y-97155048D01*
X148752181Y-97155049D01*
X148752184Y-97155051D01*
X148941588Y-97251557D01*
X149143757Y-97317246D01*
X149353713Y-97350500D01*
X149353714Y-97350500D01*
X149566286Y-97350500D01*
X149566287Y-97350500D01*
X149776243Y-97317246D01*
X149978412Y-97251557D01*
X150167816Y-97155051D01*
X150254478Y-97092088D01*
X150339786Y-97030109D01*
X150339788Y-97030106D01*
X150339792Y-97030104D01*
X150490104Y-96879792D01*
X150490106Y-96879788D01*
X150490109Y-96879786D01*
X150615048Y-96707820D01*
X150615047Y-96707820D01*
X150615051Y-96707816D01*
X150619514Y-96699054D01*
X150667488Y-96648259D01*
X150735308Y-96631463D01*
X150801444Y-96653999D01*
X150840486Y-96699056D01*
X150844951Y-96707820D01*
X150969890Y-96879786D01*
X151120213Y-97030109D01*
X151292179Y-97155048D01*
X151292181Y-97155049D01*
X151292184Y-97155051D01*
X151481588Y-97251557D01*
X151683757Y-97317246D01*
X151893713Y-97350500D01*
X151893714Y-97350500D01*
X152106286Y-97350500D01*
X152106287Y-97350500D01*
X152316243Y-97317246D01*
X152518412Y-97251557D01*
X152707816Y-97155051D01*
X152794478Y-97092088D01*
X152879786Y-97030109D01*
X152879788Y-97030106D01*
X152879792Y-97030104D01*
X153030104Y-96879792D01*
X153030106Y-96879788D01*
X153030109Y-96879786D01*
X153155048Y-96707820D01*
X153155047Y-96707820D01*
X153155051Y-96707816D01*
X153159514Y-96699054D01*
X153207488Y-96648259D01*
X153275308Y-96631463D01*
X153341444Y-96653999D01*
X153380486Y-96699056D01*
X153384951Y-96707820D01*
X153509890Y-96879786D01*
X153660213Y-97030109D01*
X153832179Y-97155048D01*
X153832181Y-97155049D01*
X153832184Y-97155051D01*
X154021588Y-97251557D01*
X154223757Y-97317246D01*
X154433713Y-97350500D01*
X154433714Y-97350500D01*
X154646286Y-97350500D01*
X154646287Y-97350500D01*
X154856243Y-97317246D01*
X155058412Y-97251557D01*
X155247816Y-97155051D01*
X155334478Y-97092088D01*
X155419784Y-97030110D01*
X155419784Y-97030109D01*
X155419792Y-97030104D01*
X155533717Y-96916178D01*
X155595036Y-96882696D01*
X155664728Y-96887680D01*
X155720662Y-96929551D01*
X155737577Y-96960528D01*
X155786646Y-97092088D01*
X155786649Y-97092093D01*
X155872809Y-97207187D01*
X155872812Y-97207190D01*
X155987906Y-97293350D01*
X155987913Y-97293354D01*
X156122620Y-97343596D01*
X156122627Y-97343598D01*
X156182155Y-97349999D01*
X156182172Y-97350000D01*
X156830000Y-97350000D01*
X156830000Y-96433012D01*
X156887007Y-96465925D01*
X157014174Y-96500000D01*
X157145826Y-96500000D01*
X157272993Y-96465925D01*
X157330000Y-96433012D01*
X157330000Y-97350000D01*
X157977828Y-97350000D01*
X157977844Y-97349999D01*
X158037372Y-97343598D01*
X158037379Y-97343596D01*
X158172086Y-97293354D01*
X158172093Y-97293350D01*
X158287187Y-97207190D01*
X158287190Y-97207187D01*
X158373350Y-97092093D01*
X158373354Y-97092086D01*
X158423596Y-96957379D01*
X158423598Y-96957372D01*
X158429999Y-96897844D01*
X158430000Y-96897827D01*
X158430000Y-96250000D01*
X157513012Y-96250000D01*
X157545925Y-96192993D01*
X157580000Y-96065826D01*
X157580000Y-95934174D01*
X157545925Y-95807007D01*
X157513012Y-95750000D01*
X158430000Y-95750000D01*
X158430000Y-95102172D01*
X158429999Y-95102155D01*
X158423598Y-95042627D01*
X158423596Y-95042620D01*
X158378000Y-94920369D01*
X158373354Y-94907913D01*
X158373350Y-94907906D01*
X158353883Y-94881902D01*
X168499500Y-94881902D01*
X168499500Y-95118097D01*
X168536446Y-95351368D01*
X168609433Y-95575996D01*
X168669047Y-95692993D01*
X168716657Y-95786433D01*
X168855483Y-95977510D01*
X169022490Y-96144517D01*
X169213567Y-96283343D01*
X169278129Y-96316239D01*
X169424003Y-96390566D01*
X169424005Y-96390566D01*
X169424008Y-96390568D01*
X169544412Y-96429689D01*
X169648631Y-96463553D01*
X169881903Y-96500500D01*
X169881908Y-96500500D01*
X170118097Y-96500500D01*
X170351368Y-96463553D01*
X170357225Y-96461650D01*
X170575992Y-96390568D01*
X170786433Y-96283343D01*
X170977510Y-96144517D01*
X171144517Y-95977510D01*
X171283343Y-95786433D01*
X171390568Y-95575992D01*
X171463553Y-95351368D01*
X171472928Y-95292179D01*
X171500500Y-95118097D01*
X171500500Y-94881902D01*
X174999500Y-94881902D01*
X174999500Y-95118097D01*
X175036446Y-95351368D01*
X175109433Y-95575996D01*
X175169047Y-95692993D01*
X175216657Y-95786433D01*
X175355483Y-95977510D01*
X175522490Y-96144517D01*
X175713567Y-96283343D01*
X175778129Y-96316239D01*
X175924003Y-96390566D01*
X175924005Y-96390566D01*
X175924008Y-96390568D01*
X176044412Y-96429689D01*
X176148631Y-96463553D01*
X176381903Y-96500500D01*
X176381908Y-96500500D01*
X176618097Y-96500500D01*
X176851368Y-96463553D01*
X176857225Y-96461650D01*
X177075992Y-96390568D01*
X177286433Y-96283343D01*
X177477510Y-96144517D01*
X177644517Y-95977510D01*
X177783343Y-95786433D01*
X177890568Y-95575992D01*
X177963553Y-95351368D01*
X177972928Y-95292179D01*
X178000500Y-95118097D01*
X178000500Y-94881902D01*
X182999500Y-94881902D01*
X182999500Y-95118097D01*
X183036446Y-95351368D01*
X183109433Y-95575996D01*
X183169047Y-95692993D01*
X183216657Y-95786433D01*
X183355483Y-95977510D01*
X183522490Y-96144517D01*
X183713567Y-96283343D01*
X183778129Y-96316239D01*
X183924003Y-96390566D01*
X183924005Y-96390566D01*
X183924008Y-96390568D01*
X184044412Y-96429689D01*
X184148631Y-96463553D01*
X184381903Y-96500500D01*
X184381908Y-96500500D01*
X184618097Y-96500500D01*
X184851368Y-96463553D01*
X184857225Y-96461650D01*
X185075992Y-96390568D01*
X185286433Y-96283343D01*
X185477510Y-96144517D01*
X185644517Y-95977510D01*
X185783343Y-95786433D01*
X185890568Y-95575992D01*
X185963553Y-95351368D01*
X185972928Y-95292179D01*
X186000500Y-95118097D01*
X186000500Y-94881902D01*
X189499500Y-94881902D01*
X189499500Y-95118097D01*
X189536446Y-95351368D01*
X189609433Y-95575996D01*
X189669047Y-95692993D01*
X189716657Y-95786433D01*
X189855483Y-95977510D01*
X190022490Y-96144517D01*
X190213567Y-96283343D01*
X190278129Y-96316239D01*
X190424003Y-96390566D01*
X190424005Y-96390566D01*
X190424008Y-96390568D01*
X190544412Y-96429689D01*
X190648631Y-96463553D01*
X190881903Y-96500500D01*
X190881908Y-96500500D01*
X191118097Y-96500500D01*
X191351368Y-96463553D01*
X191357225Y-96461650D01*
X191575992Y-96390568D01*
X191786433Y-96283343D01*
X191977510Y-96144517D01*
X192144517Y-95977510D01*
X192283343Y-95786433D01*
X192377237Y-95602155D01*
X200490000Y-95602155D01*
X200490000Y-96250000D01*
X201406988Y-96250000D01*
X201374075Y-96307007D01*
X201340000Y-96434174D01*
X201340000Y-96565826D01*
X201374075Y-96692993D01*
X201406988Y-96750000D01*
X200490000Y-96750000D01*
X200490000Y-97397844D01*
X200496401Y-97457372D01*
X200496403Y-97457379D01*
X200546645Y-97592086D01*
X200546649Y-97592093D01*
X200632809Y-97707187D01*
X200632812Y-97707190D01*
X200747906Y-97793350D01*
X200747913Y-97793354D01*
X200882620Y-97843596D01*
X200882627Y-97843598D01*
X200942155Y-97849999D01*
X200942172Y-97850000D01*
X201590000Y-97850000D01*
X201590000Y-96933012D01*
X201647007Y-96965925D01*
X201774174Y-97000000D01*
X201905826Y-97000000D01*
X202032993Y-96965925D01*
X202090000Y-96933012D01*
X202090000Y-97850000D01*
X202737828Y-97850000D01*
X202737844Y-97849999D01*
X202797372Y-97843598D01*
X202797379Y-97843596D01*
X202932086Y-97793354D01*
X202932093Y-97793350D01*
X203047187Y-97707190D01*
X203047190Y-97707187D01*
X203133350Y-97592093D01*
X203133354Y-97592086D01*
X203182422Y-97460529D01*
X203224293Y-97404595D01*
X203289757Y-97380178D01*
X203358030Y-97395030D01*
X203386285Y-97416181D01*
X203500213Y-97530109D01*
X203672179Y-97655048D01*
X203672181Y-97655049D01*
X203672184Y-97655051D01*
X203861588Y-97751557D01*
X204063757Y-97817246D01*
X204273713Y-97850500D01*
X204273714Y-97850500D01*
X204486286Y-97850500D01*
X204486287Y-97850500D01*
X204696243Y-97817246D01*
X204898412Y-97751557D01*
X205087816Y-97655051D01*
X205174471Y-97592093D01*
X205259786Y-97530109D01*
X205259788Y-97530106D01*
X205259792Y-97530104D01*
X205410104Y-97379792D01*
X205410106Y-97379788D01*
X205410109Y-97379786D01*
X205535048Y-97207820D01*
X205535047Y-97207820D01*
X205535051Y-97207816D01*
X205539514Y-97199054D01*
X205587488Y-97148259D01*
X205655308Y-97131463D01*
X205721444Y-97153999D01*
X205760486Y-97199056D01*
X205764951Y-97207820D01*
X205889890Y-97379786D01*
X206040213Y-97530109D01*
X206212179Y-97655048D01*
X206212181Y-97655049D01*
X206212184Y-97655051D01*
X206401588Y-97751557D01*
X206603757Y-97817246D01*
X206813713Y-97850500D01*
X206813714Y-97850500D01*
X207026286Y-97850500D01*
X207026287Y-97850500D01*
X207236243Y-97817246D01*
X207438412Y-97751557D01*
X207627816Y-97655051D01*
X207714471Y-97592093D01*
X207799786Y-97530109D01*
X207799788Y-97530106D01*
X207799792Y-97530104D01*
X207950104Y-97379792D01*
X207950106Y-97379788D01*
X207950109Y-97379786D01*
X208075048Y-97207820D01*
X208075047Y-97207820D01*
X208075051Y-97207816D01*
X208079514Y-97199054D01*
X208127488Y-97148259D01*
X208195308Y-97131463D01*
X208261444Y-97153999D01*
X208300486Y-97199056D01*
X208304951Y-97207820D01*
X208429890Y-97379786D01*
X208580213Y-97530109D01*
X208752179Y-97655048D01*
X208752181Y-97655049D01*
X208752184Y-97655051D01*
X208941588Y-97751557D01*
X209143757Y-97817246D01*
X209353713Y-97850500D01*
X209353714Y-97850500D01*
X209566286Y-97850500D01*
X209566287Y-97850500D01*
X209776243Y-97817246D01*
X209978412Y-97751557D01*
X210167816Y-97655051D01*
X210254471Y-97592093D01*
X210339786Y-97530109D01*
X210339788Y-97530106D01*
X210339792Y-97530104D01*
X210490104Y-97379792D01*
X210490106Y-97379788D01*
X210490109Y-97379786D01*
X210615048Y-97207820D01*
X210615047Y-97207820D01*
X210615051Y-97207816D01*
X210619514Y-97199054D01*
X210667488Y-97148259D01*
X210735308Y-97131463D01*
X210801444Y-97153999D01*
X210840486Y-97199056D01*
X210844951Y-97207820D01*
X210969890Y-97379786D01*
X211120213Y-97530109D01*
X211292179Y-97655048D01*
X211292181Y-97655049D01*
X211292184Y-97655051D01*
X211481588Y-97751557D01*
X211683757Y-97817246D01*
X211893713Y-97850500D01*
X211893714Y-97850500D01*
X212106286Y-97850500D01*
X212106287Y-97850500D01*
X212316243Y-97817246D01*
X212518412Y-97751557D01*
X212707816Y-97655051D01*
X212794471Y-97592093D01*
X212879786Y-97530109D01*
X212879788Y-97530106D01*
X212879792Y-97530104D01*
X213030104Y-97379792D01*
X213030106Y-97379788D01*
X213030109Y-97379786D01*
X213155048Y-97207820D01*
X213155047Y-97207820D01*
X213155051Y-97207816D01*
X213251557Y-97018412D01*
X213317246Y-96816243D01*
X213350500Y-96606287D01*
X213350500Y-96393713D01*
X213317246Y-96183757D01*
X213251557Y-95981588D01*
X213155051Y-95792184D01*
X213155049Y-95792181D01*
X213155048Y-95792179D01*
X213030109Y-95620213D01*
X212879786Y-95469890D01*
X212707820Y-95344951D01*
X212518414Y-95248444D01*
X212518413Y-95248443D01*
X212518412Y-95248443D01*
X212316243Y-95182754D01*
X212316241Y-95182753D01*
X212316240Y-95182753D01*
X212154957Y-95157208D01*
X212106287Y-95149500D01*
X211893713Y-95149500D01*
X211845042Y-95157208D01*
X211683760Y-95182753D01*
X211481585Y-95248444D01*
X211292179Y-95344951D01*
X211120213Y-95469890D01*
X210969890Y-95620213D01*
X210844949Y-95792182D01*
X210840484Y-95800946D01*
X210792509Y-95851742D01*
X210724688Y-95868536D01*
X210658553Y-95845998D01*
X210619516Y-95800946D01*
X210615050Y-95792182D01*
X210490109Y-95620213D01*
X210339786Y-95469890D01*
X210167820Y-95344951D01*
X209978414Y-95248444D01*
X209978413Y-95248443D01*
X209978412Y-95248443D01*
X209776243Y-95182754D01*
X209776241Y-95182753D01*
X209776240Y-95182753D01*
X209614957Y-95157208D01*
X209566287Y-95149500D01*
X209353713Y-95149500D01*
X209305042Y-95157208D01*
X209143760Y-95182753D01*
X208941585Y-95248444D01*
X208752179Y-95344951D01*
X208580213Y-95469890D01*
X208429890Y-95620213D01*
X208304949Y-95792182D01*
X208300484Y-95800946D01*
X208252509Y-95851742D01*
X208184688Y-95868536D01*
X208118553Y-95845998D01*
X208079516Y-95800946D01*
X208075050Y-95792182D01*
X207950109Y-95620213D01*
X207799786Y-95469890D01*
X207627820Y-95344951D01*
X207438414Y-95248444D01*
X207438413Y-95248443D01*
X207438412Y-95248443D01*
X207236243Y-95182754D01*
X207236241Y-95182753D01*
X207236240Y-95182753D01*
X207074957Y-95157208D01*
X207026287Y-95149500D01*
X206813713Y-95149500D01*
X206765042Y-95157208D01*
X206603760Y-95182753D01*
X206401585Y-95248444D01*
X206212179Y-95344951D01*
X206040213Y-95469890D01*
X205889890Y-95620213D01*
X205764949Y-95792182D01*
X205760484Y-95800946D01*
X205712509Y-95851742D01*
X205644688Y-95868536D01*
X205578553Y-95845998D01*
X205539516Y-95800946D01*
X205535050Y-95792182D01*
X205410109Y-95620213D01*
X205259786Y-95469890D01*
X205087820Y-95344951D01*
X204898414Y-95248444D01*
X204898413Y-95248443D01*
X204898412Y-95248443D01*
X204696243Y-95182754D01*
X204696241Y-95182753D01*
X204696240Y-95182753D01*
X204534957Y-95157208D01*
X204486287Y-95149500D01*
X204273713Y-95149500D01*
X204225042Y-95157208D01*
X204063760Y-95182753D01*
X203861585Y-95248444D01*
X203672179Y-95344951D01*
X203500215Y-95469889D01*
X203386285Y-95583819D01*
X203324962Y-95617303D01*
X203255270Y-95612319D01*
X203199337Y-95570447D01*
X203182422Y-95539470D01*
X203133354Y-95407913D01*
X203133350Y-95407906D01*
X203047190Y-95292812D01*
X203047187Y-95292809D01*
X202932093Y-95206649D01*
X202932086Y-95206645D01*
X202797379Y-95156403D01*
X202797372Y-95156401D01*
X202737844Y-95150000D01*
X202090000Y-95150000D01*
X202090000Y-96066988D01*
X202032993Y-96034075D01*
X201905826Y-96000000D01*
X201774174Y-96000000D01*
X201647007Y-96034075D01*
X201590000Y-96066988D01*
X201590000Y-95150000D01*
X200942155Y-95150000D01*
X200882627Y-95156401D01*
X200882620Y-95156403D01*
X200747913Y-95206645D01*
X200747906Y-95206649D01*
X200632812Y-95292809D01*
X200632809Y-95292812D01*
X200546649Y-95407906D01*
X200546645Y-95407913D01*
X200496403Y-95542620D01*
X200496401Y-95542627D01*
X200490000Y-95602155D01*
X192377237Y-95602155D01*
X192390568Y-95575992D01*
X192463553Y-95351368D01*
X192472928Y-95292179D01*
X192500500Y-95118097D01*
X192500500Y-94881902D01*
X192463553Y-94648631D01*
X192390566Y-94424003D01*
X192283342Y-94213566D01*
X192144517Y-94022490D01*
X191977510Y-93855483D01*
X191786433Y-93716657D01*
X191575996Y-93609433D01*
X191351368Y-93536446D01*
X191118097Y-93499500D01*
X191118092Y-93499500D01*
X190881908Y-93499500D01*
X190881903Y-93499500D01*
X190648631Y-93536446D01*
X190424003Y-93609433D01*
X190213566Y-93716657D01*
X190104550Y-93795862D01*
X190022490Y-93855483D01*
X190022488Y-93855485D01*
X190022487Y-93855485D01*
X189855485Y-94022487D01*
X189855485Y-94022488D01*
X189855483Y-94022490D01*
X189795862Y-94104550D01*
X189716657Y-94213566D01*
X189609433Y-94424003D01*
X189536446Y-94648631D01*
X189499500Y-94881902D01*
X186000500Y-94881902D01*
X185963553Y-94648631D01*
X185890566Y-94424003D01*
X185783342Y-94213566D01*
X185644517Y-94022490D01*
X185477510Y-93855483D01*
X185286433Y-93716657D01*
X185075996Y-93609433D01*
X184851368Y-93536446D01*
X184618097Y-93499500D01*
X184618092Y-93499500D01*
X184381908Y-93499500D01*
X184381903Y-93499500D01*
X184148631Y-93536446D01*
X183924003Y-93609433D01*
X183713566Y-93716657D01*
X183604550Y-93795862D01*
X183522490Y-93855483D01*
X183522488Y-93855485D01*
X183522487Y-93855485D01*
X183355485Y-94022487D01*
X183355485Y-94022488D01*
X183355483Y-94022490D01*
X183295862Y-94104550D01*
X183216657Y-94213566D01*
X183109433Y-94424003D01*
X183036446Y-94648631D01*
X182999500Y-94881902D01*
X178000500Y-94881902D01*
X177963553Y-94648631D01*
X177890566Y-94424003D01*
X177783342Y-94213566D01*
X177644517Y-94022490D01*
X177477510Y-93855483D01*
X177286433Y-93716657D01*
X177075996Y-93609433D01*
X176851368Y-93536446D01*
X176618097Y-93499500D01*
X176618092Y-93499500D01*
X176381908Y-93499500D01*
X176381903Y-93499500D01*
X176148631Y-93536446D01*
X175924003Y-93609433D01*
X175713566Y-93716657D01*
X175604550Y-93795862D01*
X175522490Y-93855483D01*
X175522488Y-93855485D01*
X175522487Y-93855485D01*
X175355485Y-94022487D01*
X175355485Y-94022488D01*
X175355483Y-94022490D01*
X175295862Y-94104550D01*
X175216657Y-94213566D01*
X175109433Y-94424003D01*
X175036446Y-94648631D01*
X174999500Y-94881902D01*
X171500500Y-94881902D01*
X171463553Y-94648631D01*
X171390566Y-94424003D01*
X171283342Y-94213566D01*
X171144517Y-94022490D01*
X170977510Y-93855483D01*
X170786433Y-93716657D01*
X170575996Y-93609433D01*
X170351368Y-93536446D01*
X170118097Y-93499500D01*
X170118092Y-93499500D01*
X169881908Y-93499500D01*
X169881903Y-93499500D01*
X169648631Y-93536446D01*
X169424003Y-93609433D01*
X169213566Y-93716657D01*
X169104550Y-93795862D01*
X169022490Y-93855483D01*
X169022488Y-93855485D01*
X169022487Y-93855485D01*
X168855485Y-94022487D01*
X168855485Y-94022488D01*
X168855483Y-94022490D01*
X168795862Y-94104550D01*
X168716657Y-94213566D01*
X168609433Y-94424003D01*
X168536446Y-94648631D01*
X168499500Y-94881902D01*
X158353883Y-94881902D01*
X158287190Y-94792812D01*
X158287187Y-94792809D01*
X158172093Y-94706649D01*
X158172086Y-94706645D01*
X158037379Y-94656403D01*
X158037372Y-94656401D01*
X157977844Y-94650000D01*
X157330000Y-94650000D01*
X157330000Y-95566988D01*
X157272993Y-95534075D01*
X157145826Y-95500000D01*
X157014174Y-95500000D01*
X156887007Y-95534075D01*
X156830000Y-95566988D01*
X156830000Y-94650000D01*
X156182155Y-94650000D01*
X156122627Y-94656401D01*
X156122620Y-94656403D01*
X155987913Y-94706645D01*
X155987906Y-94706649D01*
X155872812Y-94792809D01*
X155872809Y-94792812D01*
X155786649Y-94907906D01*
X155786646Y-94907912D01*
X155737577Y-95039471D01*
X155695705Y-95095404D01*
X155630241Y-95119821D01*
X155561968Y-95104969D01*
X155533714Y-95083818D01*
X155419786Y-94969890D01*
X155247820Y-94844951D01*
X155058414Y-94748444D01*
X155058413Y-94748443D01*
X155058412Y-94748443D01*
X154856243Y-94682754D01*
X154856241Y-94682753D01*
X154856240Y-94682753D01*
X154694957Y-94657208D01*
X154646287Y-94649500D01*
X154433713Y-94649500D01*
X154385042Y-94657208D01*
X154223760Y-94682753D01*
X154021585Y-94748444D01*
X153832179Y-94844951D01*
X153660213Y-94969890D01*
X153509890Y-95120213D01*
X153384949Y-95292182D01*
X153380484Y-95300946D01*
X153332509Y-95351742D01*
X153264688Y-95368536D01*
X153198553Y-95345998D01*
X153159516Y-95300946D01*
X153155050Y-95292182D01*
X153030109Y-95120213D01*
X152879786Y-94969890D01*
X152707820Y-94844951D01*
X152518414Y-94748444D01*
X152518413Y-94748443D01*
X152518412Y-94748443D01*
X152316243Y-94682754D01*
X152316241Y-94682753D01*
X152316240Y-94682753D01*
X152154957Y-94657208D01*
X152106287Y-94649500D01*
X151893713Y-94649500D01*
X151845042Y-94657208D01*
X151683760Y-94682753D01*
X151481585Y-94748444D01*
X151292179Y-94844951D01*
X151120213Y-94969890D01*
X150969890Y-95120213D01*
X150844949Y-95292182D01*
X150840484Y-95300946D01*
X150792509Y-95351742D01*
X150724688Y-95368536D01*
X150658553Y-95345998D01*
X150619516Y-95300946D01*
X150615050Y-95292182D01*
X150490109Y-95120213D01*
X150339786Y-94969890D01*
X150167820Y-94844951D01*
X149978414Y-94748444D01*
X149978413Y-94748443D01*
X149978412Y-94748443D01*
X149776243Y-94682754D01*
X149776241Y-94682753D01*
X149776240Y-94682753D01*
X149614957Y-94657208D01*
X149566287Y-94649500D01*
X149353713Y-94649500D01*
X149305042Y-94657208D01*
X149143760Y-94682753D01*
X148941585Y-94748444D01*
X148752179Y-94844951D01*
X148580213Y-94969890D01*
X148429890Y-95120213D01*
X148304949Y-95292182D01*
X148300484Y-95300946D01*
X148252509Y-95351742D01*
X148184688Y-95368536D01*
X148118553Y-95345998D01*
X148079516Y-95300946D01*
X148075050Y-95292182D01*
X147950109Y-95120213D01*
X147799786Y-94969890D01*
X147627820Y-94844951D01*
X147438414Y-94748444D01*
X147438413Y-94748443D01*
X147438412Y-94748443D01*
X147236243Y-94682754D01*
X147236241Y-94682753D01*
X147236240Y-94682753D01*
X147074957Y-94657208D01*
X147026287Y-94649500D01*
X146813713Y-94649500D01*
X146765042Y-94657208D01*
X146603760Y-94682753D01*
X146401585Y-94748444D01*
X146212179Y-94844951D01*
X146040213Y-94969890D01*
X145889890Y-95120213D01*
X145764949Y-95292182D01*
X145760484Y-95300946D01*
X145712509Y-95351742D01*
X145644688Y-95368536D01*
X145578553Y-95345998D01*
X145539516Y-95300946D01*
X145535050Y-95292182D01*
X145410109Y-95120213D01*
X145259786Y-94969890D01*
X145087820Y-94844951D01*
X144898414Y-94748444D01*
X144898413Y-94748443D01*
X144898412Y-94748443D01*
X144696243Y-94682754D01*
X144696241Y-94682753D01*
X144696240Y-94682753D01*
X144534957Y-94657208D01*
X144486287Y-94649500D01*
X144273713Y-94649500D01*
X144225042Y-94657208D01*
X144063760Y-94682753D01*
X143861585Y-94748444D01*
X143672179Y-94844951D01*
X143500213Y-94969890D01*
X143349890Y-95120213D01*
X143224949Y-95292182D01*
X143220484Y-95300946D01*
X143172509Y-95351742D01*
X143104688Y-95368536D01*
X143038553Y-95345998D01*
X142999516Y-95300946D01*
X142995050Y-95292182D01*
X142870109Y-95120213D01*
X142719786Y-94969890D01*
X142547820Y-94844951D01*
X142358414Y-94748444D01*
X142358413Y-94748443D01*
X142358412Y-94748443D01*
X142156243Y-94682754D01*
X142156241Y-94682753D01*
X142156240Y-94682753D01*
X141994957Y-94657208D01*
X141946287Y-94649500D01*
X141733713Y-94649500D01*
X141685042Y-94657208D01*
X141523760Y-94682753D01*
X141321585Y-94748444D01*
X141132179Y-94844951D01*
X140960213Y-94969890D01*
X140809890Y-95120213D01*
X140684949Y-95292182D01*
X140680484Y-95300946D01*
X140632509Y-95351742D01*
X140564688Y-95368536D01*
X140498553Y-95345998D01*
X140459516Y-95300946D01*
X140455050Y-95292182D01*
X140330109Y-95120213D01*
X140179786Y-94969890D01*
X140007820Y-94844951D01*
X139818414Y-94748444D01*
X139818413Y-94748443D01*
X139818412Y-94748443D01*
X139616243Y-94682754D01*
X139616241Y-94682753D01*
X139616240Y-94682753D01*
X139454957Y-94657208D01*
X139406287Y-94649500D01*
X139193713Y-94649500D01*
X139145042Y-94657208D01*
X138983760Y-94682753D01*
X138781585Y-94748444D01*
X138592179Y-94844951D01*
X138420213Y-94969890D01*
X138269890Y-95120213D01*
X138144951Y-95292179D01*
X138048444Y-95481585D01*
X137982753Y-95683760D01*
X137953488Y-95868536D01*
X137949500Y-95893713D01*
X124850500Y-95893713D01*
X124817246Y-95683757D01*
X124751557Y-95481588D01*
X124655051Y-95292184D01*
X124655049Y-95292181D01*
X124655048Y-95292179D01*
X124530109Y-95120213D01*
X124379786Y-94969890D01*
X124207820Y-94844951D01*
X124018414Y-94748444D01*
X124018413Y-94748443D01*
X124018412Y-94748443D01*
X123816243Y-94682754D01*
X123816241Y-94682753D01*
X123816240Y-94682753D01*
X123654957Y-94657208D01*
X123606287Y-94649500D01*
X123393713Y-94649500D01*
X123345042Y-94657208D01*
X123183760Y-94682753D01*
X122981585Y-94748444D01*
X122792179Y-94844951D01*
X122620213Y-94969890D01*
X122469890Y-95120213D01*
X122344949Y-95292182D01*
X122340484Y-95300946D01*
X122292509Y-95351742D01*
X122224688Y-95368536D01*
X122158553Y-95345998D01*
X122119516Y-95300946D01*
X122115050Y-95292182D01*
X121990109Y-95120213D01*
X121839786Y-94969890D01*
X121667820Y-94844951D01*
X121478414Y-94748444D01*
X121478413Y-94748443D01*
X121478412Y-94748443D01*
X121276243Y-94682754D01*
X121276241Y-94682753D01*
X121276240Y-94682753D01*
X121114957Y-94657208D01*
X121066287Y-94649500D01*
X120853713Y-94649500D01*
X120805042Y-94657208D01*
X120643760Y-94682753D01*
X120441585Y-94748444D01*
X120252179Y-94844951D01*
X120080213Y-94969890D01*
X119929890Y-95120213D01*
X119804949Y-95292182D01*
X119800484Y-95300946D01*
X119752509Y-95351742D01*
X119684688Y-95368536D01*
X119618553Y-95345998D01*
X119579516Y-95300946D01*
X119575050Y-95292182D01*
X119450109Y-95120213D01*
X119299786Y-94969890D01*
X119127820Y-94844951D01*
X118938414Y-94748444D01*
X118938413Y-94748443D01*
X118938412Y-94748443D01*
X118736243Y-94682754D01*
X118736241Y-94682753D01*
X118736240Y-94682753D01*
X118574957Y-94657208D01*
X118526287Y-94649500D01*
X118313713Y-94649500D01*
X118265042Y-94657208D01*
X118103760Y-94682753D01*
X117901585Y-94748444D01*
X117712179Y-94844951D01*
X117540213Y-94969890D01*
X117389890Y-95120213D01*
X117264949Y-95292182D01*
X117260484Y-95300946D01*
X117212509Y-95351742D01*
X117144688Y-95368536D01*
X117078553Y-95345998D01*
X117039516Y-95300946D01*
X117035050Y-95292182D01*
X116910109Y-95120213D01*
X116759786Y-94969890D01*
X116587820Y-94844951D01*
X116398414Y-94748444D01*
X116398413Y-94748443D01*
X116398412Y-94748443D01*
X116196243Y-94682754D01*
X116196241Y-94682753D01*
X116196240Y-94682753D01*
X116034957Y-94657208D01*
X115986287Y-94649500D01*
X115773713Y-94649500D01*
X115725042Y-94657208D01*
X115563760Y-94682753D01*
X115361585Y-94748444D01*
X115172179Y-94844951D01*
X115000215Y-94969889D01*
X114886285Y-95083819D01*
X114824962Y-95117303D01*
X114755270Y-95112319D01*
X114699337Y-95070447D01*
X114682422Y-95039470D01*
X114633354Y-94907913D01*
X114633350Y-94907906D01*
X114547190Y-94792812D01*
X114547187Y-94792809D01*
X114432093Y-94706649D01*
X114432086Y-94706645D01*
X114297379Y-94656403D01*
X114297372Y-94656401D01*
X114237844Y-94650000D01*
X113590000Y-94650000D01*
X113590000Y-95566988D01*
X113532993Y-95534075D01*
X113405826Y-95500000D01*
X113274174Y-95500000D01*
X113147007Y-95534075D01*
X113090000Y-95566988D01*
X113090000Y-94650000D01*
X112442155Y-94650000D01*
X112382627Y-94656401D01*
X112382620Y-94656403D01*
X112247913Y-94706645D01*
X112247906Y-94706649D01*
X112132812Y-94792809D01*
X112132809Y-94792812D01*
X112046649Y-94907906D01*
X112046645Y-94907913D01*
X111996403Y-95042620D01*
X111996401Y-95042627D01*
X111990000Y-95102155D01*
X70485460Y-95102155D01*
X70469474Y-80921153D01*
X132199500Y-80921153D01*
X132199500Y-81078846D01*
X132230261Y-81233489D01*
X132230264Y-81233501D01*
X132290602Y-81379172D01*
X132290609Y-81379184D01*
X132353602Y-81473459D01*
X132374480Y-81540136D01*
X132374500Y-81542350D01*
X132374500Y-83457650D01*
X132354815Y-83524689D01*
X132353602Y-83526541D01*
X132290609Y-83620815D01*
X132290602Y-83620828D01*
X132230264Y-83766498D01*
X132230261Y-83766510D01*
X132199500Y-83921153D01*
X132199500Y-84078846D01*
X132230261Y-84233489D01*
X132230264Y-84233501D01*
X132290602Y-84379172D01*
X132290609Y-84379185D01*
X132378210Y-84510288D01*
X132378213Y-84510292D01*
X132489707Y-84621786D01*
X132489711Y-84621789D01*
X132620814Y-84709390D01*
X132620827Y-84709397D01*
X132758683Y-84766498D01*
X132766503Y-84769737D01*
X132921153Y-84800499D01*
X132921156Y-84800500D01*
X132921158Y-84800500D01*
X133078844Y-84800500D01*
X133078845Y-84800499D01*
X133233497Y-84769737D01*
X133379179Y-84709394D01*
X133510289Y-84621789D01*
X133621789Y-84510289D01*
X133709394Y-84379179D01*
X133769737Y-84233497D01*
X133800500Y-84078842D01*
X133800500Y-83921158D01*
X133800500Y-83921155D01*
X133800499Y-83921153D01*
X133792148Y-83879172D01*
X133769737Y-83766503D01*
X133734575Y-83681613D01*
X133709397Y-83620828D01*
X133709396Y-83620827D01*
X133709394Y-83620821D01*
X133646397Y-83526539D01*
X133625520Y-83459863D01*
X133625500Y-83457650D01*
X133625500Y-81542350D01*
X133630271Y-81525659D01*
X133630034Y-81509124D01*
X133643200Y-81480426D01*
X133644234Y-81476813D01*
X133645286Y-81475122D01*
X133681347Y-81421153D01*
X134699500Y-81421153D01*
X134699500Y-81578846D01*
X134730261Y-81733489D01*
X134730264Y-81733501D01*
X134790602Y-81879172D01*
X134790609Y-81879184D01*
X134853602Y-81973459D01*
X134874480Y-82040136D01*
X134874500Y-82042350D01*
X134874500Y-82957650D01*
X134854815Y-83024689D01*
X134853602Y-83026541D01*
X134790609Y-83120815D01*
X134790602Y-83120828D01*
X134730264Y-83266498D01*
X134730261Y-83266510D01*
X134699500Y-83421153D01*
X134699500Y-83578846D01*
X134730261Y-83733489D01*
X134730264Y-83733501D01*
X134790602Y-83879172D01*
X134790609Y-83879185D01*
X134878210Y-84010288D01*
X134878213Y-84010292D01*
X134989707Y-84121786D01*
X134989711Y-84121789D01*
X135120814Y-84209390D01*
X135120827Y-84209397D01*
X135258683Y-84266498D01*
X135266503Y-84269737D01*
X135421153Y-84300499D01*
X135421156Y-84300500D01*
X135421158Y-84300500D01*
X135578844Y-84300500D01*
X135578845Y-84300499D01*
X135733497Y-84269737D01*
X135879179Y-84209394D01*
X136010289Y-84121789D01*
X136121789Y-84010289D01*
X136209394Y-83879179D01*
X136269737Y-83733497D01*
X136300500Y-83578842D01*
X136300500Y-83421158D01*
X136300500Y-83421155D01*
X136300499Y-83421153D01*
X136270380Y-83269735D01*
X136269737Y-83266503D01*
X136250424Y-83219879D01*
X136242956Y-83150410D01*
X136274231Y-83087931D01*
X136334320Y-83052279D01*
X136404145Y-83054773D01*
X136452667Y-83084746D01*
X136489707Y-83121786D01*
X136489711Y-83121789D01*
X136620814Y-83209390D01*
X136620827Y-83209397D01*
X136758683Y-83266498D01*
X136766503Y-83269737D01*
X136921153Y-83300499D01*
X136921156Y-83300500D01*
X136921158Y-83300500D01*
X137078844Y-83300500D01*
X137078845Y-83300499D01*
X137233497Y-83269737D01*
X137379179Y-83209394D01*
X137473459Y-83146398D01*
X137540136Y-83125520D01*
X137542350Y-83125500D01*
X138192650Y-83125500D01*
X138259689Y-83145185D01*
X138261541Y-83146398D01*
X138355821Y-83209394D01*
X138355823Y-83209395D01*
X138355827Y-83209397D01*
X138493683Y-83266498D01*
X138501503Y-83269737D01*
X138656153Y-83300499D01*
X138656156Y-83300500D01*
X138656158Y-83300500D01*
X138813844Y-83300500D01*
X138813845Y-83300499D01*
X138968497Y-83269737D01*
X139114179Y-83209394D01*
X139114185Y-83209390D01*
X139181609Y-83164339D01*
X139248286Y-83143461D01*
X139315666Y-83161945D01*
X139362357Y-83213924D01*
X139374500Y-83267441D01*
X139374500Y-85689547D01*
X139365855Y-85718987D01*
X139359332Y-85748974D01*
X139355577Y-85753989D01*
X139354815Y-85756586D01*
X139338181Y-85777228D01*
X139193906Y-85921503D01*
X139132583Y-85954988D01*
X139130416Y-85955439D01*
X139019212Y-85977559D01*
X139019200Y-85977562D01*
X138873529Y-86037900D01*
X138873516Y-86037907D01*
X138742413Y-86125508D01*
X138742409Y-86125511D01*
X138630915Y-86237005D01*
X138630912Y-86237009D01*
X138543311Y-86368112D01*
X138543304Y-86368125D01*
X138482966Y-86513796D01*
X138482963Y-86513808D01*
X138452202Y-86668451D01*
X138452202Y-86826144D01*
X138482963Y-86980787D01*
X138482966Y-86980799D01*
X138543304Y-87126470D01*
X138543311Y-87126483D01*
X138630912Y-87257586D01*
X138630915Y-87257590D01*
X138742409Y-87369084D01*
X138742413Y-87369087D01*
X138873516Y-87456688D01*
X138873529Y-87456695D01*
X139019200Y-87517033D01*
X139019205Y-87517035D01*
X139173855Y-87547797D01*
X139173858Y-87547798D01*
X139173860Y-87547798D01*
X139331546Y-87547798D01*
X139331547Y-87547797D01*
X139486199Y-87517035D01*
X139631881Y-87456692D01*
X139762991Y-87369087D01*
X139874491Y-87257587D01*
X139962096Y-87126477D01*
X140022439Y-86980795D01*
X140044560Y-86869580D01*
X140076942Y-86807673D01*
X140078437Y-86806151D01*
X140398729Y-86485860D01*
X140398733Y-86485858D01*
X140485858Y-86398733D01*
X140554311Y-86296286D01*
X140554312Y-86296285D01*
X140554313Y-86296282D01*
X140554315Y-86296279D01*
X140564672Y-86271272D01*
X140601463Y-86182451D01*
X140625500Y-86061607D01*
X140625500Y-85938393D01*
X140625500Y-82367350D01*
X140645185Y-82300311D01*
X140646398Y-82298459D01*
X140661088Y-82276474D01*
X140709394Y-82204179D01*
X140769737Y-82058497D01*
X140800500Y-81903842D01*
X140800500Y-81746158D01*
X140800500Y-81746155D01*
X140800499Y-81746153D01*
X140797338Y-81730261D01*
X140769737Y-81591503D01*
X140764493Y-81578842D01*
X140709397Y-81445827D01*
X140709390Y-81445814D01*
X140621789Y-81314711D01*
X140621786Y-81314707D01*
X140510292Y-81203213D01*
X140510288Y-81203210D01*
X140379185Y-81115609D01*
X140379172Y-81115602D01*
X140233501Y-81055264D01*
X140233491Y-81055261D01*
X140140092Y-81036683D01*
X140140091Y-81036682D01*
X140078845Y-81024500D01*
X140078842Y-81024500D01*
X139921158Y-81024500D01*
X139921155Y-81024500D01*
X139766510Y-81055261D01*
X139766498Y-81055264D01*
X139620827Y-81115602D01*
X139620814Y-81115609D01*
X139489711Y-81203210D01*
X139489707Y-81203213D01*
X139378213Y-81314707D01*
X139378210Y-81314711D01*
X139290609Y-81445814D01*
X139290602Y-81445827D01*
X139230264Y-81591498D01*
X139230261Y-81591508D01*
X139214313Y-81671683D01*
X139181927Y-81733594D01*
X139121211Y-81768168D01*
X139051442Y-81764427D01*
X139045244Y-81762052D01*
X138968501Y-81730264D01*
X138968489Y-81730261D01*
X138813845Y-81699500D01*
X138813842Y-81699500D01*
X138656158Y-81699500D01*
X138656155Y-81699500D01*
X138501510Y-81730261D01*
X138501498Y-81730264D01*
X138355827Y-81790602D01*
X138355815Y-81790609D01*
X138261541Y-81853602D01*
X138194864Y-81874480D01*
X138192650Y-81874500D01*
X137542350Y-81874500D01*
X137475311Y-81854815D01*
X137473459Y-81853602D01*
X137379184Y-81790609D01*
X137379172Y-81790602D01*
X137233501Y-81730264D01*
X137233489Y-81730261D01*
X137078845Y-81699500D01*
X137078842Y-81699500D01*
X136921158Y-81699500D01*
X136921155Y-81699500D01*
X136766510Y-81730261D01*
X136766498Y-81730264D01*
X136620827Y-81790602D01*
X136620814Y-81790609D01*
X136489711Y-81878210D01*
X136489706Y-81878214D01*
X136452666Y-81915254D01*
X136391343Y-81948739D01*
X136321651Y-81943753D01*
X136265718Y-81901881D01*
X136241302Y-81836417D01*
X136250424Y-81780121D01*
X136269737Y-81733497D01*
X136300500Y-81578842D01*
X136300500Y-81421158D01*
X136300500Y-81421155D01*
X136300499Y-81421153D01*
X136269738Y-81266510D01*
X136269737Y-81266503D01*
X136243521Y-81203211D01*
X136209397Y-81120827D01*
X136209390Y-81120814D01*
X136121789Y-80989711D01*
X136121786Y-80989707D01*
X136053232Y-80921153D01*
X141699500Y-80921153D01*
X141699500Y-81078846D01*
X141730261Y-81233489D01*
X141730264Y-81233501D01*
X141790602Y-81379172D01*
X141790609Y-81379184D01*
X141853602Y-81473459D01*
X141874480Y-81540136D01*
X141874500Y-81542350D01*
X141874500Y-89957650D01*
X141854815Y-90024689D01*
X141853602Y-90026541D01*
X141790609Y-90120815D01*
X141790602Y-90120828D01*
X141730264Y-90266498D01*
X141730261Y-90266510D01*
X141699500Y-90421153D01*
X141699500Y-90578846D01*
X141730261Y-90733489D01*
X141730264Y-90733501D01*
X141790602Y-90879172D01*
X141790609Y-90879185D01*
X141878210Y-91010288D01*
X141878213Y-91010292D01*
X141989707Y-91121786D01*
X141989711Y-91121789D01*
X142120814Y-91209390D01*
X142120827Y-91209397D01*
X142266498Y-91269735D01*
X142266503Y-91269737D01*
X142421153Y-91300499D01*
X142421156Y-91300500D01*
X142421158Y-91300500D01*
X142578844Y-91300500D01*
X142578845Y-91300499D01*
X142733497Y-91269737D01*
X142879179Y-91209394D01*
X143010289Y-91121789D01*
X143121789Y-91010289D01*
X143209394Y-90879179D01*
X143269737Y-90733497D01*
X143300500Y-90578842D01*
X143300500Y-90421158D01*
X143300500Y-90421155D01*
X143300499Y-90421153D01*
X143269738Y-90266510D01*
X143269737Y-90266503D01*
X143209394Y-90120821D01*
X143146397Y-90026539D01*
X143125520Y-89959863D01*
X143125500Y-89957650D01*
X143125500Y-81542350D01*
X143130271Y-81525659D01*
X143130034Y-81509124D01*
X143143200Y-81480426D01*
X143144234Y-81476813D01*
X143145286Y-81475122D01*
X143181347Y-81421153D01*
X187699500Y-81421153D01*
X187699500Y-81578846D01*
X187730261Y-81733489D01*
X187730264Y-81733501D01*
X187790602Y-81879172D01*
X187790609Y-81879184D01*
X187853602Y-81973459D01*
X187874480Y-82040136D01*
X187874500Y-82042350D01*
X187874500Y-83957650D01*
X187854815Y-84024689D01*
X187853602Y-84026541D01*
X187790609Y-84120815D01*
X187790602Y-84120828D01*
X187730264Y-84266498D01*
X187730261Y-84266510D01*
X187699500Y-84421153D01*
X187699500Y-84578846D01*
X187730261Y-84733489D01*
X187730264Y-84733501D01*
X187790602Y-84879172D01*
X187790609Y-84879185D01*
X187878210Y-85010288D01*
X187878213Y-85010292D01*
X187989707Y-85121786D01*
X187989711Y-85121789D01*
X188120814Y-85209390D01*
X188120827Y-85209397D01*
X188266498Y-85269735D01*
X188266503Y-85269737D01*
X188421153Y-85300499D01*
X188421156Y-85300500D01*
X188421158Y-85300500D01*
X188578844Y-85300500D01*
X188578845Y-85300499D01*
X188733497Y-85269737D01*
X188879179Y-85209394D01*
X189010289Y-85121789D01*
X189121789Y-85010289D01*
X189209394Y-84879179D01*
X189269737Y-84733497D01*
X189300500Y-84578842D01*
X189300500Y-84421158D01*
X189300500Y-84421155D01*
X189300499Y-84421153D01*
X189270380Y-84269735D01*
X189269737Y-84266503D01*
X189209394Y-84120821D01*
X189146397Y-84026539D01*
X189125520Y-83959863D01*
X189125500Y-83957650D01*
X189125500Y-82042350D01*
X189145185Y-81975311D01*
X189146398Y-81973459D01*
X189166247Y-81943753D01*
X189209394Y-81879179D01*
X189269737Y-81733497D01*
X189300500Y-81578842D01*
X189300500Y-81421158D01*
X189300500Y-81421155D01*
X189300499Y-81421153D01*
X196699500Y-81421153D01*
X196699500Y-81578846D01*
X196730261Y-81733489D01*
X196730264Y-81733501D01*
X196790602Y-81879172D01*
X196790609Y-81879185D01*
X196878210Y-82010288D01*
X196878213Y-82010292D01*
X196989707Y-82121786D01*
X196989711Y-82121789D01*
X197120814Y-82209390D01*
X197120827Y-82209397D01*
X197230082Y-82254651D01*
X197266503Y-82269737D01*
X197274691Y-82271365D01*
X197336601Y-82303750D01*
X197371176Y-82364465D01*
X197374500Y-82392983D01*
X197374500Y-84457650D01*
X197354815Y-84524689D01*
X197353602Y-84526541D01*
X197290609Y-84620815D01*
X197290602Y-84620828D01*
X197230264Y-84766498D01*
X197230261Y-84766510D01*
X197199500Y-84921153D01*
X197199500Y-85078846D01*
X197230261Y-85233489D01*
X197230264Y-85233501D01*
X197290602Y-85379172D01*
X197290609Y-85379185D01*
X197378210Y-85510288D01*
X197378213Y-85510292D01*
X197489707Y-85621786D01*
X197489711Y-85621789D01*
X197620814Y-85709390D01*
X197620827Y-85709397D01*
X197734753Y-85756586D01*
X197766503Y-85769737D01*
X197921153Y-85800499D01*
X197921156Y-85800500D01*
X197921158Y-85800500D01*
X198078844Y-85800500D01*
X198078845Y-85800499D01*
X198233497Y-85769737D01*
X198379179Y-85709394D01*
X198510289Y-85621789D01*
X198621789Y-85510289D01*
X198709394Y-85379179D01*
X198769737Y-85233497D01*
X198800500Y-85078842D01*
X198800500Y-84921158D01*
X198800500Y-84921155D01*
X198800499Y-84921153D01*
X198769738Y-84766510D01*
X198769737Y-84766503D01*
X198709394Y-84620821D01*
X198646397Y-84526539D01*
X198625520Y-84459863D01*
X198625500Y-84457650D01*
X198625500Y-83812449D01*
X198645185Y-83745410D01*
X198697989Y-83699655D01*
X198767147Y-83689711D01*
X198830703Y-83718736D01*
X198849819Y-83739564D01*
X198928034Y-83847219D01*
X199072786Y-83991971D01*
X199192359Y-84078844D01*
X199238390Y-84112287D01*
X199354607Y-84171503D01*
X199420776Y-84205218D01*
X199420778Y-84205218D01*
X199420781Y-84205220D01*
X199507784Y-84233489D01*
X199615465Y-84268477D01*
X199716557Y-84284488D01*
X199817648Y-84300500D01*
X199817649Y-84300500D01*
X200022351Y-84300500D01*
X200022352Y-84300500D01*
X200224534Y-84268477D01*
X200419219Y-84205220D01*
X200601610Y-84112287D01*
X200694590Y-84044732D01*
X200767213Y-83991971D01*
X200767215Y-83991968D01*
X200767219Y-83991966D01*
X200911966Y-83847219D01*
X200911968Y-83847215D01*
X200911971Y-83847213D01*
X200994595Y-83733489D01*
X201032287Y-83681610D01*
X201125220Y-83499219D01*
X201188477Y-83304534D01*
X201220500Y-83102352D01*
X201220500Y-82897648D01*
X208779500Y-82897648D01*
X208779500Y-83102351D01*
X208811522Y-83304534D01*
X208874781Y-83499223D01*
X208967715Y-83681613D01*
X209088028Y-83847213D01*
X209232786Y-83991971D01*
X209352359Y-84078844D01*
X209398390Y-84112287D01*
X209514607Y-84171503D01*
X209580776Y-84205218D01*
X209580778Y-84205218D01*
X209580781Y-84205220D01*
X209667784Y-84233489D01*
X209775465Y-84268477D01*
X209876557Y-84284488D01*
X209977648Y-84300500D01*
X209977649Y-84300500D01*
X210182351Y-84300500D01*
X210182352Y-84300500D01*
X210384534Y-84268477D01*
X210579219Y-84205220D01*
X210761610Y-84112287D01*
X210854590Y-84044732D01*
X210927213Y-83991971D01*
X210927215Y-83991968D01*
X210927219Y-83991966D01*
X211071966Y-83847219D01*
X211071968Y-83847215D01*
X211071971Y-83847213D01*
X211154595Y-83733489D01*
X211192287Y-83681610D01*
X211285220Y-83499219D01*
X211348477Y-83304534D01*
X211380500Y-83102352D01*
X211380500Y-82897648D01*
X211348477Y-82695466D01*
X211285220Y-82500781D01*
X211285218Y-82500778D01*
X211285218Y-82500776D01*
X211215763Y-82364465D01*
X211192287Y-82318390D01*
X211172546Y-82291219D01*
X211071971Y-82152786D01*
X210927213Y-82008028D01*
X210761613Y-81887715D01*
X210761612Y-81887714D01*
X210761610Y-81887713D01*
X210697044Y-81854815D01*
X210579223Y-81794781D01*
X210384534Y-81731522D01*
X210208958Y-81703714D01*
X210182352Y-81699500D01*
X209977648Y-81699500D01*
X209953329Y-81703351D01*
X209775465Y-81731522D01*
X209580776Y-81794781D01*
X209398386Y-81887715D01*
X209232786Y-82008028D01*
X209088028Y-82152786D01*
X208967715Y-82318386D01*
X208874781Y-82500776D01*
X208811522Y-82695465D01*
X208779500Y-82897648D01*
X201220500Y-82897648D01*
X201188477Y-82695466D01*
X201125220Y-82500781D01*
X201125218Y-82500778D01*
X201125218Y-82500776D01*
X201055763Y-82364465D01*
X201032287Y-82318390D01*
X201012546Y-82291219D01*
X200911971Y-82152786D01*
X200767213Y-82008028D01*
X200601613Y-81887715D01*
X200601612Y-81887714D01*
X200601610Y-81887713D01*
X200537044Y-81854815D01*
X200419223Y-81794781D01*
X200224534Y-81731522D01*
X200048958Y-81703714D01*
X200022352Y-81699500D01*
X199817648Y-81699500D01*
X199793329Y-81703351D01*
X199615465Y-81731522D01*
X199420776Y-81794781D01*
X199238386Y-81887715D01*
X199072786Y-82008028D01*
X198928032Y-82152782D01*
X198928028Y-82152787D01*
X198849818Y-82260435D01*
X198794488Y-82303101D01*
X198724875Y-82309080D01*
X198663080Y-82276474D01*
X198628723Y-82215636D01*
X198625500Y-82187550D01*
X198625500Y-81938389D01*
X198622920Y-81925422D01*
X198622915Y-81925403D01*
X198622544Y-81923535D01*
X198601463Y-81817549D01*
X198597560Y-81808127D01*
X198581659Y-81769737D01*
X198554312Y-81703715D01*
X198513441Y-81642548D01*
X198485858Y-81601267D01*
X198485856Y-81601264D01*
X198395637Y-81511045D01*
X198395606Y-81511016D01*
X198325793Y-81441203D01*
X198292308Y-81379880D01*
X198291887Y-81377864D01*
X198269737Y-81266503D01*
X198243520Y-81203210D01*
X198209397Y-81120827D01*
X198209390Y-81120814D01*
X198121789Y-80989711D01*
X198121786Y-80989707D01*
X198010292Y-80878213D01*
X198010288Y-80878210D01*
X197879185Y-80790609D01*
X197879172Y-80790602D01*
X197733501Y-80730264D01*
X197733489Y-80730261D01*
X197578845Y-80699500D01*
X197578842Y-80699500D01*
X197421158Y-80699500D01*
X197421155Y-80699500D01*
X197266510Y-80730261D01*
X197266498Y-80730264D01*
X197120827Y-80790602D01*
X197120814Y-80790609D01*
X196989711Y-80878210D01*
X196989707Y-80878213D01*
X196878213Y-80989707D01*
X196878210Y-80989711D01*
X196790609Y-81120814D01*
X196790602Y-81120827D01*
X196730264Y-81266498D01*
X196730261Y-81266510D01*
X196699500Y-81421153D01*
X189300499Y-81421153D01*
X189269738Y-81266510D01*
X189269737Y-81266503D01*
X189243521Y-81203211D01*
X189209397Y-81120827D01*
X189209390Y-81120814D01*
X189121789Y-80989711D01*
X189121786Y-80989707D01*
X189010292Y-80878213D01*
X189010288Y-80878210D01*
X188879185Y-80790609D01*
X188879172Y-80790602D01*
X188733501Y-80730264D01*
X188733489Y-80730261D01*
X188578845Y-80699500D01*
X188578842Y-80699500D01*
X188421158Y-80699500D01*
X188421155Y-80699500D01*
X188266510Y-80730261D01*
X188266498Y-80730264D01*
X188120827Y-80790602D01*
X188120814Y-80790609D01*
X187989711Y-80878210D01*
X187989707Y-80878213D01*
X187878213Y-80989707D01*
X187878210Y-80989711D01*
X187790609Y-81120814D01*
X187790602Y-81120827D01*
X187730264Y-81266498D01*
X187730261Y-81266510D01*
X187699500Y-81421153D01*
X143181347Y-81421153D01*
X143209394Y-81379179D01*
X143236098Y-81314711D01*
X143256063Y-81266510D01*
X143269737Y-81233497D01*
X143300500Y-81078842D01*
X143300500Y-80921158D01*
X143300500Y-80921155D01*
X143300499Y-80921153D01*
X143274531Y-80790606D01*
X143269737Y-80766503D01*
X143269735Y-80766498D01*
X143209397Y-80620827D01*
X143209390Y-80620814D01*
X143121789Y-80489711D01*
X143121786Y-80489707D01*
X143010292Y-80378213D01*
X143010288Y-80378210D01*
X142879185Y-80290609D01*
X142879172Y-80290602D01*
X142733501Y-80230264D01*
X142733489Y-80230261D01*
X142578845Y-80199500D01*
X142578842Y-80199500D01*
X142421158Y-80199500D01*
X142421155Y-80199500D01*
X142266510Y-80230261D01*
X142266498Y-80230264D01*
X142120827Y-80290602D01*
X142120814Y-80290609D01*
X141989711Y-80378210D01*
X141989707Y-80378213D01*
X141878213Y-80489707D01*
X141878210Y-80489711D01*
X141790609Y-80620814D01*
X141790602Y-80620827D01*
X141730264Y-80766498D01*
X141730261Y-80766510D01*
X141699500Y-80921153D01*
X136053232Y-80921153D01*
X136010292Y-80878213D01*
X136010288Y-80878210D01*
X135879185Y-80790609D01*
X135879172Y-80790602D01*
X135733501Y-80730264D01*
X135733489Y-80730261D01*
X135578845Y-80699500D01*
X135578842Y-80699500D01*
X135421158Y-80699500D01*
X135421155Y-80699500D01*
X135266510Y-80730261D01*
X135266498Y-80730264D01*
X135120827Y-80790602D01*
X135120814Y-80790609D01*
X134989711Y-80878210D01*
X134989707Y-80878213D01*
X134878213Y-80989707D01*
X134878210Y-80989711D01*
X134790609Y-81120814D01*
X134790602Y-81120827D01*
X134730264Y-81266498D01*
X134730261Y-81266510D01*
X134699500Y-81421153D01*
X133681347Y-81421153D01*
X133709394Y-81379179D01*
X133736098Y-81314711D01*
X133756063Y-81266510D01*
X133769737Y-81233497D01*
X133800500Y-81078842D01*
X133800500Y-80921158D01*
X133800500Y-80921155D01*
X133800499Y-80921153D01*
X133774531Y-80790606D01*
X133769737Y-80766503D01*
X133769735Y-80766498D01*
X133709397Y-80620827D01*
X133709390Y-80620814D01*
X133621789Y-80489711D01*
X133621786Y-80489707D01*
X133510292Y-80378213D01*
X133510288Y-80378210D01*
X133379185Y-80290609D01*
X133379172Y-80290602D01*
X133233501Y-80230264D01*
X133233489Y-80230261D01*
X133078845Y-80199500D01*
X133078842Y-80199500D01*
X132921158Y-80199500D01*
X132921155Y-80199500D01*
X132766510Y-80230261D01*
X132766498Y-80230264D01*
X132620827Y-80290602D01*
X132620814Y-80290609D01*
X132489711Y-80378210D01*
X132489707Y-80378213D01*
X132378213Y-80489707D01*
X132378210Y-80489711D01*
X132290609Y-80620814D01*
X132290602Y-80620827D01*
X132230264Y-80766498D01*
X132230261Y-80766510D01*
X132199500Y-80921153D01*
X70469474Y-80921153D01*
X70460429Y-72897648D01*
X180699500Y-72897648D01*
X180699500Y-73102351D01*
X180731522Y-73304534D01*
X180794781Y-73499223D01*
X180858691Y-73624653D01*
X180887585Y-73681359D01*
X180887715Y-73681613D01*
X181008028Y-73847213D01*
X181152786Y-73991971D01*
X181273226Y-74079474D01*
X181318390Y-74112287D01*
X181434607Y-74171503D01*
X181500776Y-74205218D01*
X181500778Y-74205218D01*
X181500781Y-74205220D01*
X181605137Y-74239127D01*
X181695465Y-74268477D01*
X181796557Y-74284488D01*
X181897648Y-74300500D01*
X181897649Y-74300500D01*
X182102351Y-74300500D01*
X182102352Y-74300500D01*
X182304534Y-74268477D01*
X182499219Y-74205220D01*
X182681610Y-74112287D01*
X182774590Y-74044732D01*
X182847213Y-73991971D01*
X182847215Y-73991968D01*
X182847219Y-73991966D01*
X182991966Y-73847219D01*
X182991968Y-73847215D01*
X182991971Y-73847213D01*
X183044732Y-73774590D01*
X183112287Y-73681610D01*
X183205220Y-73499219D01*
X183268477Y-73304534D01*
X183300500Y-73102352D01*
X183300500Y-72897648D01*
X185699500Y-72897648D01*
X185699500Y-73102351D01*
X185731522Y-73304534D01*
X185794781Y-73499223D01*
X185858691Y-73624653D01*
X185887585Y-73681359D01*
X185887715Y-73681613D01*
X186008028Y-73847213D01*
X186152786Y-73991971D01*
X186273226Y-74079474D01*
X186318390Y-74112287D01*
X186434607Y-74171503D01*
X186500776Y-74205218D01*
X186500778Y-74205218D01*
X186500781Y-74205220D01*
X186605137Y-74239127D01*
X186695465Y-74268477D01*
X186796557Y-74284488D01*
X186897648Y-74300500D01*
X186897649Y-74300500D01*
X187102351Y-74300500D01*
X187102352Y-74300500D01*
X187304534Y-74268477D01*
X187499219Y-74205220D01*
X187681610Y-74112287D01*
X187774590Y-74044732D01*
X187847213Y-73991971D01*
X187847215Y-73991968D01*
X187847219Y-73991966D01*
X187991966Y-73847219D01*
X187991968Y-73847215D01*
X187991971Y-73847213D01*
X188044732Y-73774590D01*
X188112287Y-73681610D01*
X188205220Y-73499219D01*
X188268477Y-73304534D01*
X188300500Y-73102352D01*
X188300500Y-72897648D01*
X193199500Y-72897648D01*
X193199500Y-73102351D01*
X193231522Y-73304534D01*
X193294781Y-73499223D01*
X193358691Y-73624653D01*
X193387585Y-73681359D01*
X193387715Y-73681613D01*
X193508028Y-73847213D01*
X193652786Y-73991971D01*
X193773226Y-74079474D01*
X193818390Y-74112287D01*
X193934607Y-74171503D01*
X194000776Y-74205218D01*
X194000778Y-74205218D01*
X194000781Y-74205220D01*
X194105137Y-74239127D01*
X194195465Y-74268477D01*
X194296557Y-74284488D01*
X194397648Y-74300500D01*
X194397649Y-74300500D01*
X194602351Y-74300500D01*
X194602352Y-74300500D01*
X194804534Y-74268477D01*
X194999219Y-74205220D01*
X195181610Y-74112287D01*
X195274590Y-74044732D01*
X195347213Y-73991971D01*
X195347215Y-73991968D01*
X195347219Y-73991966D01*
X195491966Y-73847219D01*
X195491968Y-73847215D01*
X195491971Y-73847213D01*
X195544732Y-73774590D01*
X195612287Y-73681610D01*
X195705220Y-73499219D01*
X195768477Y-73304534D01*
X195800500Y-73102352D01*
X195800500Y-72897682D01*
X198200000Y-72897682D01*
X198200000Y-73102317D01*
X198232009Y-73304417D01*
X198295244Y-73499031D01*
X198388141Y-73681350D01*
X198388147Y-73681359D01*
X198420523Y-73725921D01*
X198420524Y-73725922D01*
X199100000Y-73046446D01*
X199100000Y-73052661D01*
X199127259Y-73154394D01*
X199179920Y-73245606D01*
X199254394Y-73320080D01*
X199345606Y-73372741D01*
X199447339Y-73400000D01*
X199453553Y-73400000D01*
X198774076Y-74079474D01*
X198818650Y-74111859D01*
X199000968Y-74204755D01*
X199195582Y-74267990D01*
X199397683Y-74300000D01*
X199602317Y-74300000D01*
X199804417Y-74267990D01*
X199999031Y-74204755D01*
X200181349Y-74111859D01*
X200225921Y-74079474D01*
X199546447Y-73400000D01*
X199552661Y-73400000D01*
X199654394Y-73372741D01*
X199745606Y-73320080D01*
X199820080Y-73245606D01*
X199872741Y-73154394D01*
X199900000Y-73052661D01*
X199900000Y-73046447D01*
X200579474Y-73725921D01*
X200611859Y-73681349D01*
X200704755Y-73499031D01*
X200767990Y-73304417D01*
X200800000Y-73102317D01*
X200800000Y-72897682D01*
X200767990Y-72695582D01*
X200704755Y-72500968D01*
X200611859Y-72318650D01*
X200579474Y-72274077D01*
X200579474Y-72274076D01*
X199900000Y-72953551D01*
X199900000Y-72947339D01*
X199872741Y-72845606D01*
X199820080Y-72754394D01*
X199745606Y-72679920D01*
X199654394Y-72627259D01*
X199552661Y-72600000D01*
X199546446Y-72600000D01*
X200225922Y-71920524D01*
X200225921Y-71920523D01*
X200181359Y-71888147D01*
X200181350Y-71888141D01*
X199999031Y-71795244D01*
X199804417Y-71732009D01*
X199602317Y-71700000D01*
X199397683Y-71700000D01*
X199195582Y-71732009D01*
X199000968Y-71795244D01*
X198818644Y-71888143D01*
X198774077Y-71920523D01*
X198774077Y-71920524D01*
X199453554Y-72600000D01*
X199447339Y-72600000D01*
X199345606Y-72627259D01*
X199254394Y-72679920D01*
X199179920Y-72754394D01*
X199127259Y-72845606D01*
X199100000Y-72947339D01*
X199100000Y-72953553D01*
X198420524Y-72274077D01*
X198420523Y-72274077D01*
X198388143Y-72318644D01*
X198295244Y-72500968D01*
X198232009Y-72695582D01*
X198200000Y-72897682D01*
X195800500Y-72897682D01*
X195800500Y-72897648D01*
X195792257Y-72845606D01*
X195768477Y-72695465D01*
X195737458Y-72600000D01*
X195705220Y-72500781D01*
X195705218Y-72500778D01*
X195705218Y-72500776D01*
X195612419Y-72318650D01*
X195612287Y-72318390D01*
X195580092Y-72274077D01*
X195491971Y-72152786D01*
X195347213Y-72008028D01*
X195181613Y-71887715D01*
X195181612Y-71887714D01*
X195181610Y-71887713D01*
X195124653Y-71858691D01*
X194999223Y-71794781D01*
X194804534Y-71731522D01*
X194629995Y-71703878D01*
X194602352Y-71699500D01*
X194397648Y-71699500D01*
X194373329Y-71703351D01*
X194195465Y-71731522D01*
X194000776Y-71794781D01*
X193818386Y-71887715D01*
X193652786Y-72008028D01*
X193508028Y-72152786D01*
X193387715Y-72318386D01*
X193294781Y-72500776D01*
X193231522Y-72695465D01*
X193199500Y-72897648D01*
X188300500Y-72897648D01*
X188292257Y-72845606D01*
X188268477Y-72695465D01*
X188237458Y-72600000D01*
X188205220Y-72500781D01*
X188205218Y-72500778D01*
X188205218Y-72500776D01*
X188112419Y-72318650D01*
X188112287Y-72318390D01*
X188080092Y-72274077D01*
X187991971Y-72152786D01*
X187847213Y-72008028D01*
X187681613Y-71887715D01*
X187681612Y-71887714D01*
X187681610Y-71887713D01*
X187624653Y-71858691D01*
X187499223Y-71794781D01*
X187304534Y-71731522D01*
X187129995Y-71703878D01*
X187102352Y-71699500D01*
X186897648Y-71699500D01*
X186873329Y-71703351D01*
X186695465Y-71731522D01*
X186500776Y-71794781D01*
X186318386Y-71887715D01*
X186152786Y-72008028D01*
X186008028Y-72152786D01*
X185887715Y-72318386D01*
X185794781Y-72500776D01*
X185731522Y-72695465D01*
X185699500Y-72897648D01*
X183300500Y-72897648D01*
X183292257Y-72845606D01*
X183268477Y-72695465D01*
X183237458Y-72600000D01*
X183205220Y-72500781D01*
X183205218Y-72500778D01*
X183205218Y-72500776D01*
X183112419Y-72318650D01*
X183112287Y-72318390D01*
X183080092Y-72274077D01*
X182991971Y-72152786D01*
X182847213Y-72008028D01*
X182681613Y-71887715D01*
X182681612Y-71887714D01*
X182681610Y-71887713D01*
X182624653Y-71858691D01*
X182499223Y-71794781D01*
X182304534Y-71731522D01*
X182129995Y-71703878D01*
X182102352Y-71699500D01*
X181897648Y-71699500D01*
X181873329Y-71703351D01*
X181695465Y-71731522D01*
X181500776Y-71794781D01*
X181318386Y-71887715D01*
X181152786Y-72008028D01*
X181008028Y-72152786D01*
X180887715Y-72318386D01*
X180794781Y-72500776D01*
X180731522Y-72695465D01*
X180699500Y-72897648D01*
X70460429Y-72897648D01*
X70450310Y-63921153D01*
X157699500Y-63921153D01*
X157699500Y-64078846D01*
X157730261Y-64233489D01*
X157730264Y-64233501D01*
X157790602Y-64379172D01*
X157790609Y-64379184D01*
X157853602Y-64473459D01*
X157874480Y-64540136D01*
X157874500Y-64542350D01*
X157874500Y-69957650D01*
X157854815Y-70024689D01*
X157853602Y-70026541D01*
X157790609Y-70120815D01*
X157790602Y-70120828D01*
X157730264Y-70266498D01*
X157730261Y-70266510D01*
X157699500Y-70421153D01*
X157699500Y-70578846D01*
X157730261Y-70733489D01*
X157730264Y-70733501D01*
X157790602Y-70879172D01*
X157790609Y-70879185D01*
X157878210Y-71010288D01*
X157878213Y-71010292D01*
X157989707Y-71121786D01*
X157989711Y-71121789D01*
X158120814Y-71209390D01*
X158120827Y-71209397D01*
X158266498Y-71269735D01*
X158266503Y-71269737D01*
X158421153Y-71300499D01*
X158421156Y-71300500D01*
X158421158Y-71300500D01*
X158578844Y-71300500D01*
X158578845Y-71300499D01*
X158733497Y-71269737D01*
X158879179Y-71209394D01*
X159010289Y-71121789D01*
X159121789Y-71010289D01*
X159209394Y-70879179D01*
X159269737Y-70733497D01*
X159300500Y-70578842D01*
X159300500Y-70421158D01*
X159300500Y-70421155D01*
X159300499Y-70421153D01*
X159269738Y-70266510D01*
X159269737Y-70266503D01*
X159209394Y-70120821D01*
X159146397Y-70026539D01*
X159125520Y-69959863D01*
X159125500Y-69957650D01*
X159125500Y-68057648D01*
X195199500Y-68057648D01*
X195199500Y-68262351D01*
X195231522Y-68464534D01*
X195294781Y-68659223D01*
X195387715Y-68841613D01*
X195508028Y-69007213D01*
X195652786Y-69151971D01*
X195807749Y-69264556D01*
X195818390Y-69272287D01*
X195934607Y-69331503D01*
X196000776Y-69365218D01*
X196000778Y-69365218D01*
X196000781Y-69365220D01*
X196105137Y-69399127D01*
X196195465Y-69428477D01*
X196296557Y-69444488D01*
X196397648Y-69460500D01*
X196397649Y-69460500D01*
X196602351Y-69460500D01*
X196602352Y-69460500D01*
X196804534Y-69428477D01*
X196999219Y-69365220D01*
X197181610Y-69272287D01*
X197274590Y-69204732D01*
X197347213Y-69151971D01*
X197347215Y-69151968D01*
X197347219Y-69151966D01*
X197491966Y-69007219D01*
X197491968Y-69007215D01*
X197491971Y-69007213D01*
X197544732Y-68934590D01*
X197612287Y-68841610D01*
X197705220Y-68659219D01*
X197768477Y-68464534D01*
X197800500Y-68262352D01*
X197800500Y-68057648D01*
X197768477Y-67855466D01*
X197705220Y-67660781D01*
X197705218Y-67660778D01*
X197705218Y-67660776D01*
X197671503Y-67594607D01*
X197612287Y-67478390D01*
X197604556Y-67467749D01*
X197491971Y-67312786D01*
X197347213Y-67168028D01*
X197181613Y-67047715D01*
X197181612Y-67047714D01*
X197181610Y-67047713D01*
X197124653Y-67018691D01*
X196999223Y-66954781D01*
X196804534Y-66891522D01*
X196629995Y-66863878D01*
X196602352Y-66859500D01*
X196397648Y-66859500D01*
X196373329Y-66863351D01*
X196195465Y-66891522D01*
X196000776Y-66954781D01*
X195818386Y-67047715D01*
X195652786Y-67168028D01*
X195508028Y-67312786D01*
X195387715Y-67478386D01*
X195294781Y-67660776D01*
X195231522Y-67855465D01*
X195199500Y-68057648D01*
X159125500Y-68057648D01*
X159125500Y-64943945D01*
X181739500Y-64943945D01*
X181739500Y-65136054D01*
X181769553Y-65325802D01*
X181828916Y-65508506D01*
X181828918Y-65508509D01*
X181916135Y-65679681D01*
X182029055Y-65835102D01*
X182164898Y-65970945D01*
X182320319Y-66083865D01*
X182490576Y-66170616D01*
X182491493Y-66171083D01*
X182582845Y-66200764D01*
X182674199Y-66230447D01*
X182863945Y-66260500D01*
X182863946Y-66260500D01*
X183056054Y-66260500D01*
X183056055Y-66260500D01*
X183245801Y-66230447D01*
X183428509Y-66171082D01*
X183599681Y-66083865D01*
X183755102Y-65970945D01*
X183890945Y-65835102D01*
X184003865Y-65679681D01*
X184091082Y-65508509D01*
X184150447Y-65325801D01*
X184180500Y-65136055D01*
X184180500Y-64943984D01*
X186820000Y-64943984D01*
X186820000Y-65136015D01*
X186850040Y-65325684D01*
X186909383Y-65508321D01*
X186996561Y-65679415D01*
X187017798Y-65708646D01*
X187640000Y-65086445D01*
X187640000Y-65092661D01*
X187667259Y-65194394D01*
X187719920Y-65285606D01*
X187794394Y-65360080D01*
X187885606Y-65412741D01*
X187987339Y-65440000D01*
X187993554Y-65440000D01*
X187371351Y-66062200D01*
X187371352Y-66062201D01*
X187400577Y-66083434D01*
X187571678Y-66170616D01*
X187754315Y-66229959D01*
X187943985Y-66260000D01*
X188136015Y-66260000D01*
X188325684Y-66229959D01*
X188508321Y-66170616D01*
X188679419Y-66083436D01*
X188708646Y-66062201D01*
X188708646Y-66062200D01*
X188086447Y-65440000D01*
X188092661Y-65440000D01*
X188194394Y-65412741D01*
X188285606Y-65360080D01*
X188360080Y-65285606D01*
X188412741Y-65194394D01*
X188440000Y-65092661D01*
X188440000Y-65086446D01*
X189062200Y-65708646D01*
X189062201Y-65708646D01*
X189083436Y-65679419D01*
X189170616Y-65508321D01*
X189229959Y-65325684D01*
X189260000Y-65136015D01*
X189260000Y-64943984D01*
X189229959Y-64754315D01*
X189170616Y-64571678D01*
X189083434Y-64400577D01*
X189062201Y-64371352D01*
X189062200Y-64371351D01*
X188440000Y-64993552D01*
X188440000Y-64987339D01*
X188412741Y-64885606D01*
X188360080Y-64794394D01*
X188285606Y-64719920D01*
X188194394Y-64667259D01*
X188092661Y-64640000D01*
X188086447Y-64640000D01*
X188708646Y-64017798D01*
X188679415Y-63996561D01*
X188508321Y-63909383D01*
X188325684Y-63850040D01*
X188136015Y-63820000D01*
X187943985Y-63820000D01*
X187754315Y-63850040D01*
X187571678Y-63909383D01*
X187400578Y-63996564D01*
X187371352Y-64017798D01*
X187371351Y-64017798D01*
X187993554Y-64640000D01*
X187987339Y-64640000D01*
X187885606Y-64667259D01*
X187794394Y-64719920D01*
X187719920Y-64794394D01*
X187667259Y-64885606D01*
X187640000Y-64987339D01*
X187640000Y-64993553D01*
X187017798Y-64371351D01*
X187017798Y-64371352D01*
X186996564Y-64400578D01*
X186909383Y-64571678D01*
X186850040Y-64754315D01*
X186820000Y-64943984D01*
X184180500Y-64943984D01*
X184180500Y-64943945D01*
X184150447Y-64754199D01*
X184091082Y-64571491D01*
X184003865Y-64400319D01*
X183890945Y-64244898D01*
X183755102Y-64109055D01*
X183599681Y-63996135D01*
X183428506Y-63908916D01*
X183245802Y-63849553D01*
X183150928Y-63834526D01*
X183056055Y-63819500D01*
X182863945Y-63819500D01*
X182800696Y-63829517D01*
X182674197Y-63849553D01*
X182491493Y-63908916D01*
X182320318Y-63996135D01*
X182290502Y-64017798D01*
X182164898Y-64109055D01*
X182164896Y-64109057D01*
X182164895Y-64109057D01*
X182029057Y-64244895D01*
X182029057Y-64244896D01*
X182029055Y-64244898D01*
X181980560Y-64311645D01*
X181916135Y-64400318D01*
X181828916Y-64571493D01*
X181769553Y-64754197D01*
X181739500Y-64943945D01*
X159125500Y-64943945D01*
X159125500Y-64542350D01*
X159145185Y-64475311D01*
X159146398Y-64473459D01*
X159146809Y-64472843D01*
X159209394Y-64379179D01*
X159212637Y-64371351D01*
X159223067Y-64346166D01*
X159269737Y-64233497D01*
X159300500Y-64078842D01*
X159300500Y-63921158D01*
X159300500Y-63921155D01*
X159300499Y-63921153D01*
X159298065Y-63908916D01*
X159269737Y-63766503D01*
X159238234Y-63690447D01*
X159209397Y-63620827D01*
X159209390Y-63620814D01*
X159121789Y-63489711D01*
X159121786Y-63489707D01*
X159010292Y-63378213D01*
X159010288Y-63378210D01*
X158879185Y-63290609D01*
X158879172Y-63290602D01*
X158733501Y-63230264D01*
X158733489Y-63230261D01*
X158578845Y-63199500D01*
X158578842Y-63199500D01*
X158421158Y-63199500D01*
X158421155Y-63199500D01*
X158266510Y-63230261D01*
X158266498Y-63230264D01*
X158120827Y-63290602D01*
X158120814Y-63290609D01*
X157989711Y-63378210D01*
X157989707Y-63378213D01*
X157878213Y-63489707D01*
X157878210Y-63489711D01*
X157790609Y-63620814D01*
X157790602Y-63620827D01*
X157730264Y-63766498D01*
X157730261Y-63766510D01*
X157699500Y-63921153D01*
X70450310Y-63921153D01*
X70448055Y-61921153D01*
X170199500Y-61921153D01*
X170199500Y-62078846D01*
X170230261Y-62233489D01*
X170230264Y-62233501D01*
X170290602Y-62379172D01*
X170290609Y-62379185D01*
X170378210Y-62510288D01*
X170378213Y-62510292D01*
X170489707Y-62621786D01*
X170489711Y-62621789D01*
X170620814Y-62709390D01*
X170620827Y-62709397D01*
X170766498Y-62769735D01*
X170766503Y-62769737D01*
X170921153Y-62800499D01*
X170921156Y-62800500D01*
X170921158Y-62800500D01*
X171078844Y-62800500D01*
X171078845Y-62800499D01*
X171233497Y-62769737D01*
X171379179Y-62709394D01*
X171473459Y-62646398D01*
X171540136Y-62625520D01*
X171542350Y-62625500D01*
X177457650Y-62625500D01*
X177524689Y-62645185D01*
X177526541Y-62646398D01*
X177620821Y-62709394D01*
X177620823Y-62709395D01*
X177620827Y-62709397D01*
X177766498Y-62769735D01*
X177766503Y-62769737D01*
X177921153Y-62800499D01*
X177921156Y-62800500D01*
X177921158Y-62800500D01*
X178078844Y-62800500D01*
X178078845Y-62800499D01*
X178233497Y-62769737D01*
X178379179Y-62709394D01*
X178510289Y-62621789D01*
X178621789Y-62510289D01*
X178692846Y-62403945D01*
X184279500Y-62403945D01*
X184279500Y-62596055D01*
X184287474Y-62646398D01*
X184309553Y-62785802D01*
X184368916Y-62968506D01*
X184368918Y-62968509D01*
X184456135Y-63139681D01*
X184569055Y-63295102D01*
X184704898Y-63430945D01*
X184860319Y-63543865D01*
X185011339Y-63620814D01*
X185031493Y-63631083D01*
X185122845Y-63660764D01*
X185214199Y-63690447D01*
X185403945Y-63720500D01*
X185403946Y-63720500D01*
X185596054Y-63720500D01*
X185596055Y-63720500D01*
X185785801Y-63690447D01*
X185968509Y-63631082D01*
X186139681Y-63543865D01*
X186295102Y-63430945D01*
X186430945Y-63295102D01*
X186543865Y-63139681D01*
X186631082Y-62968509D01*
X186690447Y-62785801D01*
X186720500Y-62596055D01*
X186720500Y-62403945D01*
X186690447Y-62214199D01*
X186660764Y-62122845D01*
X186631083Y-62031493D01*
X186574864Y-61921158D01*
X186543865Y-61860319D01*
X186430945Y-61704898D01*
X186295102Y-61569055D01*
X186139681Y-61456135D01*
X185968506Y-61368916D01*
X185785802Y-61309553D01*
X185666150Y-61290602D01*
X185596055Y-61279500D01*
X185403945Y-61279500D01*
X185340696Y-61289517D01*
X185214197Y-61309553D01*
X185031493Y-61368916D01*
X184860318Y-61456135D01*
X184771645Y-61520560D01*
X184704898Y-61569055D01*
X184704896Y-61569057D01*
X184704895Y-61569057D01*
X184569057Y-61704895D01*
X184569057Y-61704896D01*
X184569055Y-61704898D01*
X184524300Y-61766498D01*
X184456135Y-61860318D01*
X184368916Y-62031493D01*
X184309553Y-62214197D01*
X184287787Y-62351622D01*
X184279500Y-62403945D01*
X178692846Y-62403945D01*
X178709394Y-62379179D01*
X178769737Y-62233497D01*
X178800500Y-62078842D01*
X178800500Y-61921158D01*
X178800500Y-61921155D01*
X178800499Y-61921153D01*
X178769738Y-61766510D01*
X178769737Y-61766503D01*
X178744219Y-61704896D01*
X178709397Y-61620827D01*
X178709390Y-61620814D01*
X178621789Y-61489711D01*
X178621786Y-61489707D01*
X178510292Y-61378213D01*
X178510288Y-61378210D01*
X178379185Y-61290609D01*
X178379172Y-61290602D01*
X178233501Y-61230264D01*
X178233489Y-61230261D01*
X178078845Y-61199500D01*
X178078842Y-61199500D01*
X177921158Y-61199500D01*
X177921155Y-61199500D01*
X177766510Y-61230261D01*
X177766498Y-61230264D01*
X177620827Y-61290602D01*
X177620815Y-61290609D01*
X177526541Y-61353602D01*
X177459864Y-61374480D01*
X177457650Y-61374500D01*
X171542350Y-61374500D01*
X171475311Y-61354815D01*
X171473459Y-61353602D01*
X171379184Y-61290609D01*
X171379172Y-61290602D01*
X171233501Y-61230264D01*
X171233489Y-61230261D01*
X171078845Y-61199500D01*
X171078842Y-61199500D01*
X170921158Y-61199500D01*
X170921155Y-61199500D01*
X170766510Y-61230261D01*
X170766498Y-61230264D01*
X170620827Y-61290602D01*
X170620814Y-61290609D01*
X170489711Y-61378210D01*
X170489707Y-61378213D01*
X170378213Y-61489707D01*
X170378210Y-61489711D01*
X170290609Y-61620814D01*
X170290602Y-61620827D01*
X170230264Y-61766498D01*
X170230261Y-61766510D01*
X170199500Y-61921153D01*
X70448055Y-61921153D01*
X70443520Y-57897682D01*
X143200000Y-57897682D01*
X143200000Y-58102317D01*
X143232009Y-58304417D01*
X143295244Y-58499031D01*
X143388141Y-58681350D01*
X143388147Y-58681359D01*
X143420523Y-58725921D01*
X143420524Y-58725922D01*
X144100000Y-58046446D01*
X144100000Y-58052661D01*
X144127259Y-58154394D01*
X144179920Y-58245606D01*
X144254394Y-58320080D01*
X144345606Y-58372741D01*
X144447339Y-58400000D01*
X144453553Y-58400000D01*
X143774076Y-59079474D01*
X143818650Y-59111859D01*
X144000968Y-59204755D01*
X144195582Y-59267990D01*
X144397683Y-59300000D01*
X144602317Y-59300000D01*
X144804417Y-59267990D01*
X144999031Y-59204755D01*
X145181349Y-59111859D01*
X145225921Y-59079474D01*
X144546447Y-58400000D01*
X144552661Y-58400000D01*
X144654394Y-58372741D01*
X144745606Y-58320080D01*
X144820080Y-58245606D01*
X144872741Y-58154394D01*
X144900000Y-58052661D01*
X144900000Y-58046448D01*
X145579474Y-58725922D01*
X145579474Y-58725921D01*
X145611859Y-58681349D01*
X145704755Y-58499031D01*
X145767990Y-58304417D01*
X145800000Y-58102317D01*
X145800000Y-57897682D01*
X164700000Y-57897682D01*
X164700000Y-58102317D01*
X164732009Y-58304417D01*
X164795244Y-58499031D01*
X164888141Y-58681350D01*
X164888147Y-58681359D01*
X164920523Y-58725921D01*
X164920524Y-58725922D01*
X165600000Y-58046446D01*
X165600000Y-58052661D01*
X165627259Y-58154394D01*
X165679920Y-58245606D01*
X165754394Y-58320080D01*
X165845606Y-58372741D01*
X165947339Y-58400000D01*
X165953553Y-58400000D01*
X165274076Y-59079474D01*
X165318650Y-59111859D01*
X165500968Y-59204755D01*
X165695582Y-59267990D01*
X165897683Y-59300000D01*
X166102317Y-59300000D01*
X166304417Y-59267990D01*
X166499031Y-59204755D01*
X166681349Y-59111859D01*
X166725921Y-59079474D01*
X166046447Y-58400000D01*
X166052661Y-58400000D01*
X166154394Y-58372741D01*
X166245606Y-58320080D01*
X166320080Y-58245606D01*
X166372741Y-58154394D01*
X166400000Y-58052661D01*
X166400000Y-58046448D01*
X167079474Y-58725922D01*
X167079474Y-58725921D01*
X167111859Y-58681349D01*
X167204755Y-58499031D01*
X167267990Y-58304417D01*
X167300000Y-58102317D01*
X167300000Y-57897682D01*
X167299995Y-57897648D01*
X195199500Y-57897648D01*
X195199500Y-58102351D01*
X195231522Y-58304534D01*
X195294781Y-58499223D01*
X195358691Y-58624653D01*
X195387585Y-58681359D01*
X195387715Y-58681613D01*
X195508028Y-58847213D01*
X195652786Y-58991971D01*
X195773226Y-59079474D01*
X195818390Y-59112287D01*
X195934607Y-59171503D01*
X196000776Y-59205218D01*
X196000778Y-59205218D01*
X196000781Y-59205220D01*
X196105137Y-59239127D01*
X196195465Y-59268477D01*
X196296557Y-59284488D01*
X196397648Y-59300500D01*
X196397649Y-59300500D01*
X196602351Y-59300500D01*
X196602352Y-59300500D01*
X196804534Y-59268477D01*
X196999219Y-59205220D01*
X197181610Y-59112287D01*
X197274590Y-59044732D01*
X197347213Y-58991971D01*
X197347215Y-58991968D01*
X197347219Y-58991966D01*
X197491966Y-58847219D01*
X197491968Y-58847215D01*
X197491971Y-58847213D01*
X197544732Y-58774590D01*
X197612287Y-58681610D01*
X197705220Y-58499219D01*
X197768477Y-58304534D01*
X197800500Y-58102352D01*
X197800500Y-57897648D01*
X197792257Y-57845606D01*
X197768477Y-57695465D01*
X197737458Y-57600000D01*
X197705220Y-57500781D01*
X197705218Y-57500778D01*
X197705218Y-57500776D01*
X197612419Y-57318650D01*
X197612287Y-57318390D01*
X197580092Y-57274077D01*
X197491971Y-57152786D01*
X197347213Y-57008028D01*
X197181613Y-56887715D01*
X197181612Y-56887714D01*
X197181610Y-56887713D01*
X197124653Y-56858691D01*
X196999223Y-56794781D01*
X196804534Y-56731522D01*
X196629995Y-56703878D01*
X196602352Y-56699500D01*
X196397648Y-56699500D01*
X196373329Y-56703351D01*
X196195465Y-56731522D01*
X196000776Y-56794781D01*
X195818386Y-56887715D01*
X195652786Y-57008028D01*
X195508028Y-57152786D01*
X195387715Y-57318386D01*
X195294781Y-57500776D01*
X195231522Y-57695465D01*
X195199500Y-57897648D01*
X167299995Y-57897648D01*
X167267990Y-57695582D01*
X167204755Y-57500968D01*
X167111859Y-57318650D01*
X167079474Y-57274077D01*
X167079474Y-57274076D01*
X166400000Y-57953551D01*
X166400000Y-57947339D01*
X166372741Y-57845606D01*
X166320080Y-57754394D01*
X166245606Y-57679920D01*
X166154394Y-57627259D01*
X166052661Y-57600000D01*
X166046446Y-57600000D01*
X166725922Y-56920524D01*
X166725921Y-56920523D01*
X166681359Y-56888147D01*
X166681350Y-56888141D01*
X166499031Y-56795244D01*
X166304417Y-56732009D01*
X166102317Y-56700000D01*
X165897683Y-56700000D01*
X165695582Y-56732009D01*
X165500968Y-56795244D01*
X165318644Y-56888143D01*
X165274077Y-56920523D01*
X165274077Y-56920524D01*
X165953554Y-57600000D01*
X165947339Y-57600000D01*
X165845606Y-57627259D01*
X165754394Y-57679920D01*
X165679920Y-57754394D01*
X165627259Y-57845606D01*
X165600000Y-57947339D01*
X165600000Y-57953553D01*
X164920524Y-57274077D01*
X164920523Y-57274077D01*
X164888143Y-57318644D01*
X164795244Y-57500968D01*
X164732009Y-57695582D01*
X164700000Y-57897682D01*
X145800000Y-57897682D01*
X145767990Y-57695582D01*
X145704755Y-57500968D01*
X145611859Y-57318650D01*
X145579474Y-57274077D01*
X145579474Y-57274076D01*
X144900000Y-57953551D01*
X144900000Y-57947339D01*
X144872741Y-57845606D01*
X144820080Y-57754394D01*
X144745606Y-57679920D01*
X144654394Y-57627259D01*
X144552661Y-57600000D01*
X144546446Y-57600000D01*
X145225922Y-56920524D01*
X145225921Y-56920523D01*
X145181359Y-56888147D01*
X145181350Y-56888141D01*
X144999031Y-56795244D01*
X144804417Y-56732009D01*
X144602317Y-56700000D01*
X144397683Y-56700000D01*
X144195582Y-56732009D01*
X144000968Y-56795244D01*
X143818644Y-56888143D01*
X143774077Y-56920523D01*
X143774077Y-56920524D01*
X144453554Y-57600000D01*
X144447339Y-57600000D01*
X144345606Y-57627259D01*
X144254394Y-57679920D01*
X144179920Y-57754394D01*
X144127259Y-57845606D01*
X144100000Y-57947339D01*
X144100000Y-57953553D01*
X143420524Y-57274077D01*
X143420523Y-57274077D01*
X143388143Y-57318644D01*
X143295244Y-57500968D01*
X143232009Y-57695582D01*
X143200000Y-57897682D01*
X70443520Y-57897682D01*
X70440228Y-54977648D01*
X185199500Y-54977648D01*
X185199500Y-55182351D01*
X185231522Y-55384534D01*
X185294781Y-55579223D01*
X185387715Y-55761613D01*
X185508028Y-55927213D01*
X185652786Y-56071971D01*
X185807749Y-56184556D01*
X185818390Y-56192287D01*
X185934607Y-56251503D01*
X186000776Y-56285218D01*
X186000778Y-56285218D01*
X186000781Y-56285220D01*
X186105137Y-56319127D01*
X186195465Y-56348477D01*
X186296557Y-56364488D01*
X186397648Y-56380500D01*
X186397649Y-56380500D01*
X186602351Y-56380500D01*
X186602352Y-56380500D01*
X186804534Y-56348477D01*
X186999219Y-56285220D01*
X187181610Y-56192287D01*
X187274590Y-56124732D01*
X187347213Y-56071971D01*
X187347215Y-56071968D01*
X187347219Y-56071966D01*
X187491966Y-55927219D01*
X187491968Y-55927215D01*
X187491971Y-55927213D01*
X187544732Y-55854590D01*
X187612287Y-55761610D01*
X187705220Y-55579219D01*
X187768477Y-55384534D01*
X187800500Y-55182352D01*
X187800500Y-54977648D01*
X187768477Y-54775466D01*
X187705220Y-54580781D01*
X187705218Y-54580778D01*
X187705218Y-54580776D01*
X187645989Y-54464534D01*
X187612287Y-54398390D01*
X187604556Y-54387749D01*
X187491971Y-54232786D01*
X187347213Y-54088028D01*
X187305398Y-54057648D01*
X195199500Y-54057648D01*
X195199500Y-54262351D01*
X195231522Y-54464534D01*
X195294781Y-54659223D01*
X195387715Y-54841613D01*
X195508028Y-55007213D01*
X195652786Y-55151971D01*
X195807749Y-55264556D01*
X195818390Y-55272287D01*
X195934607Y-55331503D01*
X196000776Y-55365218D01*
X196000778Y-55365218D01*
X196000781Y-55365220D01*
X196105137Y-55399127D01*
X196195465Y-55428477D01*
X196296557Y-55444488D01*
X196397648Y-55460500D01*
X196397649Y-55460500D01*
X196602351Y-55460500D01*
X196602352Y-55460500D01*
X196804534Y-55428477D01*
X196999219Y-55365220D01*
X197181610Y-55272287D01*
X197305396Y-55182352D01*
X197347213Y-55151971D01*
X197347215Y-55151968D01*
X197347219Y-55151966D01*
X197491966Y-55007219D01*
X197491968Y-55007215D01*
X197491971Y-55007213D01*
X197544732Y-54934590D01*
X197612287Y-54841610D01*
X197705220Y-54659219D01*
X197768477Y-54464534D01*
X197800500Y-54262352D01*
X197800500Y-54057648D01*
X197786256Y-53967715D01*
X197768477Y-53855465D01*
X197739127Y-53765137D01*
X197705220Y-53660781D01*
X197705218Y-53660778D01*
X197705218Y-53660776D01*
X197671503Y-53594607D01*
X197612287Y-53478390D01*
X197580800Y-53435051D01*
X197491971Y-53312786D01*
X197347213Y-53168028D01*
X197181613Y-53047715D01*
X197181612Y-53047714D01*
X197181610Y-53047713D01*
X197124653Y-53018691D01*
X196999223Y-52954781D01*
X196804534Y-52891522D01*
X196629995Y-52863878D01*
X196602352Y-52859500D01*
X196397648Y-52859500D01*
X196373329Y-52863351D01*
X196195465Y-52891522D01*
X196000776Y-52954781D01*
X195818386Y-53047715D01*
X195652786Y-53168028D01*
X195508028Y-53312786D01*
X195387715Y-53478386D01*
X195294781Y-53660776D01*
X195231522Y-53855465D01*
X195199500Y-54057648D01*
X187305398Y-54057648D01*
X187181613Y-53967715D01*
X187181612Y-53967714D01*
X187181610Y-53967713D01*
X187124653Y-53938691D01*
X186999223Y-53874781D01*
X186804534Y-53811522D01*
X186629995Y-53783878D01*
X186602352Y-53779500D01*
X186397648Y-53779500D01*
X186373329Y-53783351D01*
X186195465Y-53811522D01*
X186000776Y-53874781D01*
X185818386Y-53967715D01*
X185652786Y-54088028D01*
X185508028Y-54232786D01*
X185387715Y-54398386D01*
X185294781Y-54580776D01*
X185231522Y-54775465D01*
X185199500Y-54977648D01*
X70440228Y-54977648D01*
X70426544Y-42838146D01*
X80467000Y-42838146D01*
X80467000Y-43161854D01*
X80472342Y-43195582D01*
X80502778Y-43387746D01*
X80502778Y-43387749D01*
X80573450Y-43605255D01*
X80634933Y-43725921D01*
X80677283Y-43809038D01*
X80811714Y-43994066D01*
X80973434Y-44155786D01*
X81158462Y-44290217D01*
X81290599Y-44357544D01*
X81362244Y-44394049D01*
X81579751Y-44464721D01*
X81579752Y-44464721D01*
X81579755Y-44464722D01*
X81805646Y-44500500D01*
X81805647Y-44500500D01*
X82034353Y-44500500D01*
X82034354Y-44500500D01*
X82260245Y-44464722D01*
X82260248Y-44464721D01*
X82260249Y-44464721D01*
X82477755Y-44394049D01*
X82477755Y-44394048D01*
X82477758Y-44394048D01*
X82681538Y-44290217D01*
X82866566Y-44155786D01*
X83028286Y-43994066D01*
X83089992Y-43909134D01*
X83145319Y-43866470D01*
X83214932Y-43860491D01*
X83276727Y-43893096D01*
X83290626Y-43909135D01*
X83352097Y-43993741D01*
X83352097Y-43993742D01*
X83513757Y-44155402D01*
X83698723Y-44289788D01*
X83902429Y-44393582D01*
X84119871Y-44464234D01*
X84210000Y-44478509D01*
X84210000Y-43490747D01*
X84247708Y-43512518D01*
X84387591Y-43550000D01*
X84532409Y-43550000D01*
X84672292Y-43512518D01*
X84710000Y-43490747D01*
X84710000Y-44478508D01*
X84800128Y-44464234D01*
X85017570Y-44393582D01*
X85221276Y-44289788D01*
X85404059Y-44156988D01*
X85469865Y-44133508D01*
X85537919Y-44149333D01*
X85586614Y-44199439D01*
X85593127Y-44213974D01*
X85603701Y-44242326D01*
X85603706Y-44242335D01*
X85689952Y-44357544D01*
X85689955Y-44357547D01*
X85805164Y-44443793D01*
X85805171Y-44443797D01*
X85940017Y-44494091D01*
X85940016Y-44494091D01*
X85946944Y-44494835D01*
X85999627Y-44500500D01*
X88000372Y-44500499D01*
X88059983Y-44494091D01*
X88194831Y-44443796D01*
X88209322Y-44432947D01*
X88209324Y-44432947D01*
X88261908Y-44393582D01*
X88310046Y-44357546D01*
X88396296Y-44242331D01*
X88446591Y-44107483D01*
X88453000Y-44047873D01*
X88452999Y-43397682D01*
X99200000Y-43397682D01*
X99200000Y-43602317D01*
X99232009Y-43804417D01*
X99295244Y-43999031D01*
X99388141Y-44181350D01*
X99388147Y-44181359D01*
X99420523Y-44225921D01*
X99420524Y-44225922D01*
X100100000Y-43546446D01*
X100100000Y-43552661D01*
X100127259Y-43654394D01*
X100179920Y-43745606D01*
X100254394Y-43820080D01*
X100345606Y-43872741D01*
X100447339Y-43900000D01*
X100453553Y-43900000D01*
X99774076Y-44579474D01*
X99818650Y-44611859D01*
X100000968Y-44704755D01*
X100195582Y-44767990D01*
X100397683Y-44800000D01*
X100602317Y-44800000D01*
X100804417Y-44767990D01*
X100999031Y-44704755D01*
X101181349Y-44611859D01*
X101225921Y-44579474D01*
X100546447Y-43900000D01*
X100552661Y-43900000D01*
X100654394Y-43872741D01*
X100745606Y-43820080D01*
X100820080Y-43745606D01*
X100872741Y-43654394D01*
X100900000Y-43552661D01*
X100900000Y-43546447D01*
X101579474Y-44225921D01*
X101611859Y-44181349D01*
X101704755Y-43999031D01*
X101767990Y-43804417D01*
X101800000Y-43602317D01*
X101800000Y-43397682D01*
X101767990Y-43195582D01*
X101704755Y-43000968D01*
X101611859Y-42818650D01*
X101579474Y-42774077D01*
X101579474Y-42774076D01*
X100900000Y-43453551D01*
X100900000Y-43447339D01*
X100872741Y-43345606D01*
X100820080Y-43254394D01*
X100745606Y-43179920D01*
X100654394Y-43127259D01*
X100552661Y-43100000D01*
X100546446Y-43100000D01*
X101225922Y-42420524D01*
X101225921Y-42420523D01*
X101181359Y-42388147D01*
X101181350Y-42388141D01*
X100999031Y-42295244D01*
X100804417Y-42232009D01*
X100602317Y-42200000D01*
X100397683Y-42200000D01*
X100195582Y-42232009D01*
X100000968Y-42295244D01*
X99818644Y-42388143D01*
X99774077Y-42420523D01*
X99774077Y-42420524D01*
X100453554Y-43100000D01*
X100447339Y-43100000D01*
X100345606Y-43127259D01*
X100254394Y-43179920D01*
X100179920Y-43254394D01*
X100127259Y-43345606D01*
X100100000Y-43447339D01*
X100100000Y-43453553D01*
X99420524Y-42774077D01*
X99420523Y-42774077D01*
X99388143Y-42818644D01*
X99295244Y-43000968D01*
X99232009Y-43195582D01*
X99200000Y-43397682D01*
X88452999Y-43397682D01*
X88452999Y-42999999D01*
X88452999Y-42467783D01*
X88452999Y-41952129D01*
X88452998Y-41952123D01*
X88449601Y-41920523D01*
X88446591Y-41892517D01*
X88444799Y-41887713D01*
X88396297Y-41757671D01*
X88396293Y-41757664D01*
X88310047Y-41642455D01*
X88310044Y-41642452D01*
X88194835Y-41556206D01*
X88194828Y-41556202D01*
X88059982Y-41505908D01*
X88059983Y-41505908D01*
X88000383Y-41499501D01*
X88000381Y-41499500D01*
X88000373Y-41499500D01*
X88000364Y-41499500D01*
X85999629Y-41499500D01*
X85999623Y-41499501D01*
X85940016Y-41505908D01*
X85805171Y-41556202D01*
X85805164Y-41556206D01*
X85689955Y-41642452D01*
X85689952Y-41642455D01*
X85603706Y-41757664D01*
X85603702Y-41757671D01*
X85593127Y-41786026D01*
X85551256Y-41841960D01*
X85485791Y-41866377D01*
X85417518Y-41851525D01*
X85404060Y-41843011D01*
X85221279Y-41710213D01*
X85017568Y-41606417D01*
X84800124Y-41535765D01*
X84710000Y-41521490D01*
X84710000Y-42509252D01*
X84672292Y-42487482D01*
X84532409Y-42450000D01*
X84387591Y-42450000D01*
X84247708Y-42487482D01*
X84210000Y-42509252D01*
X84210000Y-41521490D01*
X84209999Y-41521490D01*
X84119875Y-41535765D01*
X83902431Y-41606417D01*
X83698723Y-41710211D01*
X83513757Y-41844597D01*
X83352097Y-42006257D01*
X83290627Y-42090864D01*
X83235297Y-42133529D01*
X83165684Y-42139508D01*
X83103889Y-42106902D01*
X83089991Y-42090864D01*
X83028286Y-42005934D01*
X82866566Y-41844214D01*
X82681538Y-41709783D01*
X82662338Y-41700000D01*
X82477755Y-41605950D01*
X82260248Y-41535278D01*
X82074812Y-41505908D01*
X82034354Y-41499500D01*
X81805646Y-41499500D01*
X81765188Y-41505908D01*
X81579753Y-41535278D01*
X81579750Y-41535278D01*
X81362244Y-41605950D01*
X81158461Y-41709783D01*
X81082208Y-41765185D01*
X80973434Y-41844214D01*
X80973432Y-41844216D01*
X80973431Y-41844216D01*
X80811716Y-42005931D01*
X80811716Y-42005932D01*
X80811714Y-42005934D01*
X80753980Y-42085396D01*
X80677283Y-42190961D01*
X80573450Y-42394744D01*
X80502778Y-42612250D01*
X80502778Y-42612253D01*
X80480265Y-42754394D01*
X80467000Y-42838146D01*
X70426544Y-42838146D01*
X70421538Y-38397648D01*
X80659500Y-38397648D01*
X80659500Y-38602352D01*
X80661908Y-38617555D01*
X80691522Y-38804534D01*
X80754781Y-38999223D01*
X80784940Y-39058412D01*
X80846842Y-39179901D01*
X80847715Y-39181613D01*
X80968028Y-39347213D01*
X81112786Y-39491971D01*
X81267749Y-39604556D01*
X81278390Y-39612287D01*
X81357864Y-39652781D01*
X81460776Y-39705218D01*
X81460778Y-39705218D01*
X81460781Y-39705220D01*
X81565137Y-39739127D01*
X81655465Y-39768477D01*
X81683978Y-39772993D01*
X81857648Y-39800500D01*
X81857649Y-39800500D01*
X82062351Y-39800500D01*
X82062352Y-39800500D01*
X82264534Y-39768477D01*
X82459219Y-39705220D01*
X82641610Y-39612287D01*
X82734590Y-39544732D01*
X82807213Y-39491971D01*
X82807215Y-39491968D01*
X82807219Y-39491966D01*
X82951966Y-39347219D01*
X82951968Y-39347215D01*
X82951971Y-39347213D01*
X83059289Y-39199500D01*
X83072287Y-39181610D01*
X83165220Y-38999219D01*
X83228477Y-38804534D01*
X83260500Y-38602352D01*
X83260500Y-38397648D01*
X99199500Y-38397648D01*
X99199500Y-38602352D01*
X99201908Y-38617555D01*
X99231522Y-38804534D01*
X99294781Y-38999223D01*
X99324940Y-39058412D01*
X99386842Y-39179901D01*
X99387715Y-39181613D01*
X99508028Y-39347213D01*
X99652786Y-39491971D01*
X99807749Y-39604556D01*
X99818390Y-39612287D01*
X99897864Y-39652781D01*
X100000776Y-39705218D01*
X100000778Y-39705218D01*
X100000781Y-39705220D01*
X100105137Y-39739127D01*
X100195465Y-39768477D01*
X100223978Y-39772993D01*
X100397648Y-39800500D01*
X100397649Y-39800500D01*
X100602351Y-39800500D01*
X100602352Y-39800500D01*
X100804534Y-39768477D01*
X100999219Y-39705220D01*
X101181610Y-39612287D01*
X101274590Y-39544732D01*
X101347213Y-39491971D01*
X101347215Y-39491968D01*
X101347219Y-39491966D01*
X101491966Y-39347219D01*
X101491968Y-39347215D01*
X101491971Y-39347213D01*
X101599289Y-39199500D01*
X101612287Y-39181610D01*
X101705220Y-38999219D01*
X101768477Y-38804534D01*
X101800500Y-38602352D01*
X101800500Y-38397648D01*
X101797978Y-38381722D01*
X101768477Y-38195465D01*
X101727744Y-38070104D01*
X101705220Y-38000781D01*
X101705218Y-38000778D01*
X101705218Y-38000776D01*
X101619315Y-37832184D01*
X101612287Y-37818390D01*
X101604556Y-37807749D01*
X101491971Y-37652786D01*
X101347213Y-37508028D01*
X101181613Y-37387715D01*
X101181612Y-37387714D01*
X101181610Y-37387713D01*
X101119839Y-37356239D01*
X100999223Y-37294781D01*
X100804534Y-37231522D01*
X100629995Y-37203878D01*
X100602352Y-37199500D01*
X100397648Y-37199500D01*
X100373329Y-37203351D01*
X100195465Y-37231522D01*
X100000776Y-37294781D01*
X99818386Y-37387715D01*
X99652786Y-37508028D01*
X99508028Y-37652786D01*
X99387715Y-37818386D01*
X99294781Y-38000776D01*
X99231522Y-38195465D01*
X99202022Y-38381722D01*
X99199500Y-38397648D01*
X83260500Y-38397648D01*
X83257978Y-38381722D01*
X83228477Y-38195465D01*
X83187744Y-38070104D01*
X83165220Y-38000781D01*
X83165218Y-38000778D01*
X83165218Y-38000776D01*
X83079315Y-37832184D01*
X83072287Y-37818390D01*
X83064556Y-37807749D01*
X82951971Y-37652786D01*
X82807213Y-37508028D01*
X82641613Y-37387715D01*
X82641612Y-37387714D01*
X82641610Y-37387713D01*
X82579839Y-37356239D01*
X82459223Y-37294781D01*
X82264534Y-37231522D01*
X82089995Y-37203878D01*
X82062352Y-37199500D01*
X81857648Y-37199500D01*
X81833329Y-37203351D01*
X81655465Y-37231522D01*
X81460776Y-37294781D01*
X81278386Y-37387715D01*
X81112786Y-37508028D01*
X80968028Y-37652786D01*
X80847715Y-37818386D01*
X80754781Y-38000776D01*
X80691522Y-38195465D01*
X80662022Y-38381722D01*
X80659500Y-38397648D01*
X70421538Y-38397648D01*
X70418152Y-35393753D01*
X89030000Y-35393753D01*
X89030000Y-35606246D01*
X89063242Y-35816127D01*
X89063242Y-35816130D01*
X89128904Y-36018217D01*
X89225375Y-36207550D01*
X89264728Y-36261716D01*
X89897037Y-35629408D01*
X89914075Y-35692993D01*
X89979901Y-35807007D01*
X90072993Y-35900099D01*
X90187007Y-35965925D01*
X90250590Y-35982962D01*
X89618282Y-36615269D01*
X89618282Y-36615270D01*
X89672449Y-36654624D01*
X89861782Y-36751095D01*
X90063870Y-36816757D01*
X90273754Y-36850000D01*
X90486246Y-36850000D01*
X90696127Y-36816757D01*
X90696130Y-36816757D01*
X90898217Y-36751095D01*
X91087554Y-36654622D01*
X91141716Y-36615270D01*
X91141717Y-36615270D01*
X90509408Y-35982962D01*
X90572993Y-35965925D01*
X90687007Y-35900099D01*
X90780099Y-35807007D01*
X90845925Y-35692993D01*
X90862962Y-35629408D01*
X91495270Y-36261717D01*
X91495270Y-36261716D01*
X91534622Y-36207555D01*
X91539232Y-36198507D01*
X91587205Y-36147709D01*
X91655025Y-36130912D01*
X91721161Y-36153447D01*
X91760204Y-36198504D01*
X91764949Y-36207817D01*
X91889890Y-36379786D01*
X92040213Y-36530109D01*
X92212179Y-36655048D01*
X92212181Y-36655049D01*
X92212184Y-36655051D01*
X92401588Y-36751557D01*
X92603757Y-36817246D01*
X92813713Y-36850500D01*
X92813714Y-36850500D01*
X93026286Y-36850500D01*
X93026287Y-36850500D01*
X93236243Y-36817246D01*
X93438412Y-36751557D01*
X93627816Y-36655051D01*
X93714138Y-36592335D01*
X93799786Y-36530109D01*
X93799788Y-36530106D01*
X93799792Y-36530104D01*
X93950104Y-36379792D01*
X93950106Y-36379788D01*
X93950109Y-36379786D01*
X94075048Y-36207820D01*
X94075050Y-36207817D01*
X94075051Y-36207816D01*
X94079514Y-36199054D01*
X94127488Y-36148259D01*
X94195308Y-36131463D01*
X94261444Y-36153999D01*
X94300486Y-36199056D01*
X94304951Y-36207820D01*
X94429890Y-36379786D01*
X94580213Y-36530109D01*
X94752179Y-36655048D01*
X94752181Y-36655049D01*
X94752184Y-36655051D01*
X94941588Y-36751557D01*
X95143757Y-36817246D01*
X95353713Y-36850500D01*
X95353714Y-36850500D01*
X95566286Y-36850500D01*
X95566287Y-36850500D01*
X95776243Y-36817246D01*
X95978412Y-36751557D01*
X96167816Y-36655051D01*
X96254138Y-36592335D01*
X96339786Y-36530109D01*
X96339788Y-36530106D01*
X96339792Y-36530104D01*
X96490104Y-36379792D01*
X96490106Y-36379788D01*
X96490109Y-36379786D01*
X96615048Y-36207820D01*
X96615050Y-36207817D01*
X96615051Y-36207816D01*
X96619514Y-36199054D01*
X96667488Y-36148259D01*
X96735308Y-36131463D01*
X96801444Y-36153999D01*
X96840486Y-36199056D01*
X96844951Y-36207820D01*
X96969890Y-36379786D01*
X97120213Y-36530109D01*
X97292179Y-36655048D01*
X97292181Y-36655049D01*
X97292184Y-36655051D01*
X97481588Y-36751557D01*
X97683757Y-36817246D01*
X97893713Y-36850500D01*
X97893714Y-36850500D01*
X98106286Y-36850500D01*
X98106287Y-36850500D01*
X98316243Y-36817246D01*
X98518412Y-36751557D01*
X98707816Y-36655051D01*
X98879792Y-36530104D01*
X98993329Y-36416566D01*
X99054648Y-36383084D01*
X99124340Y-36388068D01*
X99180274Y-36429939D01*
X99197189Y-36460917D01*
X99246202Y-36592328D01*
X99246206Y-36592335D01*
X99332452Y-36707544D01*
X99332455Y-36707547D01*
X99447664Y-36793793D01*
X99447671Y-36793797D01*
X99582517Y-36844091D01*
X99582516Y-36844091D01*
X99589444Y-36844835D01*
X99642127Y-36850500D01*
X101437872Y-36850499D01*
X101497483Y-36844091D01*
X101632331Y-36793796D01*
X101747546Y-36707546D01*
X101833796Y-36592331D01*
X101884091Y-36457483D01*
X101890500Y-36397873D01*
X101890499Y-34602128D01*
X101884091Y-34542517D01*
X101882810Y-34539083D01*
X101833797Y-34407671D01*
X101833793Y-34407664D01*
X101747547Y-34292455D01*
X101747544Y-34292452D01*
X101632335Y-34206206D01*
X101632328Y-34206202D01*
X101497482Y-34155908D01*
X101497483Y-34155908D01*
X101437883Y-34149501D01*
X101437881Y-34149500D01*
X101437873Y-34149500D01*
X101437864Y-34149500D01*
X99642129Y-34149500D01*
X99642123Y-34149501D01*
X99582516Y-34155908D01*
X99447671Y-34206202D01*
X99447664Y-34206206D01*
X99332455Y-34292452D01*
X99332452Y-34292455D01*
X99246206Y-34407664D01*
X99246203Y-34407669D01*
X99197189Y-34539083D01*
X99155317Y-34595016D01*
X99089853Y-34619433D01*
X99021580Y-34604581D01*
X98993326Y-34583430D01*
X98879786Y-34469890D01*
X98707820Y-34344951D01*
X98518414Y-34248444D01*
X98518413Y-34248443D01*
X98518412Y-34248443D01*
X98316243Y-34182754D01*
X98316241Y-34182753D01*
X98316240Y-34182753D01*
X98154957Y-34157208D01*
X98106287Y-34149500D01*
X97893713Y-34149500D01*
X97845042Y-34157208D01*
X97683760Y-34182753D01*
X97481585Y-34248444D01*
X97292179Y-34344951D01*
X97120213Y-34469890D01*
X96969890Y-34620213D01*
X96844949Y-34792182D01*
X96840484Y-34800946D01*
X96792509Y-34851742D01*
X96724688Y-34868536D01*
X96658553Y-34845998D01*
X96619516Y-34800946D01*
X96615050Y-34792182D01*
X96490109Y-34620213D01*
X96339786Y-34469890D01*
X96167820Y-34344951D01*
X95978414Y-34248444D01*
X95978413Y-34248443D01*
X95978412Y-34248443D01*
X95776243Y-34182754D01*
X95776241Y-34182753D01*
X95776240Y-34182753D01*
X95614957Y-34157208D01*
X95566287Y-34149500D01*
X95353713Y-34149500D01*
X95305042Y-34157208D01*
X95143760Y-34182753D01*
X94941585Y-34248444D01*
X94752179Y-34344951D01*
X94580213Y-34469890D01*
X94429890Y-34620213D01*
X94304949Y-34792182D01*
X94300484Y-34800946D01*
X94252509Y-34851742D01*
X94184688Y-34868536D01*
X94118553Y-34845998D01*
X94079516Y-34800946D01*
X94075050Y-34792182D01*
X93950109Y-34620213D01*
X93799786Y-34469890D01*
X93627820Y-34344951D01*
X93438414Y-34248444D01*
X93438413Y-34248443D01*
X93438412Y-34248443D01*
X93236243Y-34182754D01*
X93236241Y-34182753D01*
X93236240Y-34182753D01*
X93074957Y-34157208D01*
X93026287Y-34149500D01*
X92813713Y-34149500D01*
X92765042Y-34157208D01*
X92603760Y-34182753D01*
X92401585Y-34248444D01*
X92212179Y-34344951D01*
X92040213Y-34469890D01*
X91889890Y-34620213D01*
X91764949Y-34792182D01*
X91760202Y-34801499D01*
X91712227Y-34852293D01*
X91644405Y-34869087D01*
X91578271Y-34846548D01*
X91539234Y-34801495D01*
X91534626Y-34792452D01*
X91495270Y-34738282D01*
X91495269Y-34738282D01*
X90862962Y-35370590D01*
X90845925Y-35307007D01*
X90780099Y-35192993D01*
X90687007Y-35099901D01*
X90572993Y-35034075D01*
X90509409Y-35017037D01*
X91141716Y-34384728D01*
X91087550Y-34345375D01*
X90898217Y-34248904D01*
X90696129Y-34183242D01*
X90486246Y-34150000D01*
X90273754Y-34150000D01*
X90063872Y-34183242D01*
X90063869Y-34183242D01*
X89861782Y-34248904D01*
X89672439Y-34345380D01*
X89618282Y-34384727D01*
X89618282Y-34384728D01*
X90250591Y-35017037D01*
X90187007Y-35034075D01*
X90072993Y-35099901D01*
X89979901Y-35192993D01*
X89914075Y-35307007D01*
X89897037Y-35370591D01*
X89264728Y-34738282D01*
X89264727Y-34738282D01*
X89225380Y-34792439D01*
X89128904Y-34981782D01*
X89063242Y-35183869D01*
X89063242Y-35183872D01*
X89030000Y-35393753D01*
X70418152Y-35393753D01*
X70414775Y-32397682D01*
X72700000Y-32397682D01*
X72700000Y-32602317D01*
X72732009Y-32804417D01*
X72795244Y-32999031D01*
X72888141Y-33181350D01*
X72888147Y-33181359D01*
X72920523Y-33225921D01*
X72920524Y-33225922D01*
X73600000Y-32546446D01*
X73600000Y-32552661D01*
X73627259Y-32654394D01*
X73679920Y-32745606D01*
X73754394Y-32820080D01*
X73845606Y-32872741D01*
X73947339Y-32900000D01*
X73953553Y-32900000D01*
X73274076Y-33579474D01*
X73318650Y-33611859D01*
X73500968Y-33704755D01*
X73695582Y-33767990D01*
X73897683Y-33800000D01*
X74102317Y-33800000D01*
X74304417Y-33767990D01*
X74499031Y-33704755D01*
X74681349Y-33611859D01*
X74725921Y-33579474D01*
X74046447Y-32900000D01*
X74052661Y-32900000D01*
X74154394Y-32872741D01*
X74245606Y-32820080D01*
X74320080Y-32745606D01*
X74372741Y-32654394D01*
X74400000Y-32552661D01*
X74400000Y-32546447D01*
X75079474Y-33225921D01*
X75111859Y-33181349D01*
X75204755Y-32999031D01*
X75267990Y-32804417D01*
X75300000Y-32602317D01*
X75300000Y-32397682D01*
X77700000Y-32397682D01*
X77700000Y-32602317D01*
X77732009Y-32804417D01*
X77795244Y-32999031D01*
X77888141Y-33181350D01*
X77888147Y-33181359D01*
X77920523Y-33225921D01*
X77920524Y-33225922D01*
X78600000Y-32546446D01*
X78600000Y-32552661D01*
X78627259Y-32654394D01*
X78679920Y-32745606D01*
X78754394Y-32820080D01*
X78845606Y-32872741D01*
X78947339Y-32900000D01*
X78953553Y-32900000D01*
X78274076Y-33579474D01*
X78318650Y-33611859D01*
X78500968Y-33704755D01*
X78695582Y-33767990D01*
X78897683Y-33800000D01*
X79102317Y-33800000D01*
X79304417Y-33767990D01*
X79499031Y-33704755D01*
X79681349Y-33611859D01*
X79725921Y-33579474D01*
X79725922Y-33579474D01*
X79626945Y-33480497D01*
X79544130Y-33397682D01*
X80660000Y-33397682D01*
X80660000Y-33602317D01*
X80692009Y-33804417D01*
X80755244Y-33999031D01*
X80848141Y-34181350D01*
X80848147Y-34181359D01*
X80880523Y-34225921D01*
X80880524Y-34225922D01*
X81560000Y-33546446D01*
X81560000Y-33552661D01*
X81587259Y-33654394D01*
X81639920Y-33745606D01*
X81714394Y-33820080D01*
X81805606Y-33872741D01*
X81907339Y-33900000D01*
X81913553Y-33900000D01*
X81234076Y-34579474D01*
X81278650Y-34611859D01*
X81460968Y-34704755D01*
X81655582Y-34767990D01*
X81857683Y-34800000D01*
X82062317Y-34800000D01*
X82264417Y-34767990D01*
X82459031Y-34704755D01*
X82641349Y-34611859D01*
X82685921Y-34579474D01*
X82685922Y-34579474D01*
X82626116Y-34519668D01*
X82006447Y-33900000D01*
X82012661Y-33900000D01*
X82114394Y-33872741D01*
X82205606Y-33820080D01*
X82280080Y-33745606D01*
X82332741Y-33654394D01*
X82360000Y-33552661D01*
X82360000Y-33546447D01*
X83039474Y-34225921D01*
X83071859Y-34181349D01*
X83164755Y-33999031D01*
X83227990Y-33804417D01*
X83260000Y-33602317D01*
X83260000Y-33602135D01*
X113149500Y-33602135D01*
X113149500Y-35397870D01*
X113149501Y-35397876D01*
X113155908Y-35457483D01*
X113206202Y-35592328D01*
X113206206Y-35592335D01*
X113292452Y-35707544D01*
X113292455Y-35707547D01*
X113407664Y-35793793D01*
X113407671Y-35793797D01*
X113539082Y-35842810D01*
X113595016Y-35884681D01*
X113619433Y-35950145D01*
X113604582Y-36018418D01*
X113583431Y-36046673D01*
X113469889Y-36160215D01*
X113344951Y-36332179D01*
X113248444Y-36521585D01*
X113182753Y-36723760D01*
X113149500Y-36933713D01*
X113149500Y-37146286D01*
X113180088Y-37339414D01*
X113182754Y-37356243D01*
X113235920Y-37519871D01*
X113248444Y-37558414D01*
X113344951Y-37747820D01*
X113469890Y-37919786D01*
X113620213Y-38070109D01*
X113792179Y-38195048D01*
X113792181Y-38195049D01*
X113792184Y-38195051D01*
X113801493Y-38199794D01*
X113852290Y-38247766D01*
X113869087Y-38315587D01*
X113846552Y-38381722D01*
X113801505Y-38420760D01*
X113792446Y-38425376D01*
X113792440Y-38425380D01*
X113738282Y-38464727D01*
X113738282Y-38464728D01*
X114370591Y-39097037D01*
X114307007Y-39114075D01*
X114192993Y-39179901D01*
X114099901Y-39272993D01*
X114034075Y-39387007D01*
X114017037Y-39450591D01*
X113384728Y-38818282D01*
X113384727Y-38818282D01*
X113345380Y-38872439D01*
X113248904Y-39061782D01*
X113183242Y-39263869D01*
X113183242Y-39263872D01*
X113150000Y-39473753D01*
X113150000Y-39686246D01*
X113183242Y-39896127D01*
X113183242Y-39896130D01*
X113248904Y-40098217D01*
X113345375Y-40287550D01*
X113384728Y-40341716D01*
X114017037Y-39709408D01*
X114034075Y-39772993D01*
X114099901Y-39887007D01*
X114192993Y-39980099D01*
X114307007Y-40045925D01*
X114370590Y-40062962D01*
X113738282Y-40695269D01*
X113738282Y-40695270D01*
X113792452Y-40734626D01*
X113792451Y-40734626D01*
X113801495Y-40739234D01*
X113852292Y-40787208D01*
X113869087Y-40855029D01*
X113846550Y-40921164D01*
X113801499Y-40960202D01*
X113792182Y-40964949D01*
X113620213Y-41089890D01*
X113469890Y-41240213D01*
X113344951Y-41412179D01*
X113248444Y-41601585D01*
X113182753Y-41803760D01*
X113149500Y-42013713D01*
X113149500Y-42226286D01*
X113178855Y-42411630D01*
X113182754Y-42436243D01*
X113244819Y-42627259D01*
X113248444Y-42638414D01*
X113344951Y-42827820D01*
X113469890Y-42999786D01*
X113620213Y-43150109D01*
X113792182Y-43275050D01*
X113800946Y-43279516D01*
X113851742Y-43327491D01*
X113868536Y-43395312D01*
X113845998Y-43461447D01*
X113800946Y-43500484D01*
X113792182Y-43504949D01*
X113620213Y-43629890D01*
X113469890Y-43780213D01*
X113344951Y-43952179D01*
X113248444Y-44141585D01*
X113248443Y-44141587D01*
X113248443Y-44141588D01*
X113243955Y-44155402D01*
X113182753Y-44343760D01*
X113149500Y-44553713D01*
X113149500Y-44766286D01*
X113162317Y-44847213D01*
X113182754Y-44976243D01*
X113197735Y-45022351D01*
X113248444Y-45178414D01*
X113344951Y-45367820D01*
X113469890Y-45539786D01*
X113620213Y-45690109D01*
X113792182Y-45815050D01*
X113800946Y-45819516D01*
X113851742Y-45867491D01*
X113868536Y-45935312D01*
X113845998Y-46001447D01*
X113800946Y-46040484D01*
X113792182Y-46044949D01*
X113620213Y-46169890D01*
X113469890Y-46320213D01*
X113344951Y-46492179D01*
X113248444Y-46681585D01*
X113182753Y-46883760D01*
X113149500Y-47093713D01*
X113149500Y-47306286D01*
X113182753Y-47516239D01*
X113248444Y-47718414D01*
X113344951Y-47907820D01*
X113469890Y-48079786D01*
X113620213Y-48230109D01*
X113792182Y-48355050D01*
X113800946Y-48359516D01*
X113851742Y-48407491D01*
X113868536Y-48475312D01*
X113845998Y-48541447D01*
X113800946Y-48580484D01*
X113792182Y-48584949D01*
X113620213Y-48709890D01*
X113469890Y-48860213D01*
X113344951Y-49032179D01*
X113248444Y-49221585D01*
X113182753Y-49423760D01*
X113149500Y-49633713D01*
X113149500Y-49846286D01*
X113178855Y-50031630D01*
X113182754Y-50056243D01*
X113244819Y-50247259D01*
X113248444Y-50258414D01*
X113344951Y-50447820D01*
X113469890Y-50619786D01*
X113620213Y-50770109D01*
X113792182Y-50895050D01*
X113800946Y-50899516D01*
X113851742Y-50947491D01*
X113868536Y-51015312D01*
X113845998Y-51081447D01*
X113800946Y-51120484D01*
X113792182Y-51124949D01*
X113620213Y-51249890D01*
X113469890Y-51400213D01*
X113344951Y-51572179D01*
X113248444Y-51761585D01*
X113182753Y-51963760D01*
X113149500Y-52173713D01*
X113149500Y-52386287D01*
X113182754Y-52596243D01*
X113214993Y-52695465D01*
X113248444Y-52798414D01*
X113344951Y-52987820D01*
X113469890Y-53159786D01*
X113620213Y-53310109D01*
X113792179Y-53435048D01*
X113792181Y-53435049D01*
X113792184Y-53435051D01*
X113981588Y-53531557D01*
X114183757Y-53597246D01*
X114393713Y-53630500D01*
X114393714Y-53630500D01*
X114606286Y-53630500D01*
X114606287Y-53630500D01*
X114816243Y-53597246D01*
X115018412Y-53531557D01*
X115207816Y-53435051D01*
X115376101Y-53312786D01*
X115379786Y-53310109D01*
X115379788Y-53310106D01*
X115379792Y-53310104D01*
X115530104Y-53159792D01*
X115530106Y-53159788D01*
X115530109Y-53159786D01*
X115655048Y-52987820D01*
X115655047Y-52987820D01*
X115655051Y-52987816D01*
X115751557Y-52798412D01*
X115817246Y-52596243D01*
X115850500Y-52386287D01*
X115850500Y-52173713D01*
X115817246Y-51963757D01*
X115751557Y-51761588D01*
X115655051Y-51572184D01*
X115655049Y-51572181D01*
X115655048Y-51572179D01*
X115530109Y-51400213D01*
X115379786Y-51249890D01*
X115207820Y-51124951D01*
X115207115Y-51124591D01*
X115199054Y-51120485D01*
X115148259Y-51072512D01*
X115131463Y-51004692D01*
X115153999Y-50938556D01*
X115199054Y-50899515D01*
X115207816Y-50895051D01*
X115248344Y-50865606D01*
X115379786Y-50770109D01*
X115379788Y-50770106D01*
X115379792Y-50770104D01*
X115530104Y-50619792D01*
X115530106Y-50619788D01*
X115530109Y-50619786D01*
X115604316Y-50517648D01*
X131679500Y-50517648D01*
X131679500Y-50722351D01*
X131711522Y-50924534D01*
X131774781Y-51119223D01*
X131838691Y-51244653D01*
X131867585Y-51301359D01*
X131867715Y-51301613D01*
X131988028Y-51467213D01*
X132132786Y-51611971D01*
X132281226Y-51719817D01*
X132298390Y-51732287D01*
X132401653Y-51784902D01*
X132480776Y-51825218D01*
X132480778Y-51825218D01*
X132480781Y-51825220D01*
X132509727Y-51834625D01*
X132675465Y-51888477D01*
X132725615Y-51896420D01*
X132877648Y-51920500D01*
X132877649Y-51920500D01*
X133082351Y-51920500D01*
X133082352Y-51920500D01*
X133284534Y-51888477D01*
X133479219Y-51825220D01*
X133661610Y-51732287D01*
X133815476Y-51620498D01*
X133827213Y-51611971D01*
X133827215Y-51611968D01*
X133827219Y-51611966D01*
X133971966Y-51467219D01*
X133971968Y-51467215D01*
X133971971Y-51467213D01*
X134092284Y-51301614D01*
X134092286Y-51301611D01*
X134092287Y-51301610D01*
X134139516Y-51208917D01*
X134187489Y-51158123D01*
X134255310Y-51141328D01*
X134321445Y-51163865D01*
X134360483Y-51208917D01*
X134404348Y-51295006D01*
X134407715Y-51301614D01*
X134528028Y-51467213D01*
X134672786Y-51611971D01*
X134821226Y-51719817D01*
X134838390Y-51732287D01*
X134941653Y-51784902D01*
X135020776Y-51825218D01*
X135020778Y-51825218D01*
X135020781Y-51825220D01*
X135049727Y-51834625D01*
X135215465Y-51888477D01*
X135265615Y-51896420D01*
X135417648Y-51920500D01*
X135417649Y-51920500D01*
X135622351Y-51920500D01*
X135622352Y-51920500D01*
X135824534Y-51888477D01*
X136019219Y-51825220D01*
X136201610Y-51732287D01*
X136355476Y-51620498D01*
X136367213Y-51611971D01*
X136367215Y-51611968D01*
X136367219Y-51611966D01*
X136511966Y-51467219D01*
X136511968Y-51467215D01*
X136511971Y-51467213D01*
X136632284Y-51301614D01*
X136632286Y-51301611D01*
X136632287Y-51301610D01*
X136679516Y-51208917D01*
X136727489Y-51158123D01*
X136795310Y-51141328D01*
X136861445Y-51163865D01*
X136900483Y-51208917D01*
X136944348Y-51295006D01*
X136947715Y-51301614D01*
X137068028Y-51467213D01*
X137212786Y-51611971D01*
X137361226Y-51719817D01*
X137378390Y-51732287D01*
X137481653Y-51784902D01*
X137560776Y-51825218D01*
X137560778Y-51825218D01*
X137560781Y-51825220D01*
X137589727Y-51834625D01*
X137755465Y-51888477D01*
X137805615Y-51896420D01*
X137957648Y-51920500D01*
X137957649Y-51920500D01*
X138162351Y-51920500D01*
X138162352Y-51920500D01*
X138364534Y-51888477D01*
X138559219Y-51825220D01*
X138741610Y-51732287D01*
X138895476Y-51620498D01*
X138907213Y-51611971D01*
X138907215Y-51611968D01*
X138907219Y-51611966D01*
X139051966Y-51467219D01*
X139051968Y-51467215D01*
X139051971Y-51467213D01*
X139172284Y-51301614D01*
X139172286Y-51301611D01*
X139172287Y-51301610D01*
X139219516Y-51208917D01*
X139267489Y-51158123D01*
X139335310Y-51141328D01*
X139401445Y-51163865D01*
X139440483Y-51208917D01*
X139484348Y-51295006D01*
X139487715Y-51301614D01*
X139608028Y-51467213D01*
X139752786Y-51611971D01*
X139901226Y-51719817D01*
X139918390Y-51732287D01*
X140021653Y-51784902D01*
X140100776Y-51825218D01*
X140100778Y-51825218D01*
X140100781Y-51825220D01*
X140129727Y-51834625D01*
X140295465Y-51888477D01*
X140345615Y-51896420D01*
X140497648Y-51920500D01*
X140497649Y-51920500D01*
X140702351Y-51920500D01*
X140702352Y-51920500D01*
X140904534Y-51888477D01*
X141099219Y-51825220D01*
X141281610Y-51732287D01*
X141435476Y-51620498D01*
X141447213Y-51611971D01*
X141447215Y-51611968D01*
X141447219Y-51611966D01*
X141591966Y-51467219D01*
X141591968Y-51467215D01*
X141591971Y-51467213D01*
X141712286Y-51301611D01*
X141712415Y-51301359D01*
X141759795Y-51208369D01*
X141807769Y-51157573D01*
X141875590Y-51140778D01*
X141941725Y-51163315D01*
X141980765Y-51208369D01*
X142028141Y-51301350D01*
X142028147Y-51301359D01*
X142060523Y-51345921D01*
X142060524Y-51345922D01*
X142740000Y-50666446D01*
X142740000Y-50672661D01*
X142767259Y-50774394D01*
X142819920Y-50865606D01*
X142894394Y-50940080D01*
X142985606Y-50992741D01*
X143087339Y-51020000D01*
X143093553Y-51020000D01*
X142414076Y-51699474D01*
X142458650Y-51731859D01*
X142640968Y-51824755D01*
X142835582Y-51887990D01*
X143037683Y-51920000D01*
X143242317Y-51920000D01*
X143444418Y-51887989D01*
X143449064Y-51886875D01*
X143518846Y-51890371D01*
X143575660Y-51931039D01*
X143601469Y-51995967D01*
X143588078Y-52064541D01*
X143565683Y-52095132D01*
X143508032Y-52152782D01*
X143508028Y-52152786D01*
X143387715Y-52318386D01*
X143294781Y-52500776D01*
X143231522Y-52695465D01*
X143199500Y-52897648D01*
X143199500Y-53102351D01*
X143231522Y-53304534D01*
X143294781Y-53499223D01*
X143387715Y-53681613D01*
X143508028Y-53847213D01*
X143652786Y-53991971D01*
X143785000Y-54088028D01*
X143818390Y-54112287D01*
X143934607Y-54171503D01*
X144000776Y-54205218D01*
X144000778Y-54205218D01*
X144000781Y-54205220D01*
X144105137Y-54239127D01*
X144195465Y-54268477D01*
X144296557Y-54284488D01*
X144397648Y-54300500D01*
X144397649Y-54300500D01*
X144602351Y-54300500D01*
X144602352Y-54300500D01*
X144804534Y-54268477D01*
X144999219Y-54205220D01*
X145181610Y-54112287D01*
X145274590Y-54044732D01*
X145347213Y-53991971D01*
X145347215Y-53991968D01*
X145347219Y-53991966D01*
X145491966Y-53847219D01*
X145491968Y-53847215D01*
X145491971Y-53847213D01*
X145544732Y-53774590D01*
X145612287Y-53681610D01*
X145705220Y-53499219D01*
X145768477Y-53304534D01*
X145800500Y-53102352D01*
X145800500Y-52897648D01*
X145768477Y-52695466D01*
X145705220Y-52500781D01*
X145705218Y-52500778D01*
X145705218Y-52500776D01*
X145646882Y-52386287D01*
X145612287Y-52318390D01*
X145604556Y-52307749D01*
X145491971Y-52152786D01*
X145469701Y-52130516D01*
X145436216Y-52069193D01*
X145441200Y-51999501D01*
X145483072Y-51943568D01*
X145548536Y-51919151D01*
X145572791Y-51920191D01*
X145572797Y-51920118D01*
X145574855Y-51920280D01*
X145576781Y-51920362D01*
X145577648Y-51920500D01*
X145577653Y-51920500D01*
X145782351Y-51920500D01*
X145782352Y-51920500D01*
X145984534Y-51888477D01*
X146179219Y-51825220D01*
X146361610Y-51732287D01*
X146515476Y-51620498D01*
X146527213Y-51611971D01*
X146527215Y-51611968D01*
X146527219Y-51611966D01*
X146671966Y-51467219D01*
X146671968Y-51467215D01*
X146671971Y-51467213D01*
X146792284Y-51301614D01*
X146792286Y-51301611D01*
X146792287Y-51301610D01*
X146839516Y-51208917D01*
X146887489Y-51158123D01*
X146955310Y-51141328D01*
X147021445Y-51163865D01*
X147060483Y-51208917D01*
X147104348Y-51295006D01*
X147107715Y-51301614D01*
X147228028Y-51467213D01*
X147372786Y-51611971D01*
X147521226Y-51719817D01*
X147538390Y-51732287D01*
X147641653Y-51784902D01*
X147720776Y-51825218D01*
X147720778Y-51825218D01*
X147720781Y-51825220D01*
X147749727Y-51834625D01*
X147915465Y-51888477D01*
X147965615Y-51896420D01*
X148117648Y-51920500D01*
X148117649Y-51920500D01*
X148322351Y-51920500D01*
X148322352Y-51920500D01*
X148524534Y-51888477D01*
X148719219Y-51825220D01*
X148901610Y-51732287D01*
X149055476Y-51620498D01*
X149067213Y-51611971D01*
X149067215Y-51611968D01*
X149067219Y-51611966D01*
X149211966Y-51467219D01*
X149211968Y-51467215D01*
X149211971Y-51467213D01*
X149332284Y-51301614D01*
X149332286Y-51301611D01*
X149332287Y-51301610D01*
X149379516Y-51208917D01*
X149427489Y-51158123D01*
X149495310Y-51141328D01*
X149561445Y-51163865D01*
X149600483Y-51208917D01*
X149644348Y-51295006D01*
X149647715Y-51301614D01*
X149768028Y-51467213D01*
X149912786Y-51611971D01*
X150061226Y-51719817D01*
X150078390Y-51732287D01*
X150181653Y-51784902D01*
X150260776Y-51825218D01*
X150260778Y-51825218D01*
X150260781Y-51825220D01*
X150289727Y-51834625D01*
X150455465Y-51888477D01*
X150505615Y-51896420D01*
X150657648Y-51920500D01*
X150657649Y-51920500D01*
X150862351Y-51920500D01*
X150862352Y-51920500D01*
X151064534Y-51888477D01*
X151259219Y-51825220D01*
X151441610Y-51732287D01*
X151595476Y-51620498D01*
X151607213Y-51611971D01*
X151607215Y-51611968D01*
X151607219Y-51611966D01*
X151751966Y-51467219D01*
X151751968Y-51467215D01*
X151751971Y-51467213D01*
X151872284Y-51301614D01*
X151872286Y-51301611D01*
X151872287Y-51301610D01*
X151919516Y-51208917D01*
X151967489Y-51158123D01*
X152035310Y-51141328D01*
X152101445Y-51163865D01*
X152140483Y-51208917D01*
X152184348Y-51295006D01*
X152187715Y-51301614D01*
X152308028Y-51467213D01*
X152452786Y-51611971D01*
X152601226Y-51719817D01*
X152618390Y-51732287D01*
X152721653Y-51784902D01*
X152800776Y-51825218D01*
X152800778Y-51825218D01*
X152800781Y-51825220D01*
X152829727Y-51834625D01*
X152995465Y-51888477D01*
X153045615Y-51896420D01*
X153197648Y-51920500D01*
X153197649Y-51920500D01*
X153402351Y-51920500D01*
X153402352Y-51920500D01*
X153604534Y-51888477D01*
X153799219Y-51825220D01*
X153981610Y-51732287D01*
X154135476Y-51620498D01*
X154147213Y-51611971D01*
X154147215Y-51611968D01*
X154147219Y-51611966D01*
X154291966Y-51467219D01*
X154291968Y-51467215D01*
X154291971Y-51467213D01*
X154412284Y-51301614D01*
X154412286Y-51301611D01*
X154412287Y-51301610D01*
X154459516Y-51208917D01*
X154507489Y-51158123D01*
X154575310Y-51141328D01*
X154641445Y-51163865D01*
X154680483Y-51208917D01*
X154724348Y-51295006D01*
X154727715Y-51301614D01*
X154848028Y-51467213D01*
X154992786Y-51611971D01*
X155141226Y-51719817D01*
X155158390Y-51732287D01*
X155261653Y-51784902D01*
X155340776Y-51825218D01*
X155340778Y-51825218D01*
X155340781Y-51825220D01*
X155369727Y-51834625D01*
X155535465Y-51888477D01*
X155585615Y-51896420D01*
X155737648Y-51920500D01*
X155737649Y-51920500D01*
X155942351Y-51920500D01*
X155942352Y-51920500D01*
X156144534Y-51888477D01*
X156339219Y-51825220D01*
X156521610Y-51732287D01*
X156675476Y-51620498D01*
X156687213Y-51611971D01*
X156687215Y-51611968D01*
X156687219Y-51611966D01*
X156831966Y-51467219D01*
X156831968Y-51467215D01*
X156831971Y-51467213D01*
X156952284Y-51301614D01*
X156952286Y-51301611D01*
X156952287Y-51301610D01*
X156999516Y-51208917D01*
X157047489Y-51158123D01*
X157115310Y-51141328D01*
X157181445Y-51163865D01*
X157220483Y-51208917D01*
X157264348Y-51295006D01*
X157267715Y-51301614D01*
X157388028Y-51467213D01*
X157532786Y-51611971D01*
X157681226Y-51719817D01*
X157698390Y-51732287D01*
X157801653Y-51784902D01*
X157880776Y-51825218D01*
X157880778Y-51825218D01*
X157880781Y-51825220D01*
X157909727Y-51834625D01*
X158075465Y-51888477D01*
X158125615Y-51896420D01*
X158277648Y-51920500D01*
X158277649Y-51920500D01*
X158482351Y-51920500D01*
X158482352Y-51920500D01*
X158684534Y-51888477D01*
X158879219Y-51825220D01*
X159061610Y-51732287D01*
X159215476Y-51620498D01*
X159227213Y-51611971D01*
X159227215Y-51611968D01*
X159227219Y-51611966D01*
X159371966Y-51467219D01*
X159371968Y-51467215D01*
X159371971Y-51467213D01*
X159492284Y-51301614D01*
X159492286Y-51301611D01*
X159492287Y-51301610D01*
X159539516Y-51208917D01*
X159587489Y-51158123D01*
X159655310Y-51141328D01*
X159721445Y-51163865D01*
X159760483Y-51208917D01*
X159804348Y-51295006D01*
X159807715Y-51301614D01*
X159928028Y-51467213D01*
X160072786Y-51611971D01*
X160221226Y-51719817D01*
X160238390Y-51732287D01*
X160341653Y-51784902D01*
X160420776Y-51825218D01*
X160420778Y-51825218D01*
X160420781Y-51825220D01*
X160449727Y-51834625D01*
X160615465Y-51888477D01*
X160665615Y-51896420D01*
X160817648Y-51920500D01*
X160817649Y-51920500D01*
X161022351Y-51920500D01*
X161022352Y-51920500D01*
X161224534Y-51888477D01*
X161419219Y-51825220D01*
X161601610Y-51732287D01*
X161755476Y-51620498D01*
X161767213Y-51611971D01*
X161767215Y-51611968D01*
X161767219Y-51611966D01*
X161911966Y-51467219D01*
X161911968Y-51467215D01*
X161911971Y-51467213D01*
X162032286Y-51301611D01*
X162032415Y-51301359D01*
X162079795Y-51208369D01*
X162127769Y-51157573D01*
X162195590Y-51140778D01*
X162261725Y-51163315D01*
X162300765Y-51208369D01*
X162348141Y-51301350D01*
X162348147Y-51301359D01*
X162380523Y-51345921D01*
X162380524Y-51345922D01*
X163060000Y-50666446D01*
X163060000Y-50672661D01*
X163087259Y-50774394D01*
X163139920Y-50865606D01*
X163214394Y-50940080D01*
X163305606Y-50992741D01*
X163407339Y-51020000D01*
X163413553Y-51020000D01*
X162734076Y-51699474D01*
X162778650Y-51731859D01*
X162960968Y-51824755D01*
X163155582Y-51887990D01*
X163357683Y-51920000D01*
X163562317Y-51920000D01*
X163764417Y-51887990D01*
X163959031Y-51824755D01*
X164141349Y-51731859D01*
X164185921Y-51699474D01*
X163506447Y-51020000D01*
X163512661Y-51020000D01*
X163614394Y-50992741D01*
X163705606Y-50940080D01*
X163780080Y-50865606D01*
X163832741Y-50774394D01*
X163860000Y-50672661D01*
X163860000Y-50666448D01*
X164539474Y-51345922D01*
X164539474Y-51345921D01*
X164571861Y-51301347D01*
X164571861Y-51301346D01*
X164619234Y-51208371D01*
X164667208Y-51157575D01*
X164735028Y-51140779D01*
X164801164Y-51163316D01*
X164840203Y-51208369D01*
X164887713Y-51301611D01*
X165008028Y-51467213D01*
X165152782Y-51611967D01*
X165152787Y-51611971D01*
X165287275Y-51709682D01*
X165329941Y-51765011D01*
X165335920Y-51834625D01*
X165303315Y-51896420D01*
X165287275Y-51910318D01*
X165152787Y-52008028D01*
X165152782Y-52008032D01*
X165008028Y-52152786D01*
X164887715Y-52318386D01*
X164794781Y-52500776D01*
X164731522Y-52695465D01*
X164699500Y-52897648D01*
X164699500Y-53102351D01*
X164731522Y-53304534D01*
X164794781Y-53499223D01*
X164887715Y-53681613D01*
X165008028Y-53847213D01*
X165152786Y-53991971D01*
X165285000Y-54088028D01*
X165318390Y-54112287D01*
X165434607Y-54171503D01*
X165500776Y-54205218D01*
X165500778Y-54205218D01*
X165500781Y-54205220D01*
X165605137Y-54239127D01*
X165695465Y-54268477D01*
X165796557Y-54284488D01*
X165897648Y-54300500D01*
X165897649Y-54300500D01*
X166102351Y-54300500D01*
X166102352Y-54300500D01*
X166304534Y-54268477D01*
X166499219Y-54205220D01*
X166681610Y-54112287D01*
X166774590Y-54044732D01*
X166847213Y-53991971D01*
X166847215Y-53991968D01*
X166847219Y-53991966D01*
X166991966Y-53847219D01*
X166991968Y-53847215D01*
X166991971Y-53847213D01*
X167044732Y-53774590D01*
X167112287Y-53681610D01*
X167205220Y-53499219D01*
X167268477Y-53304534D01*
X167300500Y-53102352D01*
X167300500Y-52897648D01*
X167268477Y-52695466D01*
X167205220Y-52500781D01*
X167205218Y-52500778D01*
X167205218Y-52500776D01*
X167146882Y-52386287D01*
X167112287Y-52318390D01*
X167104556Y-52307749D01*
X166991971Y-52152786D01*
X166847219Y-52008034D01*
X166830610Y-51995967D01*
X166712723Y-51910317D01*
X166670058Y-51854989D01*
X166664079Y-51785376D01*
X166696684Y-51723580D01*
X166712723Y-51709682D01*
X166847219Y-51611966D01*
X166991966Y-51467219D01*
X166991968Y-51467215D01*
X166991971Y-51467213D01*
X167044732Y-51394590D01*
X167112287Y-51301610D01*
X167205220Y-51119219D01*
X167268477Y-50924534D01*
X167300500Y-50722352D01*
X167300500Y-50517648D01*
X167289439Y-50447814D01*
X167268477Y-50315465D01*
X167205218Y-50120776D01*
X167112420Y-49938652D01*
X167112287Y-49938390D01*
X167080092Y-49894077D01*
X166991971Y-49772786D01*
X166847213Y-49628028D01*
X166681613Y-49507715D01*
X166681612Y-49507714D01*
X166681610Y-49507713D01*
X166624653Y-49478691D01*
X166499223Y-49414781D01*
X166304534Y-49351522D01*
X166129995Y-49323878D01*
X166102352Y-49319500D01*
X165897648Y-49319500D01*
X165873329Y-49323351D01*
X165695465Y-49351522D01*
X165500776Y-49414781D01*
X165318386Y-49507715D01*
X165152786Y-49628028D01*
X165008028Y-49772786D01*
X164887713Y-49938388D01*
X164840203Y-50031630D01*
X164792228Y-50082426D01*
X164724407Y-50099220D01*
X164658272Y-50076682D01*
X164619234Y-50031628D01*
X164571861Y-49938652D01*
X164539474Y-49894077D01*
X164539474Y-49894076D01*
X163860000Y-50573551D01*
X163860000Y-50567339D01*
X163832741Y-50465606D01*
X163780080Y-50374394D01*
X163705606Y-50299920D01*
X163614394Y-50247259D01*
X163512661Y-50220000D01*
X163506446Y-50220000D01*
X164185922Y-49540524D01*
X164185921Y-49540523D01*
X164141359Y-49508147D01*
X164141350Y-49508141D01*
X163959031Y-49415244D01*
X163764417Y-49352009D01*
X163562317Y-49320000D01*
X163357683Y-49320000D01*
X163155582Y-49352009D01*
X162960968Y-49415244D01*
X162778644Y-49508143D01*
X162734077Y-49540523D01*
X162734077Y-49540524D01*
X163413554Y-50220000D01*
X163407339Y-50220000D01*
X163305606Y-50247259D01*
X163214394Y-50299920D01*
X163139920Y-50374394D01*
X163087259Y-50465606D01*
X163060000Y-50567339D01*
X163060000Y-50573553D01*
X162380524Y-49894077D01*
X162380523Y-49894077D01*
X162348143Y-49938644D01*
X162300765Y-50031630D01*
X162252790Y-50082426D01*
X162184969Y-50099221D01*
X162118834Y-50076683D01*
X162079795Y-50031630D01*
X162032284Y-49938385D01*
X161911971Y-49772786D01*
X161767213Y-49628028D01*
X161601613Y-49507715D01*
X161601612Y-49507714D01*
X161601610Y-49507713D01*
X161544653Y-49478691D01*
X161419223Y-49414781D01*
X161224534Y-49351522D01*
X161049995Y-49323878D01*
X161022352Y-49319500D01*
X160817648Y-49319500D01*
X160793329Y-49323351D01*
X160615465Y-49351522D01*
X160420776Y-49414781D01*
X160238386Y-49507715D01*
X160072786Y-49628028D01*
X159928028Y-49772786D01*
X159807715Y-49938386D01*
X159760485Y-50031080D01*
X159712510Y-50081876D01*
X159644689Y-50098671D01*
X159578554Y-50076134D01*
X159539515Y-50031080D01*
X159492420Y-49938652D01*
X159492287Y-49938390D01*
X159460092Y-49894077D01*
X159371971Y-49772786D01*
X159227213Y-49628028D01*
X159061613Y-49507715D01*
X159061612Y-49507714D01*
X159061610Y-49507713D01*
X159004653Y-49478691D01*
X158879223Y-49414781D01*
X158684534Y-49351522D01*
X158509995Y-49323878D01*
X158482352Y-49319500D01*
X158277648Y-49319500D01*
X158253329Y-49323351D01*
X158075465Y-49351522D01*
X157880776Y-49414781D01*
X157698386Y-49507715D01*
X157532786Y-49628028D01*
X157388028Y-49772786D01*
X157267715Y-49938386D01*
X157220485Y-50031080D01*
X157172510Y-50081876D01*
X157104689Y-50098671D01*
X157038554Y-50076134D01*
X156999515Y-50031080D01*
X156952420Y-49938652D01*
X156952287Y-49938390D01*
X156920092Y-49894077D01*
X156831971Y-49772786D01*
X156687213Y-49628028D01*
X156521613Y-49507715D01*
X156521612Y-49507714D01*
X156521610Y-49507713D01*
X156464653Y-49478691D01*
X156339223Y-49414781D01*
X156144534Y-49351522D01*
X155969995Y-49323878D01*
X155942352Y-49319500D01*
X155737648Y-49319500D01*
X155713329Y-49323351D01*
X155535465Y-49351522D01*
X155340776Y-49414781D01*
X155158386Y-49507715D01*
X154992786Y-49628028D01*
X154848028Y-49772786D01*
X154727715Y-49938386D01*
X154680485Y-50031080D01*
X154632510Y-50081876D01*
X154564689Y-50098671D01*
X154498554Y-50076134D01*
X154459515Y-50031080D01*
X154412420Y-49938652D01*
X154412287Y-49938390D01*
X154380092Y-49894077D01*
X154291971Y-49772786D01*
X154147213Y-49628028D01*
X153981613Y-49507715D01*
X153981612Y-49507714D01*
X153981610Y-49507713D01*
X153924653Y-49478691D01*
X153799223Y-49414781D01*
X153604534Y-49351522D01*
X153429995Y-49323878D01*
X153402352Y-49319500D01*
X153197648Y-49319500D01*
X153173329Y-49323351D01*
X152995465Y-49351522D01*
X152800776Y-49414781D01*
X152618386Y-49507715D01*
X152452786Y-49628028D01*
X152308028Y-49772786D01*
X152187715Y-49938386D01*
X152140485Y-50031080D01*
X152092510Y-50081876D01*
X152024689Y-50098671D01*
X151958554Y-50076134D01*
X151919515Y-50031080D01*
X151872420Y-49938652D01*
X151872287Y-49938390D01*
X151840092Y-49894077D01*
X151751971Y-49772786D01*
X151607213Y-49628028D01*
X151441613Y-49507715D01*
X151441612Y-49507714D01*
X151441610Y-49507713D01*
X151384653Y-49478691D01*
X151259223Y-49414781D01*
X151064534Y-49351522D01*
X150889995Y-49323878D01*
X150862352Y-49319500D01*
X150657648Y-49319500D01*
X150633329Y-49323351D01*
X150455465Y-49351522D01*
X150260776Y-49414781D01*
X150078386Y-49507715D01*
X149912786Y-49628028D01*
X149768028Y-49772786D01*
X149647715Y-49938386D01*
X149600485Y-50031080D01*
X149552510Y-50081876D01*
X149484689Y-50098671D01*
X149418554Y-50076134D01*
X149379515Y-50031080D01*
X149332420Y-49938652D01*
X149332287Y-49938390D01*
X149300092Y-49894077D01*
X149211971Y-49772786D01*
X149067213Y-49628028D01*
X148901613Y-49507715D01*
X148901612Y-49507714D01*
X148901610Y-49507713D01*
X148844653Y-49478691D01*
X148719223Y-49414781D01*
X148524534Y-49351522D01*
X148349995Y-49323878D01*
X148322352Y-49319500D01*
X148117648Y-49319500D01*
X148093329Y-49323351D01*
X147915465Y-49351522D01*
X147720776Y-49414781D01*
X147538386Y-49507715D01*
X147372786Y-49628028D01*
X147228028Y-49772786D01*
X147107715Y-49938386D01*
X147060485Y-50031080D01*
X147012510Y-50081876D01*
X146944689Y-50098671D01*
X146878554Y-50076134D01*
X146839515Y-50031080D01*
X146792420Y-49938652D01*
X146792287Y-49938390D01*
X146760092Y-49894077D01*
X146671971Y-49772786D01*
X146527213Y-49628028D01*
X146361613Y-49507715D01*
X146361612Y-49507714D01*
X146361610Y-49507713D01*
X146304653Y-49478691D01*
X146179223Y-49414781D01*
X145984534Y-49351522D01*
X145809995Y-49323878D01*
X145782352Y-49319500D01*
X145577648Y-49319500D01*
X145553329Y-49323351D01*
X145375465Y-49351522D01*
X145180776Y-49414781D01*
X144998386Y-49507715D01*
X144832786Y-49628028D01*
X144688028Y-49772786D01*
X144567713Y-49938388D01*
X144520203Y-50031630D01*
X144472228Y-50082426D01*
X144404407Y-50099220D01*
X144338272Y-50076682D01*
X144299234Y-50031628D01*
X144251861Y-49938652D01*
X144219474Y-49894077D01*
X144219474Y-49894076D01*
X143540000Y-50573551D01*
X143540000Y-50567339D01*
X143512741Y-50465606D01*
X143460080Y-50374394D01*
X143385606Y-50299920D01*
X143294394Y-50247259D01*
X143192661Y-50220000D01*
X143186446Y-50220000D01*
X143865922Y-49540524D01*
X143865921Y-49540523D01*
X143821359Y-49508147D01*
X143821350Y-49508141D01*
X143639031Y-49415244D01*
X143444417Y-49352009D01*
X143242317Y-49320000D01*
X143037683Y-49320000D01*
X142835582Y-49352009D01*
X142640968Y-49415244D01*
X142458644Y-49508143D01*
X142414077Y-49540523D01*
X142414077Y-49540524D01*
X143093554Y-50220000D01*
X143087339Y-50220000D01*
X142985606Y-50247259D01*
X142894394Y-50299920D01*
X142819920Y-50374394D01*
X142767259Y-50465606D01*
X142740000Y-50567339D01*
X142740000Y-50573553D01*
X142060524Y-49894077D01*
X142060523Y-49894077D01*
X142028143Y-49938644D01*
X141980765Y-50031630D01*
X141932790Y-50082426D01*
X141864969Y-50099221D01*
X141798834Y-50076683D01*
X141759795Y-50031630D01*
X141712284Y-49938385D01*
X141591971Y-49772786D01*
X141447213Y-49628028D01*
X141281613Y-49507715D01*
X141281612Y-49507714D01*
X141281610Y-49507713D01*
X141224653Y-49478691D01*
X141099223Y-49414781D01*
X140904534Y-49351522D01*
X140729995Y-49323878D01*
X140702352Y-49319500D01*
X140497648Y-49319500D01*
X140473329Y-49323351D01*
X140295465Y-49351522D01*
X140100776Y-49414781D01*
X139918386Y-49507715D01*
X139752786Y-49628028D01*
X139608028Y-49772786D01*
X139487715Y-49938386D01*
X139440485Y-50031080D01*
X139392510Y-50081876D01*
X139324689Y-50098671D01*
X139258554Y-50076134D01*
X139219515Y-50031080D01*
X139172420Y-49938652D01*
X139172287Y-49938390D01*
X139140092Y-49894077D01*
X139051971Y-49772786D01*
X138907213Y-49628028D01*
X138741613Y-49507715D01*
X138741612Y-49507714D01*
X138741610Y-49507713D01*
X138684653Y-49478691D01*
X138559223Y-49414781D01*
X138364534Y-49351522D01*
X138189995Y-49323878D01*
X138162352Y-49319500D01*
X137957648Y-49319500D01*
X137933329Y-49323351D01*
X137755465Y-49351522D01*
X137560776Y-49414781D01*
X137378386Y-49507715D01*
X137212786Y-49628028D01*
X137068028Y-49772786D01*
X136947715Y-49938386D01*
X136900485Y-50031080D01*
X136852510Y-50081876D01*
X136784689Y-50098671D01*
X136718554Y-50076134D01*
X136679515Y-50031080D01*
X136632420Y-49938652D01*
X136632287Y-49938390D01*
X136600092Y-49894077D01*
X136511971Y-49772786D01*
X136367213Y-49628028D01*
X136201613Y-49507715D01*
X136201612Y-49507714D01*
X136201610Y-49507713D01*
X136144653Y-49478691D01*
X136019223Y-49414781D01*
X135824534Y-49351522D01*
X135649995Y-49323878D01*
X135622352Y-49319500D01*
X135417648Y-49319500D01*
X135393329Y-49323351D01*
X135215465Y-49351522D01*
X135020776Y-49414781D01*
X134838386Y-49507715D01*
X134672786Y-49628028D01*
X134528028Y-49772786D01*
X134407715Y-49938386D01*
X134360485Y-50031080D01*
X134312510Y-50081876D01*
X134244689Y-50098671D01*
X134178554Y-50076134D01*
X134139515Y-50031080D01*
X134092420Y-49938652D01*
X134092287Y-49938390D01*
X134060092Y-49894077D01*
X133971971Y-49772786D01*
X133827213Y-49628028D01*
X133661613Y-49507715D01*
X133661612Y-49507714D01*
X133661610Y-49507713D01*
X133604653Y-49478691D01*
X133479223Y-49414781D01*
X133284534Y-49351522D01*
X133109995Y-49323878D01*
X133082352Y-49319500D01*
X132877648Y-49319500D01*
X132853329Y-49323351D01*
X132675465Y-49351522D01*
X132480776Y-49414781D01*
X132298386Y-49507715D01*
X132132786Y-49628028D01*
X131988028Y-49772786D01*
X131867715Y-49938386D01*
X131774781Y-50120776D01*
X131711522Y-50315465D01*
X131679500Y-50517648D01*
X115604316Y-50517648D01*
X115655045Y-50447824D01*
X115655051Y-50447816D01*
X115751557Y-50258412D01*
X115817246Y-50056243D01*
X115850500Y-49846287D01*
X115850500Y-49633713D01*
X115817246Y-49423757D01*
X115751557Y-49221588D01*
X115655051Y-49032184D01*
X115655049Y-49032181D01*
X115655048Y-49032179D01*
X115530109Y-48860213D01*
X115379786Y-48709890D01*
X115207820Y-48584951D01*
X115207115Y-48584591D01*
X115199054Y-48580485D01*
X115148259Y-48532512D01*
X115131463Y-48464692D01*
X115153999Y-48398556D01*
X115199054Y-48359515D01*
X115207816Y-48355051D01*
X115229789Y-48339086D01*
X115379786Y-48230109D01*
X115379788Y-48230106D01*
X115379792Y-48230104D01*
X115530104Y-48079792D01*
X115530106Y-48079788D01*
X115530109Y-48079786D01*
X115655048Y-47907820D01*
X115655047Y-47907820D01*
X115655051Y-47907816D01*
X115751557Y-47718412D01*
X115817246Y-47516243D01*
X115850500Y-47306287D01*
X115850500Y-47093713D01*
X115817246Y-46883757D01*
X115751557Y-46681588D01*
X115655051Y-46492184D01*
X115655049Y-46492181D01*
X115655048Y-46492179D01*
X115530109Y-46320213D01*
X115379786Y-46169890D01*
X115207820Y-46044951D01*
X115207115Y-46044591D01*
X115199054Y-46040485D01*
X115148259Y-45992512D01*
X115131463Y-45924692D01*
X115153999Y-45858556D01*
X115199054Y-45819515D01*
X115207816Y-45815051D01*
X115273660Y-45767213D01*
X115379786Y-45690109D01*
X115379788Y-45690106D01*
X115379792Y-45690104D01*
X115530104Y-45539792D01*
X115530106Y-45539788D01*
X115530109Y-45539786D01*
X115655048Y-45367820D01*
X115655047Y-45367820D01*
X115655051Y-45367816D01*
X115751557Y-45178412D01*
X115817246Y-44976243D01*
X115842365Y-44817648D01*
X185199500Y-44817648D01*
X185199500Y-45022351D01*
X185231522Y-45224534D01*
X185294781Y-45419223D01*
X185387715Y-45601613D01*
X185508028Y-45767213D01*
X185652786Y-45911971D01*
X185775942Y-46001447D01*
X185818390Y-46032287D01*
X185934607Y-46091503D01*
X186000776Y-46125218D01*
X186000778Y-46125218D01*
X186000781Y-46125220D01*
X186105137Y-46159127D01*
X186195465Y-46188477D01*
X186296557Y-46204488D01*
X186397648Y-46220500D01*
X186397649Y-46220500D01*
X186602351Y-46220500D01*
X186602352Y-46220500D01*
X186804534Y-46188477D01*
X186999219Y-46125220D01*
X187181610Y-46032287D01*
X187274590Y-45964732D01*
X187347213Y-45911971D01*
X187347215Y-45911968D01*
X187347219Y-45911966D01*
X187491966Y-45767219D01*
X187491968Y-45767215D01*
X187491971Y-45767213D01*
X187547993Y-45690104D01*
X187612287Y-45601610D01*
X187705220Y-45419219D01*
X187768477Y-45224534D01*
X187800500Y-45022352D01*
X187800500Y-44817648D01*
X187768477Y-44615466D01*
X187756782Y-44579474D01*
X187723977Y-44478509D01*
X187705220Y-44420781D01*
X187705218Y-44420778D01*
X187705218Y-44420776D01*
X187645989Y-44304534D01*
X187612287Y-44238390D01*
X187588188Y-44205220D01*
X187491971Y-44072786D01*
X187347213Y-43928028D01*
X187305398Y-43897648D01*
X195199500Y-43897648D01*
X195199500Y-44102351D01*
X195231522Y-44304534D01*
X195294781Y-44499223D01*
X195387715Y-44681613D01*
X195508028Y-44847213D01*
X195652786Y-44991971D01*
X195807749Y-45104556D01*
X195818390Y-45112287D01*
X195934607Y-45171503D01*
X196000776Y-45205218D01*
X196000778Y-45205218D01*
X196000781Y-45205220D01*
X196105137Y-45239127D01*
X196195465Y-45268477D01*
X196296557Y-45284488D01*
X196397648Y-45300500D01*
X196397649Y-45300500D01*
X196602351Y-45300500D01*
X196602352Y-45300500D01*
X196804534Y-45268477D01*
X196999219Y-45205220D01*
X197181610Y-45112287D01*
X197305396Y-45022352D01*
X197347213Y-44991971D01*
X197347215Y-44991968D01*
X197347219Y-44991966D01*
X197491966Y-44847219D01*
X197491968Y-44847215D01*
X197491971Y-44847213D01*
X197595471Y-44704755D01*
X197612287Y-44681610D01*
X197705220Y-44499219D01*
X197768477Y-44304534D01*
X197800500Y-44102352D01*
X197800500Y-43897648D01*
X197786256Y-43807715D01*
X197768477Y-43695465D01*
X197711896Y-43521328D01*
X197705220Y-43500781D01*
X197705218Y-43500778D01*
X197705218Y-43500776D01*
X197652688Y-43397682D01*
X197612287Y-43318390D01*
X197580799Y-43275050D01*
X197491971Y-43152786D01*
X197347213Y-43008028D01*
X197181613Y-42887715D01*
X197181612Y-42887714D01*
X197181610Y-42887713D01*
X197124653Y-42858691D01*
X196999223Y-42794781D01*
X196804534Y-42731522D01*
X196629995Y-42703878D01*
X196602352Y-42699500D01*
X196397648Y-42699500D01*
X196373329Y-42703351D01*
X196195465Y-42731522D01*
X196000776Y-42794781D01*
X195818386Y-42887715D01*
X195652786Y-43008028D01*
X195508028Y-43152786D01*
X195387715Y-43318386D01*
X195294781Y-43500776D01*
X195231522Y-43695465D01*
X195199500Y-43897648D01*
X187305398Y-43897648D01*
X187181613Y-43807715D01*
X187181612Y-43807714D01*
X187181610Y-43807713D01*
X187124653Y-43778691D01*
X186999223Y-43714781D01*
X186804534Y-43651522D01*
X186629995Y-43623878D01*
X186602352Y-43619500D01*
X186397648Y-43619500D01*
X186373329Y-43623351D01*
X186195465Y-43651522D01*
X186000776Y-43714781D01*
X185818386Y-43807715D01*
X185652786Y-43928028D01*
X185508028Y-44072786D01*
X185387715Y-44238386D01*
X185294781Y-44420776D01*
X185231522Y-44615465D01*
X185199500Y-44817648D01*
X115842365Y-44817648D01*
X115850500Y-44766287D01*
X115850500Y-44553713D01*
X115817246Y-44343757D01*
X115751557Y-44141588D01*
X115655051Y-43952184D01*
X115655049Y-43952181D01*
X115655048Y-43952179D01*
X115530109Y-43780213D01*
X115379786Y-43629890D01*
X115207820Y-43504951D01*
X115207115Y-43504591D01*
X115199054Y-43500485D01*
X115148259Y-43452512D01*
X115131463Y-43384692D01*
X115153999Y-43318556D01*
X115199054Y-43279515D01*
X115207816Y-43275051D01*
X115294197Y-43212292D01*
X115379786Y-43150109D01*
X115379788Y-43150106D01*
X115379792Y-43150104D01*
X115530104Y-42999792D01*
X115530106Y-42999788D01*
X115530109Y-42999786D01*
X115604316Y-42897648D01*
X131679500Y-42897648D01*
X131679500Y-43102351D01*
X131711522Y-43304534D01*
X131774781Y-43499223D01*
X131836066Y-43619500D01*
X131867585Y-43681359D01*
X131867715Y-43681613D01*
X131988028Y-43847213D01*
X132132786Y-43991971D01*
X132287749Y-44104556D01*
X132298390Y-44112287D01*
X132386121Y-44156988D01*
X132480776Y-44205218D01*
X132480778Y-44205218D01*
X132480781Y-44205220D01*
X132571856Y-44234812D01*
X132675465Y-44268477D01*
X132776557Y-44284488D01*
X132877648Y-44300500D01*
X132877649Y-44300500D01*
X133082351Y-44300500D01*
X133082352Y-44300500D01*
X133284534Y-44268477D01*
X133479219Y-44205220D01*
X133661610Y-44112287D01*
X133790482Y-44018657D01*
X133827213Y-43991971D01*
X133827215Y-43991968D01*
X133827219Y-43991966D01*
X133971966Y-43847219D01*
X133971968Y-43847215D01*
X133971971Y-43847213D01*
X134092284Y-43681614D01*
X134092286Y-43681611D01*
X134092287Y-43681610D01*
X134139516Y-43588917D01*
X134187489Y-43538123D01*
X134255310Y-43521328D01*
X134321445Y-43543865D01*
X134360483Y-43588917D01*
X134392383Y-43651523D01*
X134407715Y-43681614D01*
X134528028Y-43847213D01*
X134672786Y-43991971D01*
X134827749Y-44104556D01*
X134838390Y-44112287D01*
X134926121Y-44156988D01*
X135020776Y-44205218D01*
X135020778Y-44205218D01*
X135020781Y-44205220D01*
X135111856Y-44234812D01*
X135215465Y-44268477D01*
X135316557Y-44284488D01*
X135417648Y-44300500D01*
X135417649Y-44300500D01*
X135622351Y-44300500D01*
X135622352Y-44300500D01*
X135824534Y-44268477D01*
X136019219Y-44205220D01*
X136201610Y-44112287D01*
X136330482Y-44018657D01*
X136367213Y-43991971D01*
X136367215Y-43991968D01*
X136367219Y-43991966D01*
X136511966Y-43847219D01*
X136511968Y-43847215D01*
X136511971Y-43847213D01*
X136632284Y-43681614D01*
X136632286Y-43681611D01*
X136632287Y-43681610D01*
X136679516Y-43588917D01*
X136727489Y-43538123D01*
X136795310Y-43521328D01*
X136861445Y-43543865D01*
X136900483Y-43588917D01*
X136932383Y-43651523D01*
X136947715Y-43681614D01*
X137068028Y-43847213D01*
X137212786Y-43991971D01*
X137367749Y-44104556D01*
X137378390Y-44112287D01*
X137466121Y-44156988D01*
X137560776Y-44205218D01*
X137560778Y-44205218D01*
X137560781Y-44205220D01*
X137651856Y-44234812D01*
X137755465Y-44268477D01*
X137856557Y-44284488D01*
X137957648Y-44300500D01*
X137957649Y-44300500D01*
X138162351Y-44300500D01*
X138162352Y-44300500D01*
X138364534Y-44268477D01*
X138559219Y-44205220D01*
X138741610Y-44112287D01*
X138870482Y-44018657D01*
X138907213Y-43991971D01*
X138907215Y-43991968D01*
X138907219Y-43991966D01*
X139051966Y-43847219D01*
X139051968Y-43847215D01*
X139051971Y-43847213D01*
X139172284Y-43681614D01*
X139172286Y-43681611D01*
X139172287Y-43681610D01*
X139219516Y-43588917D01*
X139267489Y-43538123D01*
X139335310Y-43521328D01*
X139401445Y-43543865D01*
X139440483Y-43588917D01*
X139472383Y-43651523D01*
X139487715Y-43681614D01*
X139608028Y-43847213D01*
X139752786Y-43991971D01*
X139907749Y-44104556D01*
X139918390Y-44112287D01*
X140006121Y-44156988D01*
X140100776Y-44205218D01*
X140100778Y-44205218D01*
X140100781Y-44205220D01*
X140191856Y-44234812D01*
X140295465Y-44268477D01*
X140396557Y-44284488D01*
X140497648Y-44300500D01*
X140497649Y-44300500D01*
X140702351Y-44300500D01*
X140702352Y-44300500D01*
X140904534Y-44268477D01*
X141099219Y-44205220D01*
X141281610Y-44112287D01*
X141410482Y-44018657D01*
X141447213Y-43991971D01*
X141447215Y-43991968D01*
X141447219Y-43991966D01*
X141591966Y-43847219D01*
X141591968Y-43847215D01*
X141591971Y-43847213D01*
X141712284Y-43681614D01*
X141712286Y-43681611D01*
X141712287Y-43681610D01*
X141759516Y-43588917D01*
X141807489Y-43538123D01*
X141875310Y-43521328D01*
X141941445Y-43543865D01*
X141980483Y-43588917D01*
X142012383Y-43651523D01*
X142027715Y-43681614D01*
X142148028Y-43847213D01*
X142292786Y-43991971D01*
X142447749Y-44104556D01*
X142458390Y-44112287D01*
X142546121Y-44156988D01*
X142640776Y-44205218D01*
X142640778Y-44205218D01*
X142640781Y-44205220D01*
X142731856Y-44234812D01*
X142835465Y-44268477D01*
X142936557Y-44284488D01*
X143037648Y-44300500D01*
X143037649Y-44300500D01*
X143242351Y-44300500D01*
X143242352Y-44300500D01*
X143444534Y-44268477D01*
X143639219Y-44205220D01*
X143821610Y-44112287D01*
X143950482Y-44018657D01*
X143987213Y-43991971D01*
X143987215Y-43991968D01*
X143987219Y-43991966D01*
X144131966Y-43847219D01*
X144131968Y-43847215D01*
X144131971Y-43847213D01*
X144252284Y-43681614D01*
X144252286Y-43681611D01*
X144252287Y-43681610D01*
X144299516Y-43588917D01*
X144347489Y-43538123D01*
X144415310Y-43521328D01*
X144481445Y-43543865D01*
X144520483Y-43588917D01*
X144552383Y-43651523D01*
X144567715Y-43681614D01*
X144688028Y-43847213D01*
X144832786Y-43991971D01*
X144987749Y-44104556D01*
X144998390Y-44112287D01*
X145086121Y-44156988D01*
X145180776Y-44205218D01*
X145180778Y-44205218D01*
X145180781Y-44205220D01*
X145271856Y-44234812D01*
X145375465Y-44268477D01*
X145476557Y-44284488D01*
X145577648Y-44300500D01*
X145577649Y-44300500D01*
X145782351Y-44300500D01*
X145782352Y-44300500D01*
X145984534Y-44268477D01*
X146179219Y-44205220D01*
X146361610Y-44112287D01*
X146490482Y-44018657D01*
X146527213Y-43991971D01*
X146527215Y-43991968D01*
X146527219Y-43991966D01*
X146671966Y-43847219D01*
X146671968Y-43847215D01*
X146671971Y-43847213D01*
X146771020Y-43710882D01*
X146792287Y-43681610D01*
X146839795Y-43588369D01*
X146887769Y-43537573D01*
X146955590Y-43520778D01*
X147021725Y-43543315D01*
X147060765Y-43588369D01*
X147108141Y-43681350D01*
X147108147Y-43681359D01*
X147140523Y-43725921D01*
X147140524Y-43725922D01*
X147820000Y-43046446D01*
X147820000Y-43052661D01*
X147847259Y-43154394D01*
X147899920Y-43245606D01*
X147974394Y-43320080D01*
X148065606Y-43372741D01*
X148167339Y-43400000D01*
X148173553Y-43400000D01*
X147494076Y-44079474D01*
X147538650Y-44111859D01*
X147720968Y-44204755D01*
X147915582Y-44267990D01*
X148117683Y-44300000D01*
X148322317Y-44300000D01*
X148524417Y-44267990D01*
X148719031Y-44204755D01*
X148901349Y-44111859D01*
X148945921Y-44079474D01*
X148266447Y-43400000D01*
X148272661Y-43400000D01*
X148374394Y-43372741D01*
X148465606Y-43320080D01*
X148540080Y-43245606D01*
X148592741Y-43154394D01*
X148620000Y-43052661D01*
X148620000Y-43046448D01*
X149299474Y-43725922D01*
X149299474Y-43725921D01*
X149331861Y-43681347D01*
X149331861Y-43681346D01*
X149379234Y-43588371D01*
X149427208Y-43537575D01*
X149495028Y-43520779D01*
X149561164Y-43543316D01*
X149600203Y-43588369D01*
X149647713Y-43681611D01*
X149768028Y-43847213D01*
X149912786Y-43991971D01*
X150067749Y-44104556D01*
X150078390Y-44112287D01*
X150166121Y-44156988D01*
X150260776Y-44205218D01*
X150260778Y-44205218D01*
X150260781Y-44205220D01*
X150351856Y-44234812D01*
X150455465Y-44268477D01*
X150556557Y-44284488D01*
X150657648Y-44300500D01*
X150657649Y-44300500D01*
X150862351Y-44300500D01*
X150862352Y-44300500D01*
X151064534Y-44268477D01*
X151259219Y-44205220D01*
X151441610Y-44112287D01*
X151570482Y-44018657D01*
X151607213Y-43991971D01*
X151607215Y-43991968D01*
X151607219Y-43991966D01*
X151751966Y-43847219D01*
X151751968Y-43847215D01*
X151751971Y-43847213D01*
X151872284Y-43681614D01*
X151872286Y-43681611D01*
X151872287Y-43681610D01*
X151919516Y-43588917D01*
X151967489Y-43538123D01*
X152035310Y-43521328D01*
X152101445Y-43543865D01*
X152140483Y-43588917D01*
X152172383Y-43651523D01*
X152187715Y-43681614D01*
X152308028Y-43847213D01*
X152452786Y-43991971D01*
X152607749Y-44104556D01*
X152618390Y-44112287D01*
X152706121Y-44156988D01*
X152800776Y-44205218D01*
X152800778Y-44205218D01*
X152800781Y-44205220D01*
X152891856Y-44234812D01*
X152995465Y-44268477D01*
X153096557Y-44284488D01*
X153197648Y-44300500D01*
X153197649Y-44300500D01*
X153402351Y-44300500D01*
X153402352Y-44300500D01*
X153604534Y-44268477D01*
X153799219Y-44205220D01*
X153981610Y-44112287D01*
X154110482Y-44018657D01*
X154147213Y-43991971D01*
X154147215Y-43991968D01*
X154147219Y-43991966D01*
X154291966Y-43847219D01*
X154291968Y-43847215D01*
X154291971Y-43847213D01*
X154412284Y-43681614D01*
X154412286Y-43681611D01*
X154412287Y-43681610D01*
X154459516Y-43588917D01*
X154507489Y-43538123D01*
X154575310Y-43521328D01*
X154641445Y-43543865D01*
X154680483Y-43588917D01*
X154712383Y-43651523D01*
X154727715Y-43681614D01*
X154848028Y-43847213D01*
X154992786Y-43991971D01*
X155147749Y-44104556D01*
X155158390Y-44112287D01*
X155246121Y-44156988D01*
X155340776Y-44205218D01*
X155340778Y-44205218D01*
X155340781Y-44205220D01*
X155431856Y-44234812D01*
X155535465Y-44268477D01*
X155636557Y-44284488D01*
X155737648Y-44300500D01*
X155737649Y-44300500D01*
X155942351Y-44300500D01*
X155942352Y-44300500D01*
X156144534Y-44268477D01*
X156339219Y-44205220D01*
X156521610Y-44112287D01*
X156650482Y-44018657D01*
X156687213Y-43991971D01*
X156687215Y-43991968D01*
X156687219Y-43991966D01*
X156831966Y-43847219D01*
X156831968Y-43847215D01*
X156831971Y-43847213D01*
X156952284Y-43681614D01*
X156952286Y-43681611D01*
X156952287Y-43681610D01*
X156999516Y-43588917D01*
X157047489Y-43538123D01*
X157115310Y-43521328D01*
X157181445Y-43543865D01*
X157220483Y-43588917D01*
X157252383Y-43651523D01*
X157267715Y-43681614D01*
X157388028Y-43847213D01*
X157532786Y-43991971D01*
X157687749Y-44104556D01*
X157698390Y-44112287D01*
X157786121Y-44156988D01*
X157880776Y-44205218D01*
X157880778Y-44205218D01*
X157880781Y-44205220D01*
X157971856Y-44234812D01*
X158075465Y-44268477D01*
X158176557Y-44284488D01*
X158277648Y-44300500D01*
X158277649Y-44300500D01*
X158482351Y-44300500D01*
X158482352Y-44300500D01*
X158684534Y-44268477D01*
X158879219Y-44205220D01*
X159061610Y-44112287D01*
X159190482Y-44018657D01*
X159227213Y-43991971D01*
X159227215Y-43991968D01*
X159227219Y-43991966D01*
X159371966Y-43847219D01*
X159371968Y-43847215D01*
X159371971Y-43847213D01*
X159492284Y-43681614D01*
X159492286Y-43681611D01*
X159492287Y-43681610D01*
X159539516Y-43588917D01*
X159587489Y-43538123D01*
X159655310Y-43521328D01*
X159721445Y-43543865D01*
X159760483Y-43588917D01*
X159792383Y-43651523D01*
X159807715Y-43681614D01*
X159928028Y-43847213D01*
X160072786Y-43991971D01*
X160227749Y-44104556D01*
X160238390Y-44112287D01*
X160326121Y-44156988D01*
X160420776Y-44205218D01*
X160420778Y-44205218D01*
X160420781Y-44205220D01*
X160511856Y-44234812D01*
X160615465Y-44268477D01*
X160716557Y-44284488D01*
X160817648Y-44300500D01*
X160817649Y-44300500D01*
X161022351Y-44300500D01*
X161022352Y-44300500D01*
X161224534Y-44268477D01*
X161419219Y-44205220D01*
X161601610Y-44112287D01*
X161730482Y-44018657D01*
X161767213Y-43991971D01*
X161767215Y-43991968D01*
X161767219Y-43991966D01*
X161911966Y-43847219D01*
X161911968Y-43847215D01*
X161911971Y-43847213D01*
X162032284Y-43681614D01*
X162032286Y-43681611D01*
X162032287Y-43681610D01*
X162079516Y-43588917D01*
X162127489Y-43538123D01*
X162195310Y-43521328D01*
X162261445Y-43543865D01*
X162300483Y-43588917D01*
X162332383Y-43651523D01*
X162347715Y-43681614D01*
X162468028Y-43847213D01*
X162612786Y-43991971D01*
X162767749Y-44104556D01*
X162778390Y-44112287D01*
X162866121Y-44156988D01*
X162960776Y-44205218D01*
X162960778Y-44205218D01*
X162960781Y-44205220D01*
X163051856Y-44234812D01*
X163155465Y-44268477D01*
X163256557Y-44284488D01*
X163357648Y-44300500D01*
X163357649Y-44300500D01*
X163562351Y-44300500D01*
X163562352Y-44300500D01*
X163764534Y-44268477D01*
X163959219Y-44205220D01*
X164141610Y-44112287D01*
X164270482Y-44018657D01*
X164307213Y-43991971D01*
X164307215Y-43991968D01*
X164307219Y-43991966D01*
X164451966Y-43847219D01*
X164520021Y-43753547D01*
X164575349Y-43710882D01*
X164644963Y-43704902D01*
X164706758Y-43737507D01*
X164738044Y-43787427D01*
X164757856Y-43847215D01*
X164765186Y-43869333D01*
X164765187Y-43869336D01*
X164800069Y-43925888D01*
X164857288Y-44018656D01*
X164981344Y-44142712D01*
X165130666Y-44234814D01*
X165297203Y-44289999D01*
X165399991Y-44300500D01*
X166600008Y-44300499D01*
X166702797Y-44289999D01*
X166869334Y-44234814D01*
X167018656Y-44142712D01*
X167142712Y-44018656D01*
X167234814Y-43869334D01*
X167289999Y-43702797D01*
X167300500Y-43600009D01*
X167300499Y-42399992D01*
X167299288Y-42388141D01*
X167289999Y-42297203D01*
X167289998Y-42297200D01*
X167268396Y-42232009D01*
X167234814Y-42130666D01*
X167142712Y-41981344D01*
X167018656Y-41857288D01*
X166869334Y-41765186D01*
X166702797Y-41710001D01*
X166702795Y-41710000D01*
X166600010Y-41699500D01*
X165399998Y-41699500D01*
X165399981Y-41699501D01*
X165297203Y-41710000D01*
X165297200Y-41710001D01*
X165130668Y-41765185D01*
X165130663Y-41765187D01*
X164981342Y-41857289D01*
X164857289Y-41981342D01*
X164765187Y-42130663D01*
X164765186Y-42130666D01*
X164738045Y-42212571D01*
X164698271Y-42270016D01*
X164633755Y-42296838D01*
X164564979Y-42284522D01*
X164520021Y-42246452D01*
X164451966Y-42152781D01*
X164307219Y-42008034D01*
X164307213Y-42008028D01*
X164141613Y-41887715D01*
X164141612Y-41887714D01*
X164141610Y-41887713D01*
X164070587Y-41851525D01*
X163959223Y-41794781D01*
X163764534Y-41731522D01*
X163589995Y-41703878D01*
X163562352Y-41699500D01*
X163357648Y-41699500D01*
X163333329Y-41703351D01*
X163155465Y-41731522D01*
X162960776Y-41794781D01*
X162778386Y-41887715D01*
X162612786Y-42008028D01*
X162468028Y-42152786D01*
X162347715Y-42318386D01*
X162300485Y-42411080D01*
X162252510Y-42461876D01*
X162184689Y-42478671D01*
X162118554Y-42456134D01*
X162079515Y-42411080D01*
X162032420Y-42318652D01*
X162032287Y-42318390D01*
X162000092Y-42274077D01*
X161911971Y-42152786D01*
X161767213Y-42008028D01*
X161601613Y-41887715D01*
X161601612Y-41887714D01*
X161601610Y-41887713D01*
X161530587Y-41851525D01*
X161419223Y-41794781D01*
X161224534Y-41731522D01*
X161049995Y-41703878D01*
X161022352Y-41699500D01*
X160817648Y-41699500D01*
X160793329Y-41703351D01*
X160615465Y-41731522D01*
X160420776Y-41794781D01*
X160238386Y-41887715D01*
X160072786Y-42008028D01*
X159928028Y-42152786D01*
X159807715Y-42318386D01*
X159760485Y-42411080D01*
X159712510Y-42461876D01*
X159644689Y-42478671D01*
X159578554Y-42456134D01*
X159539515Y-42411080D01*
X159492420Y-42318652D01*
X159492287Y-42318390D01*
X159460092Y-42274077D01*
X159371971Y-42152786D01*
X159227213Y-42008028D01*
X159061613Y-41887715D01*
X159061612Y-41887714D01*
X159061610Y-41887713D01*
X158990587Y-41851525D01*
X158879223Y-41794781D01*
X158684534Y-41731522D01*
X158509995Y-41703878D01*
X158482352Y-41699500D01*
X158277648Y-41699500D01*
X158253329Y-41703351D01*
X158075465Y-41731522D01*
X157880776Y-41794781D01*
X157698386Y-41887715D01*
X157532786Y-42008028D01*
X157388028Y-42152786D01*
X157267715Y-42318386D01*
X157220485Y-42411080D01*
X157172510Y-42461876D01*
X157104689Y-42478671D01*
X157038554Y-42456134D01*
X156999515Y-42411080D01*
X156952420Y-42318652D01*
X156952287Y-42318390D01*
X156920092Y-42274077D01*
X156831971Y-42152786D01*
X156687213Y-42008028D01*
X156521613Y-41887715D01*
X156521612Y-41887714D01*
X156521610Y-41887713D01*
X156450587Y-41851525D01*
X156339223Y-41794781D01*
X156144534Y-41731522D01*
X155969995Y-41703878D01*
X155942352Y-41699500D01*
X155737648Y-41699500D01*
X155713329Y-41703351D01*
X155535465Y-41731522D01*
X155340776Y-41794781D01*
X155158386Y-41887715D01*
X154992786Y-42008028D01*
X154848028Y-42152786D01*
X154727715Y-42318386D01*
X154680485Y-42411080D01*
X154632510Y-42461876D01*
X154564689Y-42478671D01*
X154498554Y-42456134D01*
X154459515Y-42411080D01*
X154412420Y-42318652D01*
X154412287Y-42318390D01*
X154380092Y-42274077D01*
X154291971Y-42152786D01*
X154147213Y-42008028D01*
X153981613Y-41887715D01*
X153981612Y-41887714D01*
X153981610Y-41887713D01*
X153910587Y-41851525D01*
X153799223Y-41794781D01*
X153604534Y-41731522D01*
X153429995Y-41703878D01*
X153402352Y-41699500D01*
X153197648Y-41699500D01*
X153173329Y-41703351D01*
X152995465Y-41731522D01*
X152800776Y-41794781D01*
X152618386Y-41887715D01*
X152452786Y-42008028D01*
X152308028Y-42152786D01*
X152187715Y-42318386D01*
X152140485Y-42411080D01*
X152092510Y-42461876D01*
X152024689Y-42478671D01*
X151958554Y-42456134D01*
X151919515Y-42411080D01*
X151872420Y-42318652D01*
X151872287Y-42318390D01*
X151840092Y-42274077D01*
X151751971Y-42152786D01*
X151607213Y-42008028D01*
X151441613Y-41887715D01*
X151441612Y-41887714D01*
X151441610Y-41887713D01*
X151370587Y-41851525D01*
X151259223Y-41794781D01*
X151064534Y-41731522D01*
X150889995Y-41703878D01*
X150862352Y-41699500D01*
X150657648Y-41699500D01*
X150633329Y-41703351D01*
X150455465Y-41731522D01*
X150260776Y-41794781D01*
X150078386Y-41887715D01*
X149912786Y-42008028D01*
X149768028Y-42152786D01*
X149647713Y-42318388D01*
X149600203Y-42411630D01*
X149552228Y-42462426D01*
X149484407Y-42479220D01*
X149418272Y-42456682D01*
X149379234Y-42411628D01*
X149331861Y-42318652D01*
X149299474Y-42274077D01*
X149299474Y-42274076D01*
X148620000Y-42953551D01*
X148620000Y-42947339D01*
X148592741Y-42845606D01*
X148540080Y-42754394D01*
X148465606Y-42679920D01*
X148374394Y-42627259D01*
X148272661Y-42600000D01*
X148266446Y-42600000D01*
X148945922Y-41920524D01*
X148945921Y-41920523D01*
X148901359Y-41888147D01*
X148901350Y-41888141D01*
X148719031Y-41795244D01*
X148524417Y-41732009D01*
X148322317Y-41700000D01*
X148117683Y-41700000D01*
X147915582Y-41732009D01*
X147720968Y-41795244D01*
X147538644Y-41888143D01*
X147494077Y-41920523D01*
X147494077Y-41920524D01*
X148173554Y-42600000D01*
X148167339Y-42600000D01*
X148065606Y-42627259D01*
X147974394Y-42679920D01*
X147899920Y-42754394D01*
X147847259Y-42845606D01*
X147820000Y-42947339D01*
X147820000Y-42953553D01*
X147140524Y-42274077D01*
X147140523Y-42274077D01*
X147108143Y-42318644D01*
X147060765Y-42411630D01*
X147012790Y-42462426D01*
X146944969Y-42479221D01*
X146878834Y-42456683D01*
X146839795Y-42411630D01*
X146792284Y-42318385D01*
X146671971Y-42152786D01*
X146527213Y-42008028D01*
X146361613Y-41887715D01*
X146361612Y-41887714D01*
X146361610Y-41887713D01*
X146290587Y-41851525D01*
X146179223Y-41794781D01*
X145984534Y-41731522D01*
X145809995Y-41703878D01*
X145782352Y-41699500D01*
X145577648Y-41699500D01*
X145553329Y-41703351D01*
X145375465Y-41731522D01*
X145180776Y-41794781D01*
X144998386Y-41887715D01*
X144832786Y-42008028D01*
X144688028Y-42152786D01*
X144567715Y-42318386D01*
X144520485Y-42411080D01*
X144472510Y-42461876D01*
X144404689Y-42478671D01*
X144338554Y-42456134D01*
X144299515Y-42411080D01*
X144252420Y-42318652D01*
X144252287Y-42318390D01*
X144220092Y-42274077D01*
X144131971Y-42152786D01*
X143987213Y-42008028D01*
X143821613Y-41887715D01*
X143821612Y-41887714D01*
X143821610Y-41887713D01*
X143750587Y-41851525D01*
X143639223Y-41794781D01*
X143444534Y-41731522D01*
X143269995Y-41703878D01*
X143242352Y-41699500D01*
X143037648Y-41699500D01*
X143013329Y-41703351D01*
X142835465Y-41731522D01*
X142640776Y-41794781D01*
X142458386Y-41887715D01*
X142292786Y-42008028D01*
X142148028Y-42152786D01*
X142027715Y-42318386D01*
X141980485Y-42411080D01*
X141932510Y-42461876D01*
X141864689Y-42478671D01*
X141798554Y-42456134D01*
X141759515Y-42411080D01*
X141712420Y-42318652D01*
X141712287Y-42318390D01*
X141680092Y-42274077D01*
X141591971Y-42152786D01*
X141447213Y-42008028D01*
X141281613Y-41887715D01*
X141281612Y-41887714D01*
X141281610Y-41887713D01*
X141210587Y-41851525D01*
X141099223Y-41794781D01*
X140904534Y-41731522D01*
X140729995Y-41703878D01*
X140702352Y-41699500D01*
X140497648Y-41699500D01*
X140473329Y-41703351D01*
X140295465Y-41731522D01*
X140100776Y-41794781D01*
X139918386Y-41887715D01*
X139752786Y-42008028D01*
X139608028Y-42152786D01*
X139487715Y-42318386D01*
X139440485Y-42411080D01*
X139392510Y-42461876D01*
X139324689Y-42478671D01*
X139258554Y-42456134D01*
X139219515Y-42411080D01*
X139172420Y-42318652D01*
X139172287Y-42318390D01*
X139140092Y-42274077D01*
X139051971Y-42152786D01*
X138907213Y-42008028D01*
X138741613Y-41887715D01*
X138741612Y-41887714D01*
X138741610Y-41887713D01*
X138670587Y-41851525D01*
X138559223Y-41794781D01*
X138364534Y-41731522D01*
X138189995Y-41703878D01*
X138162352Y-41699500D01*
X137957648Y-41699500D01*
X137933329Y-41703351D01*
X137755465Y-41731522D01*
X137560776Y-41794781D01*
X137378386Y-41887715D01*
X137212786Y-42008028D01*
X137068028Y-42152786D01*
X136947715Y-42318386D01*
X136900485Y-42411080D01*
X136852510Y-42461876D01*
X136784689Y-42478671D01*
X136718554Y-42456134D01*
X136679515Y-42411080D01*
X136632420Y-42318652D01*
X136632287Y-42318390D01*
X136600092Y-42274077D01*
X136511971Y-42152786D01*
X136367213Y-42008028D01*
X136201611Y-41887713D01*
X136138171Y-41855388D01*
X136087376Y-41807413D01*
X136070581Y-41739592D01*
X136093119Y-41673458D01*
X136138172Y-41634419D01*
X136181610Y-41612287D01*
X136258805Y-41556202D01*
X136347213Y-41491971D01*
X136347215Y-41491968D01*
X136347219Y-41491966D01*
X136491966Y-41347219D01*
X136491968Y-41347215D01*
X136491971Y-41347213D01*
X136544732Y-41274590D01*
X136612287Y-41181610D01*
X136705220Y-40999219D01*
X136768477Y-40804534D01*
X136800500Y-40602352D01*
X136800500Y-40397648D01*
X136768477Y-40195466D01*
X136750617Y-40140500D01*
X136724420Y-40059873D01*
X136705220Y-40000781D01*
X136705218Y-40000778D01*
X136705218Y-40000776D01*
X136670966Y-39933554D01*
X136612287Y-39818390D01*
X136592792Y-39791557D01*
X136491971Y-39652786D01*
X136347213Y-39508028D01*
X136181613Y-39387715D01*
X136181612Y-39387714D01*
X136181610Y-39387713D01*
X136124653Y-39358691D01*
X135999223Y-39294781D01*
X135804534Y-39231522D01*
X135629995Y-39203878D01*
X135602352Y-39199500D01*
X135397648Y-39199500D01*
X135373329Y-39203351D01*
X135195465Y-39231522D01*
X135000776Y-39294781D01*
X134818386Y-39387715D01*
X134652786Y-39508028D01*
X134508028Y-39652786D01*
X134387715Y-39818386D01*
X134294781Y-40000776D01*
X134231522Y-40195465D01*
X134199500Y-40397648D01*
X134199500Y-40602351D01*
X134231522Y-40804534D01*
X134294781Y-40999223D01*
X134387715Y-41181613D01*
X134508028Y-41347213D01*
X134652786Y-41491971D01*
X134741200Y-41556206D01*
X134818390Y-41612287D01*
X134871637Y-41639417D01*
X134881827Y-41644610D01*
X134932623Y-41692585D01*
X134949418Y-41760406D01*
X134926880Y-41826541D01*
X134881828Y-41865579D01*
X134838388Y-41887713D01*
X134672786Y-42008028D01*
X134528028Y-42152786D01*
X134407715Y-42318386D01*
X134360485Y-42411080D01*
X134312510Y-42461876D01*
X134244689Y-42478671D01*
X134178554Y-42456134D01*
X134139515Y-42411080D01*
X134092420Y-42318652D01*
X134092287Y-42318390D01*
X134060092Y-42274077D01*
X133971971Y-42152786D01*
X133827213Y-42008028D01*
X133661613Y-41887715D01*
X133661612Y-41887714D01*
X133661610Y-41887713D01*
X133590587Y-41851525D01*
X133479223Y-41794781D01*
X133284534Y-41731522D01*
X133109995Y-41703878D01*
X133082352Y-41699500D01*
X132877648Y-41699500D01*
X132853329Y-41703351D01*
X132675465Y-41731522D01*
X132480776Y-41794781D01*
X132298386Y-41887715D01*
X132132786Y-42008028D01*
X131988028Y-42152786D01*
X131867715Y-42318386D01*
X131774781Y-42500776D01*
X131711522Y-42695465D01*
X131679500Y-42897648D01*
X115604316Y-42897648D01*
X115655045Y-42827824D01*
X115655051Y-42827816D01*
X115751557Y-42638412D01*
X115817246Y-42436243D01*
X115850500Y-42226287D01*
X115850500Y-42013713D01*
X115817246Y-41803757D01*
X115751557Y-41601588D01*
X115655051Y-41412184D01*
X115655049Y-41412181D01*
X115655048Y-41412179D01*
X115530109Y-41240213D01*
X115379786Y-41089890D01*
X115207817Y-40964949D01*
X115198504Y-40960204D01*
X115147707Y-40912230D01*
X115130912Y-40844409D01*
X115153449Y-40778274D01*
X115198507Y-40739232D01*
X115207555Y-40734622D01*
X115261716Y-40695270D01*
X115261717Y-40695270D01*
X114629408Y-40062962D01*
X114692993Y-40045925D01*
X114807007Y-39980099D01*
X114900099Y-39887007D01*
X114965925Y-39772993D01*
X114982962Y-39709409D01*
X115615270Y-40341717D01*
X115615270Y-40341716D01*
X115654622Y-40287554D01*
X115751095Y-40098217D01*
X115816757Y-39896130D01*
X115816757Y-39896127D01*
X115850000Y-39686246D01*
X115850000Y-39473753D01*
X115816757Y-39263872D01*
X115816757Y-39263869D01*
X115751094Y-39061780D01*
X115722068Y-39004813D01*
X115722067Y-39004812D01*
X115695865Y-38953389D01*
X185359500Y-38953389D01*
X185359500Y-39126610D01*
X185386135Y-39294781D01*
X185386598Y-39297701D01*
X185440127Y-39462445D01*
X185518768Y-39616788D01*
X185620586Y-39756928D01*
X185743072Y-39879414D01*
X185883212Y-39981232D01*
X186037555Y-40059873D01*
X186202299Y-40113402D01*
X186373389Y-40140500D01*
X186373390Y-40140500D01*
X186546610Y-40140500D01*
X186546611Y-40140500D01*
X186717701Y-40113402D01*
X186882445Y-40059873D01*
X187036788Y-39981232D01*
X187176928Y-39879414D01*
X187299414Y-39756928D01*
X187401232Y-39616788D01*
X187479873Y-39462445D01*
X187533402Y-39297701D01*
X187560500Y-39126611D01*
X187560500Y-38953389D01*
X187533402Y-38782299D01*
X187479873Y-38617555D01*
X187401232Y-38463212D01*
X187299414Y-38323072D01*
X187176928Y-38200586D01*
X187036788Y-38098768D01*
X186882445Y-38020127D01*
X186717701Y-37966598D01*
X186717699Y-37966597D01*
X186717698Y-37966597D01*
X186586271Y-37945781D01*
X186546611Y-37939500D01*
X186373389Y-37939500D01*
X186333728Y-37945781D01*
X186202302Y-37966597D01*
X186037552Y-38020128D01*
X185883211Y-38098768D01*
X185803256Y-38156859D01*
X185743072Y-38200586D01*
X185743070Y-38200588D01*
X185743069Y-38200588D01*
X185620588Y-38323069D01*
X185620588Y-38323070D01*
X185620586Y-38323072D01*
X185595757Y-38357246D01*
X185518768Y-38463211D01*
X185440128Y-38617552D01*
X185386597Y-38782302D01*
X185359500Y-38953389D01*
X115695865Y-38953389D01*
X115654624Y-38872449D01*
X115615270Y-38818282D01*
X115615269Y-38818282D01*
X114982962Y-39450590D01*
X114965925Y-39387007D01*
X114900099Y-39272993D01*
X114807007Y-39179901D01*
X114692993Y-39114075D01*
X114629409Y-39097037D01*
X115261716Y-38464728D01*
X115207547Y-38425373D01*
X115207547Y-38425372D01*
X115198500Y-38420763D01*
X115147706Y-38372788D01*
X115130912Y-38304966D01*
X115153451Y-38238832D01*
X115198508Y-38199793D01*
X115207816Y-38195051D01*
X115287007Y-38137515D01*
X115379786Y-38070109D01*
X115379788Y-38070106D01*
X115379792Y-38070104D01*
X115530104Y-37919792D01*
X115530106Y-37919788D01*
X115530109Y-37919786D01*
X115655048Y-37747820D01*
X115655047Y-37747820D01*
X115655051Y-37747816D01*
X115751557Y-37558412D01*
X115817246Y-37356243D01*
X115850500Y-37146287D01*
X115850500Y-36933713D01*
X115817246Y-36723757D01*
X115751557Y-36521588D01*
X115655051Y-36332184D01*
X115655049Y-36332181D01*
X115655048Y-36332179D01*
X115530109Y-36160213D01*
X115416569Y-36046673D01*
X115383084Y-35985350D01*
X115388068Y-35915658D01*
X115429940Y-35859725D01*
X115460915Y-35842810D01*
X115592331Y-35793796D01*
X115707546Y-35707546D01*
X115793796Y-35592331D01*
X115844091Y-35457483D01*
X115850500Y-35397873D01*
X115850500Y-35397682D01*
X134200000Y-35397682D01*
X134200000Y-35602317D01*
X134232009Y-35804417D01*
X134295244Y-35999031D01*
X134388141Y-36181350D01*
X134388147Y-36181359D01*
X134420523Y-36225921D01*
X134420524Y-36225922D01*
X135100000Y-35546446D01*
X135100000Y-35552661D01*
X135127259Y-35654394D01*
X135179920Y-35745606D01*
X135254394Y-35820080D01*
X135345606Y-35872741D01*
X135447339Y-35900000D01*
X135453553Y-35900000D01*
X134774076Y-36579474D01*
X134818650Y-36611859D01*
X135000968Y-36704755D01*
X135195582Y-36767990D01*
X135397683Y-36800000D01*
X135602317Y-36800000D01*
X135804417Y-36767990D01*
X135859784Y-36750000D01*
X182645885Y-36750000D01*
X182647085Y-36757584D01*
X182700591Y-36922255D01*
X182779195Y-37076524D01*
X182880967Y-37216602D01*
X183003397Y-37339032D01*
X183143475Y-37440804D01*
X183297742Y-37519408D01*
X183462415Y-37572914D01*
X183633429Y-37600000D01*
X183670000Y-37600000D01*
X184170000Y-37600000D01*
X184206571Y-37600000D01*
X184377584Y-37572914D01*
X184542257Y-37519408D01*
X184696524Y-37440804D01*
X184836602Y-37339032D01*
X184959032Y-37216602D01*
X185060804Y-37076524D01*
X185139408Y-36922255D01*
X185192914Y-36757584D01*
X185194115Y-36750000D01*
X184170000Y-36750000D01*
X184170000Y-37600000D01*
X183670000Y-37600000D01*
X183670000Y-36750000D01*
X182645885Y-36750000D01*
X135859784Y-36750000D01*
X135999031Y-36704755D01*
X136181350Y-36611859D01*
X136225921Y-36579474D01*
X135546447Y-35900000D01*
X135552661Y-35900000D01*
X135654394Y-35872741D01*
X135745606Y-35820080D01*
X135820080Y-35745606D01*
X135872741Y-35654394D01*
X135900000Y-35552661D01*
X135900000Y-35546448D01*
X136579474Y-36225922D01*
X136579474Y-36225921D01*
X136611859Y-36181349D01*
X136704755Y-35999031D01*
X136767990Y-35804417D01*
X136800000Y-35602317D01*
X136800000Y-35397682D01*
X136767990Y-35195582D01*
X136734039Y-35091095D01*
X136734038Y-35091093D01*
X136723171Y-35057648D01*
X164699500Y-35057648D01*
X164699500Y-35262351D01*
X164731522Y-35464534D01*
X164794781Y-35659223D01*
X164819404Y-35707547D01*
X164874730Y-35816130D01*
X164887715Y-35841613D01*
X165008028Y-36007213D01*
X165152786Y-36151971D01*
X165307749Y-36264556D01*
X165318390Y-36272287D01*
X165434607Y-36331503D01*
X165500776Y-36365218D01*
X165500778Y-36365218D01*
X165500781Y-36365220D01*
X165555761Y-36383084D01*
X165695465Y-36428477D01*
X165796557Y-36444488D01*
X165897648Y-36460500D01*
X165897649Y-36460500D01*
X166102351Y-36460500D01*
X166102352Y-36460500D01*
X166143883Y-36453922D01*
X183570000Y-36453922D01*
X183570000Y-36546078D01*
X183593852Y-36635095D01*
X183639930Y-36714905D01*
X183705095Y-36780070D01*
X183784905Y-36826148D01*
X183873922Y-36850000D01*
X183966078Y-36850000D01*
X184055095Y-36826148D01*
X184134905Y-36780070D01*
X184200070Y-36714905D01*
X184246148Y-36635095D01*
X184270000Y-36546078D01*
X184270000Y-36453922D01*
X184259139Y-36413389D01*
X187899500Y-36413389D01*
X187899500Y-36586611D01*
X187900406Y-36592331D01*
X187925624Y-36751555D01*
X187926598Y-36757701D01*
X187980127Y-36922445D01*
X188058768Y-37076788D01*
X188160586Y-37216928D01*
X188283072Y-37339414D01*
X188423212Y-37441232D01*
X188577555Y-37519873D01*
X188742299Y-37573402D01*
X188913389Y-37600500D01*
X188913390Y-37600500D01*
X189086610Y-37600500D01*
X189086611Y-37600500D01*
X189257701Y-37573402D01*
X189422445Y-37519873D01*
X189576788Y-37441232D01*
X189716928Y-37339414D01*
X189839414Y-37216928D01*
X189941232Y-37076788D01*
X190019873Y-36922445D01*
X190073402Y-36757701D01*
X190100500Y-36586611D01*
X190100500Y-36413389D01*
X190073402Y-36242299D01*
X190019873Y-36077555D01*
X189941232Y-35923212D01*
X189839414Y-35783072D01*
X189716928Y-35660586D01*
X189576788Y-35558768D01*
X189422445Y-35480127D01*
X189257701Y-35426598D01*
X189257699Y-35426597D01*
X189257698Y-35426597D01*
X189126271Y-35405781D01*
X189086611Y-35399500D01*
X188913389Y-35399500D01*
X188873728Y-35405781D01*
X188742302Y-35426597D01*
X188577552Y-35480128D01*
X188423211Y-35558768D01*
X188377011Y-35592335D01*
X188283072Y-35660586D01*
X188283070Y-35660588D01*
X188283069Y-35660588D01*
X188160588Y-35783069D01*
X188160588Y-35783070D01*
X188160586Y-35783072D01*
X188160350Y-35783397D01*
X188058768Y-35923211D01*
X187980128Y-36077552D01*
X187926597Y-36242302D01*
X187907129Y-36365220D01*
X187899500Y-36413389D01*
X184259139Y-36413389D01*
X184246148Y-36364905D01*
X184200070Y-36285095D01*
X184164975Y-36250000D01*
X184170000Y-36250000D01*
X185194115Y-36250000D01*
X185194115Y-36249999D01*
X185192914Y-36242415D01*
X185139408Y-36077744D01*
X185060804Y-35923475D01*
X184959032Y-35783397D01*
X184836602Y-35660967D01*
X184696524Y-35559195D01*
X184542257Y-35480591D01*
X184377584Y-35427085D01*
X184206571Y-35400000D01*
X184170000Y-35400000D01*
X184170000Y-36250000D01*
X184164975Y-36250000D01*
X184134905Y-36219930D01*
X184055095Y-36173852D01*
X183966078Y-36150000D01*
X183873922Y-36150000D01*
X183784905Y-36173852D01*
X183705095Y-36219930D01*
X183639930Y-36285095D01*
X183593852Y-36364905D01*
X183570000Y-36453922D01*
X166143883Y-36453922D01*
X166304534Y-36428477D01*
X166499219Y-36365220D01*
X166681610Y-36272287D01*
X166712287Y-36249999D01*
X182645884Y-36249999D01*
X182645885Y-36250000D01*
X183670000Y-36250000D01*
X183670000Y-35400000D01*
X183633429Y-35400000D01*
X183462415Y-35427085D01*
X183297742Y-35480591D01*
X183143475Y-35559195D01*
X183003397Y-35660967D01*
X182880967Y-35783397D01*
X182779195Y-35923475D01*
X182700591Y-36077744D01*
X182647085Y-36242415D01*
X182645884Y-36249999D01*
X166712287Y-36249999D01*
X166806763Y-36181359D01*
X166847213Y-36151971D01*
X166847215Y-36151968D01*
X166847219Y-36151966D01*
X166991966Y-36007219D01*
X166991968Y-36007215D01*
X166991971Y-36007213D01*
X167058488Y-35915658D01*
X167112287Y-35841610D01*
X167204522Y-35660588D01*
X167205218Y-35659223D01*
X167205218Y-35659222D01*
X167205220Y-35659219D01*
X167268477Y-35464534D01*
X167300500Y-35262352D01*
X167300500Y-35102135D01*
X195149500Y-35102135D01*
X195149500Y-36897870D01*
X195149501Y-36897876D01*
X195155908Y-36957483D01*
X195206202Y-37092328D01*
X195206206Y-37092335D01*
X195292452Y-37207544D01*
X195292455Y-37207547D01*
X195407664Y-37293793D01*
X195407671Y-37293797D01*
X195539082Y-37342810D01*
X195595016Y-37384681D01*
X195619433Y-37450145D01*
X195604582Y-37518418D01*
X195583431Y-37546673D01*
X195469889Y-37660215D01*
X195344951Y-37832179D01*
X195248444Y-38021585D01*
X195248443Y-38021587D01*
X195248443Y-38021588D01*
X195223366Y-38098768D01*
X195182753Y-38223760D01*
X195149500Y-38433713D01*
X195149500Y-38646286D01*
X195176741Y-38818282D01*
X195182754Y-38856243D01*
X195231027Y-39004812D01*
X195248444Y-39058414D01*
X195344951Y-39247820D01*
X195469890Y-39419786D01*
X195620213Y-39570109D01*
X195792179Y-39695048D01*
X195792181Y-39695049D01*
X195792184Y-39695051D01*
X195981588Y-39791557D01*
X196183757Y-39857246D01*
X196393713Y-39890500D01*
X196393714Y-39890500D01*
X196606286Y-39890500D01*
X196606287Y-39890500D01*
X196816243Y-39857246D01*
X197018412Y-39791557D01*
X197207816Y-39695051D01*
X197321736Y-39612284D01*
X197379786Y-39570109D01*
X197379788Y-39570106D01*
X197379792Y-39570104D01*
X197530104Y-39419792D01*
X197530106Y-39419788D01*
X197530109Y-39419786D01*
X197655048Y-39247820D01*
X197655047Y-39247820D01*
X197655051Y-39247816D01*
X197751557Y-39058412D01*
X197817246Y-38856243D01*
X197850500Y-38646287D01*
X197850500Y-38433713D01*
X197817246Y-38223757D01*
X197751557Y-38021588D01*
X197655051Y-37832184D01*
X197655049Y-37832181D01*
X197655048Y-37832179D01*
X197530109Y-37660213D01*
X197416569Y-37546673D01*
X197383084Y-37485350D01*
X197388068Y-37415658D01*
X197429940Y-37359725D01*
X197460915Y-37342810D01*
X197592331Y-37293796D01*
X197707546Y-37207546D01*
X197793796Y-37092331D01*
X197844091Y-36957483D01*
X197850500Y-36897873D01*
X197850499Y-35102128D01*
X197844091Y-35042517D01*
X197842536Y-35038349D01*
X197793797Y-34907671D01*
X197793793Y-34907664D01*
X197707547Y-34792455D01*
X197707544Y-34792452D01*
X197592335Y-34706206D01*
X197592328Y-34706202D01*
X197457482Y-34655908D01*
X197457483Y-34655908D01*
X197397883Y-34649501D01*
X197397881Y-34649500D01*
X197397873Y-34649500D01*
X197397864Y-34649500D01*
X195602129Y-34649500D01*
X195602123Y-34649501D01*
X195542516Y-34655908D01*
X195407671Y-34706202D01*
X195407664Y-34706206D01*
X195292455Y-34792452D01*
X195292452Y-34792455D01*
X195206206Y-34907664D01*
X195206202Y-34907671D01*
X195155908Y-35042517D01*
X195149501Y-35102116D01*
X195149501Y-35102123D01*
X195149500Y-35102135D01*
X167300500Y-35102135D01*
X167300500Y-35057648D01*
X167276745Y-34907669D01*
X167268477Y-34855465D01*
X167205218Y-34660776D01*
X167144961Y-34542517D01*
X167112287Y-34478390D01*
X167104556Y-34467749D01*
X166991971Y-34312786D01*
X166847213Y-34168028D01*
X166681613Y-34047715D01*
X166681612Y-34047714D01*
X166681610Y-34047713D01*
X166624653Y-34018691D01*
X166499223Y-33954781D01*
X166304534Y-33891522D01*
X166129995Y-33863878D01*
X166102352Y-33859500D01*
X165897648Y-33859500D01*
X165873329Y-33863351D01*
X165695465Y-33891522D01*
X165500776Y-33954781D01*
X165318386Y-34047715D01*
X165152786Y-34168028D01*
X165008028Y-34312786D01*
X164887715Y-34478386D01*
X164794781Y-34660776D01*
X164731522Y-34855465D01*
X164699500Y-35057648D01*
X136723171Y-35057648D01*
X136704755Y-35000970D01*
X136611859Y-34818650D01*
X136579474Y-34774077D01*
X136579474Y-34774076D01*
X135900000Y-35453551D01*
X135900000Y-35447339D01*
X135872741Y-35345606D01*
X135820080Y-35254394D01*
X135745606Y-35179920D01*
X135654394Y-35127259D01*
X135552661Y-35100000D01*
X135546446Y-35100000D01*
X136225922Y-34420524D01*
X136225921Y-34420523D01*
X136181359Y-34388147D01*
X136181350Y-34388141D01*
X135999031Y-34295244D01*
X135804417Y-34232009D01*
X135602317Y-34200000D01*
X135397683Y-34200000D01*
X135195582Y-34232009D01*
X135000968Y-34295244D01*
X134818644Y-34388143D01*
X134774077Y-34420523D01*
X134774077Y-34420524D01*
X135453554Y-35100000D01*
X135447339Y-35100000D01*
X135345606Y-35127259D01*
X135254394Y-35179920D01*
X135179920Y-35254394D01*
X135127259Y-35345606D01*
X135100000Y-35447339D01*
X135100000Y-35453553D01*
X134420524Y-34774077D01*
X134420523Y-34774077D01*
X134388143Y-34818644D01*
X134295244Y-35000968D01*
X134232009Y-35195582D01*
X134200000Y-35397682D01*
X115850500Y-35397682D01*
X115850499Y-33602128D01*
X115844091Y-33542517D01*
X115828233Y-33500000D01*
X115793797Y-33407671D01*
X115793793Y-33407664D01*
X115707547Y-33292455D01*
X115707544Y-33292452D01*
X115592335Y-33206206D01*
X115592328Y-33206202D01*
X115457482Y-33155908D01*
X115457483Y-33155908D01*
X115397883Y-33149501D01*
X115397881Y-33149500D01*
X115397873Y-33149500D01*
X115397864Y-33149500D01*
X113602129Y-33149500D01*
X113602123Y-33149501D01*
X113542516Y-33155908D01*
X113407671Y-33206202D01*
X113407664Y-33206206D01*
X113292455Y-33292452D01*
X113292452Y-33292455D01*
X113206206Y-33407664D01*
X113206202Y-33407671D01*
X113155908Y-33542517D01*
X113149501Y-33602116D01*
X113149501Y-33602123D01*
X113149500Y-33602135D01*
X83260000Y-33602135D01*
X83260000Y-33397682D01*
X83227990Y-33195582D01*
X83164755Y-33000968D01*
X83071859Y-32818650D01*
X83039474Y-32774077D01*
X83039474Y-32774076D01*
X82360000Y-33453551D01*
X82360000Y-33447339D01*
X82332741Y-33345606D01*
X82280080Y-33254394D01*
X82205606Y-33179920D01*
X82114394Y-33127259D01*
X82012661Y-33100000D01*
X82006446Y-33100000D01*
X82685922Y-32420524D01*
X82685921Y-32420523D01*
X82641359Y-32388147D01*
X82641350Y-32388141D01*
X82459031Y-32295244D01*
X82264417Y-32232009D01*
X82062317Y-32200000D01*
X81857683Y-32200000D01*
X81655582Y-32232009D01*
X81460968Y-32295244D01*
X81278644Y-32388143D01*
X81234077Y-32420523D01*
X81234077Y-32420524D01*
X81913554Y-33100000D01*
X81907339Y-33100000D01*
X81805606Y-33127259D01*
X81714394Y-33179920D01*
X81639920Y-33254394D01*
X81587259Y-33345606D01*
X81560000Y-33447339D01*
X81560000Y-33453553D01*
X80880524Y-32774077D01*
X80880523Y-32774077D01*
X80848143Y-32818644D01*
X80755244Y-33000968D01*
X80692009Y-33195582D01*
X80660000Y-33397682D01*
X79544130Y-33397682D01*
X79046447Y-32900000D01*
X79052661Y-32900000D01*
X79154394Y-32872741D01*
X79245606Y-32820080D01*
X79320080Y-32745606D01*
X79372741Y-32654394D01*
X79400000Y-32552661D01*
X79400000Y-32546447D01*
X80079474Y-33225921D01*
X80111859Y-33181349D01*
X80204755Y-32999031D01*
X80267990Y-32804417D01*
X80300000Y-32602317D01*
X80300000Y-32397682D01*
X80267990Y-32195582D01*
X80204755Y-32000968D01*
X80111859Y-31818650D01*
X80079474Y-31774077D01*
X80079474Y-31774076D01*
X79400000Y-32453551D01*
X79400000Y-32447339D01*
X79372741Y-32345606D01*
X79320080Y-32254394D01*
X79245606Y-32179920D01*
X79154394Y-32127259D01*
X79052661Y-32100000D01*
X79046446Y-32100000D01*
X79725922Y-31420524D01*
X79725921Y-31420523D01*
X79681359Y-31388147D01*
X79681350Y-31388141D01*
X79499031Y-31295244D01*
X79304417Y-31232009D01*
X79102317Y-31200000D01*
X78897683Y-31200000D01*
X78695582Y-31232009D01*
X78500968Y-31295244D01*
X78318644Y-31388143D01*
X78274077Y-31420523D01*
X78274077Y-31420524D01*
X78953554Y-32100000D01*
X78947339Y-32100000D01*
X78845606Y-32127259D01*
X78754394Y-32179920D01*
X78679920Y-32254394D01*
X78627259Y-32345606D01*
X78600000Y-32447339D01*
X78600000Y-32453553D01*
X77920524Y-31774077D01*
X77920523Y-31774077D01*
X77888143Y-31818644D01*
X77795244Y-32000968D01*
X77732009Y-32195582D01*
X77700000Y-32397682D01*
X75300000Y-32397682D01*
X75267990Y-32195582D01*
X75204755Y-32000968D01*
X75111859Y-31818650D01*
X75079474Y-31774077D01*
X75079474Y-31774076D01*
X74400000Y-32453551D01*
X74400000Y-32447339D01*
X74372741Y-32345606D01*
X74320080Y-32254394D01*
X74245606Y-32179920D01*
X74154394Y-32127259D01*
X74052661Y-32100000D01*
X74046446Y-32100000D01*
X74725922Y-31420524D01*
X74725921Y-31420523D01*
X74681359Y-31388147D01*
X74681350Y-31388141D01*
X74499031Y-31295244D01*
X74304417Y-31232009D01*
X74102317Y-31200000D01*
X73897683Y-31200000D01*
X73695582Y-31232009D01*
X73500968Y-31295244D01*
X73318644Y-31388143D01*
X73274077Y-31420523D01*
X73274077Y-31420524D01*
X73953554Y-32100000D01*
X73947339Y-32100000D01*
X73845606Y-32127259D01*
X73754394Y-32179920D01*
X73679920Y-32254394D01*
X73627259Y-32345606D01*
X73600000Y-32447339D01*
X73600000Y-32453553D01*
X72920524Y-31774077D01*
X72920523Y-31774077D01*
X72888143Y-31818644D01*
X72795244Y-32000968D01*
X72732009Y-32195582D01*
X72700000Y-32397682D01*
X70414775Y-32397682D01*
X70406321Y-24897648D01*
X164699500Y-24897648D01*
X164699500Y-25102351D01*
X164731522Y-25304534D01*
X164794781Y-25499223D01*
X164887715Y-25681613D01*
X165008028Y-25847213D01*
X165152786Y-25991971D01*
X165307749Y-26104556D01*
X165318390Y-26112287D01*
X165434607Y-26171503D01*
X165500776Y-26205218D01*
X165500778Y-26205218D01*
X165500781Y-26205220D01*
X165605137Y-26239127D01*
X165695465Y-26268477D01*
X165796557Y-26284488D01*
X165897648Y-26300500D01*
X165897649Y-26300500D01*
X166102351Y-26300500D01*
X166102352Y-26300500D01*
X166304534Y-26268477D01*
X166499219Y-26205220D01*
X166681610Y-26112287D01*
X166774590Y-26044732D01*
X166847213Y-25991971D01*
X166847215Y-25991968D01*
X166847219Y-25991966D01*
X166991966Y-25847219D01*
X166991968Y-25847215D01*
X166991971Y-25847213D01*
X167044732Y-25774590D01*
X167112287Y-25681610D01*
X167205220Y-25499219D01*
X167268477Y-25304534D01*
X167300500Y-25102352D01*
X167300500Y-24897648D01*
X167268477Y-24695466D01*
X167205220Y-24500781D01*
X167205218Y-24500778D01*
X167205218Y-24500776D01*
X167171503Y-24434607D01*
X167112287Y-24318390D01*
X167104556Y-24307749D01*
X166991971Y-24152786D01*
X166847213Y-24008028D01*
X166681613Y-23887715D01*
X166681612Y-23887714D01*
X166681610Y-23887713D01*
X166624653Y-23858691D01*
X166499223Y-23794781D01*
X166304534Y-23731522D01*
X166129995Y-23703878D01*
X166102352Y-23699500D01*
X165897648Y-23699500D01*
X165873329Y-23703351D01*
X165695465Y-23731522D01*
X165500776Y-23794781D01*
X165318386Y-23887715D01*
X165152786Y-24008028D01*
X165008028Y-24152786D01*
X164887715Y-24318386D01*
X164794781Y-24500776D01*
X164731522Y-24695465D01*
X164699500Y-24897648D01*
X70406321Y-24897648D01*
X70399078Y-18472569D01*
X70418687Y-18405510D01*
X70471439Y-18359696D01*
X70522936Y-18348432D01*
X219229172Y-18180800D01*
X219296232Y-18200409D01*
G37*
%TD.AperFunction*%
%TD*%
M02*
