%TF.GenerationSoftware,KiCad,Pcbnew,10.0.3*%
%TF.CreationDate,2026-05-29T17:16:22-05:00*%
%TF.ProjectId,Handheld-Gaming-Device,48616e64-6865-46c6-942d-47616d696e67,rev?*%
%TF.SameCoordinates,Original*%
%TF.FileFunction,Copper,L1,Top*%
%TF.FilePolarity,Positive*%
%FSLAX46Y46*%
G04 Gerber Fmt 4.6, Leading zero omitted, Abs format (unit mm)*
G04 Created by KiCad (PCBNEW 10.0.3) date 2026-05-29 17:16:22*
%MOMM*%
%LPD*%
G01*
G04 APERTURE LIST*
G04 Aperture macros list*
%AMRoundRect*
0 Rectangle with rounded corners*
0 $1 Rounding radius*
0 $2 $3 $4 $5 $6 $7 $8 $9 X,Y pos of 4 corners*
0 Add a 4 corners polygon primitive as box body*
4,1,4,$2,$3,$4,$5,$6,$7,$8,$9,$2,$3,0*
0 Add four circle primitives for the rounded corners*
1,1,$1+$1,$2,$3*
1,1,$1+$1,$4,$5*
1,1,$1+$1,$6,$7*
1,1,$1+$1,$8,$9*
0 Add four rect primitives between the rounded corners*
20,1,$1+$1,$2,$3,$4,$5,0*
20,1,$1+$1,$4,$5,$6,$7,0*
20,1,$1+$1,$6,$7,$8,$9,0*
20,1,$1+$1,$8,$9,$2,$3,0*%
G04 Aperture macros list end*
%TA.AperFunction,ComponentPad*%
%ADD10C,2.000000*%
%TD*%
%TA.AperFunction,ComponentPad*%
%ADD11C,1.700000*%
%TD*%
%TA.AperFunction,ComponentPad*%
%ADD12R,1.700000X1.700000*%
%TD*%
%TA.AperFunction,ComponentPad*%
%ADD13C,1.600000*%
%TD*%
%TA.AperFunction,ComponentPad*%
%ADD14O,1.600000X1.200000*%
%TD*%
%TA.AperFunction,ComponentPad*%
%ADD15C,1.200000*%
%TD*%
%TA.AperFunction,ComponentPad*%
%ADD16C,1.440000*%
%TD*%
%TA.AperFunction,ComponentPad*%
%ADD17RoundRect,0.250000X-0.550000X0.550000X-0.550000X-0.550000X0.550000X-0.550000X0.550000X0.550000X0*%
%TD*%
%TA.AperFunction,ComponentPad*%
%ADD18R,1.905000X2.000000*%
%TD*%
%TA.AperFunction,ComponentPad*%
%ADD19O,1.905000X2.000000*%
%TD*%
%TA.AperFunction,ViaPad*%
%ADD20C,0.600000*%
%TD*%
%TA.AperFunction,Conductor*%
%ADD21C,0.250000*%
%TD*%
G04 APERTURE END LIST*
D10*
%TO.P,SW1,2,2_2*%
%TO.N,Net-(SW1-Pad2)*%
X170000000Y-95000000D03*
X176500000Y-95000000D03*
%TO.P,SW1,1,1_1*%
%TO.N,GND*%
X170000000Y-99500000D03*
X176500000Y-99500000D03*
%TD*%
%TO.P,SW2,2,2_2*%
%TO.N,Net-(SW2-Pad2)*%
X184500000Y-95000000D03*
X191000000Y-95000000D03*
%TO.P,SW2,1,1_1*%
%TO.N,GND*%
X184500000Y-99500000D03*
X191000000Y-99500000D03*
%TD*%
D11*
%TO.P,J2,5,Pin_5_5*%
%TO.N,+3V3*%
X123500000Y-96000000D03*
%TO.P,J2,4,Pin_4_4*%
%TO.N,Net-(J2-Pin_4)*%
X120960000Y-96000000D03*
%TO.P,J2,3,Pin_3_3*%
%TO.N,Net-(J2-Pin_3)*%
X118420000Y-96000000D03*
%TO.P,J2,2,Pin_2_2*%
%TO.N,Net-(J2-Pin_2)*%
X115880000Y-96000000D03*
D12*
%TO.P,J2,1,Pin_1_1*%
%TO.N,GND*%
X113340000Y-96000000D03*
%TD*%
D13*
%TO.P,C4,2*%
%TO.N,Net-(C4-Pad2)*%
X194500000Y-73000000D03*
%TO.P,C4,1*%
%TO.N,GND*%
X199500000Y-73000000D03*
%TD*%
%TO.P,R4,2*%
%TO.N,Net-(R4-Pad2)*%
X186500000Y-55080000D03*
%TO.P,R4,1*%
%TO.N,Net-(Q1-B)*%
X186500000Y-44920000D03*
%TD*%
%TO.P,R2,2*%
%TO.N,Net-(LS1-Pad2)*%
X196500000Y-44000000D03*
%TO.P,R2,1*%
%TO.N,Net-(R2-Pad1)*%
X196500000Y-54160000D03*
%TD*%
D14*
%TO.P,Q1,1,E_1*%
%TO.N,GND*%
X183920000Y-36500000D03*
D15*
%TO.P,Q1,2,B_2*%
%TO.N,Net-(Q1-B)*%
X186460000Y-39040000D03*
%TO.P,Q1,3,C_3*%
%TO.N,Net-(Q1-C)*%
X189000000Y-36500000D03*
%TD*%
D16*
%TO.P,RV1,3,3_3*%
%TO.N,Net-(C5-Pad2)*%
X182960000Y-65040000D03*
%TO.P,RV1,2,2_2*%
%TO.N,Net-(R4-Pad2)*%
X185500000Y-62500000D03*
%TO.P,RV1,1,1_1*%
%TO.N,GND*%
X188040000Y-65040000D03*
%TD*%
D11*
%TO.P,LS1,2,2_2*%
%TO.N,Net-(LS1-Pad2)*%
X196500000Y-38540000D03*
D12*
%TO.P,LS1,1,1_1*%
%TO.N,Net-(Q1-C)*%
X196500000Y-36000000D03*
%TD*%
D13*
%TO.P,C5,2*%
%TO.N,Net-(C5-Pad2)*%
X182000000Y-73000000D03*
%TO.P,C5,1*%
%TO.N,Net-(C4-Pad2)*%
X187000000Y-73000000D03*
%TD*%
%TO.P,R5,2*%
%TO.N,Net-(C4-Pad2)*%
X210080000Y-83000000D03*
%TO.P,R5,1*%
%TO.N,Net-(R5-Pad1)*%
X199920000Y-83000000D03*
%TD*%
%TO.P,R3,2*%
%TO.N,Net-(R2-Pad1)*%
X196500000Y-58000000D03*
%TO.P,R3,1*%
%TO.N,+3V3*%
X196500000Y-68160000D03*
%TD*%
%TO.P,C8,2*%
%TO.N,GND*%
X81960000Y-33500000D03*
%TO.P,C8,1*%
%TO.N,+3V3*%
X81960000Y-38500000D03*
%TD*%
%TO.P,C2,1*%
%TO.N,+3V3*%
X135500000Y-40500000D03*
%TO.P,C2,2*%
%TO.N,GND*%
X135500000Y-35500000D03*
%TD*%
D12*
%TO.P,J5,1,Pin_1_1*%
%TO.N,+5V*%
X100540000Y-35500000D03*
D11*
%TO.P,J5,2,Pin_2_2*%
%TO.N,unconnected-(J5-Pin_2-Pad2)*%
X98000000Y-35500000D03*
%TO.P,J5,3,Pin_3_3*%
%TO.N,unconnected-(J5-Pin_3-Pad3)*%
X95460000Y-35500000D03*
%TO.P,J5,4,Pin_4_4*%
%TO.N,unconnected-(J5-Pin_4-Pad4)*%
X92920000Y-35500000D03*
%TO.P,J5,5,Pin_5_5*%
%TO.N,GND*%
X90380000Y-35500000D03*
%TD*%
D12*
%TO.P,J3,1,Pin_1_1*%
%TO.N,GND*%
X201840000Y-96500000D03*
D11*
%TO.P,J3,2,Pin_2_2*%
%TO.N,unconnected-(J3-Pin_2-Pad2)*%
X204380000Y-96500000D03*
%TO.P,J3,3,Pin_3_3*%
%TO.N,Net-(J3-Pin_3)*%
X206920000Y-96500000D03*
%TO.P,J3,4,Pin_4_4*%
%TO.N,Net-(J3-Pin_4)*%
X209460000Y-96500000D03*
%TO.P,J3,5,Pin_5_5*%
%TO.N,+3V3*%
X212000000Y-96500000D03*
%TD*%
D17*
%TO.P,U1,1*%
%TO.N,Net-(J1-Pin_1)*%
X166000000Y-43000000D03*
D13*
%TO.P,U1,2*%
%TO.N,unconnected-(U1-Pad2)*%
X163460000Y-43000000D03*
%TO.P,U1,3*%
%TO.N,unconnected-(U1-Pad3)*%
X160920000Y-43000000D03*
%TO.P,U1,4*%
%TO.N,Net-(J1-Pin_4)*%
X158380000Y-43000000D03*
%TO.P,U1,5*%
%TO.N,Net-(J1-Pin_5)*%
X155840000Y-43000000D03*
%TO.P,U1,6*%
%TO.N,Net-(J2-Pin_2)*%
X153300000Y-43000000D03*
%TO.P,U1,7*%
%TO.N,Net-(J2-Pin_3)*%
X150760000Y-43000000D03*
%TO.P,U1,8*%
%TO.N,GND*%
X148220000Y-43000000D03*
%TO.P,U1,9*%
%TO.N,unconnected-(U1-Pad9)*%
X145680000Y-43000000D03*
%TO.P,U1,10*%
%TO.N,unconnected-(U1-Pad10)*%
X143140000Y-43000000D03*
%TO.P,U1,11*%
%TO.N,Net-(J2-Pin_4)*%
X140600000Y-43000000D03*
%TO.P,U1,12*%
%TO.N,unconnected-(U1-Pad12)*%
X138060000Y-43000000D03*
%TO.P,U1,13*%
%TO.N,+3V3*%
X135520000Y-43000000D03*
%TO.P,U1,14*%
%TO.N,Net-(R5-Pad1)*%
X132980000Y-43000000D03*
%TO.P,U1,15*%
%TO.N,Net-(J4-Pin_5)*%
X132980000Y-50620000D03*
%TO.P,U1,16*%
%TO.N,Net-(J4-Pin_6)*%
X135520000Y-50620000D03*
%TO.P,U1,17*%
%TO.N,Net-(J4-Pin_4)*%
X138060000Y-50620000D03*
%TO.P,U1,18*%
%TO.N,Net-(J4-Pin_8)*%
X140600000Y-50620000D03*
%TO.P,U1,19*%
%TO.N,GND*%
X143140000Y-50620000D03*
%TO.P,U1,20*%
%TO.N,Net-(C1-Pad1)*%
X145680000Y-50620000D03*
%TO.P,U1,21*%
%TO.N,Net-(J4-Pin_7)*%
X148220000Y-50620000D03*
%TO.P,U1,22*%
%TO.N,unconnected-(U1-Pad22)*%
X150760000Y-50620000D03*
%TO.P,U1,23*%
%TO.N,Net-(J3-Pin_3)*%
X153300000Y-50620000D03*
%TO.P,U1,24*%
%TO.N,Net-(J3-Pin_4)*%
X155840000Y-50620000D03*
%TO.P,U1,25*%
%TO.N,Net-(SW1-Pad2)*%
X158380000Y-50620000D03*
%TO.P,U1,26*%
%TO.N,Net-(SW2-Pad2)*%
X160920000Y-50620000D03*
%TO.P,U1,27*%
%TO.N,GND*%
X163460000Y-50620000D03*
%TO.P,U1,28*%
%TO.N,+3V3*%
X166000000Y-50620000D03*
%TD*%
%TO.P,R1,1*%
%TO.N,+3V3*%
X166000000Y-25000000D03*
%TO.P,R1,2*%
%TO.N,Net-(J1-Pin_1)*%
X166000000Y-35160000D03*
%TD*%
%TO.P,C6,1*%
%TO.N,+5V*%
X100500000Y-38500000D03*
%TO.P,C6,2*%
%TO.N,GND*%
X100500000Y-43500000D03*
%TD*%
D12*
%TO.P,J1,1,Pin_1_1*%
%TO.N,Net-(J1-Pin_1)*%
X114500000Y-34500000D03*
D11*
%TO.P,J1,2,Pin_2_2*%
%TO.N,+3V3*%
X114500000Y-37040000D03*
%TO.P,J1,3,Pin_3_3*%
%TO.N,GND*%
X114500000Y-39580000D03*
%TO.P,J1,4,Pin_4_4*%
%TO.N,Net-(J1-Pin_4)*%
X114500000Y-42120000D03*
%TO.P,J1,5,Pin_5_5*%
%TO.N,Net-(J1-Pin_5)*%
X114500000Y-44660000D03*
%TO.P,J1,6,Pin_6_6*%
%TO.N,unconnected-(J1-Pin_6-Pad6)*%
X114500000Y-47200000D03*
%TO.P,J1,7,Pin_7_7*%
%TO.N,unconnected-(J1-Pin_7-Pad7)*%
X114500000Y-49740000D03*
%TO.P,J1,8,Pin_8_8*%
%TO.N,unconnected-(J1-Pin_8-Pad8)*%
X114500000Y-52280000D03*
%TD*%
D12*
%TO.P,J4,1,Pin_1_1*%
%TO.N,GND*%
X157080000Y-96000000D03*
D11*
%TO.P,J4,2,Pin_2_2*%
%TO.N,+3V3*%
X154540000Y-96000000D03*
%TO.P,J4,3,Pin_3_3*%
X152000000Y-96000000D03*
%TO.P,J4,4,Pin_4_4*%
%TO.N,Net-(J4-Pin_4)*%
X149460000Y-96000000D03*
%TO.P,J4,5,Pin_5_5*%
%TO.N,Net-(J4-Pin_5)*%
X146920000Y-96000000D03*
%TO.P,J4,6,Pin_6_6*%
%TO.N,Net-(J4-Pin_6)*%
X144380000Y-96000000D03*
%TO.P,J4,7,Pin_7_7*%
%TO.N,Net-(J4-Pin_7)*%
X141840000Y-96000000D03*
%TO.P,J4,8,Pin_8_8*%
%TO.N,Net-(J4-Pin_8)*%
X139300000Y-96000000D03*
%TD*%
D18*
%TO.P,J6,1,Pin_1_1*%
%TO.N,+5V*%
X87000000Y-43000000D03*
D19*
%TO.P,J6,2,Pin_2_2*%
%TO.N,GND*%
X84460000Y-43000000D03*
%TO.P,J6,3,Pin_3_3*%
%TO.N,+3V3*%
X81920000Y-43000000D03*
%TD*%
D13*
%TO.P,C7,1*%
%TO.N,GND*%
X79000000Y-32500000D03*
%TO.P,C7,2*%
X74000000Y-32500000D03*
%TD*%
%TO.P,C3,1*%
%TO.N,GND*%
X166000000Y-58000000D03*
%TO.P,C3,2*%
%TO.N,+3V3*%
X166000000Y-53000000D03*
%TD*%
%TO.P,C1,1*%
%TO.N,Net-(C1-Pad1)*%
X144500000Y-53000000D03*
%TO.P,C1,2*%
%TO.N,GND*%
X144500000Y-58000000D03*
%TD*%
D20*
%TO.N,Net-(J4-Pin_6)*%
X135500000Y-81500000D03*
X135500000Y-83500000D03*
%TO.N,Net-(J4-Pin_7)*%
X142500000Y-81000000D03*
X142500000Y-90500000D03*
%TO.N,Net-(J4-Pin_8)*%
X139252702Y-86747298D03*
X140000000Y-81825000D03*
%TO.N,Net-(J4-Pin_5)*%
X133000000Y-81000000D03*
X133000000Y-84000000D03*
%TO.N,Net-(R5-Pad1)*%
X138735000Y-82500000D03*
X137000000Y-82500000D03*
%TO.N,Net-(SW1-Pad2)*%
X188500000Y-81500000D03*
X158500000Y-64000000D03*
X158500000Y-70500000D03*
X188500000Y-84500000D03*
%TO.N,Net-(SW2-Pad2)*%
X178000000Y-62000000D03*
X171000000Y-62000000D03*
X198000000Y-85000000D03*
X197500000Y-81500000D03*
%TD*%
%TO.N,+3V3*%
D21*
X123500000Y-96000000D02*
X123500000Y-89000000D01*
%TO.N,Net-(J2-Pin_4)*%
X122000000Y-94960000D02*
X120960000Y-96000000D01*
X140500000Y-33500000D02*
X132500000Y-33500000D01*
X140600000Y-33600000D02*
X140500000Y-33500000D01*
X132500000Y-33500000D02*
X122000000Y-44000000D01*
X122000000Y-44000000D02*
X122000000Y-94960000D01*
X140600000Y-43000000D02*
X140600000Y-33600000D01*
%TO.N,Net-(J2-Pin_3)*%
X118420000Y-86080000D02*
X118420000Y-96000000D01*
X118500000Y-86000000D02*
X118420000Y-86080000D01*
%TO.N,Net-(J2-Pin_2)*%
X115880000Y-89620000D02*
X116500000Y-89000000D01*
X115880000Y-96000000D02*
X115880000Y-89620000D01*
%TO.N,+3V3*%
X106000000Y-104000000D02*
X128000000Y-104000000D01*
X106000000Y-51000000D02*
X106000000Y-104000000D01*
%TO.N,Net-(R2-Pad1)*%
X196500000Y-54160000D02*
X196500000Y-58000000D01*
%TO.N,Net-(LS1-Pad2)*%
X196500000Y-38540000D02*
X196500000Y-44000000D01*
%TO.N,Net-(Q1-B)*%
X186460000Y-44880000D02*
X186500000Y-44920000D01*
X186460000Y-39040000D02*
X186460000Y-44880000D01*
%TO.N,Net-(Q1-C)*%
X196000000Y-36500000D02*
X196500000Y-36000000D01*
X189000000Y-36500000D02*
X196000000Y-36500000D01*
%TO.N,+3V3*%
X196000000Y-92500000D02*
X196000000Y-103960000D01*
X204540000Y-103960000D02*
X196000000Y-103960000D01*
X207000000Y-86500000D02*
X201000000Y-92500000D01*
X201000000Y-92500000D02*
X196000000Y-92500000D01*
X212500000Y-86500000D02*
X207000000Y-86500000D01*
X212500000Y-78500000D02*
X212500000Y-86500000D01*
X196500000Y-68160000D02*
X202160000Y-68160000D01*
X202160000Y-68160000D02*
X212500000Y-78500000D01*
%TO.N,Net-(J3-Pin_3)*%
X153300000Y-67300000D02*
X153300000Y-50620000D01*
X155000000Y-69000000D02*
X153300000Y-67300000D01*
X177000000Y-69000000D02*
X155000000Y-69000000D01*
X177000000Y-30000000D02*
X177000000Y-69000000D01*
X178500000Y-28500000D02*
X177000000Y-30000000D01*
X207000000Y-28500000D02*
X178500000Y-28500000D01*
X209500000Y-31000000D02*
X207000000Y-28500000D01*
X206500000Y-43000000D02*
X209500000Y-40000000D01*
X206500000Y-66500000D02*
X206500000Y-43000000D01*
X209500000Y-40000000D02*
X209500000Y-31000000D01*
X214000000Y-87000000D02*
X214000000Y-74000000D01*
X206920000Y-96500000D02*
X206920000Y-94080000D01*
X206920000Y-94080000D02*
X214000000Y-87000000D01*
X214000000Y-74000000D02*
X206500000Y-66500000D01*
%TO.N,Net-(J3-Pin_4)*%
X209460000Y-94540000D02*
X209460000Y-96500000D01*
X216000000Y-24000000D02*
X216000000Y-88000000D01*
X172500000Y-26000000D02*
X174500000Y-24000000D01*
X174500000Y-24000000D02*
X216000000Y-24000000D01*
X216000000Y-88000000D02*
X209460000Y-94540000D01*
X172500000Y-65000000D02*
X172500000Y-26000000D01*
X155840000Y-63340000D02*
X157500000Y-65000000D01*
X155840000Y-50620000D02*
X155840000Y-63340000D01*
X157500000Y-65000000D02*
X172500000Y-65000000D01*
%TO.N,+3V3*%
X196000000Y-103960000D02*
X154540000Y-103960000D01*
X212000000Y-96500000D02*
X204540000Y-103960000D01*
%TO.N,Net-(SW2-Pad2)*%
X194500000Y-85000000D02*
X198000000Y-85000000D01*
X184500000Y-95000000D02*
X194500000Y-85000000D01*
X184500000Y-95000000D02*
X191000000Y-95000000D01*
%TO.N,Net-(SW1-Pad2)*%
X175500000Y-89500000D02*
X188500000Y-89500000D01*
X170000000Y-95000000D02*
X175500000Y-89500000D01*
X170000000Y-95000000D02*
X176500000Y-95000000D01*
%TO.N,+3V3*%
X128000000Y-95500000D02*
X128000000Y-89500000D01*
X154500000Y-104000000D02*
X152000000Y-104000000D01*
X154540000Y-103960000D02*
X154500000Y-104000000D01*
X154540000Y-96000000D02*
X154540000Y-103960000D01*
X128000000Y-89500000D02*
X127000000Y-88500000D01*
X128000000Y-104000000D02*
X128000000Y-95500000D01*
X152000000Y-104000000D02*
X128000000Y-104000000D01*
X152000000Y-96000000D02*
X152000000Y-104000000D01*
%TO.N,Net-(C4-Pad2)*%
X191000000Y-77500000D02*
X192500000Y-79000000D01*
X208500000Y-79000000D02*
X210080000Y-80580000D01*
X210080000Y-80580000D02*
X210080000Y-83000000D01*
X191000000Y-73000000D02*
X191000000Y-77500000D01*
X191000000Y-73000000D02*
X194500000Y-73000000D01*
X192500000Y-79000000D02*
X208500000Y-79000000D01*
X187000000Y-73000000D02*
X191000000Y-73000000D01*
%TO.N,Net-(C5-Pad2)*%
X179500000Y-73000000D02*
X182000000Y-73000000D01*
X179500000Y-65500000D02*
X179500000Y-73000000D01*
X179960000Y-65040000D02*
X179500000Y-65500000D01*
X182960000Y-65040000D02*
X179960000Y-65040000D01*
%TO.N,Net-(SW2-Pad2)*%
X185500000Y-75500000D02*
X191500000Y-81500000D01*
X191500000Y-81500000D02*
X197500000Y-81500000D01*
X180000000Y-75500000D02*
X185500000Y-75500000D01*
X178000000Y-73500000D02*
X180000000Y-75500000D01*
%TO.N,Net-(R4-Pad2)*%
X185500000Y-56000000D02*
X185500000Y-62500000D01*
X186500000Y-55000000D02*
X185500000Y-56000000D01*
X186500000Y-55080000D02*
X186500000Y-55000000D01*
%TO.N,Net-(SW2-Pad2)*%
X178000000Y-62000000D02*
X178000000Y-73500000D01*
%TO.N,Net-(R5-Pad1)*%
X139235000Y-83000000D02*
X199920000Y-83000000D01*
X138735000Y-82500000D02*
X139235000Y-83000000D01*
%TO.N,+3V3*%
X77500000Y-51000000D02*
X106000000Y-51000000D01*
X106000000Y-51000000D02*
X106000000Y-38000000D01*
X77500000Y-41000000D02*
X77500000Y-51000000D01*
X78000000Y-40500000D02*
X77500000Y-41000000D01*
X81920000Y-40500000D02*
X81920000Y-43000000D01*
X81920000Y-40500000D02*
X78000000Y-40500000D01*
X81920000Y-38580000D02*
X81920000Y-40500000D01*
X82000000Y-38500000D02*
X81920000Y-38580000D01*
X81960000Y-38500000D02*
X82000000Y-38500000D01*
%TO.N,+5V*%
X100540000Y-38460000D02*
X100500000Y-38500000D01*
X100540000Y-35500000D02*
X100540000Y-38460000D01*
X90000000Y-38500000D02*
X100500000Y-38500000D01*
X87000000Y-41500000D02*
X90000000Y-38500000D01*
X87000000Y-43000000D02*
X87000000Y-41500000D01*
%TO.N,+3V3*%
X81960000Y-42960000D02*
X81920000Y-43000000D01*
%TO.N,GND*%
X80960000Y-32500000D02*
X81960000Y-33500000D01*
X79000000Y-32500000D02*
X80960000Y-32500000D01*
%TO.N,Net-(SW1-Pad2)*%
X188500000Y-89500000D02*
X188500000Y-84500000D01*
%TO.N,+3V3*%
X126500000Y-89000000D02*
X127000000Y-88500000D01*
X123500000Y-89000000D02*
X126500000Y-89000000D01*
%TO.N,Net-(J2-Pin_3)*%
X118500000Y-73000000D02*
X118500000Y-86000000D01*
X120500000Y-71000000D02*
X118500000Y-73000000D01*
%TO.N,Net-(J2-Pin_2)*%
X116500000Y-69000000D02*
X118000000Y-67500000D01*
X116500000Y-89000000D02*
X116500000Y-69000000D01*
%TO.N,+3V3*%
X127000000Y-41000000D02*
X127000000Y-88500000D01*
X131500000Y-38500000D02*
X129500000Y-38500000D01*
X133500000Y-40500000D02*
X131500000Y-38500000D01*
X135500000Y-40500000D02*
X133500000Y-40500000D01*
X129500000Y-38500000D02*
X127000000Y-41000000D01*
%TO.N,Net-(C1-Pad1)*%
X145680000Y-51820000D02*
X144500000Y-53000000D01*
X145680000Y-50620000D02*
X145680000Y-51820000D01*
%TO.N,GND*%
X143140000Y-50620000D02*
X142500000Y-51260000D01*
X142500000Y-51260000D02*
X142500000Y-56000000D01*
X142500000Y-56000000D02*
X144500000Y-58000000D01*
%TO.N,+3V3*%
X135520000Y-40520000D02*
X135500000Y-40500000D01*
X106000000Y-38000000D02*
X108500000Y-38000000D01*
X166000000Y-50620000D02*
X166000000Y-53000000D01*
X166000000Y-21000000D02*
X165500000Y-20500000D01*
X108500000Y-38000000D02*
X113540000Y-38000000D01*
X135520000Y-43000000D02*
X135520000Y-40520000D01*
X166000000Y-25000000D02*
X166000000Y-21000000D01*
X165500000Y-20500000D02*
X106000000Y-20500000D01*
X170000000Y-25500000D02*
X169500000Y-25000000D01*
X170000000Y-53000000D02*
X170000000Y-25500000D01*
X113540000Y-38000000D02*
X114500000Y-37040000D01*
X106000000Y-35500000D02*
X108500000Y-38000000D01*
X169500000Y-25000000D02*
X166000000Y-25000000D01*
X166000000Y-53000000D02*
X170000000Y-53000000D01*
X106000000Y-20500000D02*
X106000000Y-35500000D01*
%TO.N,Net-(J1-Pin_5)*%
X114500000Y-44660000D02*
X132160000Y-27000000D01*
X132160000Y-27000000D02*
X144500000Y-27000000D01*
X144500000Y-27000000D02*
X155840000Y-38340000D01*
X155840000Y-38340000D02*
X155840000Y-43000000D01*
%TO.N,Net-(J1-Pin_1)*%
X117000000Y-26000000D02*
X120000000Y-23000000D01*
X120000000Y-23000000D02*
X151000000Y-23000000D01*
X114500000Y-34500000D02*
X117000000Y-34500000D01*
X163160000Y-35160000D02*
X166000000Y-35160000D01*
X166000000Y-35160000D02*
X166000000Y-43000000D01*
X117000000Y-34500000D02*
X117000000Y-26000000D01*
X151000000Y-23000000D02*
X163160000Y-35160000D01*
%TO.N,Net-(J1-Pin_4)*%
X148500000Y-25000000D02*
X123000000Y-25000000D01*
X158380000Y-34880000D02*
X148500000Y-25000000D01*
X122500000Y-25500000D02*
X122500000Y-34120000D01*
X158380000Y-43000000D02*
X158380000Y-34880000D01*
X123000000Y-25000000D02*
X122500000Y-25500000D01*
X122500000Y-34120000D02*
X114500000Y-42120000D01*
%TO.N,Net-(J2-Pin_3)*%
X120500000Y-71000000D02*
X120500000Y-43500000D01*
X150760000Y-37260000D02*
X150760000Y-43000000D01*
X132500000Y-31500000D02*
X145000000Y-31500000D01*
X120500000Y-43500000D02*
X132500000Y-31500000D01*
X145000000Y-31500000D02*
X150760000Y-37260000D01*
%TO.N,Net-(J2-Pin_2)*%
X132500000Y-29500000D02*
X118000000Y-44000000D01*
X153300000Y-43000000D02*
X153300000Y-38300000D01*
X153300000Y-38300000D02*
X144500000Y-29500000D01*
X144500000Y-29500000D02*
X132500000Y-29500000D01*
X118000000Y-44000000D02*
X118000000Y-67500000D01*
%TO.N,Net-(J4-Pin_6)*%
X144500000Y-100000000D02*
X135500000Y-100000000D01*
X135500000Y-81500000D02*
X135520000Y-81480000D01*
X144380000Y-96000000D02*
X144380000Y-99880000D01*
X135500000Y-100000000D02*
X135500000Y-83500000D01*
X144380000Y-99880000D02*
X144500000Y-100000000D01*
X135520000Y-81480000D02*
X135520000Y-50620000D01*
%TO.N,Net-(J4-Pin_7)*%
X142500000Y-81000000D02*
X142500000Y-66500000D01*
X142500000Y-66500000D02*
X148220000Y-60780000D01*
X141840000Y-96000000D02*
X142500000Y-95340000D01*
X148220000Y-60780000D02*
X148220000Y-50620000D01*
X142500000Y-95340000D02*
X142500000Y-90500000D01*
%TO.N,Net-(J4-Pin_4)*%
X149460000Y-96000000D02*
X138060000Y-84600000D01*
X138060000Y-84600000D02*
X138060000Y-50620000D01*
%TO.N,Net-(J4-Pin_8)*%
X139300000Y-96000000D02*
X139252702Y-95952702D01*
X140000000Y-81825000D02*
X140600000Y-81225000D01*
X139252702Y-95952702D02*
X139252702Y-86747298D01*
X140600000Y-81225000D02*
X140600000Y-50620000D01*
%TO.N,Net-(J4-Pin_5)*%
X132980000Y-80980000D02*
X132980000Y-50620000D01*
X133000000Y-81000000D02*
X132980000Y-80980000D01*
X147000000Y-96000000D02*
X147000000Y-103000000D01*
X133000000Y-102500000D02*
X133000000Y-84000000D01*
X146920000Y-96000000D02*
X147000000Y-96000000D01*
X133500000Y-103000000D02*
X133000000Y-102500000D01*
X147000000Y-103000000D02*
X133500000Y-103000000D01*
%TO.N,Net-(R5-Pad1)*%
X137000000Y-82500000D02*
X129000000Y-82500000D01*
X129000000Y-82500000D02*
X128500000Y-82000000D01*
X132980000Y-41480000D02*
X132980000Y-43000000D01*
X128500000Y-42500000D02*
X130500000Y-40500000D01*
X128500000Y-82000000D02*
X128500000Y-42500000D01*
X132000000Y-40500000D02*
X132980000Y-41480000D01*
X130500000Y-40500000D02*
X132000000Y-40500000D01*
%TO.N,Net-(SW1-Pad2)*%
X158500000Y-64000000D02*
X158380000Y-63880000D01*
X158500000Y-76500000D02*
X158500000Y-70500000D01*
X159000000Y-77000000D02*
X158500000Y-76500000D01*
X158380000Y-63880000D02*
X158380000Y-50620000D01*
X188500000Y-81500000D02*
X184000000Y-77000000D01*
X184000000Y-77000000D02*
X159000000Y-77000000D01*
%TO.N,Net-(SW2-Pad2)*%
X164000000Y-62000000D02*
X171000000Y-62000000D01*
X160920000Y-58920000D02*
X164000000Y-62000000D01*
X160920000Y-50620000D02*
X160920000Y-58920000D01*
%TD*%
M02*
