M48
; DRILL file KiCad 10.0.3 date 2026-05-29T17:16:27
; FORMAT={-:-/ absolute / metric / decimal}
; #@! TF.CreationDate,2026-05-29T17:16:27-05:00
; #@! TF.GenerationSoftware,Kicad,Pcbnew,10.0.3
; #@! TF.FileFunction,Plated,1,2,PTH
FMAT,2
METRIC
; #@! TA.AperFunction,Plated,PTH,ViaDrill
T1C0.300
; #@! TA.AperFunction,Plated,PTH,ComponentDrill
T2C0.700
; #@! TA.AperFunction,Plated,PTH,ComponentDrill
T3C0.800
; #@! TA.AperFunction,Plated,PTH,ComponentDrill
T4C1.000
; #@! TA.AperFunction,Plated,PTH,ComponentDrill
T5C1.100
%
G90
G05
T1
X133.0Y-81.0
X133.0Y-84.0
X135.5Y-81.5
X135.5Y-83.5
X137.0Y-82.5
X138.735Y-82.5
X139.253Y-86.747
X140.0Y-81.825
X142.5Y-81.0
X142.5Y-90.5
X158.5Y-64.0
X158.5Y-70.5
X171.0Y-62.0
X178.0Y-62.0
X188.5Y-81.5
X188.5Y-84.5
X197.5Y-81.5
X198.0Y-85.0
T2
X183.92Y-36.5
X186.46Y-39.04
X189.0Y-36.5
T3
X74.0Y-32.5
X79.0Y-32.5
X81.96Y-33.5
X81.96Y-38.5
X100.5Y-38.5
X100.5Y-43.5
X132.98Y-43.0
X132.98Y-50.62
X135.5Y-35.5
X135.5Y-40.5
X135.52Y-43.0
X135.52Y-50.62
X138.06Y-43.0
X138.06Y-50.62
X140.6Y-43.0
X140.6Y-50.62
X143.14Y-43.0
X143.14Y-50.62
X144.5Y-53.0
X144.5Y-58.0
X145.68Y-43.0
X145.68Y-50.62
X148.22Y-43.0
X148.22Y-50.62
X150.76Y-43.0
X150.76Y-50.62
X153.3Y-43.0
X153.3Y-50.62
X155.84Y-43.0
X155.84Y-50.62
X158.38Y-43.0
X158.38Y-50.62
X160.92Y-43.0
X160.92Y-50.62
X163.46Y-43.0
X163.46Y-50.62
X166.0Y-25.0
X166.0Y-35.16
X166.0Y-43.0
X166.0Y-50.62
X166.0Y-53.0
X166.0Y-58.0
X182.0Y-73.0
X182.96Y-65.04
X185.5Y-62.5
X186.5Y-44.92
X186.5Y-55.08
X187.0Y-73.0
X188.04Y-65.04
X194.5Y-73.0
X196.5Y-44.0
X196.5Y-54.16
X196.5Y-58.0
X196.5Y-68.16
X199.5Y-73.0
X199.92Y-83.0
X210.08Y-83.0
T4
X90.38Y-35.5
X92.92Y-35.5
X95.46Y-35.5
X98.0Y-35.5
X100.54Y-35.5
X113.34Y-96.0
X114.5Y-34.5
X114.5Y-37.04
X114.5Y-39.58
X114.5Y-42.12
X114.5Y-44.66
X114.5Y-47.2
X114.5Y-49.74
X114.5Y-52.28
X115.88Y-96.0
X118.42Y-96.0
X120.96Y-96.0
X123.5Y-96.0
X139.3Y-96.0
X141.84Y-96.0
X144.38Y-96.0
X146.92Y-96.0
X149.46Y-96.0
X152.0Y-96.0
X154.54Y-96.0
X157.08Y-96.0
X196.5Y-36.0
X196.5Y-38.54
X201.84Y-96.5
X204.38Y-96.5
X206.92Y-96.5
X209.46Y-96.5
X212.0Y-96.5
T5
X81.92Y-43.0
X84.46Y-43.0
X87.0Y-43.0
X170.0Y-95.0
X170.0Y-99.5
X176.5Y-95.0
X176.5Y-99.5
X184.5Y-95.0
X184.5Y-99.5
X191.0Y-95.0
X191.0Y-99.5
M30
