%TF.GenerationSoftware,KiCad,Pcbnew,10.0.3*%
%TF.CreationDate,2026-05-29T14:56:45-05:00*%
%TF.ProjectId,Handheld-Gaming-Device,48616e64-6865-46c6-942d-47616d696e67,rev?*%
%TF.SameCoordinates,Original*%
%TF.FileFunction,Legend,Top*%
%TF.FilePolarity,Positive*%
%FSLAX46Y46*%
G04 Gerber Fmt 4.6, Leading zero omitted, Abs format (unit mm)*
G04 Created by KiCad (PCBNEW 10.0.3) date 2026-05-29 14:56:45*
%MOMM*%
%LPD*%
G01*
G04 APERTURE LIST*
G04 Aperture macros list*
%AMRoundRect*
0 Rectangle with rounded corners*
0 $1 Rounding radius*
0 $2 $3 $4 $5 $6 $7 $8 $9 X,Y pos of 4 corners*
0 Add a 4 corners polygon primitive as box body*
4,1,4,$2,$3,$4,$5,$6,$7,$8,$9,$2,$3,0*
0 Add four circle primitives for the rounded corners*
1,1,$1+$1,$2,$3*
1,1,$1+$1,$4,$5*
1,1,$1+$1,$6,$7*
1,1,$1+$1,$8,$9*
0 Add four rect primitives between the rounded corners*
20,1,$1+$1,$2,$3,$4,$5,0*
20,1,$1+$1,$4,$5,$6,$7,0*
20,1,$1+$1,$6,$7,$8,$9,0*
20,1,$1+$1,$8,$9,$2,$3,0*%
G04 Aperture macros list end*
%ADD10C,0.100000*%
%ADD11C,0.150000*%
%ADD12C,0.120000*%
%ADD13O,1.600000X1.200000*%
%ADD14C,1.200000*%
%ADD15C,1.700000*%
%ADD16R,1.700000X1.700000*%
%ADD17C,1.600000*%
%ADD18RoundRect,0.250000X-0.550000X0.550000X-0.550000X-0.550000X0.550000X-0.550000X0.550000X0.550000X0*%
%ADD19C,2.000000*%
%ADD20C,1.440000*%
%ADD21R,1.905000X2.000000*%
%ADD22O,1.905000X2.000000*%
G04 APERTURE END LIST*
D10*
X109327693Y-34872419D02*
X108756265Y-34872419D01*
X109041979Y-34872419D02*
X109041979Y-33872419D01*
X109041979Y-33872419D02*
X108946741Y-34015276D01*
X108946741Y-34015276D02*
X108851503Y-34110514D01*
X108851503Y-34110514D02*
X108756265Y-34158133D01*
X109756265Y-34491466D02*
X110518170Y-34491466D01*
X110994360Y-34205752D02*
X111756265Y-34491466D01*
X111756265Y-34491466D02*
X110994360Y-34777180D01*
X26303884Y-128712755D02*
X26303884Y-127712755D01*
X26303884Y-128188945D02*
X26875312Y-128188945D01*
X26875312Y-128712755D02*
X26875312Y-127712755D01*
X27780074Y-128712755D02*
X27780074Y-128188945D01*
X27780074Y-128188945D02*
X27732455Y-128093707D01*
X27732455Y-128093707D02*
X27637217Y-128046088D01*
X27637217Y-128046088D02*
X27446741Y-128046088D01*
X27446741Y-128046088D02*
X27351503Y-128093707D01*
X27780074Y-128665136D02*
X27684836Y-128712755D01*
X27684836Y-128712755D02*
X27446741Y-128712755D01*
X27446741Y-128712755D02*
X27351503Y-128665136D01*
X27351503Y-128665136D02*
X27303884Y-128569897D01*
X27303884Y-128569897D02*
X27303884Y-128474659D01*
X27303884Y-128474659D02*
X27351503Y-128379421D01*
X27351503Y-128379421D02*
X27446741Y-128331802D01*
X27446741Y-128331802D02*
X27684836Y-128331802D01*
X27684836Y-128331802D02*
X27780074Y-128284183D01*
X28256265Y-128046088D02*
X28256265Y-128712755D01*
X28256265Y-128141326D02*
X28303884Y-128093707D01*
X28303884Y-128093707D02*
X28399122Y-128046088D01*
X28399122Y-128046088D02*
X28541979Y-128046088D01*
X28541979Y-128046088D02*
X28637217Y-128093707D01*
X28637217Y-128093707D02*
X28684836Y-128188945D01*
X28684836Y-128188945D02*
X28684836Y-128712755D01*
X29589598Y-128712755D02*
X29589598Y-127712755D01*
X29589598Y-128665136D02*
X29494360Y-128712755D01*
X29494360Y-128712755D02*
X29303884Y-128712755D01*
X29303884Y-128712755D02*
X29208646Y-128665136D01*
X29208646Y-128665136D02*
X29161027Y-128617516D01*
X29161027Y-128617516D02*
X29113408Y-128522278D01*
X29113408Y-128522278D02*
X29113408Y-128236564D01*
X29113408Y-128236564D02*
X29161027Y-128141326D01*
X29161027Y-128141326D02*
X29208646Y-128093707D01*
X29208646Y-128093707D02*
X29303884Y-128046088D01*
X29303884Y-128046088D02*
X29494360Y-128046088D01*
X29494360Y-128046088D02*
X29589598Y-128093707D01*
X30065789Y-128712755D02*
X30065789Y-127712755D01*
X30494360Y-128712755D02*
X30494360Y-128188945D01*
X30494360Y-128188945D02*
X30446741Y-128093707D01*
X30446741Y-128093707D02*
X30351503Y-128046088D01*
X30351503Y-128046088D02*
X30208646Y-128046088D01*
X30208646Y-128046088D02*
X30113408Y-128093707D01*
X30113408Y-128093707D02*
X30065789Y-128141326D01*
X31351503Y-128665136D02*
X31256265Y-128712755D01*
X31256265Y-128712755D02*
X31065789Y-128712755D01*
X31065789Y-128712755D02*
X30970551Y-128665136D01*
X30970551Y-128665136D02*
X30922932Y-128569897D01*
X30922932Y-128569897D02*
X30922932Y-128188945D01*
X30922932Y-128188945D02*
X30970551Y-128093707D01*
X30970551Y-128093707D02*
X31065789Y-128046088D01*
X31065789Y-128046088D02*
X31256265Y-128046088D01*
X31256265Y-128046088D02*
X31351503Y-128093707D01*
X31351503Y-128093707D02*
X31399122Y-128188945D01*
X31399122Y-128188945D02*
X31399122Y-128284183D01*
X31399122Y-128284183D02*
X30922932Y-128379421D01*
X31970551Y-128712755D02*
X31875313Y-128665136D01*
X31875313Y-128665136D02*
X31827694Y-128569897D01*
X31827694Y-128569897D02*
X31827694Y-127712755D01*
X32780075Y-128712755D02*
X32780075Y-127712755D01*
X32780075Y-128665136D02*
X32684837Y-128712755D01*
X32684837Y-128712755D02*
X32494361Y-128712755D01*
X32494361Y-128712755D02*
X32399123Y-128665136D01*
X32399123Y-128665136D02*
X32351504Y-128617516D01*
X32351504Y-128617516D02*
X32303885Y-128522278D01*
X32303885Y-128522278D02*
X32303885Y-128236564D01*
X32303885Y-128236564D02*
X32351504Y-128141326D01*
X32351504Y-128141326D02*
X32399123Y-128093707D01*
X32399123Y-128093707D02*
X32494361Y-128046088D01*
X32494361Y-128046088D02*
X32684837Y-128046088D01*
X32684837Y-128046088D02*
X32780075Y-128093707D01*
X34541980Y-127760374D02*
X34446742Y-127712755D01*
X34446742Y-127712755D02*
X34303885Y-127712755D01*
X34303885Y-127712755D02*
X34161028Y-127760374D01*
X34161028Y-127760374D02*
X34065790Y-127855612D01*
X34065790Y-127855612D02*
X34018171Y-127950850D01*
X34018171Y-127950850D02*
X33970552Y-128141326D01*
X33970552Y-128141326D02*
X33970552Y-128284183D01*
X33970552Y-128284183D02*
X34018171Y-128474659D01*
X34018171Y-128474659D02*
X34065790Y-128569897D01*
X34065790Y-128569897D02*
X34161028Y-128665136D01*
X34161028Y-128665136D02*
X34303885Y-128712755D01*
X34303885Y-128712755D02*
X34399123Y-128712755D01*
X34399123Y-128712755D02*
X34541980Y-128665136D01*
X34541980Y-128665136D02*
X34589599Y-128617516D01*
X34589599Y-128617516D02*
X34589599Y-128284183D01*
X34589599Y-128284183D02*
X34399123Y-128284183D01*
X35446742Y-128712755D02*
X35446742Y-128188945D01*
X35446742Y-128188945D02*
X35399123Y-128093707D01*
X35399123Y-128093707D02*
X35303885Y-128046088D01*
X35303885Y-128046088D02*
X35113409Y-128046088D01*
X35113409Y-128046088D02*
X35018171Y-128093707D01*
X35446742Y-128665136D02*
X35351504Y-128712755D01*
X35351504Y-128712755D02*
X35113409Y-128712755D01*
X35113409Y-128712755D02*
X35018171Y-128665136D01*
X35018171Y-128665136D02*
X34970552Y-128569897D01*
X34970552Y-128569897D02*
X34970552Y-128474659D01*
X34970552Y-128474659D02*
X35018171Y-128379421D01*
X35018171Y-128379421D02*
X35113409Y-128331802D01*
X35113409Y-128331802D02*
X35351504Y-128331802D01*
X35351504Y-128331802D02*
X35446742Y-128284183D01*
X35922933Y-128712755D02*
X35922933Y-128046088D01*
X35922933Y-128141326D02*
X35970552Y-128093707D01*
X35970552Y-128093707D02*
X36065790Y-128046088D01*
X36065790Y-128046088D02*
X36208647Y-128046088D01*
X36208647Y-128046088D02*
X36303885Y-128093707D01*
X36303885Y-128093707D02*
X36351504Y-128188945D01*
X36351504Y-128188945D02*
X36351504Y-128712755D01*
X36351504Y-128188945D02*
X36399123Y-128093707D01*
X36399123Y-128093707D02*
X36494361Y-128046088D01*
X36494361Y-128046088D02*
X36637218Y-128046088D01*
X36637218Y-128046088D02*
X36732457Y-128093707D01*
X36732457Y-128093707D02*
X36780076Y-128188945D01*
X36780076Y-128188945D02*
X36780076Y-128712755D01*
X37256266Y-128712755D02*
X37256266Y-128046088D01*
X37256266Y-127712755D02*
X37208647Y-127760374D01*
X37208647Y-127760374D02*
X37256266Y-127807993D01*
X37256266Y-127807993D02*
X37303885Y-127760374D01*
X37303885Y-127760374D02*
X37256266Y-127712755D01*
X37256266Y-127712755D02*
X37256266Y-127807993D01*
X37732456Y-128046088D02*
X37732456Y-128712755D01*
X37732456Y-128141326D02*
X37780075Y-128093707D01*
X37780075Y-128093707D02*
X37875313Y-128046088D01*
X37875313Y-128046088D02*
X38018170Y-128046088D01*
X38018170Y-128046088D02*
X38113408Y-128093707D01*
X38113408Y-128093707D02*
X38161027Y-128188945D01*
X38161027Y-128188945D02*
X38161027Y-128712755D01*
X39065789Y-128046088D02*
X39065789Y-128855612D01*
X39065789Y-128855612D02*
X39018170Y-128950850D01*
X39018170Y-128950850D02*
X38970551Y-128998469D01*
X38970551Y-128998469D02*
X38875313Y-129046088D01*
X38875313Y-129046088D02*
X38732456Y-129046088D01*
X38732456Y-129046088D02*
X38637218Y-128998469D01*
X39065789Y-128665136D02*
X38970551Y-128712755D01*
X38970551Y-128712755D02*
X38780075Y-128712755D01*
X38780075Y-128712755D02*
X38684837Y-128665136D01*
X38684837Y-128665136D02*
X38637218Y-128617516D01*
X38637218Y-128617516D02*
X38589599Y-128522278D01*
X38589599Y-128522278D02*
X38589599Y-128236564D01*
X38589599Y-128236564D02*
X38637218Y-128141326D01*
X38637218Y-128141326D02*
X38684837Y-128093707D01*
X38684837Y-128093707D02*
X38780075Y-128046088D01*
X38780075Y-128046088D02*
X38970551Y-128046088D01*
X38970551Y-128046088D02*
X39065789Y-128093707D01*
X40303885Y-128712755D02*
X40303885Y-127712755D01*
X40303885Y-127712755D02*
X40541980Y-127712755D01*
X40541980Y-127712755D02*
X40684837Y-127760374D01*
X40684837Y-127760374D02*
X40780075Y-127855612D01*
X40780075Y-127855612D02*
X40827694Y-127950850D01*
X40827694Y-127950850D02*
X40875313Y-128141326D01*
X40875313Y-128141326D02*
X40875313Y-128284183D01*
X40875313Y-128284183D02*
X40827694Y-128474659D01*
X40827694Y-128474659D02*
X40780075Y-128569897D01*
X40780075Y-128569897D02*
X40684837Y-128665136D01*
X40684837Y-128665136D02*
X40541980Y-128712755D01*
X40541980Y-128712755D02*
X40303885Y-128712755D01*
X41684837Y-128665136D02*
X41589599Y-128712755D01*
X41589599Y-128712755D02*
X41399123Y-128712755D01*
X41399123Y-128712755D02*
X41303885Y-128665136D01*
X41303885Y-128665136D02*
X41256266Y-128569897D01*
X41256266Y-128569897D02*
X41256266Y-128188945D01*
X41256266Y-128188945D02*
X41303885Y-128093707D01*
X41303885Y-128093707D02*
X41399123Y-128046088D01*
X41399123Y-128046088D02*
X41589599Y-128046088D01*
X41589599Y-128046088D02*
X41684837Y-128093707D01*
X41684837Y-128093707D02*
X41732456Y-128188945D01*
X41732456Y-128188945D02*
X41732456Y-128284183D01*
X41732456Y-128284183D02*
X41256266Y-128379421D01*
X42065790Y-128046088D02*
X42303885Y-128712755D01*
X42303885Y-128712755D02*
X42541980Y-128046088D01*
X42922933Y-128712755D02*
X42922933Y-128046088D01*
X42922933Y-127712755D02*
X42875314Y-127760374D01*
X42875314Y-127760374D02*
X42922933Y-127807993D01*
X42922933Y-127807993D02*
X42970552Y-127760374D01*
X42970552Y-127760374D02*
X42922933Y-127712755D01*
X42922933Y-127712755D02*
X42922933Y-127807993D01*
X43827694Y-128665136D02*
X43732456Y-128712755D01*
X43732456Y-128712755D02*
X43541980Y-128712755D01*
X43541980Y-128712755D02*
X43446742Y-128665136D01*
X43446742Y-128665136D02*
X43399123Y-128617516D01*
X43399123Y-128617516D02*
X43351504Y-128522278D01*
X43351504Y-128522278D02*
X43351504Y-128236564D01*
X43351504Y-128236564D02*
X43399123Y-128141326D01*
X43399123Y-128141326D02*
X43446742Y-128093707D01*
X43446742Y-128093707D02*
X43541980Y-128046088D01*
X43541980Y-128046088D02*
X43732456Y-128046088D01*
X43732456Y-128046088D02*
X43827694Y-128093707D01*
X44637218Y-128665136D02*
X44541980Y-128712755D01*
X44541980Y-128712755D02*
X44351504Y-128712755D01*
X44351504Y-128712755D02*
X44256266Y-128665136D01*
X44256266Y-128665136D02*
X44208647Y-128569897D01*
X44208647Y-128569897D02*
X44208647Y-128188945D01*
X44208647Y-128188945D02*
X44256266Y-128093707D01*
X44256266Y-128093707D02*
X44351504Y-128046088D01*
X44351504Y-128046088D02*
X44541980Y-128046088D01*
X44541980Y-128046088D02*
X44637218Y-128093707D01*
X44637218Y-128093707D02*
X44684837Y-128188945D01*
X44684837Y-128188945D02*
X44684837Y-128284183D01*
X44684837Y-128284183D02*
X44208647Y-128379421D01*
X26875312Y-131837404D02*
X26827693Y-131885024D01*
X26827693Y-131885024D02*
X26684836Y-131932643D01*
X26684836Y-131932643D02*
X26589598Y-131932643D01*
X26589598Y-131932643D02*
X26446741Y-131885024D01*
X26446741Y-131885024D02*
X26351503Y-131789785D01*
X26351503Y-131789785D02*
X26303884Y-131694547D01*
X26303884Y-131694547D02*
X26256265Y-131504071D01*
X26256265Y-131504071D02*
X26256265Y-131361214D01*
X26256265Y-131361214D02*
X26303884Y-131170738D01*
X26303884Y-131170738D02*
X26351503Y-131075500D01*
X26351503Y-131075500D02*
X26446741Y-130980262D01*
X26446741Y-130980262D02*
X26589598Y-130932643D01*
X26589598Y-130932643D02*
X26684836Y-130932643D01*
X26684836Y-130932643D02*
X26827693Y-130980262D01*
X26827693Y-130980262D02*
X26875312Y-131027881D01*
X27303884Y-131932643D02*
X27303884Y-131265976D01*
X27303884Y-131456452D02*
X27351503Y-131361214D01*
X27351503Y-131361214D02*
X27399122Y-131313595D01*
X27399122Y-131313595D02*
X27494360Y-131265976D01*
X27494360Y-131265976D02*
X27589598Y-131265976D01*
X28303884Y-131885024D02*
X28208646Y-131932643D01*
X28208646Y-131932643D02*
X28018170Y-131932643D01*
X28018170Y-131932643D02*
X27922932Y-131885024D01*
X27922932Y-131885024D02*
X27875313Y-131789785D01*
X27875313Y-131789785D02*
X27875313Y-131408833D01*
X27875313Y-131408833D02*
X27922932Y-131313595D01*
X27922932Y-131313595D02*
X28018170Y-131265976D01*
X28018170Y-131265976D02*
X28208646Y-131265976D01*
X28208646Y-131265976D02*
X28303884Y-131313595D01*
X28303884Y-131313595D02*
X28351503Y-131408833D01*
X28351503Y-131408833D02*
X28351503Y-131504071D01*
X28351503Y-131504071D02*
X27875313Y-131599309D01*
X29208646Y-131932643D02*
X29208646Y-131408833D01*
X29208646Y-131408833D02*
X29161027Y-131313595D01*
X29161027Y-131313595D02*
X29065789Y-131265976D01*
X29065789Y-131265976D02*
X28875313Y-131265976D01*
X28875313Y-131265976D02*
X28780075Y-131313595D01*
X29208646Y-131885024D02*
X29113408Y-131932643D01*
X29113408Y-131932643D02*
X28875313Y-131932643D01*
X28875313Y-131932643D02*
X28780075Y-131885024D01*
X28780075Y-131885024D02*
X28732456Y-131789785D01*
X28732456Y-131789785D02*
X28732456Y-131694547D01*
X28732456Y-131694547D02*
X28780075Y-131599309D01*
X28780075Y-131599309D02*
X28875313Y-131551690D01*
X28875313Y-131551690D02*
X29113408Y-131551690D01*
X29113408Y-131551690D02*
X29208646Y-131504071D01*
X29541980Y-131265976D02*
X29922932Y-131265976D01*
X29684837Y-130932643D02*
X29684837Y-131789785D01*
X29684837Y-131789785D02*
X29732456Y-131885024D01*
X29732456Y-131885024D02*
X29827694Y-131932643D01*
X29827694Y-131932643D02*
X29922932Y-131932643D01*
X30637218Y-131885024D02*
X30541980Y-131932643D01*
X30541980Y-131932643D02*
X30351504Y-131932643D01*
X30351504Y-131932643D02*
X30256266Y-131885024D01*
X30256266Y-131885024D02*
X30208647Y-131789785D01*
X30208647Y-131789785D02*
X30208647Y-131408833D01*
X30208647Y-131408833D02*
X30256266Y-131313595D01*
X30256266Y-131313595D02*
X30351504Y-131265976D01*
X30351504Y-131265976D02*
X30541980Y-131265976D01*
X30541980Y-131265976D02*
X30637218Y-131313595D01*
X30637218Y-131313595D02*
X30684837Y-131408833D01*
X30684837Y-131408833D02*
X30684837Y-131504071D01*
X30684837Y-131504071D02*
X30208647Y-131599309D01*
X31541980Y-131932643D02*
X31541980Y-130932643D01*
X31541980Y-131885024D02*
X31446742Y-131932643D01*
X31446742Y-131932643D02*
X31256266Y-131932643D01*
X31256266Y-131932643D02*
X31161028Y-131885024D01*
X31161028Y-131885024D02*
X31113409Y-131837404D01*
X31113409Y-131837404D02*
X31065790Y-131742166D01*
X31065790Y-131742166D02*
X31065790Y-131456452D01*
X31065790Y-131456452D02*
X31113409Y-131361214D01*
X31113409Y-131361214D02*
X31161028Y-131313595D01*
X31161028Y-131313595D02*
X31256266Y-131265976D01*
X31256266Y-131265976D02*
X31446742Y-131265976D01*
X31446742Y-131265976D02*
X31541980Y-131313595D01*
X33113409Y-131408833D02*
X33256266Y-131456452D01*
X33256266Y-131456452D02*
X33303885Y-131504071D01*
X33303885Y-131504071D02*
X33351504Y-131599309D01*
X33351504Y-131599309D02*
X33351504Y-131742166D01*
X33351504Y-131742166D02*
X33303885Y-131837404D01*
X33303885Y-131837404D02*
X33256266Y-131885024D01*
X33256266Y-131885024D02*
X33161028Y-131932643D01*
X33161028Y-131932643D02*
X32780076Y-131932643D01*
X32780076Y-131932643D02*
X32780076Y-130932643D01*
X32780076Y-130932643D02*
X33113409Y-130932643D01*
X33113409Y-130932643D02*
X33208647Y-130980262D01*
X33208647Y-130980262D02*
X33256266Y-131027881D01*
X33256266Y-131027881D02*
X33303885Y-131123119D01*
X33303885Y-131123119D02*
X33303885Y-131218357D01*
X33303885Y-131218357D02*
X33256266Y-131313595D01*
X33256266Y-131313595D02*
X33208647Y-131361214D01*
X33208647Y-131361214D02*
X33113409Y-131408833D01*
X33113409Y-131408833D02*
X32780076Y-131408833D01*
X33684838Y-131265976D02*
X33922933Y-131932643D01*
X34161028Y-131265976D02*
X33922933Y-131932643D01*
X33922933Y-131932643D02*
X33827695Y-132170738D01*
X33827695Y-132170738D02*
X33780076Y-132218357D01*
X33780076Y-132218357D02*
X33684838Y-132265976D01*
X34541981Y-131837404D02*
X34589600Y-131885024D01*
X34589600Y-131885024D02*
X34541981Y-131932643D01*
X34541981Y-131932643D02*
X34494362Y-131885024D01*
X34494362Y-131885024D02*
X34541981Y-131837404D01*
X34541981Y-131837404D02*
X34541981Y-131932643D01*
X34541981Y-131313595D02*
X34589600Y-131361214D01*
X34589600Y-131361214D02*
X34541981Y-131408833D01*
X34541981Y-131408833D02*
X34494362Y-131361214D01*
X34494362Y-131361214D02*
X34541981Y-131313595D01*
X34541981Y-131313595D02*
X34541981Y-131408833D01*
X35780076Y-131932643D02*
X35780076Y-130932643D01*
X35780076Y-130932643D02*
X36018171Y-130932643D01*
X36018171Y-130932643D02*
X36161028Y-130980262D01*
X36161028Y-130980262D02*
X36256266Y-131075500D01*
X36256266Y-131075500D02*
X36303885Y-131170738D01*
X36303885Y-131170738D02*
X36351504Y-131361214D01*
X36351504Y-131361214D02*
X36351504Y-131504071D01*
X36351504Y-131504071D02*
X36303885Y-131694547D01*
X36303885Y-131694547D02*
X36256266Y-131789785D01*
X36256266Y-131789785D02*
X36161028Y-131885024D01*
X36161028Y-131885024D02*
X36018171Y-131932643D01*
X36018171Y-131932643D02*
X35780076Y-131932643D01*
X36922933Y-131932643D02*
X36827695Y-131885024D01*
X36827695Y-131885024D02*
X36780076Y-131837404D01*
X36780076Y-131837404D02*
X36732457Y-131742166D01*
X36732457Y-131742166D02*
X36732457Y-131456452D01*
X36732457Y-131456452D02*
X36780076Y-131361214D01*
X36780076Y-131361214D02*
X36827695Y-131313595D01*
X36827695Y-131313595D02*
X36922933Y-131265976D01*
X36922933Y-131265976D02*
X37065790Y-131265976D01*
X37065790Y-131265976D02*
X37161028Y-131313595D01*
X37161028Y-131313595D02*
X37208647Y-131361214D01*
X37208647Y-131361214D02*
X37256266Y-131456452D01*
X37256266Y-131456452D02*
X37256266Y-131742166D01*
X37256266Y-131742166D02*
X37208647Y-131837404D01*
X37208647Y-131837404D02*
X37161028Y-131885024D01*
X37161028Y-131885024D02*
X37065790Y-131932643D01*
X37065790Y-131932643D02*
X36922933Y-131932643D01*
X37684838Y-131265976D02*
X37684838Y-131932643D01*
X37684838Y-131361214D02*
X37732457Y-131313595D01*
X37732457Y-131313595D02*
X37827695Y-131265976D01*
X37827695Y-131265976D02*
X37970552Y-131265976D01*
X37970552Y-131265976D02*
X38065790Y-131313595D01*
X38065790Y-131313595D02*
X38113409Y-131408833D01*
X38113409Y-131408833D02*
X38113409Y-131932643D01*
X38732457Y-131932643D02*
X38637219Y-131885024D01*
X38637219Y-131885024D02*
X38589600Y-131837404D01*
X38589600Y-131837404D02*
X38541981Y-131742166D01*
X38541981Y-131742166D02*
X38541981Y-131456452D01*
X38541981Y-131456452D02*
X38589600Y-131361214D01*
X38589600Y-131361214D02*
X38637219Y-131313595D01*
X38637219Y-131313595D02*
X38732457Y-131265976D01*
X38732457Y-131265976D02*
X38875314Y-131265976D01*
X38875314Y-131265976D02*
X38970552Y-131313595D01*
X38970552Y-131313595D02*
X39018171Y-131361214D01*
X39018171Y-131361214D02*
X39065790Y-131456452D01*
X39065790Y-131456452D02*
X39065790Y-131742166D01*
X39065790Y-131742166D02*
X39018171Y-131837404D01*
X39018171Y-131837404D02*
X38970552Y-131885024D01*
X38970552Y-131885024D02*
X38875314Y-131932643D01*
X38875314Y-131932643D02*
X38732457Y-131932643D01*
X39399124Y-131265976D02*
X39637219Y-131932643D01*
X39637219Y-131932643D02*
X39875314Y-131265976D01*
X40684838Y-131932643D02*
X40684838Y-131408833D01*
X40684838Y-131408833D02*
X40637219Y-131313595D01*
X40637219Y-131313595D02*
X40541981Y-131265976D01*
X40541981Y-131265976D02*
X40351505Y-131265976D01*
X40351505Y-131265976D02*
X40256267Y-131313595D01*
X40684838Y-131885024D02*
X40589600Y-131932643D01*
X40589600Y-131932643D02*
X40351505Y-131932643D01*
X40351505Y-131932643D02*
X40256267Y-131885024D01*
X40256267Y-131885024D02*
X40208648Y-131789785D01*
X40208648Y-131789785D02*
X40208648Y-131694547D01*
X40208648Y-131694547D02*
X40256267Y-131599309D01*
X40256267Y-131599309D02*
X40351505Y-131551690D01*
X40351505Y-131551690D02*
X40589600Y-131551690D01*
X40589600Y-131551690D02*
X40684838Y-131504071D01*
X41161029Y-131265976D02*
X41161029Y-131932643D01*
X41161029Y-131361214D02*
X41208648Y-131313595D01*
X41208648Y-131313595D02*
X41303886Y-131265976D01*
X41303886Y-131265976D02*
X41446743Y-131265976D01*
X41446743Y-131265976D02*
X41541981Y-131313595D01*
X41541981Y-131313595D02*
X41589600Y-131408833D01*
X41589600Y-131408833D02*
X41589600Y-131932643D01*
X43161029Y-131408833D02*
X43303886Y-131456452D01*
X43303886Y-131456452D02*
X43351505Y-131504071D01*
X43351505Y-131504071D02*
X43399124Y-131599309D01*
X43399124Y-131599309D02*
X43399124Y-131742166D01*
X43399124Y-131742166D02*
X43351505Y-131837404D01*
X43351505Y-131837404D02*
X43303886Y-131885024D01*
X43303886Y-131885024D02*
X43208648Y-131932643D01*
X43208648Y-131932643D02*
X42827696Y-131932643D01*
X42827696Y-131932643D02*
X42827696Y-130932643D01*
X42827696Y-130932643D02*
X43161029Y-130932643D01*
X43161029Y-130932643D02*
X43256267Y-130980262D01*
X43256267Y-130980262D02*
X43303886Y-131027881D01*
X43303886Y-131027881D02*
X43351505Y-131123119D01*
X43351505Y-131123119D02*
X43351505Y-131218357D01*
X43351505Y-131218357D02*
X43303886Y-131313595D01*
X43303886Y-131313595D02*
X43256267Y-131361214D01*
X43256267Y-131361214D02*
X43161029Y-131408833D01*
X43161029Y-131408833D02*
X42827696Y-131408833D01*
X43827696Y-131932643D02*
X43827696Y-131265976D01*
X43827696Y-131456452D02*
X43875315Y-131361214D01*
X43875315Y-131361214D02*
X43922934Y-131313595D01*
X43922934Y-131313595D02*
X44018172Y-131265976D01*
X44018172Y-131265976D02*
X44113410Y-131265976D01*
X44827696Y-131885024D02*
X44732458Y-131932643D01*
X44732458Y-131932643D02*
X44541982Y-131932643D01*
X44541982Y-131932643D02*
X44446744Y-131885024D01*
X44446744Y-131885024D02*
X44399125Y-131789785D01*
X44399125Y-131789785D02*
X44399125Y-131408833D01*
X44399125Y-131408833D02*
X44446744Y-131313595D01*
X44446744Y-131313595D02*
X44541982Y-131265976D01*
X44541982Y-131265976D02*
X44732458Y-131265976D01*
X44732458Y-131265976D02*
X44827696Y-131313595D01*
X44827696Y-131313595D02*
X44875315Y-131408833D01*
X44875315Y-131408833D02*
X44875315Y-131504071D01*
X44875315Y-131504071D02*
X44399125Y-131599309D01*
X45303887Y-131265976D02*
X45303887Y-131932643D01*
X45303887Y-131361214D02*
X45351506Y-131313595D01*
X45351506Y-131313595D02*
X45446744Y-131265976D01*
X45446744Y-131265976D02*
X45589601Y-131265976D01*
X45589601Y-131265976D02*
X45684839Y-131313595D01*
X45684839Y-131313595D02*
X45732458Y-131408833D01*
X45732458Y-131408833D02*
X45732458Y-131932643D01*
X46208649Y-131265976D02*
X46208649Y-131932643D01*
X46208649Y-131361214D02*
X46256268Y-131313595D01*
X46256268Y-131313595D02*
X46351506Y-131265976D01*
X46351506Y-131265976D02*
X46494363Y-131265976D01*
X46494363Y-131265976D02*
X46589601Y-131313595D01*
X46589601Y-131313595D02*
X46637220Y-131408833D01*
X46637220Y-131408833D02*
X46637220Y-131932643D01*
X47018173Y-131265976D02*
X47256268Y-131932643D01*
X47494363Y-131265976D02*
X47256268Y-131932643D01*
X47256268Y-131932643D02*
X47161030Y-132170738D01*
X47161030Y-132170738D02*
X47113411Y-132218357D01*
X47113411Y-132218357D02*
X47018173Y-132265976D01*
X26161027Y-134152531D02*
X26494360Y-135152531D01*
X26494360Y-135152531D02*
X26827693Y-134152531D01*
X27541979Y-135104912D02*
X27446741Y-135152531D01*
X27446741Y-135152531D02*
X27256265Y-135152531D01*
X27256265Y-135152531D02*
X27161027Y-135104912D01*
X27161027Y-135104912D02*
X27113408Y-135009673D01*
X27113408Y-135009673D02*
X27113408Y-134628721D01*
X27113408Y-134628721D02*
X27161027Y-134533483D01*
X27161027Y-134533483D02*
X27256265Y-134485864D01*
X27256265Y-134485864D02*
X27446741Y-134485864D01*
X27446741Y-134485864D02*
X27541979Y-134533483D01*
X27541979Y-134533483D02*
X27589598Y-134628721D01*
X27589598Y-134628721D02*
X27589598Y-134723959D01*
X27589598Y-134723959D02*
X27113408Y-134819197D01*
X28018170Y-135152531D02*
X28018170Y-134485864D01*
X28018170Y-134676340D02*
X28065789Y-134581102D01*
X28065789Y-134581102D02*
X28113408Y-134533483D01*
X28113408Y-134533483D02*
X28208646Y-134485864D01*
X28208646Y-134485864D02*
X28303884Y-134485864D01*
X28589599Y-135104912D02*
X28684837Y-135152531D01*
X28684837Y-135152531D02*
X28875313Y-135152531D01*
X28875313Y-135152531D02*
X28970551Y-135104912D01*
X28970551Y-135104912D02*
X29018170Y-135009673D01*
X29018170Y-135009673D02*
X29018170Y-134962054D01*
X29018170Y-134962054D02*
X28970551Y-134866816D01*
X28970551Y-134866816D02*
X28875313Y-134819197D01*
X28875313Y-134819197D02*
X28732456Y-134819197D01*
X28732456Y-134819197D02*
X28637218Y-134771578D01*
X28637218Y-134771578D02*
X28589599Y-134676340D01*
X28589599Y-134676340D02*
X28589599Y-134628721D01*
X28589599Y-134628721D02*
X28637218Y-134533483D01*
X28637218Y-134533483D02*
X28732456Y-134485864D01*
X28732456Y-134485864D02*
X28875313Y-134485864D01*
X28875313Y-134485864D02*
X28970551Y-134533483D01*
X29446742Y-135152531D02*
X29446742Y-134485864D01*
X29446742Y-134152531D02*
X29399123Y-134200150D01*
X29399123Y-134200150D02*
X29446742Y-134247769D01*
X29446742Y-134247769D02*
X29494361Y-134200150D01*
X29494361Y-134200150D02*
X29446742Y-134152531D01*
X29446742Y-134152531D02*
X29446742Y-134247769D01*
X30065789Y-135152531D02*
X29970551Y-135104912D01*
X29970551Y-135104912D02*
X29922932Y-135057292D01*
X29922932Y-135057292D02*
X29875313Y-134962054D01*
X29875313Y-134962054D02*
X29875313Y-134676340D01*
X29875313Y-134676340D02*
X29922932Y-134581102D01*
X29922932Y-134581102D02*
X29970551Y-134533483D01*
X29970551Y-134533483D02*
X30065789Y-134485864D01*
X30065789Y-134485864D02*
X30208646Y-134485864D01*
X30208646Y-134485864D02*
X30303884Y-134533483D01*
X30303884Y-134533483D02*
X30351503Y-134581102D01*
X30351503Y-134581102D02*
X30399122Y-134676340D01*
X30399122Y-134676340D02*
X30399122Y-134962054D01*
X30399122Y-134962054D02*
X30351503Y-135057292D01*
X30351503Y-135057292D02*
X30303884Y-135104912D01*
X30303884Y-135104912D02*
X30208646Y-135152531D01*
X30208646Y-135152531D02*
X30065789Y-135152531D01*
X30827694Y-134485864D02*
X30827694Y-135152531D01*
X30827694Y-134581102D02*
X30875313Y-134533483D01*
X30875313Y-134533483D02*
X30970551Y-134485864D01*
X30970551Y-134485864D02*
X31113408Y-134485864D01*
X31113408Y-134485864D02*
X31208646Y-134533483D01*
X31208646Y-134533483D02*
X31256265Y-134628721D01*
X31256265Y-134628721D02*
X31256265Y-135152531D01*
X33018170Y-135152531D02*
X32446742Y-135152531D01*
X32732456Y-135152531D02*
X32732456Y-134152531D01*
X32732456Y-134152531D02*
X32637218Y-134295388D01*
X32637218Y-134295388D02*
X32541980Y-134390626D01*
X32541980Y-134390626D02*
X32446742Y-134438245D01*
X33446742Y-135057292D02*
X33494361Y-135104912D01*
X33494361Y-135104912D02*
X33446742Y-135152531D01*
X33446742Y-135152531D02*
X33399123Y-135104912D01*
X33399123Y-135104912D02*
X33446742Y-135057292D01*
X33446742Y-135057292D02*
X33446742Y-135152531D01*
X34113408Y-134152531D02*
X34208646Y-134152531D01*
X34208646Y-134152531D02*
X34303884Y-134200150D01*
X34303884Y-134200150D02*
X34351503Y-134247769D01*
X34351503Y-134247769D02*
X34399122Y-134343007D01*
X34399122Y-134343007D02*
X34446741Y-134533483D01*
X34446741Y-134533483D02*
X34446741Y-134771578D01*
X34446741Y-134771578D02*
X34399122Y-134962054D01*
X34399122Y-134962054D02*
X34351503Y-135057292D01*
X34351503Y-135057292D02*
X34303884Y-135104912D01*
X34303884Y-135104912D02*
X34208646Y-135152531D01*
X34208646Y-135152531D02*
X34113408Y-135152531D01*
X34113408Y-135152531D02*
X34018170Y-135104912D01*
X34018170Y-135104912D02*
X33970551Y-135057292D01*
X33970551Y-135057292D02*
X33922932Y-134962054D01*
X33922932Y-134962054D02*
X33875313Y-134771578D01*
X33875313Y-134771578D02*
X33875313Y-134533483D01*
X33875313Y-134533483D02*
X33922932Y-134343007D01*
X33922932Y-134343007D02*
X33970551Y-134247769D01*
X33970551Y-134247769D02*
X34018170Y-134200150D01*
X34018170Y-134200150D02*
X34113408Y-134152531D01*
X26494360Y-137372419D02*
X26589598Y-137372419D01*
X26589598Y-137372419D02*
X26684836Y-137420038D01*
X26684836Y-137420038D02*
X26732455Y-137467657D01*
X26732455Y-137467657D02*
X26780074Y-137562895D01*
X26780074Y-137562895D02*
X26827693Y-137753371D01*
X26827693Y-137753371D02*
X26827693Y-137991466D01*
X26827693Y-137991466D02*
X26780074Y-138181942D01*
X26780074Y-138181942D02*
X26732455Y-138277180D01*
X26732455Y-138277180D02*
X26684836Y-138324800D01*
X26684836Y-138324800D02*
X26589598Y-138372419D01*
X26589598Y-138372419D02*
X26494360Y-138372419D01*
X26494360Y-138372419D02*
X26399122Y-138324800D01*
X26399122Y-138324800D02*
X26351503Y-138277180D01*
X26351503Y-138277180D02*
X26303884Y-138181942D01*
X26303884Y-138181942D02*
X26256265Y-137991466D01*
X26256265Y-137991466D02*
X26256265Y-137753371D01*
X26256265Y-137753371D02*
X26303884Y-137562895D01*
X26303884Y-137562895D02*
X26351503Y-137467657D01*
X26351503Y-137467657D02*
X26399122Y-137420038D01*
X26399122Y-137420038D02*
X26494360Y-137372419D01*
X27732455Y-137372419D02*
X27256265Y-137372419D01*
X27256265Y-137372419D02*
X27208646Y-137848609D01*
X27208646Y-137848609D02*
X27256265Y-137800990D01*
X27256265Y-137800990D02*
X27351503Y-137753371D01*
X27351503Y-137753371D02*
X27589598Y-137753371D01*
X27589598Y-137753371D02*
X27684836Y-137800990D01*
X27684836Y-137800990D02*
X27732455Y-137848609D01*
X27732455Y-137848609D02*
X27780074Y-137943847D01*
X27780074Y-137943847D02*
X27780074Y-138181942D01*
X27780074Y-138181942D02*
X27732455Y-138277180D01*
X27732455Y-138277180D02*
X27684836Y-138324800D01*
X27684836Y-138324800D02*
X27589598Y-138372419D01*
X27589598Y-138372419D02*
X27351503Y-138372419D01*
X27351503Y-138372419D02*
X27256265Y-138324800D01*
X27256265Y-138324800D02*
X27208646Y-138277180D01*
X28922931Y-137324800D02*
X28065789Y-138610514D01*
X29208646Y-137467657D02*
X29256265Y-137420038D01*
X29256265Y-137420038D02*
X29351503Y-137372419D01*
X29351503Y-137372419D02*
X29589598Y-137372419D01*
X29589598Y-137372419D02*
X29684836Y-137420038D01*
X29684836Y-137420038D02*
X29732455Y-137467657D01*
X29732455Y-137467657D02*
X29780074Y-137562895D01*
X29780074Y-137562895D02*
X29780074Y-137658133D01*
X29780074Y-137658133D02*
X29732455Y-137800990D01*
X29732455Y-137800990D02*
X29161027Y-138372419D01*
X29161027Y-138372419D02*
X29780074Y-138372419D01*
X30256265Y-138372419D02*
X30446741Y-138372419D01*
X30446741Y-138372419D02*
X30541979Y-138324800D01*
X30541979Y-138324800D02*
X30589598Y-138277180D01*
X30589598Y-138277180D02*
X30684836Y-138134323D01*
X30684836Y-138134323D02*
X30732455Y-137943847D01*
X30732455Y-137943847D02*
X30732455Y-137562895D01*
X30732455Y-137562895D02*
X30684836Y-137467657D01*
X30684836Y-137467657D02*
X30637217Y-137420038D01*
X30637217Y-137420038D02*
X30541979Y-137372419D01*
X30541979Y-137372419D02*
X30351503Y-137372419D01*
X30351503Y-137372419D02*
X30256265Y-137420038D01*
X30256265Y-137420038D02*
X30208646Y-137467657D01*
X30208646Y-137467657D02*
X30161027Y-137562895D01*
X30161027Y-137562895D02*
X30161027Y-137800990D01*
X30161027Y-137800990D02*
X30208646Y-137896228D01*
X30208646Y-137896228D02*
X30256265Y-137943847D01*
X30256265Y-137943847D02*
X30351503Y-137991466D01*
X30351503Y-137991466D02*
X30541979Y-137991466D01*
X30541979Y-137991466D02*
X30637217Y-137943847D01*
X30637217Y-137943847D02*
X30684836Y-137896228D01*
X30684836Y-137896228D02*
X30732455Y-137800990D01*
X31875312Y-137324800D02*
X31018170Y-138610514D01*
X32161027Y-137467657D02*
X32208646Y-137420038D01*
X32208646Y-137420038D02*
X32303884Y-137372419D01*
X32303884Y-137372419D02*
X32541979Y-137372419D01*
X32541979Y-137372419D02*
X32637217Y-137420038D01*
X32637217Y-137420038D02*
X32684836Y-137467657D01*
X32684836Y-137467657D02*
X32732455Y-137562895D01*
X32732455Y-137562895D02*
X32732455Y-137658133D01*
X32732455Y-137658133D02*
X32684836Y-137800990D01*
X32684836Y-137800990D02*
X32113408Y-138372419D01*
X32113408Y-138372419D02*
X32732455Y-138372419D01*
X33351503Y-137372419D02*
X33446741Y-137372419D01*
X33446741Y-137372419D02*
X33541979Y-137420038D01*
X33541979Y-137420038D02*
X33589598Y-137467657D01*
X33589598Y-137467657D02*
X33637217Y-137562895D01*
X33637217Y-137562895D02*
X33684836Y-137753371D01*
X33684836Y-137753371D02*
X33684836Y-137991466D01*
X33684836Y-137991466D02*
X33637217Y-138181942D01*
X33637217Y-138181942D02*
X33589598Y-138277180D01*
X33589598Y-138277180D02*
X33541979Y-138324800D01*
X33541979Y-138324800D02*
X33446741Y-138372419D01*
X33446741Y-138372419D02*
X33351503Y-138372419D01*
X33351503Y-138372419D02*
X33256265Y-138324800D01*
X33256265Y-138324800D02*
X33208646Y-138277180D01*
X33208646Y-138277180D02*
X33161027Y-138181942D01*
X33161027Y-138181942D02*
X33113408Y-137991466D01*
X33113408Y-137991466D02*
X33113408Y-137753371D01*
X33113408Y-137753371D02*
X33161027Y-137562895D01*
X33161027Y-137562895D02*
X33208646Y-137467657D01*
X33208646Y-137467657D02*
X33256265Y-137420038D01*
X33256265Y-137420038D02*
X33351503Y-137372419D01*
X34065789Y-137467657D02*
X34113408Y-137420038D01*
X34113408Y-137420038D02*
X34208646Y-137372419D01*
X34208646Y-137372419D02*
X34446741Y-137372419D01*
X34446741Y-137372419D02*
X34541979Y-137420038D01*
X34541979Y-137420038D02*
X34589598Y-137467657D01*
X34589598Y-137467657D02*
X34637217Y-137562895D01*
X34637217Y-137562895D02*
X34637217Y-137658133D01*
X34637217Y-137658133D02*
X34589598Y-137800990D01*
X34589598Y-137800990D02*
X34018170Y-138372419D01*
X34018170Y-138372419D02*
X34637217Y-138372419D01*
X35494360Y-137372419D02*
X35303884Y-137372419D01*
X35303884Y-137372419D02*
X35208646Y-137420038D01*
X35208646Y-137420038D02*
X35161027Y-137467657D01*
X35161027Y-137467657D02*
X35065789Y-137610514D01*
X35065789Y-137610514D02*
X35018170Y-137800990D01*
X35018170Y-137800990D02*
X35018170Y-138181942D01*
X35018170Y-138181942D02*
X35065789Y-138277180D01*
X35065789Y-138277180D02*
X35113408Y-138324800D01*
X35113408Y-138324800D02*
X35208646Y-138372419D01*
X35208646Y-138372419D02*
X35399122Y-138372419D01*
X35399122Y-138372419D02*
X35494360Y-138324800D01*
X35494360Y-138324800D02*
X35541979Y-138277180D01*
X35541979Y-138277180D02*
X35589598Y-138181942D01*
X35589598Y-138181942D02*
X35589598Y-137943847D01*
X35589598Y-137943847D02*
X35541979Y-137848609D01*
X35541979Y-137848609D02*
X35494360Y-137800990D01*
X35494360Y-137800990D02*
X35399122Y-137753371D01*
X35399122Y-137753371D02*
X35208646Y-137753371D01*
X35208646Y-137753371D02*
X35113408Y-137800990D01*
X35113408Y-137800990D02*
X35065789Y-137848609D01*
X35065789Y-137848609D02*
X35018170Y-137943847D01*
D11*
X240904761Y-31240057D02*
X240809523Y-31192438D01*
X240809523Y-31192438D02*
X240714285Y-31097200D01*
X240714285Y-31097200D02*
X240571428Y-30954342D01*
X240571428Y-30954342D02*
X240476190Y-30906723D01*
X240476190Y-30906723D02*
X240380952Y-30906723D01*
X240428571Y-31144819D02*
X240333333Y-31097200D01*
X240333333Y-31097200D02*
X240238095Y-31001961D01*
X240238095Y-31001961D02*
X240190476Y-30811485D01*
X240190476Y-30811485D02*
X240190476Y-30478152D01*
X240190476Y-30478152D02*
X240238095Y-30287676D01*
X240238095Y-30287676D02*
X240333333Y-30192438D01*
X240333333Y-30192438D02*
X240428571Y-30144819D01*
X240428571Y-30144819D02*
X240619047Y-30144819D01*
X240619047Y-30144819D02*
X240714285Y-30192438D01*
X240714285Y-30192438D02*
X240809523Y-30287676D01*
X240809523Y-30287676D02*
X240857142Y-30478152D01*
X240857142Y-30478152D02*
X240857142Y-30811485D01*
X240857142Y-30811485D02*
X240809523Y-31001961D01*
X240809523Y-31001961D02*
X240714285Y-31097200D01*
X240714285Y-31097200D02*
X240619047Y-31144819D01*
X240619047Y-31144819D02*
X240428571Y-31144819D01*
X241809523Y-31144819D02*
X241238095Y-31144819D01*
X241523809Y-31144819D02*
X241523809Y-30144819D01*
X241523809Y-30144819D02*
X241428571Y-30287676D01*
X241428571Y-30287676D02*
X241333333Y-30382914D01*
X241333333Y-30382914D02*
X241238095Y-30430533D01*
X92844819Y-33333333D02*
X93559104Y-33333333D01*
X93559104Y-33333333D02*
X93701961Y-33380952D01*
X93701961Y-33380952D02*
X93797200Y-33476190D01*
X93797200Y-33476190D02*
X93844819Y-33619047D01*
X93844819Y-33619047D02*
X93844819Y-33714285D01*
X92844819Y-32380952D02*
X92844819Y-32857142D01*
X92844819Y-32857142D02*
X93321009Y-32904761D01*
X93321009Y-32904761D02*
X93273390Y-32857142D01*
X93273390Y-32857142D02*
X93225771Y-32761904D01*
X93225771Y-32761904D02*
X93225771Y-32523809D01*
X93225771Y-32523809D02*
X93273390Y-32428571D01*
X93273390Y-32428571D02*
X93321009Y-32380952D01*
X93321009Y-32380952D02*
X93416247Y-32333333D01*
X93416247Y-32333333D02*
X93654342Y-32333333D01*
X93654342Y-32333333D02*
X93749580Y-32380952D01*
X93749580Y-32380952D02*
X93797200Y-32428571D01*
X93797200Y-32428571D02*
X93844819Y-32523809D01*
X93844819Y-32523809D02*
X93844819Y-32761904D01*
X93844819Y-32761904D02*
X93797200Y-32857142D01*
X93797200Y-32857142D02*
X93749580Y-32904761D01*
X167784819Y-47571904D02*
X168594342Y-47571904D01*
X168594342Y-47571904D02*
X168689580Y-47524285D01*
X168689580Y-47524285D02*
X168737200Y-47476666D01*
X168737200Y-47476666D02*
X168784819Y-47381428D01*
X168784819Y-47381428D02*
X168784819Y-47190952D01*
X168784819Y-47190952D02*
X168737200Y-47095714D01*
X168737200Y-47095714D02*
X168689580Y-47048095D01*
X168689580Y-47048095D02*
X168594342Y-47000476D01*
X168594342Y-47000476D02*
X167784819Y-47000476D01*
X168784819Y-46000476D02*
X168784819Y-46571904D01*
X168784819Y-46286190D02*
X167784819Y-46286190D01*
X167784819Y-46286190D02*
X167927676Y-46381428D01*
X167927676Y-46381428D02*
X168022914Y-46476666D01*
X168022914Y-46476666D02*
X168070533Y-46571904D01*
X251857142Y-34074819D02*
X251380952Y-34074819D01*
X251380952Y-34074819D02*
X251380952Y-33074819D01*
X252142857Y-34027200D02*
X252285714Y-34074819D01*
X252285714Y-34074819D02*
X252523809Y-34074819D01*
X252523809Y-34074819D02*
X252619047Y-34027200D01*
X252619047Y-34027200D02*
X252666666Y-33979580D01*
X252666666Y-33979580D02*
X252714285Y-33884342D01*
X252714285Y-33884342D02*
X252714285Y-33789104D01*
X252714285Y-33789104D02*
X252666666Y-33693866D01*
X252666666Y-33693866D02*
X252619047Y-33646247D01*
X252619047Y-33646247D02*
X252523809Y-33598628D01*
X252523809Y-33598628D02*
X252333333Y-33551009D01*
X252333333Y-33551009D02*
X252238095Y-33503390D01*
X252238095Y-33503390D02*
X252190476Y-33455771D01*
X252190476Y-33455771D02*
X252142857Y-33360533D01*
X252142857Y-33360533D02*
X252142857Y-33265295D01*
X252142857Y-33265295D02*
X252190476Y-33170057D01*
X252190476Y-33170057D02*
X252238095Y-33122438D01*
X252238095Y-33122438D02*
X252333333Y-33074819D01*
X252333333Y-33074819D02*
X252571428Y-33074819D01*
X252571428Y-33074819D02*
X252714285Y-33122438D01*
X253666666Y-34074819D02*
X253095238Y-34074819D01*
X253380952Y-34074819D02*
X253380952Y-33074819D01*
X253380952Y-33074819D02*
X253285714Y-33217676D01*
X253285714Y-33217676D02*
X253190476Y-33312914D01*
X253190476Y-33312914D02*
X253095238Y-33360533D01*
X163859580Y-55666666D02*
X163907200Y-55714285D01*
X163907200Y-55714285D02*
X163954819Y-55857142D01*
X163954819Y-55857142D02*
X163954819Y-55952380D01*
X163954819Y-55952380D02*
X163907200Y-56095237D01*
X163907200Y-56095237D02*
X163811961Y-56190475D01*
X163811961Y-56190475D02*
X163716723Y-56238094D01*
X163716723Y-56238094D02*
X163526247Y-56285713D01*
X163526247Y-56285713D02*
X163383390Y-56285713D01*
X163383390Y-56285713D02*
X163192914Y-56238094D01*
X163192914Y-56238094D02*
X163097676Y-56190475D01*
X163097676Y-56190475D02*
X163002438Y-56095237D01*
X163002438Y-56095237D02*
X162954819Y-55952380D01*
X162954819Y-55952380D02*
X162954819Y-55857142D01*
X162954819Y-55857142D02*
X163002438Y-55714285D01*
X163002438Y-55714285D02*
X163050057Y-55666666D01*
X162954819Y-55333332D02*
X162954819Y-54714285D01*
X162954819Y-54714285D02*
X163335771Y-55047618D01*
X163335771Y-55047618D02*
X163335771Y-54904761D01*
X163335771Y-54904761D02*
X163383390Y-54809523D01*
X163383390Y-54809523D02*
X163431009Y-54761904D01*
X163431009Y-54761904D02*
X163526247Y-54714285D01*
X163526247Y-54714285D02*
X163764342Y-54714285D01*
X163764342Y-54714285D02*
X163859580Y-54761904D01*
X163859580Y-54761904D02*
X163907200Y-54809523D01*
X163907200Y-54809523D02*
X163954819Y-54904761D01*
X163954819Y-54904761D02*
X163954819Y-55190475D01*
X163954819Y-55190475D02*
X163907200Y-55285713D01*
X163907200Y-55285713D02*
X163859580Y-55333332D01*
X216916667Y-116407200D02*
X217059524Y-116454819D01*
X217059524Y-116454819D02*
X217297619Y-116454819D01*
X217297619Y-116454819D02*
X217392857Y-116407200D01*
X217392857Y-116407200D02*
X217440476Y-116359580D01*
X217440476Y-116359580D02*
X217488095Y-116264342D01*
X217488095Y-116264342D02*
X217488095Y-116169104D01*
X217488095Y-116169104D02*
X217440476Y-116073866D01*
X217440476Y-116073866D02*
X217392857Y-116026247D01*
X217392857Y-116026247D02*
X217297619Y-115978628D01*
X217297619Y-115978628D02*
X217107143Y-115931009D01*
X217107143Y-115931009D02*
X217011905Y-115883390D01*
X217011905Y-115883390D02*
X216964286Y-115835771D01*
X216964286Y-115835771D02*
X216916667Y-115740533D01*
X216916667Y-115740533D02*
X216916667Y-115645295D01*
X216916667Y-115645295D02*
X216964286Y-115550057D01*
X216964286Y-115550057D02*
X217011905Y-115502438D01*
X217011905Y-115502438D02*
X217107143Y-115454819D01*
X217107143Y-115454819D02*
X217345238Y-115454819D01*
X217345238Y-115454819D02*
X217488095Y-115502438D01*
X217821429Y-115454819D02*
X218059524Y-116454819D01*
X218059524Y-116454819D02*
X218250000Y-115740533D01*
X218250000Y-115740533D02*
X218440476Y-116454819D01*
X218440476Y-116454819D02*
X218678572Y-115454819D01*
X219011905Y-115550057D02*
X219059524Y-115502438D01*
X219059524Y-115502438D02*
X219154762Y-115454819D01*
X219154762Y-115454819D02*
X219392857Y-115454819D01*
X219392857Y-115454819D02*
X219488095Y-115502438D01*
X219488095Y-115502438D02*
X219535714Y-115550057D01*
X219535714Y-115550057D02*
X219583333Y-115645295D01*
X219583333Y-115645295D02*
X219583333Y-115740533D01*
X219583333Y-115740533D02*
X219535714Y-115883390D01*
X219535714Y-115883390D02*
X218964286Y-116454819D01*
X218964286Y-116454819D02*
X219583333Y-116454819D01*
X190416667Y-116407200D02*
X190559524Y-116454819D01*
X190559524Y-116454819D02*
X190797619Y-116454819D01*
X190797619Y-116454819D02*
X190892857Y-116407200D01*
X190892857Y-116407200D02*
X190940476Y-116359580D01*
X190940476Y-116359580D02*
X190988095Y-116264342D01*
X190988095Y-116264342D02*
X190988095Y-116169104D01*
X190988095Y-116169104D02*
X190940476Y-116073866D01*
X190940476Y-116073866D02*
X190892857Y-116026247D01*
X190892857Y-116026247D02*
X190797619Y-115978628D01*
X190797619Y-115978628D02*
X190607143Y-115931009D01*
X190607143Y-115931009D02*
X190511905Y-115883390D01*
X190511905Y-115883390D02*
X190464286Y-115835771D01*
X190464286Y-115835771D02*
X190416667Y-115740533D01*
X190416667Y-115740533D02*
X190416667Y-115645295D01*
X190416667Y-115645295D02*
X190464286Y-115550057D01*
X190464286Y-115550057D02*
X190511905Y-115502438D01*
X190511905Y-115502438D02*
X190607143Y-115454819D01*
X190607143Y-115454819D02*
X190845238Y-115454819D01*
X190845238Y-115454819D02*
X190988095Y-115502438D01*
X191321429Y-115454819D02*
X191559524Y-116454819D01*
X191559524Y-116454819D02*
X191750000Y-115740533D01*
X191750000Y-115740533D02*
X191940476Y-116454819D01*
X191940476Y-116454819D02*
X192178572Y-115454819D01*
X193083333Y-116454819D02*
X192511905Y-116454819D01*
X192797619Y-116454819D02*
X192797619Y-115454819D01*
X192797619Y-115454819D02*
X192702381Y-115597676D01*
X192702381Y-115597676D02*
X192607143Y-115692914D01*
X192607143Y-115692914D02*
X192511905Y-115740533D01*
X237904761Y-77454819D02*
X237571428Y-76978628D01*
X237333333Y-77454819D02*
X237333333Y-76454819D01*
X237333333Y-76454819D02*
X237714285Y-76454819D01*
X237714285Y-76454819D02*
X237809523Y-76502438D01*
X237809523Y-76502438D02*
X237857142Y-76550057D01*
X237857142Y-76550057D02*
X237904761Y-76645295D01*
X237904761Y-76645295D02*
X237904761Y-76788152D01*
X237904761Y-76788152D02*
X237857142Y-76883390D01*
X237857142Y-76883390D02*
X237809523Y-76931009D01*
X237809523Y-76931009D02*
X237714285Y-76978628D01*
X237714285Y-76978628D02*
X237333333Y-76978628D01*
X238190476Y-76454819D02*
X238523809Y-77454819D01*
X238523809Y-77454819D02*
X238857142Y-76454819D01*
X239714285Y-77454819D02*
X239142857Y-77454819D01*
X239428571Y-77454819D02*
X239428571Y-76454819D01*
X239428571Y-76454819D02*
X239333333Y-76597676D01*
X239333333Y-76597676D02*
X239238095Y-76692914D01*
X239238095Y-76692914D02*
X239142857Y-76740533D01*
X218253333Y-81084819D02*
X217920000Y-80608628D01*
X217681905Y-81084819D02*
X217681905Y-80084819D01*
X217681905Y-80084819D02*
X218062857Y-80084819D01*
X218062857Y-80084819D02*
X218158095Y-80132438D01*
X218158095Y-80132438D02*
X218205714Y-80180057D01*
X218205714Y-80180057D02*
X218253333Y-80275295D01*
X218253333Y-80275295D02*
X218253333Y-80418152D01*
X218253333Y-80418152D02*
X218205714Y-80513390D01*
X218205714Y-80513390D02*
X218158095Y-80561009D01*
X218158095Y-80561009D02*
X218062857Y-80608628D01*
X218062857Y-80608628D02*
X217681905Y-80608628D01*
X219158095Y-80084819D02*
X218681905Y-80084819D01*
X218681905Y-80084819D02*
X218634286Y-80561009D01*
X218634286Y-80561009D02*
X218681905Y-80513390D01*
X218681905Y-80513390D02*
X218777143Y-80465771D01*
X218777143Y-80465771D02*
X219015238Y-80465771D01*
X219015238Y-80465771D02*
X219110476Y-80513390D01*
X219110476Y-80513390D02*
X219158095Y-80561009D01*
X219158095Y-80561009D02*
X219205714Y-80656247D01*
X219205714Y-80656247D02*
X219205714Y-80894342D01*
X219205714Y-80894342D02*
X219158095Y-80989580D01*
X219158095Y-80989580D02*
X219110476Y-81037200D01*
X219110476Y-81037200D02*
X219015238Y-81084819D01*
X219015238Y-81084819D02*
X218777143Y-81084819D01*
X218777143Y-81084819D02*
X218681905Y-81037200D01*
X218681905Y-81037200D02*
X218634286Y-80989580D01*
X243824819Y-60406666D02*
X243348628Y-60739999D01*
X243824819Y-60978094D02*
X242824819Y-60978094D01*
X242824819Y-60978094D02*
X242824819Y-60597142D01*
X242824819Y-60597142D02*
X242872438Y-60501904D01*
X242872438Y-60501904D02*
X242920057Y-60454285D01*
X242920057Y-60454285D02*
X243015295Y-60406666D01*
X243015295Y-60406666D02*
X243158152Y-60406666D01*
X243158152Y-60406666D02*
X243253390Y-60454285D01*
X243253390Y-60454285D02*
X243301009Y-60501904D01*
X243301009Y-60501904D02*
X243348628Y-60597142D01*
X243348628Y-60597142D02*
X243348628Y-60978094D01*
X243158152Y-59549523D02*
X243824819Y-59549523D01*
X242777200Y-59787618D02*
X243491485Y-60025713D01*
X243491485Y-60025713D02*
X243491485Y-59406666D01*
X250584819Y-70901666D02*
X250108628Y-71234999D01*
X250584819Y-71473094D02*
X249584819Y-71473094D01*
X249584819Y-71473094D02*
X249584819Y-71092142D01*
X249584819Y-71092142D02*
X249632438Y-70996904D01*
X249632438Y-70996904D02*
X249680057Y-70949285D01*
X249680057Y-70949285D02*
X249775295Y-70901666D01*
X249775295Y-70901666D02*
X249918152Y-70901666D01*
X249918152Y-70901666D02*
X250013390Y-70949285D01*
X250013390Y-70949285D02*
X250061009Y-70996904D01*
X250061009Y-70996904D02*
X250108628Y-71092142D01*
X250108628Y-71092142D02*
X250108628Y-71473094D01*
X249584819Y-70568332D02*
X249584819Y-69949285D01*
X249584819Y-69949285D02*
X249965771Y-70282618D01*
X249965771Y-70282618D02*
X249965771Y-70139761D01*
X249965771Y-70139761D02*
X250013390Y-70044523D01*
X250013390Y-70044523D02*
X250061009Y-69996904D01*
X250061009Y-69996904D02*
X250156247Y-69949285D01*
X250156247Y-69949285D02*
X250394342Y-69949285D01*
X250394342Y-69949285D02*
X250489580Y-69996904D01*
X250489580Y-69996904D02*
X250537200Y-70044523D01*
X250537200Y-70044523D02*
X250584819Y-70139761D01*
X250584819Y-70139761D02*
X250584819Y-70425475D01*
X250584819Y-70425475D02*
X250537200Y-70520713D01*
X250537200Y-70520713D02*
X250489580Y-70568332D01*
X250584819Y-51401666D02*
X250108628Y-51734999D01*
X250584819Y-51973094D02*
X249584819Y-51973094D01*
X249584819Y-51973094D02*
X249584819Y-51592142D01*
X249584819Y-51592142D02*
X249632438Y-51496904D01*
X249632438Y-51496904D02*
X249680057Y-51449285D01*
X249680057Y-51449285D02*
X249775295Y-51401666D01*
X249775295Y-51401666D02*
X249918152Y-51401666D01*
X249918152Y-51401666D02*
X250013390Y-51449285D01*
X250013390Y-51449285D02*
X250061009Y-51496904D01*
X250061009Y-51496904D02*
X250108628Y-51592142D01*
X250108628Y-51592142D02*
X250108628Y-51973094D01*
X249680057Y-51020713D02*
X249632438Y-50973094D01*
X249632438Y-50973094D02*
X249584819Y-50877856D01*
X249584819Y-50877856D02*
X249584819Y-50639761D01*
X249584819Y-50639761D02*
X249632438Y-50544523D01*
X249632438Y-50544523D02*
X249680057Y-50496904D01*
X249680057Y-50496904D02*
X249775295Y-50449285D01*
X249775295Y-50449285D02*
X249870533Y-50449285D01*
X249870533Y-50449285D02*
X250013390Y-50496904D01*
X250013390Y-50496904D02*
X250584819Y-51068332D01*
X250584819Y-51068332D02*
X250584819Y-50449285D01*
X168824819Y-30246666D02*
X168348628Y-30579999D01*
X168824819Y-30818094D02*
X167824819Y-30818094D01*
X167824819Y-30818094D02*
X167824819Y-30437142D01*
X167824819Y-30437142D02*
X167872438Y-30341904D01*
X167872438Y-30341904D02*
X167920057Y-30294285D01*
X167920057Y-30294285D02*
X168015295Y-30246666D01*
X168015295Y-30246666D02*
X168158152Y-30246666D01*
X168158152Y-30246666D02*
X168253390Y-30294285D01*
X168253390Y-30294285D02*
X168301009Y-30341904D01*
X168301009Y-30341904D02*
X168348628Y-30437142D01*
X168348628Y-30437142D02*
X168348628Y-30818094D01*
X168824819Y-29294285D02*
X168824819Y-29865713D01*
X168824819Y-29579999D02*
X167824819Y-29579999D01*
X167824819Y-29579999D02*
X167967676Y-29675237D01*
X167967676Y-29675237D02*
X168062914Y-29770475D01*
X168062914Y-29770475D02*
X168110533Y-29865713D01*
X80166666Y-54604819D02*
X80166666Y-55319104D01*
X80166666Y-55319104D02*
X80119047Y-55461961D01*
X80119047Y-55461961D02*
X80023809Y-55557200D01*
X80023809Y-55557200D02*
X79880952Y-55604819D01*
X79880952Y-55604819D02*
X79785714Y-55604819D01*
X81071428Y-54604819D02*
X80880952Y-54604819D01*
X80880952Y-54604819D02*
X80785714Y-54652438D01*
X80785714Y-54652438D02*
X80738095Y-54700057D01*
X80738095Y-54700057D02*
X80642857Y-54842914D01*
X80642857Y-54842914D02*
X80595238Y-55033390D01*
X80595238Y-55033390D02*
X80595238Y-55414342D01*
X80595238Y-55414342D02*
X80642857Y-55509580D01*
X80642857Y-55509580D02*
X80690476Y-55557200D01*
X80690476Y-55557200D02*
X80785714Y-55604819D01*
X80785714Y-55604819D02*
X80976190Y-55604819D01*
X80976190Y-55604819D02*
X81071428Y-55557200D01*
X81071428Y-55557200D02*
X81119047Y-55509580D01*
X81119047Y-55509580D02*
X81166666Y-55414342D01*
X81166666Y-55414342D02*
X81166666Y-55176247D01*
X81166666Y-55176247D02*
X81119047Y-55081009D01*
X81119047Y-55081009D02*
X81071428Y-55033390D01*
X81071428Y-55033390D02*
X80976190Y-54985771D01*
X80976190Y-54985771D02*
X80785714Y-54985771D01*
X80785714Y-54985771D02*
X80690476Y-55033390D01*
X80690476Y-55033390D02*
X80642857Y-55081009D01*
X80642857Y-55081009D02*
X80595238Y-55176247D01*
X159304819Y-96333333D02*
X160019104Y-96333333D01*
X160019104Y-96333333D02*
X160161961Y-96380952D01*
X160161961Y-96380952D02*
X160257200Y-96476190D01*
X160257200Y-96476190D02*
X160304819Y-96619047D01*
X160304819Y-96619047D02*
X160304819Y-96714285D01*
X159638152Y-95428571D02*
X160304819Y-95428571D01*
X159257200Y-95666666D02*
X159971485Y-95904761D01*
X159971485Y-95904761D02*
X159971485Y-95285714D01*
X250524819Y-116333333D02*
X251239104Y-116333333D01*
X251239104Y-116333333D02*
X251381961Y-116380952D01*
X251381961Y-116380952D02*
X251477200Y-116476190D01*
X251477200Y-116476190D02*
X251524819Y-116619047D01*
X251524819Y-116619047D02*
X251524819Y-116714285D01*
X250524819Y-115952380D02*
X250524819Y-115333333D01*
X250524819Y-115333333D02*
X250905771Y-115666666D01*
X250905771Y-115666666D02*
X250905771Y-115523809D01*
X250905771Y-115523809D02*
X250953390Y-115428571D01*
X250953390Y-115428571D02*
X251001009Y-115380952D01*
X251001009Y-115380952D02*
X251096247Y-115333333D01*
X251096247Y-115333333D02*
X251334342Y-115333333D01*
X251334342Y-115333333D02*
X251429580Y-115380952D01*
X251429580Y-115380952D02*
X251477200Y-115428571D01*
X251477200Y-115428571D02*
X251524819Y-115523809D01*
X251524819Y-115523809D02*
X251524819Y-115809523D01*
X251524819Y-115809523D02*
X251477200Y-115904761D01*
X251477200Y-115904761D02*
X251429580Y-115952380D01*
X79524819Y-114333333D02*
X80239104Y-114333333D01*
X80239104Y-114333333D02*
X80381961Y-114380952D01*
X80381961Y-114380952D02*
X80477200Y-114476190D01*
X80477200Y-114476190D02*
X80524819Y-114619047D01*
X80524819Y-114619047D02*
X80524819Y-114714285D01*
X79620057Y-113904761D02*
X79572438Y-113857142D01*
X79572438Y-113857142D02*
X79524819Y-113761904D01*
X79524819Y-113761904D02*
X79524819Y-113523809D01*
X79524819Y-113523809D02*
X79572438Y-113428571D01*
X79572438Y-113428571D02*
X79620057Y-113380952D01*
X79620057Y-113380952D02*
X79715295Y-113333333D01*
X79715295Y-113333333D02*
X79810533Y-113333333D01*
X79810533Y-113333333D02*
X79953390Y-113380952D01*
X79953390Y-113380952D02*
X80524819Y-113952380D01*
X80524819Y-113952380D02*
X80524819Y-113333333D01*
X114166666Y-31184819D02*
X114166666Y-31899104D01*
X114166666Y-31899104D02*
X114119047Y-32041961D01*
X114119047Y-32041961D02*
X114023809Y-32137200D01*
X114023809Y-32137200D02*
X113880952Y-32184819D01*
X113880952Y-32184819D02*
X113785714Y-32184819D01*
X115166666Y-32184819D02*
X114595238Y-32184819D01*
X114880952Y-32184819D02*
X114880952Y-31184819D01*
X114880952Y-31184819D02*
X114785714Y-31327676D01*
X114785714Y-31327676D02*
X114690476Y-31422914D01*
X114690476Y-31422914D02*
X114595238Y-31470533D01*
X62293333Y-50909580D02*
X62245714Y-50957200D01*
X62245714Y-50957200D02*
X62102857Y-51004819D01*
X62102857Y-51004819D02*
X62007619Y-51004819D01*
X62007619Y-51004819D02*
X61864762Y-50957200D01*
X61864762Y-50957200D02*
X61769524Y-50861961D01*
X61769524Y-50861961D02*
X61721905Y-50766723D01*
X61721905Y-50766723D02*
X61674286Y-50576247D01*
X61674286Y-50576247D02*
X61674286Y-50433390D01*
X61674286Y-50433390D02*
X61721905Y-50242914D01*
X61721905Y-50242914D02*
X61769524Y-50147676D01*
X61769524Y-50147676D02*
X61864762Y-50052438D01*
X61864762Y-50052438D02*
X62007619Y-50004819D01*
X62007619Y-50004819D02*
X62102857Y-50004819D01*
X62102857Y-50004819D02*
X62245714Y-50052438D01*
X62245714Y-50052438D02*
X62293333Y-50100057D01*
X62864762Y-50433390D02*
X62769524Y-50385771D01*
X62769524Y-50385771D02*
X62721905Y-50338152D01*
X62721905Y-50338152D02*
X62674286Y-50242914D01*
X62674286Y-50242914D02*
X62674286Y-50195295D01*
X62674286Y-50195295D02*
X62721905Y-50100057D01*
X62721905Y-50100057D02*
X62769524Y-50052438D01*
X62769524Y-50052438D02*
X62864762Y-50004819D01*
X62864762Y-50004819D02*
X63055238Y-50004819D01*
X63055238Y-50004819D02*
X63150476Y-50052438D01*
X63150476Y-50052438D02*
X63198095Y-50100057D01*
X63198095Y-50100057D02*
X63245714Y-50195295D01*
X63245714Y-50195295D02*
X63245714Y-50242914D01*
X63245714Y-50242914D02*
X63198095Y-50338152D01*
X63198095Y-50338152D02*
X63150476Y-50385771D01*
X63150476Y-50385771D02*
X63055238Y-50433390D01*
X63055238Y-50433390D02*
X62864762Y-50433390D01*
X62864762Y-50433390D02*
X62769524Y-50481009D01*
X62769524Y-50481009D02*
X62721905Y-50528628D01*
X62721905Y-50528628D02*
X62674286Y-50623866D01*
X62674286Y-50623866D02*
X62674286Y-50814342D01*
X62674286Y-50814342D02*
X62721905Y-50909580D01*
X62721905Y-50909580D02*
X62769524Y-50957200D01*
X62769524Y-50957200D02*
X62864762Y-51004819D01*
X62864762Y-51004819D02*
X63055238Y-51004819D01*
X63055238Y-51004819D02*
X63150476Y-50957200D01*
X63150476Y-50957200D02*
X63198095Y-50909580D01*
X63198095Y-50909580D02*
X63245714Y-50814342D01*
X63245714Y-50814342D02*
X63245714Y-50623866D01*
X63245714Y-50623866D02*
X63198095Y-50528628D01*
X63198095Y-50528628D02*
X63150476Y-50481009D01*
X63150476Y-50481009D02*
X63055238Y-50433390D01*
X61793333Y-39409580D02*
X61745714Y-39457200D01*
X61745714Y-39457200D02*
X61602857Y-39504819D01*
X61602857Y-39504819D02*
X61507619Y-39504819D01*
X61507619Y-39504819D02*
X61364762Y-39457200D01*
X61364762Y-39457200D02*
X61269524Y-39361961D01*
X61269524Y-39361961D02*
X61221905Y-39266723D01*
X61221905Y-39266723D02*
X61174286Y-39076247D01*
X61174286Y-39076247D02*
X61174286Y-38933390D01*
X61174286Y-38933390D02*
X61221905Y-38742914D01*
X61221905Y-38742914D02*
X61269524Y-38647676D01*
X61269524Y-38647676D02*
X61364762Y-38552438D01*
X61364762Y-38552438D02*
X61507619Y-38504819D01*
X61507619Y-38504819D02*
X61602857Y-38504819D01*
X61602857Y-38504819D02*
X61745714Y-38552438D01*
X61745714Y-38552438D02*
X61793333Y-38600057D01*
X62126667Y-38504819D02*
X62793333Y-38504819D01*
X62793333Y-38504819D02*
X62364762Y-39504819D01*
X97793333Y-45409580D02*
X97745714Y-45457200D01*
X97745714Y-45457200D02*
X97602857Y-45504819D01*
X97602857Y-45504819D02*
X97507619Y-45504819D01*
X97507619Y-45504819D02*
X97364762Y-45457200D01*
X97364762Y-45457200D02*
X97269524Y-45361961D01*
X97269524Y-45361961D02*
X97221905Y-45266723D01*
X97221905Y-45266723D02*
X97174286Y-45076247D01*
X97174286Y-45076247D02*
X97174286Y-44933390D01*
X97174286Y-44933390D02*
X97221905Y-44742914D01*
X97221905Y-44742914D02*
X97269524Y-44647676D01*
X97269524Y-44647676D02*
X97364762Y-44552438D01*
X97364762Y-44552438D02*
X97507619Y-44504819D01*
X97507619Y-44504819D02*
X97602857Y-44504819D01*
X97602857Y-44504819D02*
X97745714Y-44552438D01*
X97745714Y-44552438D02*
X97793333Y-44600057D01*
X98650476Y-44504819D02*
X98460000Y-44504819D01*
X98460000Y-44504819D02*
X98364762Y-44552438D01*
X98364762Y-44552438D02*
X98317143Y-44600057D01*
X98317143Y-44600057D02*
X98221905Y-44742914D01*
X98221905Y-44742914D02*
X98174286Y-44933390D01*
X98174286Y-44933390D02*
X98174286Y-45314342D01*
X98174286Y-45314342D02*
X98221905Y-45409580D01*
X98221905Y-45409580D02*
X98269524Y-45457200D01*
X98269524Y-45457200D02*
X98364762Y-45504819D01*
X98364762Y-45504819D02*
X98555238Y-45504819D01*
X98555238Y-45504819D02*
X98650476Y-45457200D01*
X98650476Y-45457200D02*
X98698095Y-45409580D01*
X98698095Y-45409580D02*
X98745714Y-45314342D01*
X98745714Y-45314342D02*
X98745714Y-45076247D01*
X98745714Y-45076247D02*
X98698095Y-44981009D01*
X98698095Y-44981009D02*
X98650476Y-44933390D01*
X98650476Y-44933390D02*
X98555238Y-44885771D01*
X98555238Y-44885771D02*
X98364762Y-44885771D01*
X98364762Y-44885771D02*
X98269524Y-44933390D01*
X98269524Y-44933390D02*
X98221905Y-44981009D01*
X98221905Y-44981009D02*
X98174286Y-45076247D01*
X232333333Y-80859580D02*
X232285714Y-80907200D01*
X232285714Y-80907200D02*
X232142857Y-80954819D01*
X232142857Y-80954819D02*
X232047619Y-80954819D01*
X232047619Y-80954819D02*
X231904762Y-80907200D01*
X231904762Y-80907200D02*
X231809524Y-80811961D01*
X231809524Y-80811961D02*
X231761905Y-80716723D01*
X231761905Y-80716723D02*
X231714286Y-80526247D01*
X231714286Y-80526247D02*
X231714286Y-80383390D01*
X231714286Y-80383390D02*
X231761905Y-80192914D01*
X231761905Y-80192914D02*
X231809524Y-80097676D01*
X231809524Y-80097676D02*
X231904762Y-80002438D01*
X231904762Y-80002438D02*
X232047619Y-79954819D01*
X232047619Y-79954819D02*
X232142857Y-79954819D01*
X232142857Y-79954819D02*
X232285714Y-80002438D01*
X232285714Y-80002438D02*
X232333333Y-80050057D01*
X233238095Y-79954819D02*
X232761905Y-79954819D01*
X232761905Y-79954819D02*
X232714286Y-80431009D01*
X232714286Y-80431009D02*
X232761905Y-80383390D01*
X232761905Y-80383390D02*
X232857143Y-80335771D01*
X232857143Y-80335771D02*
X233095238Y-80335771D01*
X233095238Y-80335771D02*
X233190476Y-80383390D01*
X233190476Y-80383390D02*
X233238095Y-80431009D01*
X233238095Y-80431009D02*
X233285714Y-80526247D01*
X233285714Y-80526247D02*
X233285714Y-80764342D01*
X233285714Y-80764342D02*
X233238095Y-80859580D01*
X233238095Y-80859580D02*
X233190476Y-80907200D01*
X233190476Y-80907200D02*
X233095238Y-80954819D01*
X233095238Y-80954819D02*
X232857143Y-80954819D01*
X232857143Y-80954819D02*
X232761905Y-80907200D01*
X232761905Y-80907200D02*
X232714286Y-80859580D01*
X224859580Y-88166666D02*
X224907200Y-88214285D01*
X224907200Y-88214285D02*
X224954819Y-88357142D01*
X224954819Y-88357142D02*
X224954819Y-88452380D01*
X224954819Y-88452380D02*
X224907200Y-88595237D01*
X224907200Y-88595237D02*
X224811961Y-88690475D01*
X224811961Y-88690475D02*
X224716723Y-88738094D01*
X224716723Y-88738094D02*
X224526247Y-88785713D01*
X224526247Y-88785713D02*
X224383390Y-88785713D01*
X224383390Y-88785713D02*
X224192914Y-88738094D01*
X224192914Y-88738094D02*
X224097676Y-88690475D01*
X224097676Y-88690475D02*
X224002438Y-88595237D01*
X224002438Y-88595237D02*
X223954819Y-88452380D01*
X223954819Y-88452380D02*
X223954819Y-88357142D01*
X223954819Y-88357142D02*
X224002438Y-88214285D01*
X224002438Y-88214285D02*
X224050057Y-88166666D01*
X224288152Y-87309523D02*
X224954819Y-87309523D01*
X223907200Y-87547618D02*
X224621485Y-87785713D01*
X224621485Y-87785713D02*
X224621485Y-87166666D01*
X133359580Y-38166666D02*
X133407200Y-38214285D01*
X133407200Y-38214285D02*
X133454819Y-38357142D01*
X133454819Y-38357142D02*
X133454819Y-38452380D01*
X133454819Y-38452380D02*
X133407200Y-38595237D01*
X133407200Y-38595237D02*
X133311961Y-38690475D01*
X133311961Y-38690475D02*
X133216723Y-38738094D01*
X133216723Y-38738094D02*
X133026247Y-38785713D01*
X133026247Y-38785713D02*
X132883390Y-38785713D01*
X132883390Y-38785713D02*
X132692914Y-38738094D01*
X132692914Y-38738094D02*
X132597676Y-38690475D01*
X132597676Y-38690475D02*
X132502438Y-38595237D01*
X132502438Y-38595237D02*
X132454819Y-38452380D01*
X132454819Y-38452380D02*
X132454819Y-38357142D01*
X132454819Y-38357142D02*
X132502438Y-38214285D01*
X132502438Y-38214285D02*
X132550057Y-38166666D01*
X132550057Y-37785713D02*
X132502438Y-37738094D01*
X132502438Y-37738094D02*
X132454819Y-37642856D01*
X132454819Y-37642856D02*
X132454819Y-37404761D01*
X132454819Y-37404761D02*
X132502438Y-37309523D01*
X132502438Y-37309523D02*
X132550057Y-37261904D01*
X132550057Y-37261904D02*
X132645295Y-37214285D01*
X132645295Y-37214285D02*
X132740533Y-37214285D01*
X132740533Y-37214285D02*
X132883390Y-37261904D01*
X132883390Y-37261904D02*
X133454819Y-37833332D01*
X133454819Y-37833332D02*
X133454819Y-37214285D01*
X147359580Y-55666666D02*
X147407200Y-55714285D01*
X147407200Y-55714285D02*
X147454819Y-55857142D01*
X147454819Y-55857142D02*
X147454819Y-55952380D01*
X147454819Y-55952380D02*
X147407200Y-56095237D01*
X147407200Y-56095237D02*
X147311961Y-56190475D01*
X147311961Y-56190475D02*
X147216723Y-56238094D01*
X147216723Y-56238094D02*
X147026247Y-56285713D01*
X147026247Y-56285713D02*
X146883390Y-56285713D01*
X146883390Y-56285713D02*
X146692914Y-56238094D01*
X146692914Y-56238094D02*
X146597676Y-56190475D01*
X146597676Y-56190475D02*
X146502438Y-56095237D01*
X146502438Y-56095237D02*
X146454819Y-55952380D01*
X146454819Y-55952380D02*
X146454819Y-55857142D01*
X146454819Y-55857142D02*
X146502438Y-55714285D01*
X146502438Y-55714285D02*
X146550057Y-55666666D01*
X147454819Y-54714285D02*
X147454819Y-55285713D01*
X147454819Y-54999999D02*
X146454819Y-54999999D01*
X146454819Y-54999999D02*
X146597676Y-55095237D01*
X146597676Y-55095237D02*
X146692914Y-55190475D01*
X146692914Y-55190475D02*
X146740533Y-55285713D01*
%TO.C,Q1*%
D12*
X236425307Y-32688982D02*
X237238480Y-33502156D01*
X237188982Y-31925307D02*
X236425307Y-32688982D01*
X238002156Y-32738480D02*
X237188982Y-31925307D01*
X238002156Y-32738480D02*
G75*
G02*
X237238480Y-33502156I2997844J-3761520D01*
G01*
%TO.C,J5*%
X89350000Y-34330000D02*
X79130000Y-34330000D01*
X91950000Y-34330000D02*
X90620000Y-34330000D01*
X91950000Y-33000000D02*
X91950000Y-34330000D01*
X79130000Y-31670000D02*
X79130000Y-34330000D01*
X89350000Y-31670000D02*
X89350000Y-34330000D01*
X89350000Y-31670000D02*
X79130000Y-31670000D01*
%TO.C,U1*%
X167330000Y-47810000D02*
G75*
G02*
X167330000Y-45810000I0J1000000D01*
G01*
X131650000Y-49460000D02*
X167330000Y-49460000D01*
X167330000Y-49460000D02*
X167330000Y-47810000D01*
X167330000Y-45810000D02*
X167330000Y-44160000D01*
X131650000Y-44160000D02*
X131650000Y-49460000D01*
X167330000Y-44160000D02*
X131650000Y-44160000D01*
%TO.C,LS1*%
X253880000Y-37270000D02*
X253880000Y-39920000D01*
X251120000Y-39920000D02*
X253880000Y-39920000D01*
X251120000Y-37270000D02*
X253880000Y-37270000D01*
X251120000Y-37270000D02*
X251120000Y-39920000D01*
X251120000Y-36000000D02*
X251120000Y-34620000D01*
X251120000Y-34620000D02*
X252500000Y-34620000D01*
%TO.C,C3*%
X167370000Y-52880000D02*
X167370000Y-58120000D01*
X167033000Y-52880000D02*
X167370000Y-52880000D01*
X164630000Y-52880000D02*
X164967000Y-52880000D01*
X167370000Y-58120000D02*
X167033000Y-58120000D01*
X164967000Y-58120000D02*
X164630000Y-58120000D01*
X164630000Y-58120000D02*
X164630000Y-52880000D01*
%TO.C,SW2*%
X221750000Y-112500000D02*
X221750000Y-111000000D01*
X220500000Y-108500000D02*
X216000000Y-108500000D01*
X216000000Y-115000000D02*
X220500000Y-115000000D01*
X214750000Y-111000000D02*
X214750000Y-112500000D01*
%TO.C,SW1*%
X195250000Y-112500000D02*
X195250000Y-111000000D01*
X194000000Y-108500000D02*
X189500000Y-108500000D01*
X189500000Y-115000000D02*
X194000000Y-115000000D01*
X188250000Y-111000000D02*
X188250000Y-112500000D01*
%TO.C,RV1*%
X236625000Y-87930000D02*
X236625000Y-78180000D01*
X246375000Y-87930000D02*
X236625000Y-87930000D01*
X236625000Y-78180000D02*
X246375000Y-78180000D01*
X246375000Y-78180000D02*
X246375000Y-87930000D01*
%TO.C,R5*%
X214380000Y-83000000D02*
X215150000Y-83000000D01*
X222460000Y-83000000D02*
X221690000Y-83000000D01*
X215150000Y-81630000D02*
X221690000Y-81630000D01*
X221690000Y-84370000D01*
X215150000Y-84370000D01*
X215150000Y-81630000D01*
%TO.C,R4*%
X241000000Y-56200000D02*
X241000000Y-56970000D01*
X241000000Y-64280000D02*
X241000000Y-63510000D01*
X239630000Y-56970000D02*
X242370000Y-56970000D01*
X242370000Y-63510000D01*
X239630000Y-63510000D01*
X239630000Y-56970000D01*
%TO.C,R3*%
X252500000Y-74775000D02*
X252500000Y-74005000D01*
X252500000Y-66695000D02*
X252500000Y-67465000D01*
X251130000Y-67465000D02*
X253870000Y-67465000D01*
X253870000Y-74005000D01*
X251130000Y-74005000D01*
X251130000Y-67465000D01*
%TO.C,R2*%
X252500000Y-55275000D02*
X252500000Y-54505000D01*
X252500000Y-47195000D02*
X252500000Y-47965000D01*
X251130000Y-47965000D02*
X253870000Y-47965000D01*
X253870000Y-54505000D01*
X251130000Y-54505000D01*
X251130000Y-47965000D01*
%TO.C,R1*%
X166000000Y-26040000D02*
X166000000Y-26810000D01*
X166000000Y-34120000D02*
X166000000Y-33350000D01*
X164630000Y-26810000D02*
X167370000Y-26810000D01*
X167370000Y-33350000D01*
X164630000Y-33350000D01*
X164630000Y-26810000D01*
%TO.C,J6*%
X85610000Y-54310000D02*
X75390000Y-54310000D01*
X85610000Y-52930000D02*
X75390000Y-52930000D01*
X85610000Y-49690000D02*
X85610000Y-54310000D01*
X82350000Y-54310000D02*
X82350000Y-52930000D01*
X78650000Y-54310000D02*
X78650000Y-52930000D01*
X75390000Y-54310000D02*
X75390000Y-49690000D01*
X75390000Y-49690000D02*
X85610000Y-49690000D01*
%TO.C,J4*%
X155810000Y-94670000D02*
X137970000Y-94670000D01*
X155810000Y-94670000D02*
X155810000Y-97330000D01*
X137970000Y-94670000D02*
X137970000Y-97330000D01*
X158410000Y-96000000D02*
X158410000Y-97330000D01*
X158410000Y-97330000D02*
X157080000Y-97330000D01*
X155810000Y-97330000D02*
X137970000Y-97330000D01*
%TO.C,J3*%
X255110000Y-117330000D02*
X265330000Y-117330000D01*
X255110000Y-117330000D02*
X255110000Y-114670000D01*
X265330000Y-117330000D02*
X265330000Y-114670000D01*
X252510000Y-116000000D02*
X252510000Y-114670000D01*
X252510000Y-114670000D02*
X253840000Y-114670000D01*
X255110000Y-114670000D02*
X265330000Y-114670000D01*
%TO.C,J2*%
X84110000Y-115330000D02*
X94330000Y-115330000D01*
X84110000Y-115330000D02*
X84110000Y-112670000D01*
X94330000Y-115330000D02*
X94330000Y-112670000D01*
X81510000Y-114000000D02*
X81510000Y-112670000D01*
X81510000Y-112670000D02*
X82840000Y-112670000D01*
X84110000Y-112670000D02*
X94330000Y-112670000D01*
%TO.C,J1*%
X113170000Y-35770000D02*
X113170000Y-53610000D01*
X113170000Y-35770000D02*
X115830000Y-35770000D01*
X113170000Y-53610000D02*
X115830000Y-53610000D01*
X114500000Y-33170000D02*
X115830000Y-33170000D01*
X115830000Y-33170000D02*
X115830000Y-34500000D01*
X115830000Y-35770000D02*
X115830000Y-53610000D01*
%TO.C,C8*%
X65080000Y-49420000D02*
X59840000Y-49420000D01*
X65080000Y-49083000D02*
X65080000Y-49420000D01*
X65080000Y-46680000D02*
X65080000Y-47017000D01*
X59840000Y-49420000D02*
X59840000Y-49083000D01*
X59840000Y-47017000D02*
X59840000Y-46680000D01*
X59840000Y-46680000D02*
X65080000Y-46680000D01*
%TO.C,C7*%
X64580000Y-37920000D02*
X59340000Y-37920000D01*
X64580000Y-37583000D02*
X64580000Y-37920000D01*
X64580000Y-35180000D02*
X64580000Y-35517000D01*
X59340000Y-37920000D02*
X59340000Y-37583000D01*
X59340000Y-35517000D02*
X59340000Y-35180000D01*
X59340000Y-35180000D02*
X64580000Y-35180000D01*
%TO.C,C6*%
X100580000Y-43920000D02*
X95340000Y-43920000D01*
X100580000Y-43583000D02*
X100580000Y-43920000D01*
X100580000Y-41180000D02*
X100580000Y-41517000D01*
X95340000Y-43920000D02*
X95340000Y-43583000D01*
X95340000Y-41517000D02*
X95340000Y-41180000D01*
X95340000Y-41180000D02*
X100580000Y-41180000D01*
%TO.C,C5*%
X229880000Y-81630000D02*
X235120000Y-81630000D01*
X229880000Y-81967000D02*
X229880000Y-81630000D01*
X229880000Y-84370000D02*
X229880000Y-84033000D01*
X235120000Y-81630000D02*
X235120000Y-81967000D01*
X235120000Y-84033000D02*
X235120000Y-84370000D01*
X235120000Y-84370000D02*
X229880000Y-84370000D01*
%TO.C,C4*%
X225630000Y-90620000D02*
X225630000Y-85380000D01*
X225967000Y-90620000D02*
X225630000Y-90620000D01*
X228370000Y-90620000D02*
X228033000Y-90620000D01*
X225630000Y-85380000D02*
X225967000Y-85380000D01*
X228033000Y-85380000D02*
X228370000Y-85380000D01*
X228370000Y-85380000D02*
X228370000Y-90620000D01*
%TO.C,C2*%
X134130000Y-40620000D02*
X134130000Y-35380000D01*
X134467000Y-40620000D02*
X134130000Y-40620000D01*
X136870000Y-40620000D02*
X136533000Y-40620000D01*
X134130000Y-35380000D02*
X134467000Y-35380000D01*
X136533000Y-35380000D02*
X136870000Y-35380000D01*
X136870000Y-35380000D02*
X136870000Y-40620000D01*
%TO.C,C1*%
X145870000Y-52880000D02*
X145870000Y-58120000D01*
X145533000Y-52880000D02*
X145870000Y-52880000D01*
X143130000Y-52880000D02*
X143467000Y-52880000D01*
X145870000Y-58120000D02*
X145533000Y-58120000D01*
X143467000Y-58120000D02*
X143130000Y-58120000D01*
X143130000Y-58120000D02*
X143130000Y-52880000D01*
%TD*%
%LPC*%
D13*
%TO.C,Q1*%
X238460000Y-36500000D03*
D14*
X241000000Y-39040000D03*
X243540000Y-36500000D03*
%TD*%
D15*
%TO.C,J5*%
X80460000Y-33000000D03*
X83000000Y-33000000D03*
X85540000Y-33000000D03*
X88080000Y-33000000D03*
D16*
X90620000Y-33000000D03*
%TD*%
D17*
%TO.C,U1*%
X166000000Y-50620000D03*
X163460000Y-50620000D03*
X160920000Y-50620000D03*
X158380000Y-50620000D03*
X155840000Y-50620000D03*
X153300000Y-50620000D03*
X150760000Y-50620000D03*
X148220000Y-50620000D03*
X145680000Y-50620000D03*
X143140000Y-50620000D03*
X140600000Y-50620000D03*
X138060000Y-50620000D03*
X135520000Y-50620000D03*
X132980000Y-50620000D03*
X132980000Y-43000000D03*
X135520000Y-43000000D03*
X138060000Y-43000000D03*
X140600000Y-43000000D03*
X143140000Y-43000000D03*
X145680000Y-43000000D03*
X148220000Y-43000000D03*
X150760000Y-43000000D03*
X153300000Y-43000000D03*
X155840000Y-43000000D03*
X158380000Y-43000000D03*
X160920000Y-43000000D03*
X163460000Y-43000000D03*
D18*
X166000000Y-43000000D03*
%TD*%
D15*
%TO.C,LS1*%
X252500000Y-38540000D03*
D16*
X252500000Y-36000000D03*
%TD*%
D17*
%TO.C,C3*%
X166000000Y-53000000D03*
X166000000Y-58000000D03*
%TD*%
D19*
%TO.C,SW2*%
X221500000Y-114000000D03*
X215000000Y-114000000D03*
X221500000Y-109500000D03*
X215000000Y-109500000D03*
%TD*%
%TO.C,SW1*%
X195000000Y-114000000D03*
X188500000Y-114000000D03*
X195000000Y-109500000D03*
X188500000Y-109500000D03*
%TD*%
D20*
%TO.C,RV1*%
X244040000Y-83040000D03*
X241500000Y-80500000D03*
X238960000Y-83040000D03*
%TD*%
D17*
%TO.C,R5*%
X213340000Y-83000000D03*
X223500000Y-83000000D03*
%TD*%
%TO.C,R4*%
X241000000Y-55160000D03*
X241000000Y-65320000D03*
%TD*%
%TO.C,R3*%
X252500000Y-75815000D03*
X252500000Y-65655000D03*
%TD*%
%TO.C,R2*%
X252500000Y-56315000D03*
X252500000Y-46155000D03*
%TD*%
%TO.C,R1*%
X166000000Y-25000000D03*
X166000000Y-35160000D03*
%TD*%
D21*
%TO.C,J6*%
X83040000Y-51050000D03*
D22*
X80500000Y-51050000D03*
X77960000Y-51050000D03*
%TD*%
D16*
%TO.C,J4*%
X157080000Y-96000000D03*
D15*
X154540000Y-96000000D03*
X152000000Y-96000000D03*
X149460000Y-96000000D03*
X146920000Y-96000000D03*
X144380000Y-96000000D03*
X141840000Y-96000000D03*
X139300000Y-96000000D03*
%TD*%
D16*
%TO.C,J3*%
X253840000Y-116000000D03*
D15*
X256380000Y-116000000D03*
X258920000Y-116000000D03*
X261460000Y-116000000D03*
X264000000Y-116000000D03*
%TD*%
D16*
%TO.C,J2*%
X82840000Y-114000000D03*
D15*
X85380000Y-114000000D03*
X87920000Y-114000000D03*
X90460000Y-114000000D03*
X93000000Y-114000000D03*
%TD*%
D16*
%TO.C,J1*%
X114500000Y-34500000D03*
D15*
X114500000Y-37040000D03*
X114500000Y-39580000D03*
X114500000Y-42120000D03*
X114500000Y-44660000D03*
X114500000Y-47200000D03*
X114500000Y-49740000D03*
X114500000Y-52280000D03*
%TD*%
D17*
%TO.C,C8*%
X64960000Y-48050000D03*
X59960000Y-48050000D03*
%TD*%
%TO.C,C7*%
X64460000Y-36550000D03*
X59460000Y-36550000D03*
%TD*%
%TO.C,C6*%
X100460000Y-42550000D03*
X95460000Y-42550000D03*
%TD*%
%TO.C,C5*%
X230000000Y-83000000D03*
X235000000Y-83000000D03*
%TD*%
%TO.C,C4*%
X227000000Y-90500000D03*
X227000000Y-85500000D03*
%TD*%
%TO.C,C2*%
X135500000Y-40500000D03*
X135500000Y-35500000D03*
%TD*%
%TO.C,C1*%
X144500000Y-53000000D03*
X144500000Y-58000000D03*
%TD*%
%LPD*%
M02*
