%TF.GenerationSoftware,KiCad,Pcbnew,10.0.3*%
%TF.CreationDate,2026-05-29T14:56:45-05:00*%
%TF.ProjectId,Handheld-Gaming-Device,48616e64-6865-46c6-942d-47616d696e67,rev?*%
%TF.SameCoordinates,Original*%
%TF.FileFunction,Copper,L2,Bot*%
%TF.FilePolarity,Positive*%
%FSLAX46Y46*%
G04 Gerber Fmt 4.6, Leading zero omitted, Abs format (unit mm)*
G04 Created by KiCad (PCBNEW 10.0.3) date 2026-05-29 14:56:45*
%MOMM*%
%LPD*%
G01*
G04 APERTURE LIST*
G04 Aperture macros list*
%AMRoundRect*
0 Rectangle with rounded corners*
0 $1 Rounding radius*
0 $2 $3 $4 $5 $6 $7 $8 $9 X,Y pos of 4 corners*
0 Add a 4 corners polygon primitive as box body*
4,1,4,$2,$3,$4,$5,$6,$7,$8,$9,$2,$3,0*
0 Add four circle primitives for the rounded corners*
1,1,$1+$1,$2,$3*
1,1,$1+$1,$4,$5*
1,1,$1+$1,$6,$7*
1,1,$1+$1,$8,$9*
0 Add four rect primitives between the rounded corners*
20,1,$1+$1,$2,$3,$4,$5,0*
20,1,$1+$1,$4,$5,$6,$7,0*
20,1,$1+$1,$6,$7,$8,$9,0*
20,1,$1+$1,$8,$9,$2,$3,0*%
G04 Aperture macros list end*
%TA.AperFunction,ComponentPad*%
%ADD10O,1.600000X1.200000*%
%TD*%
%TA.AperFunction,ComponentPad*%
%ADD11C,1.200000*%
%TD*%
%TA.AperFunction,ComponentPad*%
%ADD12C,1.700000*%
%TD*%
%TA.AperFunction,ComponentPad*%
%ADD13R,1.700000X1.700000*%
%TD*%
%TA.AperFunction,ComponentPad*%
%ADD14C,1.600000*%
%TD*%
%TA.AperFunction,ComponentPad*%
%ADD15RoundRect,0.250000X-0.550000X0.550000X-0.550000X-0.550000X0.550000X-0.550000X0.550000X0.550000X0*%
%TD*%
%TA.AperFunction,ComponentPad*%
%ADD16C,2.000000*%
%TD*%
%TA.AperFunction,ComponentPad*%
%ADD17C,1.440000*%
%TD*%
%TA.AperFunction,ComponentPad*%
%ADD18R,1.905000X2.000000*%
%TD*%
%TA.AperFunction,ComponentPad*%
%ADD19O,1.905000X2.000000*%
%TD*%
%TA.AperFunction,ViaPad*%
%ADD20C,0.600000*%
%TD*%
%TA.AperFunction,Conductor*%
%ADD21C,0.250000*%
%TD*%
G04 APERTURE END LIST*
D10*
%TO.P,Q1,1,E_1*%
%TO.N,GND*%
X238460000Y-36500000D03*
D11*
%TO.P,Q1,2,B_2*%
%TO.N,Net-(Q1-B)*%
X241000000Y-39040000D03*
%TO.P,Q1,3,C_3*%
%TO.N,Net-(Q1-C)*%
X243540000Y-36500000D03*
%TD*%
D12*
%TO.P,J5,5,Pin_5_5*%
%TO.N,GND*%
X80460000Y-33000000D03*
%TO.P,J5,4,Pin_4_4*%
%TO.N,unconnected-(J5-Pin_4-Pad4)*%
X83000000Y-33000000D03*
%TO.P,J5,3,Pin_3_3*%
%TO.N,unconnected-(J5-Pin_3-Pad3)*%
X85540000Y-33000000D03*
%TO.P,J5,2,Pin_2_2*%
%TO.N,unconnected-(J5-Pin_2-Pad2)*%
X88080000Y-33000000D03*
D13*
%TO.P,J5,1,Pin_1_1*%
%TO.N,+5V*%
X90620000Y-33000000D03*
%TD*%
D14*
%TO.P,U1,28*%
%TO.N,+3V3*%
X166000000Y-50620000D03*
%TO.P,U1,27*%
%TO.N,GND*%
X163460000Y-50620000D03*
%TO.P,U1,26*%
%TO.N,Net-(SW2-Pad2)*%
X160920000Y-50620000D03*
%TO.P,U1,25*%
%TO.N,Net-(SW1-Pad2)*%
X158380000Y-50620000D03*
%TO.P,U1,24*%
%TO.N,Net-(J3-Pin_4)*%
X155840000Y-50620000D03*
%TO.P,U1,23*%
%TO.N,Net-(J3-Pin_3)*%
X153300000Y-50620000D03*
%TO.P,U1,22*%
%TO.N,unconnected-(U1-Pad22)*%
X150760000Y-50620000D03*
%TO.P,U1,21*%
%TO.N,Net-(J4-Pin_7)*%
X148220000Y-50620000D03*
%TO.P,U1,20*%
%TO.N,Net-(C1-Pad1)*%
X145680000Y-50620000D03*
%TO.P,U1,19*%
%TO.N,GND*%
X143140000Y-50620000D03*
%TO.P,U1,18*%
%TO.N,Net-(J4-Pin_8)*%
X140600000Y-50620000D03*
%TO.P,U1,17*%
%TO.N,Net-(J4-Pin_4)*%
X138060000Y-50620000D03*
%TO.P,U1,16*%
%TO.N,Net-(J4-Pin_6)*%
X135520000Y-50620000D03*
%TO.P,U1,15*%
%TO.N,Net-(J4-Pin_5)*%
X132980000Y-50620000D03*
%TO.P,U1,14*%
%TO.N,Net-(R5-Pad1)*%
X132980000Y-43000000D03*
%TO.P,U1,13*%
%TO.N,+3V3*%
X135520000Y-43000000D03*
%TO.P,U1,12*%
%TO.N,unconnected-(U1-Pad12)*%
X138060000Y-43000000D03*
%TO.P,U1,11*%
%TO.N,Net-(J2-Pin_4)*%
X140600000Y-43000000D03*
%TO.P,U1,10*%
%TO.N,unconnected-(U1-Pad10)*%
X143140000Y-43000000D03*
%TO.P,U1,9*%
%TO.N,unconnected-(U1-Pad9)*%
X145680000Y-43000000D03*
%TO.P,U1,8*%
%TO.N,GND*%
X148220000Y-43000000D03*
%TO.P,U1,7*%
%TO.N,Net-(J2-Pin_3)*%
X150760000Y-43000000D03*
%TO.P,U1,6*%
%TO.N,Net-(J2-Pin_2)*%
X153300000Y-43000000D03*
%TO.P,U1,5*%
%TO.N,Net-(J1-Pin_5)*%
X155840000Y-43000000D03*
%TO.P,U1,4*%
%TO.N,Net-(J1-Pin_4)*%
X158380000Y-43000000D03*
%TO.P,U1,3*%
%TO.N,unconnected-(U1-Pad3)*%
X160920000Y-43000000D03*
%TO.P,U1,2*%
%TO.N,unconnected-(U1-Pad2)*%
X163460000Y-43000000D03*
D15*
%TO.P,U1,1*%
%TO.N,Net-(J1-Pin_1)*%
X166000000Y-43000000D03*
%TD*%
D12*
%TO.P,LS1,2,2_2*%
%TO.N,Net-(LS1-Pad2)*%
X252500000Y-38540000D03*
D13*
%TO.P,LS1,1,1_1*%
%TO.N,Net-(Q1-C)*%
X252500000Y-36000000D03*
%TD*%
D14*
%TO.P,C3,2*%
%TO.N,+3V3*%
X166000000Y-53000000D03*
%TO.P,C3,1*%
%TO.N,GND*%
X166000000Y-58000000D03*
%TD*%
D16*
%TO.P,SW2,1,1_1*%
%TO.N,GND*%
X221500000Y-114000000D03*
X215000000Y-114000000D03*
%TO.P,SW2,2,2_2*%
%TO.N,Net-(SW2-Pad2)*%
X221500000Y-109500000D03*
X215000000Y-109500000D03*
%TD*%
%TO.P,SW1,1,1_1*%
%TO.N,GND*%
X195000000Y-114000000D03*
X188500000Y-114000000D03*
%TO.P,SW1,2,2_2*%
%TO.N,Net-(SW1-Pad2)*%
X195000000Y-109500000D03*
X188500000Y-109500000D03*
%TD*%
D17*
%TO.P,RV1,1,1_1*%
%TO.N,GND*%
X244040000Y-83040000D03*
%TO.P,RV1,2,2_2*%
%TO.N,Net-(R4-Pad2)*%
X241500000Y-80500000D03*
%TO.P,RV1,3,3_3*%
%TO.N,Net-(C5-Pad2)*%
X238960000Y-83040000D03*
%TD*%
D14*
%TO.P,R5,1*%
%TO.N,Net-(R5-Pad1)*%
X213340000Y-83000000D03*
%TO.P,R5,2*%
%TO.N,Net-(C4-Pad2)*%
X223500000Y-83000000D03*
%TD*%
%TO.P,R4,1*%
%TO.N,Net-(Q1-B)*%
X241000000Y-55160000D03*
%TO.P,R4,2*%
%TO.N,Net-(R4-Pad2)*%
X241000000Y-65320000D03*
%TD*%
%TO.P,R3,1*%
%TO.N,+3V3*%
X252500000Y-75815000D03*
%TO.P,R3,2*%
%TO.N,Net-(R2-Pad1)*%
X252500000Y-65655000D03*
%TD*%
%TO.P,R2,1*%
%TO.N,Net-(R2-Pad1)*%
X252500000Y-56315000D03*
%TO.P,R2,2*%
%TO.N,Net-(LS1-Pad2)*%
X252500000Y-46155000D03*
%TD*%
%TO.P,R1,1*%
%TO.N,+3V3*%
X166000000Y-25000000D03*
%TO.P,R1,2*%
%TO.N,Net-(J1-Pin_1)*%
X166000000Y-35160000D03*
%TD*%
D18*
%TO.P,J6,1,Pin_1_1*%
%TO.N,+5V*%
X83040000Y-51050000D03*
D19*
%TO.P,J6,2,Pin_2_2*%
%TO.N,GND*%
X80500000Y-51050000D03*
%TO.P,J6,3,Pin_3_3*%
%TO.N,+3V3*%
X77960000Y-51050000D03*
%TD*%
D13*
%TO.P,J4,1,Pin_1_1*%
%TO.N,GND*%
X157080000Y-96000000D03*
D12*
%TO.P,J4,2,Pin_2_2*%
%TO.N,+3V3*%
X154540000Y-96000000D03*
%TO.P,J4,3,Pin_3_3*%
X152000000Y-96000000D03*
%TO.P,J4,4,Pin_4_4*%
%TO.N,Net-(J4-Pin_4)*%
X149460000Y-96000000D03*
%TO.P,J4,5,Pin_5_5*%
%TO.N,Net-(J4-Pin_5)*%
X146920000Y-96000000D03*
%TO.P,J4,6,Pin_6_6*%
%TO.N,Net-(J4-Pin_6)*%
X144380000Y-96000000D03*
%TO.P,J4,7,Pin_7_7*%
%TO.N,Net-(J4-Pin_7)*%
X141840000Y-96000000D03*
%TO.P,J4,8,Pin_8_8*%
%TO.N,Net-(J4-Pin_8)*%
X139300000Y-96000000D03*
%TD*%
D13*
%TO.P,J3,1,Pin_1_1*%
%TO.N,GND*%
X253840000Y-116000000D03*
D12*
%TO.P,J3,2,Pin_2_2*%
%TO.N,unconnected-(J3-Pin_2-Pad2)*%
X256380000Y-116000000D03*
%TO.P,J3,3,Pin_3_3*%
%TO.N,Net-(J3-Pin_3)*%
X258920000Y-116000000D03*
%TO.P,J3,4,Pin_4_4*%
%TO.N,Net-(J3-Pin_4)*%
X261460000Y-116000000D03*
%TO.P,J3,5,Pin_5_5*%
%TO.N,+3V3*%
X264000000Y-116000000D03*
%TD*%
D13*
%TO.P,J2,1,Pin_1_1*%
%TO.N,GND*%
X82840000Y-114000000D03*
D12*
%TO.P,J2,2,Pin_2_2*%
%TO.N,Net-(J2-Pin_2)*%
X85380000Y-114000000D03*
%TO.P,J2,3,Pin_3_3*%
%TO.N,Net-(J2-Pin_3)*%
X87920000Y-114000000D03*
%TO.P,J2,4,Pin_4_4*%
%TO.N,Net-(J2-Pin_4)*%
X90460000Y-114000000D03*
%TO.P,J2,5,Pin_5_5*%
%TO.N,+3V3*%
X93000000Y-114000000D03*
%TD*%
D13*
%TO.P,J1,1,Pin_1_1*%
%TO.N,Net-(J1-Pin_1)*%
X114500000Y-34500000D03*
D12*
%TO.P,J1,2,Pin_2_2*%
%TO.N,+3V3*%
X114500000Y-37040000D03*
%TO.P,J1,3,Pin_3_3*%
%TO.N,GND*%
X114500000Y-39580000D03*
%TO.P,J1,4,Pin_4_4*%
%TO.N,Net-(J1-Pin_4)*%
X114500000Y-42120000D03*
%TO.P,J1,5,Pin_5_5*%
%TO.N,Net-(J1-Pin_5)*%
X114500000Y-44660000D03*
%TO.P,J1,6,Pin_6_6*%
%TO.N,unconnected-(J1-Pin_6-Pad6)*%
X114500000Y-47200000D03*
%TO.P,J1,7,Pin_7_7*%
%TO.N,unconnected-(J1-Pin_7-Pad7)*%
X114500000Y-49740000D03*
%TO.P,J1,8,Pin_8_8*%
%TO.N,unconnected-(J1-Pin_8-Pad8)*%
X114500000Y-52280000D03*
%TD*%
D14*
%TO.P,C8,1*%
%TO.N,+3V3*%
X64960000Y-48050000D03*
%TO.P,C8,2*%
%TO.N,GND*%
X59960000Y-48050000D03*
%TD*%
%TO.P,C7,1*%
%TO.N,GND*%
X64460000Y-36550000D03*
%TO.P,C7,2*%
X59460000Y-36550000D03*
%TD*%
%TO.P,C6,1*%
%TO.N,+5V*%
X100460000Y-42550000D03*
%TO.P,C6,2*%
%TO.N,GND*%
X95460000Y-42550000D03*
%TD*%
%TO.P,C5,1*%
%TO.N,Net-(C4-Pad2)*%
X230000000Y-83000000D03*
%TO.P,C5,2*%
%TO.N,Net-(C5-Pad2)*%
X235000000Y-83000000D03*
%TD*%
%TO.P,C4,1*%
%TO.N,GND*%
X227000000Y-90500000D03*
%TO.P,C4,2*%
%TO.N,Net-(C4-Pad2)*%
X227000000Y-85500000D03*
%TD*%
%TO.P,C2,1*%
%TO.N,+3V3*%
X135500000Y-40500000D03*
%TO.P,C2,2*%
%TO.N,GND*%
X135500000Y-35500000D03*
%TD*%
%TO.P,C1,1*%
%TO.N,Net-(C1-Pad1)*%
X144500000Y-53000000D03*
%TO.P,C1,2*%
%TO.N,GND*%
X144500000Y-58000000D03*
%TD*%
D20*
%TO.N,Net-(SW2-Pad2)*%
X198000000Y-85000000D03*
X197500000Y-81500000D03*
X178000000Y-62000000D03*
X171000000Y-62000000D03*
%TO.N,Net-(SW1-Pad2)*%
X158500000Y-64000000D03*
X188500000Y-81500000D03*
X188500000Y-84500000D03*
X158500000Y-70500000D03*
%TO.N,Net-(J4-Pin_5)*%
X133000000Y-81000000D03*
X133000000Y-84000000D03*
%TO.N,Net-(J4-Pin_6)*%
X135500000Y-81500000D03*
X135500000Y-83500000D03*
%TO.N,Net-(J4-Pin_7)*%
X142500000Y-90500000D03*
X142500000Y-81000000D03*
%TO.N,Net-(J4-Pin_8)*%
X140000000Y-81825000D03*
X139252702Y-86747298D03*
%TO.N,Net-(R5-Pad1)*%
X137000000Y-82500000D03*
X138735000Y-82500000D03*
%TD*%
%TO.N,Net-(SW2-Pad2)*%
D21*
X198000000Y-82000000D02*
X198000000Y-85000000D01*
X197500000Y-81500000D02*
X198000000Y-82000000D01*
X171000000Y-62000000D02*
X178000000Y-62000000D01*
%TO.N,Net-(SW1-Pad2)*%
X158500000Y-70500000D02*
X158500000Y-64000000D01*
X188500000Y-84500000D02*
X188500000Y-81500000D01*
%TO.N,Net-(J4-Pin_5)*%
X133000000Y-84000000D02*
X133000000Y-81000000D01*
%TO.N,Net-(J4-Pin_6)*%
X135500000Y-83500000D02*
X135500000Y-81500000D01*
%TO.N,Net-(J4-Pin_7)*%
X142500000Y-90500000D02*
X142500000Y-81000000D01*
%TO.N,Net-(J4-Pin_8)*%
X140000000Y-86000000D02*
X140000000Y-81825000D01*
X139252702Y-86747298D02*
X140000000Y-86000000D01*
%TO.N,Net-(R5-Pad1)*%
X138735000Y-82500000D02*
X137000000Y-82500000D01*
%TD*%
%TA.AperFunction,Conductor*%
%TO.N,GND*%
G36*
X144219474Y-51345922D02*
G01*
X144219474Y-51345921D01*
X144251861Y-51301347D01*
X144251861Y-51301346D01*
X144299234Y-51208371D01*
X144347208Y-51157575D01*
X144415028Y-51140779D01*
X144481164Y-51163316D01*
X144520203Y-51208369D01*
X144567713Y-51301611D01*
X144688028Y-51467213D01*
X144710298Y-51489483D01*
X144743783Y-51550806D01*
X144738799Y-51620498D01*
X144696927Y-51676431D01*
X144631463Y-51700848D01*
X144607208Y-51699809D01*
X144607203Y-51699882D01*
X144605176Y-51699722D01*
X144603229Y-51699639D01*
X144602352Y-51699500D01*
X144397648Y-51699500D01*
X144333369Y-51709681D01*
X144195464Y-51731523D01*
X144195461Y-51731523D01*
X144031181Y-51784902D01*
X143961340Y-51786897D01*
X143901507Y-51750817D01*
X143886265Y-51719817D01*
X143186447Y-51020000D01*
X143192661Y-51020000D01*
X143294394Y-50992741D01*
X143385606Y-50940080D01*
X143460080Y-50865606D01*
X143512741Y-50774394D01*
X143540000Y-50672661D01*
X143540000Y-50666448D01*
X144219474Y-51345922D01*
G37*
%TD.AperFunction*%
%TA.AperFunction,Conductor*%
G36*
X274443039Y-18519685D02*
G01*
X274488794Y-18572489D01*
X274500000Y-18624000D01*
X274500000Y-133876000D01*
X274480315Y-133943039D01*
X274427511Y-133988794D01*
X274376000Y-134000000D01*
X23124000Y-134000000D01*
X23056961Y-133980315D01*
X23011206Y-133927511D01*
X23000000Y-133876000D01*
X23000000Y-113102155D01*
X81490000Y-113102155D01*
X81490000Y-113750000D01*
X82406988Y-113750000D01*
X82374075Y-113807007D01*
X82340000Y-113934174D01*
X82340000Y-114065826D01*
X82374075Y-114192993D01*
X82406988Y-114250000D01*
X81490000Y-114250000D01*
X81490000Y-114897844D01*
X81496401Y-114957372D01*
X81496403Y-114957379D01*
X81546645Y-115092086D01*
X81546649Y-115092093D01*
X81632809Y-115207187D01*
X81632812Y-115207190D01*
X81747906Y-115293350D01*
X81747913Y-115293354D01*
X81882620Y-115343596D01*
X81882627Y-115343598D01*
X81942155Y-115349999D01*
X81942172Y-115350000D01*
X82590000Y-115350000D01*
X82590000Y-114433012D01*
X82647007Y-114465925D01*
X82774174Y-114500000D01*
X82905826Y-114500000D01*
X83032993Y-114465925D01*
X83090000Y-114433012D01*
X83090000Y-115350000D01*
X83737828Y-115350000D01*
X83737844Y-115349999D01*
X83797372Y-115343598D01*
X83797379Y-115343596D01*
X83932086Y-115293354D01*
X83932093Y-115293350D01*
X84047187Y-115207190D01*
X84047190Y-115207187D01*
X84133350Y-115092093D01*
X84133354Y-115092086D01*
X84182422Y-114960529D01*
X84224293Y-114904595D01*
X84289757Y-114880178D01*
X84358030Y-114895030D01*
X84386285Y-114916181D01*
X84500213Y-115030109D01*
X84672179Y-115155048D01*
X84672181Y-115155049D01*
X84672184Y-115155051D01*
X84861588Y-115251557D01*
X85063757Y-115317246D01*
X85273713Y-115350500D01*
X85273714Y-115350500D01*
X85486286Y-115350500D01*
X85486287Y-115350500D01*
X85696243Y-115317246D01*
X85898412Y-115251557D01*
X86087816Y-115155051D01*
X86174471Y-115092093D01*
X86259786Y-115030109D01*
X86259788Y-115030106D01*
X86259792Y-115030104D01*
X86410104Y-114879792D01*
X86410106Y-114879788D01*
X86410109Y-114879786D01*
X86535048Y-114707820D01*
X86535047Y-114707820D01*
X86535051Y-114707816D01*
X86539514Y-114699054D01*
X86587488Y-114648259D01*
X86655308Y-114631463D01*
X86721444Y-114653999D01*
X86760486Y-114699056D01*
X86764951Y-114707820D01*
X86889890Y-114879786D01*
X87040213Y-115030109D01*
X87212179Y-115155048D01*
X87212181Y-115155049D01*
X87212184Y-115155051D01*
X87401588Y-115251557D01*
X87603757Y-115317246D01*
X87813713Y-115350500D01*
X87813714Y-115350500D01*
X88026286Y-115350500D01*
X88026287Y-115350500D01*
X88236243Y-115317246D01*
X88438412Y-115251557D01*
X88627816Y-115155051D01*
X88714471Y-115092093D01*
X88799786Y-115030109D01*
X88799788Y-115030106D01*
X88799792Y-115030104D01*
X88950104Y-114879792D01*
X88950106Y-114879788D01*
X88950109Y-114879786D01*
X89075048Y-114707820D01*
X89075047Y-114707820D01*
X89075051Y-114707816D01*
X89079514Y-114699054D01*
X89127488Y-114648259D01*
X89195308Y-114631463D01*
X89261444Y-114653999D01*
X89300486Y-114699056D01*
X89304951Y-114707820D01*
X89429890Y-114879786D01*
X89580213Y-115030109D01*
X89752179Y-115155048D01*
X89752181Y-115155049D01*
X89752184Y-115155051D01*
X89941588Y-115251557D01*
X90143757Y-115317246D01*
X90353713Y-115350500D01*
X90353714Y-115350500D01*
X90566286Y-115350500D01*
X90566287Y-115350500D01*
X90776243Y-115317246D01*
X90978412Y-115251557D01*
X91167816Y-115155051D01*
X91254471Y-115092093D01*
X91339786Y-115030109D01*
X91339788Y-115030106D01*
X91339792Y-115030104D01*
X91490104Y-114879792D01*
X91490106Y-114879788D01*
X91490109Y-114879786D01*
X91615048Y-114707820D01*
X91615047Y-114707820D01*
X91615051Y-114707816D01*
X91619514Y-114699054D01*
X91667488Y-114648259D01*
X91735308Y-114631463D01*
X91801444Y-114653999D01*
X91840486Y-114699056D01*
X91844951Y-114707820D01*
X91969890Y-114879786D01*
X92120213Y-115030109D01*
X92292179Y-115155048D01*
X92292181Y-115155049D01*
X92292184Y-115155051D01*
X92481588Y-115251557D01*
X92683757Y-115317246D01*
X92893713Y-115350500D01*
X92893714Y-115350500D01*
X93106286Y-115350500D01*
X93106287Y-115350500D01*
X93316243Y-115317246D01*
X93518412Y-115251557D01*
X93707816Y-115155051D01*
X93879792Y-115030104D01*
X94030104Y-114879792D01*
X94030106Y-114879788D01*
X94030109Y-114879786D01*
X94155048Y-114707820D01*
X94155047Y-114707820D01*
X94155051Y-114707816D01*
X94251557Y-114518412D01*
X94317246Y-114316243D01*
X94350500Y-114106287D01*
X94350500Y-113893713D01*
X94348636Y-113881947D01*
X187000000Y-113881947D01*
X187000000Y-114118052D01*
X187036934Y-114351247D01*
X187109897Y-114575802D01*
X187217087Y-114786174D01*
X187277338Y-114869104D01*
X187277340Y-114869105D01*
X187976212Y-114170233D01*
X187987482Y-114212292D01*
X188059890Y-114337708D01*
X188162292Y-114440110D01*
X188287708Y-114512518D01*
X188329765Y-114523787D01*
X187630893Y-115222658D01*
X187713828Y-115282914D01*
X187924197Y-115390102D01*
X188148752Y-115463065D01*
X188148751Y-115463065D01*
X188381948Y-115500000D01*
X188618052Y-115500000D01*
X188851247Y-115463065D01*
X189075802Y-115390102D01*
X189286163Y-115282918D01*
X189286169Y-115282914D01*
X189369104Y-115222658D01*
X189369105Y-115222658D01*
X188670233Y-114523787D01*
X188712292Y-114512518D01*
X188837708Y-114440110D01*
X188940110Y-114337708D01*
X189012518Y-114212292D01*
X189023787Y-114170233D01*
X189722658Y-114869105D01*
X189722658Y-114869104D01*
X189782914Y-114786169D01*
X189782918Y-114786163D01*
X189890102Y-114575802D01*
X189963065Y-114351247D01*
X190000000Y-114118052D01*
X190000000Y-113881947D01*
X193500000Y-113881947D01*
X193500000Y-114118052D01*
X193536934Y-114351247D01*
X193609897Y-114575802D01*
X193717087Y-114786174D01*
X193777338Y-114869104D01*
X193777340Y-114869105D01*
X194476212Y-114170233D01*
X194487482Y-114212292D01*
X194559890Y-114337708D01*
X194662292Y-114440110D01*
X194787708Y-114512518D01*
X194829765Y-114523787D01*
X194130893Y-115222658D01*
X194213828Y-115282914D01*
X194424197Y-115390102D01*
X194648752Y-115463065D01*
X194648751Y-115463065D01*
X194881948Y-115500000D01*
X195118052Y-115500000D01*
X195351247Y-115463065D01*
X195575802Y-115390102D01*
X195786163Y-115282918D01*
X195786169Y-115282914D01*
X195869104Y-115222658D01*
X195869105Y-115222658D01*
X195170233Y-114523787D01*
X195212292Y-114512518D01*
X195337708Y-114440110D01*
X195440110Y-114337708D01*
X195512518Y-114212292D01*
X195523787Y-114170233D01*
X196222658Y-114869105D01*
X196222658Y-114869104D01*
X196282914Y-114786169D01*
X196282918Y-114786163D01*
X196390102Y-114575802D01*
X196463065Y-114351247D01*
X196500000Y-114118052D01*
X196500000Y-113881947D01*
X213500000Y-113881947D01*
X213500000Y-114118052D01*
X213536934Y-114351247D01*
X213609897Y-114575802D01*
X213717087Y-114786174D01*
X213777338Y-114869104D01*
X213777340Y-114869105D01*
X214476212Y-114170233D01*
X214487482Y-114212292D01*
X214559890Y-114337708D01*
X214662292Y-114440110D01*
X214787708Y-114512518D01*
X214829765Y-114523787D01*
X214130893Y-115222658D01*
X214213828Y-115282914D01*
X214424197Y-115390102D01*
X214648752Y-115463065D01*
X214648751Y-115463065D01*
X214881948Y-115500000D01*
X215118052Y-115500000D01*
X215351247Y-115463065D01*
X215575802Y-115390102D01*
X215786163Y-115282918D01*
X215786169Y-115282914D01*
X215869104Y-115222658D01*
X215869105Y-115222658D01*
X215170233Y-114523787D01*
X215212292Y-114512518D01*
X215337708Y-114440110D01*
X215440110Y-114337708D01*
X215512518Y-114212292D01*
X215523787Y-114170233D01*
X216222658Y-114869105D01*
X216222658Y-114869104D01*
X216282914Y-114786169D01*
X216282918Y-114786163D01*
X216390102Y-114575802D01*
X216463065Y-114351247D01*
X216500000Y-114118052D01*
X216500000Y-113881947D01*
X220000000Y-113881947D01*
X220000000Y-114118052D01*
X220036934Y-114351247D01*
X220109897Y-114575802D01*
X220217087Y-114786174D01*
X220277338Y-114869104D01*
X220277340Y-114869105D01*
X220976212Y-114170233D01*
X220987482Y-114212292D01*
X221059890Y-114337708D01*
X221162292Y-114440110D01*
X221287708Y-114512518D01*
X221329765Y-114523787D01*
X220630893Y-115222658D01*
X220713828Y-115282914D01*
X220924197Y-115390102D01*
X221148752Y-115463065D01*
X221148751Y-115463065D01*
X221381948Y-115500000D01*
X221618052Y-115500000D01*
X221851247Y-115463065D01*
X222075802Y-115390102D01*
X222286163Y-115282918D01*
X222286169Y-115282914D01*
X222369104Y-115222658D01*
X222369105Y-115222658D01*
X222332979Y-115186532D01*
X222248602Y-115102155D01*
X252490000Y-115102155D01*
X252490000Y-115750000D01*
X253406988Y-115750000D01*
X253374075Y-115807007D01*
X253340000Y-115934174D01*
X253340000Y-116065826D01*
X253374075Y-116192993D01*
X253406988Y-116250000D01*
X252490000Y-116250000D01*
X252490000Y-116897844D01*
X252496401Y-116957372D01*
X252496403Y-116957379D01*
X252546645Y-117092086D01*
X252546649Y-117092093D01*
X252632809Y-117207187D01*
X252632812Y-117207190D01*
X252747906Y-117293350D01*
X252747913Y-117293354D01*
X252882620Y-117343596D01*
X252882627Y-117343598D01*
X252942155Y-117349999D01*
X252942172Y-117350000D01*
X253590000Y-117350000D01*
X253590000Y-116433012D01*
X253647007Y-116465925D01*
X253774174Y-116500000D01*
X253905826Y-116500000D01*
X254032993Y-116465925D01*
X254090000Y-116433012D01*
X254090000Y-117350000D01*
X254737828Y-117350000D01*
X254737844Y-117349999D01*
X254797372Y-117343598D01*
X254797379Y-117343596D01*
X254932086Y-117293354D01*
X254932093Y-117293350D01*
X255047187Y-117207190D01*
X255047190Y-117207187D01*
X255133350Y-117092093D01*
X255133354Y-117092086D01*
X255182422Y-116960529D01*
X255224293Y-116904595D01*
X255289757Y-116880178D01*
X255358030Y-116895030D01*
X255386285Y-116916181D01*
X255500213Y-117030109D01*
X255672179Y-117155048D01*
X255672181Y-117155049D01*
X255672184Y-117155051D01*
X255861588Y-117251557D01*
X256063757Y-117317246D01*
X256273713Y-117350500D01*
X256273714Y-117350500D01*
X256486286Y-117350500D01*
X256486287Y-117350500D01*
X256696243Y-117317246D01*
X256898412Y-117251557D01*
X257087816Y-117155051D01*
X257174471Y-117092093D01*
X257259786Y-117030109D01*
X257259788Y-117030106D01*
X257259792Y-117030104D01*
X257410104Y-116879792D01*
X257410106Y-116879788D01*
X257410109Y-116879786D01*
X257535048Y-116707820D01*
X257535047Y-116707820D01*
X257535051Y-116707816D01*
X257539514Y-116699054D01*
X257587488Y-116648259D01*
X257655308Y-116631463D01*
X257721444Y-116653999D01*
X257760486Y-116699056D01*
X257764951Y-116707820D01*
X257889890Y-116879786D01*
X258040213Y-117030109D01*
X258212179Y-117155048D01*
X258212181Y-117155049D01*
X258212184Y-117155051D01*
X258401588Y-117251557D01*
X258603757Y-117317246D01*
X258813713Y-117350500D01*
X258813714Y-117350500D01*
X259026286Y-117350500D01*
X259026287Y-117350500D01*
X259236243Y-117317246D01*
X259438412Y-117251557D01*
X259627816Y-117155051D01*
X259714471Y-117092093D01*
X259799786Y-117030109D01*
X259799788Y-117030106D01*
X259799792Y-117030104D01*
X259950104Y-116879792D01*
X259950106Y-116879788D01*
X259950109Y-116879786D01*
X260075048Y-116707820D01*
X260075047Y-116707820D01*
X260075051Y-116707816D01*
X260079514Y-116699054D01*
X260127488Y-116648259D01*
X260195308Y-116631463D01*
X260261444Y-116653999D01*
X260300486Y-116699056D01*
X260304951Y-116707820D01*
X260429890Y-116879786D01*
X260580213Y-117030109D01*
X260752179Y-117155048D01*
X260752181Y-117155049D01*
X260752184Y-117155051D01*
X260941588Y-117251557D01*
X261143757Y-117317246D01*
X261353713Y-117350500D01*
X261353714Y-117350500D01*
X261566286Y-117350500D01*
X261566287Y-117350500D01*
X261776243Y-117317246D01*
X261978412Y-117251557D01*
X262167816Y-117155051D01*
X262254471Y-117092093D01*
X262339786Y-117030109D01*
X262339788Y-117030106D01*
X262339792Y-117030104D01*
X262490104Y-116879792D01*
X262490106Y-116879788D01*
X262490109Y-116879786D01*
X262615048Y-116707820D01*
X262615047Y-116707820D01*
X262615051Y-116707816D01*
X262619514Y-116699054D01*
X262667488Y-116648259D01*
X262735308Y-116631463D01*
X262801444Y-116653999D01*
X262840486Y-116699056D01*
X262844951Y-116707820D01*
X262969890Y-116879786D01*
X263120213Y-117030109D01*
X263292179Y-117155048D01*
X263292181Y-117155049D01*
X263292184Y-117155051D01*
X263481588Y-117251557D01*
X263683757Y-117317246D01*
X263893713Y-117350500D01*
X263893714Y-117350500D01*
X264106286Y-117350500D01*
X264106287Y-117350500D01*
X264316243Y-117317246D01*
X264518412Y-117251557D01*
X264707816Y-117155051D01*
X264794471Y-117092093D01*
X264879786Y-117030109D01*
X264879788Y-117030106D01*
X264879792Y-117030104D01*
X265030104Y-116879792D01*
X265030106Y-116879788D01*
X265030109Y-116879786D01*
X265155048Y-116707820D01*
X265155047Y-116707820D01*
X265155051Y-116707816D01*
X265251557Y-116518412D01*
X265317246Y-116316243D01*
X265350500Y-116106287D01*
X265350500Y-115893713D01*
X265317246Y-115683757D01*
X265251557Y-115481588D01*
X265155051Y-115292184D01*
X265155049Y-115292181D01*
X265155048Y-115292179D01*
X265030109Y-115120213D01*
X264879786Y-114969890D01*
X264707820Y-114844951D01*
X264518414Y-114748444D01*
X264518413Y-114748443D01*
X264518412Y-114748443D01*
X264316243Y-114682754D01*
X264316241Y-114682753D01*
X264316240Y-114682753D01*
X264154957Y-114657208D01*
X264106287Y-114649500D01*
X263893713Y-114649500D01*
X263845042Y-114657208D01*
X263683760Y-114682753D01*
X263481585Y-114748444D01*
X263292179Y-114844951D01*
X263120213Y-114969890D01*
X262969890Y-115120213D01*
X262844949Y-115292182D01*
X262840484Y-115300946D01*
X262792509Y-115351742D01*
X262724688Y-115368536D01*
X262658553Y-115345998D01*
X262619516Y-115300946D01*
X262615050Y-115292182D01*
X262490109Y-115120213D01*
X262339786Y-114969890D01*
X262167820Y-114844951D01*
X261978414Y-114748444D01*
X261978413Y-114748443D01*
X261978412Y-114748443D01*
X261776243Y-114682754D01*
X261776241Y-114682753D01*
X261776240Y-114682753D01*
X261614957Y-114657208D01*
X261566287Y-114649500D01*
X261353713Y-114649500D01*
X261305042Y-114657208D01*
X261143760Y-114682753D01*
X260941585Y-114748444D01*
X260752179Y-114844951D01*
X260580213Y-114969890D01*
X260429890Y-115120213D01*
X260304949Y-115292182D01*
X260300484Y-115300946D01*
X260252509Y-115351742D01*
X260184688Y-115368536D01*
X260118553Y-115345998D01*
X260079516Y-115300946D01*
X260075050Y-115292182D01*
X259950109Y-115120213D01*
X259799786Y-114969890D01*
X259627820Y-114844951D01*
X259438414Y-114748444D01*
X259438413Y-114748443D01*
X259438412Y-114748443D01*
X259236243Y-114682754D01*
X259236241Y-114682753D01*
X259236240Y-114682753D01*
X259074957Y-114657208D01*
X259026287Y-114649500D01*
X258813713Y-114649500D01*
X258765042Y-114657208D01*
X258603760Y-114682753D01*
X258401585Y-114748444D01*
X258212179Y-114844951D01*
X258040213Y-114969890D01*
X257889890Y-115120213D01*
X257764949Y-115292182D01*
X257760484Y-115300946D01*
X257712509Y-115351742D01*
X257644688Y-115368536D01*
X257578553Y-115345998D01*
X257539516Y-115300946D01*
X257535050Y-115292182D01*
X257410109Y-115120213D01*
X257259786Y-114969890D01*
X257087820Y-114844951D01*
X256898414Y-114748444D01*
X256898413Y-114748443D01*
X256898412Y-114748443D01*
X256696243Y-114682754D01*
X256696241Y-114682753D01*
X256696240Y-114682753D01*
X256534957Y-114657208D01*
X256486287Y-114649500D01*
X256273713Y-114649500D01*
X256225042Y-114657208D01*
X256063760Y-114682753D01*
X255861585Y-114748444D01*
X255672179Y-114844951D01*
X255500215Y-114969889D01*
X255386285Y-115083819D01*
X255324962Y-115117303D01*
X255255270Y-115112319D01*
X255199337Y-115070447D01*
X255182422Y-115039470D01*
X255133354Y-114907913D01*
X255133350Y-114907906D01*
X255047190Y-114792812D01*
X255047187Y-114792809D01*
X254932093Y-114706649D01*
X254932086Y-114706645D01*
X254797379Y-114656403D01*
X254797372Y-114656401D01*
X254737844Y-114650000D01*
X254090000Y-114650000D01*
X254090000Y-115566988D01*
X254032993Y-115534075D01*
X253905826Y-115500000D01*
X253774174Y-115500000D01*
X253647007Y-115534075D01*
X253590000Y-115566988D01*
X253590000Y-114650000D01*
X252942155Y-114650000D01*
X252882627Y-114656401D01*
X252882620Y-114656403D01*
X252747913Y-114706645D01*
X252747906Y-114706649D01*
X252632812Y-114792809D01*
X252632809Y-114792812D01*
X252546649Y-114907906D01*
X252546645Y-114907913D01*
X252496403Y-115042620D01*
X252496401Y-115042627D01*
X252490000Y-115102155D01*
X222248602Y-115102155D01*
X221670233Y-114523787D01*
X221712292Y-114512518D01*
X221837708Y-114440110D01*
X221940110Y-114337708D01*
X222012518Y-114212292D01*
X222023787Y-114170234D01*
X222722658Y-114869105D01*
X222722658Y-114869104D01*
X222782914Y-114786169D01*
X222782918Y-114786163D01*
X222890102Y-114575802D01*
X222963065Y-114351247D01*
X223000000Y-114118052D01*
X223000000Y-113881947D01*
X222963065Y-113648752D01*
X222890102Y-113424197D01*
X222782914Y-113213828D01*
X222722658Y-113130894D01*
X222722658Y-113130893D01*
X222023787Y-113829765D01*
X222012518Y-113787708D01*
X221940110Y-113662292D01*
X221837708Y-113559890D01*
X221712292Y-113487482D01*
X221670234Y-113476212D01*
X222369105Y-112777340D01*
X222369104Y-112777338D01*
X222286174Y-112717087D01*
X222075802Y-112609897D01*
X221851247Y-112536934D01*
X221851248Y-112536934D01*
X221618052Y-112500000D01*
X221381948Y-112500000D01*
X221148752Y-112536934D01*
X220924197Y-112609897D01*
X220713830Y-112717084D01*
X220630894Y-112777340D01*
X221329766Y-113476212D01*
X221287708Y-113487482D01*
X221162292Y-113559890D01*
X221059890Y-113662292D01*
X220987482Y-113787708D01*
X220976212Y-113829766D01*
X220277340Y-113130894D01*
X220217084Y-113213830D01*
X220109897Y-113424197D01*
X220036934Y-113648752D01*
X220000000Y-113881947D01*
X216500000Y-113881947D01*
X216463065Y-113648752D01*
X216390102Y-113424197D01*
X216282914Y-113213828D01*
X216222658Y-113130894D01*
X216222658Y-113130893D01*
X215523787Y-113829765D01*
X215512518Y-113787708D01*
X215440110Y-113662292D01*
X215337708Y-113559890D01*
X215212292Y-113487482D01*
X215170234Y-113476212D01*
X215869105Y-112777340D01*
X215869104Y-112777339D01*
X215786174Y-112717087D01*
X215575802Y-112609897D01*
X215351247Y-112536934D01*
X215351248Y-112536934D01*
X215118052Y-112500000D01*
X214881948Y-112500000D01*
X214648752Y-112536934D01*
X214424197Y-112609897D01*
X214213830Y-112717084D01*
X214130894Y-112777340D01*
X214829766Y-113476212D01*
X214787708Y-113487482D01*
X214662292Y-113559890D01*
X214559890Y-113662292D01*
X214487482Y-113787708D01*
X214476212Y-113829766D01*
X213777340Y-113130894D01*
X213717084Y-113213830D01*
X213609897Y-113424197D01*
X213536934Y-113648752D01*
X213500000Y-113881947D01*
X196500000Y-113881947D01*
X196463065Y-113648752D01*
X196390102Y-113424197D01*
X196282914Y-113213828D01*
X196222658Y-113130894D01*
X196222658Y-113130893D01*
X195523787Y-113829765D01*
X195512518Y-113787708D01*
X195440110Y-113662292D01*
X195337708Y-113559890D01*
X195212292Y-113487482D01*
X195170234Y-113476212D01*
X195869105Y-112777340D01*
X195869104Y-112777339D01*
X195786174Y-112717087D01*
X195575802Y-112609897D01*
X195351247Y-112536934D01*
X195351248Y-112536934D01*
X195118052Y-112500000D01*
X194881948Y-112500000D01*
X194648752Y-112536934D01*
X194424197Y-112609897D01*
X194213830Y-112717084D01*
X194130894Y-112777340D01*
X194829766Y-113476212D01*
X194787708Y-113487482D01*
X194662292Y-113559890D01*
X194559890Y-113662292D01*
X194487482Y-113787708D01*
X194476212Y-113829766D01*
X193777340Y-113130894D01*
X193717084Y-113213830D01*
X193609897Y-113424197D01*
X193536934Y-113648752D01*
X193500000Y-113881947D01*
X190000000Y-113881947D01*
X189963065Y-113648752D01*
X189890102Y-113424197D01*
X189782914Y-113213828D01*
X189722658Y-113130894D01*
X189722658Y-113130893D01*
X189023787Y-113829765D01*
X189012518Y-113787708D01*
X188940110Y-113662292D01*
X188837708Y-113559890D01*
X188712292Y-113487482D01*
X188670234Y-113476212D01*
X189369105Y-112777340D01*
X189369104Y-112777339D01*
X189286174Y-112717087D01*
X189075802Y-112609897D01*
X188851247Y-112536934D01*
X188851248Y-112536934D01*
X188618052Y-112500000D01*
X188381948Y-112500000D01*
X188148752Y-112536934D01*
X187924197Y-112609897D01*
X187713830Y-112717084D01*
X187630894Y-112777340D01*
X188329766Y-113476212D01*
X188287708Y-113487482D01*
X188162292Y-113559890D01*
X188059890Y-113662292D01*
X187987482Y-113787708D01*
X187976212Y-113829766D01*
X187277340Y-113130894D01*
X187217084Y-113213830D01*
X187109897Y-113424197D01*
X187036934Y-113648752D01*
X187000000Y-113881947D01*
X94348636Y-113881947D01*
X94317246Y-113683757D01*
X94251557Y-113481588D01*
X94155051Y-113292184D01*
X94155049Y-113292181D01*
X94155048Y-113292179D01*
X94030109Y-113120213D01*
X93879790Y-112969894D01*
X93879785Y-112969890D01*
X93817908Y-112924933D01*
X93817885Y-112924918D01*
X93707815Y-112844948D01*
X93518414Y-112748444D01*
X93518413Y-112748443D01*
X93518412Y-112748443D01*
X93316243Y-112682754D01*
X93316241Y-112682753D01*
X93316240Y-112682753D01*
X93154957Y-112657208D01*
X93106287Y-112649500D01*
X92893713Y-112649500D01*
X92845042Y-112657208D01*
X92683760Y-112682753D01*
X92481585Y-112748444D01*
X92292179Y-112844951D01*
X92120213Y-112969890D01*
X91969890Y-113120213D01*
X91844949Y-113292182D01*
X91840484Y-113300946D01*
X91792509Y-113351742D01*
X91724688Y-113368536D01*
X91658553Y-113345998D01*
X91619516Y-113300946D01*
X91615050Y-113292182D01*
X91490109Y-113120213D01*
X91339786Y-112969890D01*
X91167820Y-112844951D01*
X90978414Y-112748444D01*
X90978413Y-112748443D01*
X90978412Y-112748443D01*
X90776243Y-112682754D01*
X90776241Y-112682753D01*
X90776240Y-112682753D01*
X90614957Y-112657208D01*
X90566287Y-112649500D01*
X90353713Y-112649500D01*
X90305042Y-112657208D01*
X90143760Y-112682753D01*
X89941585Y-112748444D01*
X89752179Y-112844951D01*
X89580213Y-112969890D01*
X89429890Y-113120213D01*
X89304949Y-113292182D01*
X89300484Y-113300946D01*
X89252509Y-113351742D01*
X89184688Y-113368536D01*
X89118553Y-113345998D01*
X89079516Y-113300946D01*
X89075050Y-113292182D01*
X88950109Y-113120213D01*
X88799786Y-112969890D01*
X88627820Y-112844951D01*
X88438414Y-112748444D01*
X88438413Y-112748443D01*
X88438412Y-112748443D01*
X88236243Y-112682754D01*
X88236241Y-112682753D01*
X88236240Y-112682753D01*
X88074957Y-112657208D01*
X88026287Y-112649500D01*
X87813713Y-112649500D01*
X87765042Y-112657208D01*
X87603760Y-112682753D01*
X87401585Y-112748444D01*
X87212179Y-112844951D01*
X87040213Y-112969890D01*
X86889890Y-113120213D01*
X86764949Y-113292182D01*
X86760484Y-113300946D01*
X86712509Y-113351742D01*
X86644688Y-113368536D01*
X86578553Y-113345998D01*
X86539516Y-113300946D01*
X86535050Y-113292182D01*
X86410109Y-113120213D01*
X86259786Y-112969890D01*
X86087820Y-112844951D01*
X85898414Y-112748444D01*
X85898413Y-112748443D01*
X85898412Y-112748443D01*
X85696243Y-112682754D01*
X85696241Y-112682753D01*
X85696240Y-112682753D01*
X85534957Y-112657208D01*
X85486287Y-112649500D01*
X85273713Y-112649500D01*
X85225042Y-112657208D01*
X85063760Y-112682753D01*
X84861585Y-112748444D01*
X84672179Y-112844951D01*
X84500215Y-112969889D01*
X84386285Y-113083819D01*
X84324962Y-113117303D01*
X84255270Y-113112319D01*
X84199337Y-113070447D01*
X84182422Y-113039470D01*
X84133354Y-112907913D01*
X84133350Y-112907906D01*
X84047190Y-112792812D01*
X84047187Y-112792809D01*
X83932093Y-112706649D01*
X83932086Y-112706645D01*
X83797379Y-112656403D01*
X83797372Y-112656401D01*
X83737844Y-112650000D01*
X83090000Y-112650000D01*
X83090000Y-113566988D01*
X83032993Y-113534075D01*
X82905826Y-113500000D01*
X82774174Y-113500000D01*
X82647007Y-113534075D01*
X82590000Y-113566988D01*
X82590000Y-112650000D01*
X81942155Y-112650000D01*
X81882627Y-112656401D01*
X81882620Y-112656403D01*
X81747913Y-112706645D01*
X81747906Y-112706649D01*
X81632812Y-112792809D01*
X81632809Y-112792812D01*
X81546649Y-112907906D01*
X81546645Y-112907913D01*
X81496403Y-113042620D01*
X81496401Y-113042627D01*
X81490000Y-113102155D01*
X23000000Y-113102155D01*
X23000000Y-109381902D01*
X186999500Y-109381902D01*
X186999500Y-109618097D01*
X187036446Y-109851368D01*
X187109433Y-110075996D01*
X187216657Y-110286433D01*
X187355483Y-110477510D01*
X187522490Y-110644517D01*
X187713567Y-110783343D01*
X187812991Y-110834002D01*
X187924003Y-110890566D01*
X187924005Y-110890566D01*
X187924008Y-110890568D01*
X188044412Y-110929689D01*
X188148631Y-110963553D01*
X188381903Y-111000500D01*
X188381908Y-111000500D01*
X188618097Y-111000500D01*
X188851368Y-110963553D01*
X189075992Y-110890568D01*
X189286433Y-110783343D01*
X189477510Y-110644517D01*
X189644517Y-110477510D01*
X189783343Y-110286433D01*
X189890568Y-110075992D01*
X189963553Y-109851368D01*
X190000500Y-109618097D01*
X190000500Y-109381902D01*
X193499500Y-109381902D01*
X193499500Y-109618097D01*
X193536446Y-109851368D01*
X193609433Y-110075996D01*
X193716657Y-110286433D01*
X193855483Y-110477510D01*
X194022490Y-110644517D01*
X194213567Y-110783343D01*
X194312991Y-110834002D01*
X194424003Y-110890566D01*
X194424005Y-110890566D01*
X194424008Y-110890568D01*
X194544412Y-110929689D01*
X194648631Y-110963553D01*
X194881903Y-111000500D01*
X194881908Y-111000500D01*
X195118097Y-111000500D01*
X195351368Y-110963553D01*
X195575992Y-110890568D01*
X195786433Y-110783343D01*
X195977510Y-110644517D01*
X196144517Y-110477510D01*
X196283343Y-110286433D01*
X196390568Y-110075992D01*
X196463553Y-109851368D01*
X196500500Y-109618097D01*
X196500500Y-109381902D01*
X213499500Y-109381902D01*
X213499500Y-109618097D01*
X213536446Y-109851368D01*
X213609433Y-110075996D01*
X213716657Y-110286433D01*
X213855483Y-110477510D01*
X214022490Y-110644517D01*
X214213567Y-110783343D01*
X214312991Y-110834002D01*
X214424003Y-110890566D01*
X214424005Y-110890566D01*
X214424008Y-110890568D01*
X214544412Y-110929689D01*
X214648631Y-110963553D01*
X214881903Y-111000500D01*
X214881908Y-111000500D01*
X215118097Y-111000500D01*
X215351368Y-110963553D01*
X215575992Y-110890568D01*
X215786433Y-110783343D01*
X215977510Y-110644517D01*
X216144517Y-110477510D01*
X216283343Y-110286433D01*
X216390568Y-110075992D01*
X216463553Y-109851368D01*
X216500500Y-109618097D01*
X216500500Y-109381902D01*
X219999500Y-109381902D01*
X219999500Y-109618097D01*
X220036446Y-109851368D01*
X220109433Y-110075996D01*
X220216657Y-110286433D01*
X220355483Y-110477510D01*
X220522490Y-110644517D01*
X220713567Y-110783343D01*
X220812991Y-110834002D01*
X220924003Y-110890566D01*
X220924005Y-110890566D01*
X220924008Y-110890568D01*
X221044412Y-110929689D01*
X221148631Y-110963553D01*
X221381903Y-111000500D01*
X221381908Y-111000500D01*
X221618097Y-111000500D01*
X221851368Y-110963553D01*
X222075992Y-110890568D01*
X222286433Y-110783343D01*
X222477510Y-110644517D01*
X222644517Y-110477510D01*
X222783343Y-110286433D01*
X222890568Y-110075992D01*
X222963553Y-109851368D01*
X223000500Y-109618097D01*
X223000500Y-109381902D01*
X222963553Y-109148631D01*
X222890566Y-108924003D01*
X222783342Y-108713566D01*
X222644517Y-108522490D01*
X222477510Y-108355483D01*
X222286433Y-108216657D01*
X222075996Y-108109433D01*
X221851368Y-108036446D01*
X221618097Y-107999500D01*
X221618092Y-107999500D01*
X221381908Y-107999500D01*
X221381903Y-107999500D01*
X221148631Y-108036446D01*
X220924003Y-108109433D01*
X220713566Y-108216657D01*
X220604550Y-108295862D01*
X220522490Y-108355483D01*
X220522488Y-108355485D01*
X220522487Y-108355485D01*
X220355485Y-108522487D01*
X220355485Y-108522488D01*
X220355483Y-108522490D01*
X220295862Y-108604550D01*
X220216657Y-108713566D01*
X220109433Y-108924003D01*
X220036446Y-109148631D01*
X219999500Y-109381902D01*
X216500500Y-109381902D01*
X216463553Y-109148631D01*
X216390566Y-108924003D01*
X216283342Y-108713566D01*
X216144517Y-108522490D01*
X215977510Y-108355483D01*
X215786433Y-108216657D01*
X215575996Y-108109433D01*
X215351368Y-108036446D01*
X215118097Y-107999500D01*
X215118092Y-107999500D01*
X214881908Y-107999500D01*
X214881903Y-107999500D01*
X214648631Y-108036446D01*
X214424003Y-108109433D01*
X214213566Y-108216657D01*
X214104550Y-108295862D01*
X214022490Y-108355483D01*
X214022488Y-108355485D01*
X214022487Y-108355485D01*
X213855485Y-108522487D01*
X213855485Y-108522488D01*
X213855483Y-108522490D01*
X213795862Y-108604550D01*
X213716657Y-108713566D01*
X213609433Y-108924003D01*
X213536446Y-109148631D01*
X213499500Y-109381902D01*
X196500500Y-109381902D01*
X196463553Y-109148631D01*
X196390566Y-108924003D01*
X196283342Y-108713566D01*
X196144517Y-108522490D01*
X195977510Y-108355483D01*
X195786433Y-108216657D01*
X195575996Y-108109433D01*
X195351368Y-108036446D01*
X195118097Y-107999500D01*
X195118092Y-107999500D01*
X194881908Y-107999500D01*
X194881903Y-107999500D01*
X194648631Y-108036446D01*
X194424003Y-108109433D01*
X194213566Y-108216657D01*
X194104550Y-108295862D01*
X194022490Y-108355483D01*
X194022488Y-108355485D01*
X194022487Y-108355485D01*
X193855485Y-108522487D01*
X193855485Y-108522488D01*
X193855483Y-108522490D01*
X193795862Y-108604550D01*
X193716657Y-108713566D01*
X193609433Y-108924003D01*
X193536446Y-109148631D01*
X193499500Y-109381902D01*
X190000500Y-109381902D01*
X189963553Y-109148631D01*
X189890566Y-108924003D01*
X189783342Y-108713566D01*
X189644517Y-108522490D01*
X189477510Y-108355483D01*
X189286433Y-108216657D01*
X189075996Y-108109433D01*
X188851368Y-108036446D01*
X188618097Y-107999500D01*
X188618092Y-107999500D01*
X188381908Y-107999500D01*
X188381903Y-107999500D01*
X188148631Y-108036446D01*
X187924003Y-108109433D01*
X187713566Y-108216657D01*
X187604550Y-108295862D01*
X187522490Y-108355483D01*
X187522488Y-108355485D01*
X187522487Y-108355485D01*
X187355485Y-108522487D01*
X187355485Y-108522488D01*
X187355483Y-108522490D01*
X187295862Y-108604550D01*
X187216657Y-108713566D01*
X187109433Y-108924003D01*
X187036446Y-109148631D01*
X186999500Y-109381902D01*
X23000000Y-109381902D01*
X23000000Y-95893713D01*
X137949500Y-95893713D01*
X137949500Y-96106286D01*
X137982753Y-96316239D01*
X138048444Y-96518414D01*
X138144951Y-96707820D01*
X138269890Y-96879786D01*
X138420213Y-97030109D01*
X138592179Y-97155048D01*
X138592181Y-97155049D01*
X138592184Y-97155051D01*
X138781588Y-97251557D01*
X138983757Y-97317246D01*
X139193713Y-97350500D01*
X139193714Y-97350500D01*
X139406286Y-97350500D01*
X139406287Y-97350500D01*
X139616243Y-97317246D01*
X139818412Y-97251557D01*
X140007816Y-97155051D01*
X140094478Y-97092088D01*
X140179786Y-97030109D01*
X140179788Y-97030106D01*
X140179792Y-97030104D01*
X140330104Y-96879792D01*
X140330106Y-96879788D01*
X140330109Y-96879786D01*
X140455048Y-96707820D01*
X140455047Y-96707820D01*
X140455051Y-96707816D01*
X140459514Y-96699054D01*
X140507488Y-96648259D01*
X140575308Y-96631463D01*
X140641444Y-96653999D01*
X140680486Y-96699056D01*
X140684951Y-96707820D01*
X140809890Y-96879786D01*
X140960213Y-97030109D01*
X141132179Y-97155048D01*
X141132181Y-97155049D01*
X141132184Y-97155051D01*
X141321588Y-97251557D01*
X141523757Y-97317246D01*
X141733713Y-97350500D01*
X141733714Y-97350500D01*
X141946286Y-97350500D01*
X141946287Y-97350500D01*
X142156243Y-97317246D01*
X142358412Y-97251557D01*
X142547816Y-97155051D01*
X142634478Y-97092088D01*
X142719786Y-97030109D01*
X142719788Y-97030106D01*
X142719792Y-97030104D01*
X142870104Y-96879792D01*
X142870106Y-96879788D01*
X142870109Y-96879786D01*
X142995048Y-96707820D01*
X142995047Y-96707820D01*
X142995051Y-96707816D01*
X142999514Y-96699054D01*
X143047488Y-96648259D01*
X143115308Y-96631463D01*
X143181444Y-96653999D01*
X143220486Y-96699056D01*
X143224951Y-96707820D01*
X143349890Y-96879786D01*
X143500213Y-97030109D01*
X143672179Y-97155048D01*
X143672181Y-97155049D01*
X143672184Y-97155051D01*
X143861588Y-97251557D01*
X144063757Y-97317246D01*
X144273713Y-97350500D01*
X144273714Y-97350500D01*
X144486286Y-97350500D01*
X144486287Y-97350500D01*
X144696243Y-97317246D01*
X144898412Y-97251557D01*
X145087816Y-97155051D01*
X145174478Y-97092088D01*
X145259786Y-97030109D01*
X145259788Y-97030106D01*
X145259792Y-97030104D01*
X145410104Y-96879792D01*
X145410106Y-96879788D01*
X145410109Y-96879786D01*
X145535048Y-96707820D01*
X145535047Y-96707820D01*
X145535051Y-96707816D01*
X145539514Y-96699054D01*
X145587488Y-96648259D01*
X145655308Y-96631463D01*
X145721444Y-96653999D01*
X145760486Y-96699056D01*
X145764951Y-96707820D01*
X145889890Y-96879786D01*
X146040213Y-97030109D01*
X146212179Y-97155048D01*
X146212181Y-97155049D01*
X146212184Y-97155051D01*
X146401588Y-97251557D01*
X146603757Y-97317246D01*
X146813713Y-97350500D01*
X146813714Y-97350500D01*
X147026286Y-97350500D01*
X147026287Y-97350500D01*
X147236243Y-97317246D01*
X147438412Y-97251557D01*
X147627816Y-97155051D01*
X147714478Y-97092088D01*
X147799786Y-97030109D01*
X147799788Y-97030106D01*
X147799792Y-97030104D01*
X147950104Y-96879792D01*
X147950106Y-96879788D01*
X147950109Y-96879786D01*
X148075048Y-96707820D01*
X148075047Y-96707820D01*
X148075051Y-96707816D01*
X148079514Y-96699054D01*
X148127488Y-96648259D01*
X148195308Y-96631463D01*
X148261444Y-96653999D01*
X148300486Y-96699056D01*
X148304951Y-96707820D01*
X148429890Y-96879786D01*
X148580213Y-97030109D01*
X148752179Y-97155048D01*
X148752181Y-97155049D01*
X148752184Y-97155051D01*
X148941588Y-97251557D01*
X149143757Y-97317246D01*
X149353713Y-97350500D01*
X149353714Y-97350500D01*
X149566286Y-97350500D01*
X149566287Y-97350500D01*
X149776243Y-97317246D01*
X149978412Y-97251557D01*
X150167816Y-97155051D01*
X150254478Y-97092088D01*
X150339786Y-97030109D01*
X150339788Y-97030106D01*
X150339792Y-97030104D01*
X150490104Y-96879792D01*
X150490106Y-96879788D01*
X150490109Y-96879786D01*
X150615048Y-96707820D01*
X150615047Y-96707820D01*
X150615051Y-96707816D01*
X150619514Y-96699054D01*
X150667488Y-96648259D01*
X150735308Y-96631463D01*
X150801444Y-96653999D01*
X150840486Y-96699056D01*
X150844951Y-96707820D01*
X150969890Y-96879786D01*
X151120213Y-97030109D01*
X151292179Y-97155048D01*
X151292181Y-97155049D01*
X151292184Y-97155051D01*
X151481588Y-97251557D01*
X151683757Y-97317246D01*
X151893713Y-97350500D01*
X151893714Y-97350500D01*
X152106286Y-97350500D01*
X152106287Y-97350500D01*
X152316243Y-97317246D01*
X152518412Y-97251557D01*
X152707816Y-97155051D01*
X152794478Y-97092088D01*
X152879786Y-97030109D01*
X152879788Y-97030106D01*
X152879792Y-97030104D01*
X153030104Y-96879792D01*
X153030106Y-96879788D01*
X153030109Y-96879786D01*
X153155048Y-96707820D01*
X153155047Y-96707820D01*
X153155051Y-96707816D01*
X153159514Y-96699054D01*
X153207488Y-96648259D01*
X153275308Y-96631463D01*
X153341444Y-96653999D01*
X153380486Y-96699056D01*
X153384951Y-96707820D01*
X153509890Y-96879786D01*
X153660213Y-97030109D01*
X153832179Y-97155048D01*
X153832181Y-97155049D01*
X153832184Y-97155051D01*
X154021588Y-97251557D01*
X154223757Y-97317246D01*
X154433713Y-97350500D01*
X154433714Y-97350500D01*
X154646286Y-97350500D01*
X154646287Y-97350500D01*
X154856243Y-97317246D01*
X155058412Y-97251557D01*
X155247816Y-97155051D01*
X155334478Y-97092088D01*
X155419784Y-97030110D01*
X155419784Y-97030109D01*
X155419792Y-97030104D01*
X155533717Y-96916178D01*
X155595036Y-96882696D01*
X155664728Y-96887680D01*
X155720662Y-96929551D01*
X155737577Y-96960528D01*
X155786646Y-97092088D01*
X155786649Y-97092093D01*
X155872809Y-97207187D01*
X155872812Y-97207190D01*
X155987906Y-97293350D01*
X155987913Y-97293354D01*
X156122620Y-97343596D01*
X156122627Y-97343598D01*
X156182155Y-97349999D01*
X156182172Y-97350000D01*
X156830000Y-97350000D01*
X156830000Y-96433012D01*
X156887007Y-96465925D01*
X157014174Y-96500000D01*
X157145826Y-96500000D01*
X157272993Y-96465925D01*
X157330000Y-96433012D01*
X157330000Y-97350000D01*
X157977828Y-97350000D01*
X157977844Y-97349999D01*
X158037372Y-97343598D01*
X158037379Y-97343596D01*
X158172086Y-97293354D01*
X158172093Y-97293350D01*
X158287187Y-97207190D01*
X158287190Y-97207187D01*
X158373350Y-97092093D01*
X158373354Y-97092086D01*
X158423596Y-96957379D01*
X158423598Y-96957372D01*
X158429999Y-96897844D01*
X158430000Y-96897827D01*
X158430000Y-96250000D01*
X157513012Y-96250000D01*
X157545925Y-96192993D01*
X157580000Y-96065826D01*
X157580000Y-95934174D01*
X157545925Y-95807007D01*
X157513012Y-95750000D01*
X158430000Y-95750000D01*
X158430000Y-95102172D01*
X158429999Y-95102155D01*
X158423598Y-95042627D01*
X158423596Y-95042620D01*
X158373354Y-94907913D01*
X158373350Y-94907906D01*
X158287190Y-94792812D01*
X158287187Y-94792809D01*
X158172093Y-94706649D01*
X158172086Y-94706645D01*
X158037379Y-94656403D01*
X158037372Y-94656401D01*
X157977844Y-94650000D01*
X157330000Y-94650000D01*
X157330000Y-95566988D01*
X157272993Y-95534075D01*
X157145826Y-95500000D01*
X157014174Y-95500000D01*
X156887007Y-95534075D01*
X156830000Y-95566988D01*
X156830000Y-94650000D01*
X156182155Y-94650000D01*
X156122627Y-94656401D01*
X156122620Y-94656403D01*
X155987913Y-94706645D01*
X155987906Y-94706649D01*
X155872812Y-94792809D01*
X155872809Y-94792812D01*
X155786649Y-94907906D01*
X155786646Y-94907912D01*
X155737577Y-95039471D01*
X155695705Y-95095404D01*
X155630241Y-95119821D01*
X155561968Y-95104969D01*
X155533714Y-95083818D01*
X155419786Y-94969890D01*
X155247820Y-94844951D01*
X155058414Y-94748444D01*
X155058413Y-94748443D01*
X155058412Y-94748443D01*
X154856243Y-94682754D01*
X154856241Y-94682753D01*
X154856240Y-94682753D01*
X154694957Y-94657208D01*
X154646287Y-94649500D01*
X154433713Y-94649500D01*
X154385042Y-94657208D01*
X154223760Y-94682753D01*
X154021585Y-94748444D01*
X153832179Y-94844951D01*
X153660213Y-94969890D01*
X153509890Y-95120213D01*
X153384949Y-95292182D01*
X153380484Y-95300946D01*
X153332509Y-95351742D01*
X153264688Y-95368536D01*
X153198553Y-95345998D01*
X153159516Y-95300946D01*
X153155050Y-95292182D01*
X153030109Y-95120213D01*
X152879786Y-94969890D01*
X152707820Y-94844951D01*
X152518414Y-94748444D01*
X152518413Y-94748443D01*
X152518412Y-94748443D01*
X152316243Y-94682754D01*
X152316241Y-94682753D01*
X152316240Y-94682753D01*
X152154957Y-94657208D01*
X152106287Y-94649500D01*
X151893713Y-94649500D01*
X151845042Y-94657208D01*
X151683760Y-94682753D01*
X151481585Y-94748444D01*
X151292179Y-94844951D01*
X151120213Y-94969890D01*
X150969890Y-95120213D01*
X150844949Y-95292182D01*
X150840484Y-95300946D01*
X150792509Y-95351742D01*
X150724688Y-95368536D01*
X150658553Y-95345998D01*
X150619516Y-95300946D01*
X150615050Y-95292182D01*
X150490109Y-95120213D01*
X150339786Y-94969890D01*
X150167820Y-94844951D01*
X149978414Y-94748444D01*
X149978413Y-94748443D01*
X149978412Y-94748443D01*
X149776243Y-94682754D01*
X149776241Y-94682753D01*
X149776240Y-94682753D01*
X149614957Y-94657208D01*
X149566287Y-94649500D01*
X149353713Y-94649500D01*
X149305042Y-94657208D01*
X149143760Y-94682753D01*
X148941585Y-94748444D01*
X148752179Y-94844951D01*
X148580213Y-94969890D01*
X148429890Y-95120213D01*
X148304949Y-95292182D01*
X148300484Y-95300946D01*
X148252509Y-95351742D01*
X148184688Y-95368536D01*
X148118553Y-95345998D01*
X148079516Y-95300946D01*
X148075050Y-95292182D01*
X147950109Y-95120213D01*
X147799786Y-94969890D01*
X147627820Y-94844951D01*
X147438414Y-94748444D01*
X147438413Y-94748443D01*
X147438412Y-94748443D01*
X147236243Y-94682754D01*
X147236241Y-94682753D01*
X147236240Y-94682753D01*
X147074957Y-94657208D01*
X147026287Y-94649500D01*
X146813713Y-94649500D01*
X146765042Y-94657208D01*
X146603760Y-94682753D01*
X146401585Y-94748444D01*
X146212179Y-94844951D01*
X146040213Y-94969890D01*
X145889890Y-95120213D01*
X145764949Y-95292182D01*
X145760484Y-95300946D01*
X145712509Y-95351742D01*
X145644688Y-95368536D01*
X145578553Y-95345998D01*
X145539516Y-95300946D01*
X145535050Y-95292182D01*
X145410109Y-95120213D01*
X145259786Y-94969890D01*
X145087820Y-94844951D01*
X144898414Y-94748444D01*
X144898413Y-94748443D01*
X144898412Y-94748443D01*
X144696243Y-94682754D01*
X144696241Y-94682753D01*
X144696240Y-94682753D01*
X144534957Y-94657208D01*
X144486287Y-94649500D01*
X144273713Y-94649500D01*
X144225042Y-94657208D01*
X144063760Y-94682753D01*
X143861585Y-94748444D01*
X143672179Y-94844951D01*
X143500213Y-94969890D01*
X143349890Y-95120213D01*
X143224949Y-95292182D01*
X143220484Y-95300946D01*
X143172509Y-95351742D01*
X143104688Y-95368536D01*
X143038553Y-95345998D01*
X142999516Y-95300946D01*
X142995050Y-95292182D01*
X142870109Y-95120213D01*
X142719786Y-94969890D01*
X142547820Y-94844951D01*
X142358414Y-94748444D01*
X142358413Y-94748443D01*
X142358412Y-94748443D01*
X142156243Y-94682754D01*
X142156241Y-94682753D01*
X142156240Y-94682753D01*
X141994957Y-94657208D01*
X141946287Y-94649500D01*
X141733713Y-94649500D01*
X141685042Y-94657208D01*
X141523760Y-94682753D01*
X141321585Y-94748444D01*
X141132179Y-94844951D01*
X140960213Y-94969890D01*
X140809890Y-95120213D01*
X140684949Y-95292182D01*
X140680484Y-95300946D01*
X140632509Y-95351742D01*
X140564688Y-95368536D01*
X140498553Y-95345998D01*
X140459516Y-95300946D01*
X140455050Y-95292182D01*
X140330109Y-95120213D01*
X140179786Y-94969890D01*
X140007820Y-94844951D01*
X139818414Y-94748444D01*
X139818413Y-94748443D01*
X139818412Y-94748443D01*
X139616243Y-94682754D01*
X139616241Y-94682753D01*
X139616240Y-94682753D01*
X139454957Y-94657208D01*
X139406287Y-94649500D01*
X139193713Y-94649500D01*
X139145042Y-94657208D01*
X138983760Y-94682753D01*
X138781585Y-94748444D01*
X138592179Y-94844951D01*
X138420213Y-94969890D01*
X138269890Y-95120213D01*
X138144951Y-95292179D01*
X138048444Y-95481585D01*
X137982753Y-95683760D01*
X137949500Y-95893713D01*
X23000000Y-95893713D01*
X23000000Y-80921153D01*
X132199500Y-80921153D01*
X132199500Y-81078846D01*
X132230261Y-81233489D01*
X132230264Y-81233501D01*
X132290602Y-81379172D01*
X132290609Y-81379184D01*
X132353602Y-81473459D01*
X132374480Y-81540136D01*
X132374500Y-81542350D01*
X132374500Y-83457650D01*
X132354815Y-83524689D01*
X132353602Y-83526541D01*
X132290609Y-83620815D01*
X132290602Y-83620828D01*
X132230264Y-83766498D01*
X132230261Y-83766510D01*
X132199500Y-83921153D01*
X132199500Y-84078846D01*
X132230261Y-84233489D01*
X132230264Y-84233501D01*
X132290602Y-84379172D01*
X132290609Y-84379185D01*
X132378210Y-84510288D01*
X132378213Y-84510292D01*
X132489707Y-84621786D01*
X132489711Y-84621789D01*
X132620814Y-84709390D01*
X132620827Y-84709397D01*
X132758683Y-84766498D01*
X132766503Y-84769737D01*
X132921153Y-84800499D01*
X132921156Y-84800500D01*
X132921158Y-84800500D01*
X133078844Y-84800500D01*
X133078845Y-84800499D01*
X133233497Y-84769737D01*
X133379179Y-84709394D01*
X133510289Y-84621789D01*
X133621789Y-84510289D01*
X133709394Y-84379179D01*
X133769737Y-84233497D01*
X133800500Y-84078842D01*
X133800500Y-83921158D01*
X133800500Y-83921155D01*
X133800499Y-83921153D01*
X133792148Y-83879172D01*
X133769737Y-83766503D01*
X133734575Y-83681613D01*
X133709397Y-83620828D01*
X133709396Y-83620827D01*
X133709394Y-83620821D01*
X133646397Y-83526539D01*
X133625520Y-83459863D01*
X133625500Y-83457650D01*
X133625500Y-81542350D01*
X133630271Y-81525659D01*
X133630034Y-81509124D01*
X133643200Y-81480426D01*
X133644234Y-81476813D01*
X133645286Y-81475122D01*
X133681347Y-81421153D01*
X134699500Y-81421153D01*
X134699500Y-81578846D01*
X134730261Y-81733489D01*
X134730264Y-81733501D01*
X134790602Y-81879172D01*
X134790609Y-81879184D01*
X134853602Y-81973459D01*
X134874480Y-82040136D01*
X134874500Y-82042350D01*
X134874500Y-82957650D01*
X134854815Y-83024689D01*
X134853602Y-83026541D01*
X134790609Y-83120815D01*
X134790602Y-83120828D01*
X134730264Y-83266498D01*
X134730261Y-83266510D01*
X134699500Y-83421153D01*
X134699500Y-83578846D01*
X134730261Y-83733489D01*
X134730264Y-83733501D01*
X134790602Y-83879172D01*
X134790609Y-83879185D01*
X134878210Y-84010288D01*
X134878213Y-84010292D01*
X134989707Y-84121786D01*
X134989711Y-84121789D01*
X135120814Y-84209390D01*
X135120827Y-84209397D01*
X135258683Y-84266498D01*
X135266503Y-84269737D01*
X135392402Y-84294780D01*
X135421153Y-84300499D01*
X135421156Y-84300500D01*
X135421158Y-84300500D01*
X135578844Y-84300500D01*
X135578845Y-84300499D01*
X135733497Y-84269737D01*
X135879179Y-84209394D01*
X136010289Y-84121789D01*
X136121789Y-84010289D01*
X136209394Y-83879179D01*
X136269737Y-83733497D01*
X136300500Y-83578842D01*
X136300500Y-83421158D01*
X136300500Y-83421155D01*
X136300499Y-83421153D01*
X136270380Y-83269735D01*
X136269737Y-83266503D01*
X136250424Y-83219879D01*
X136242956Y-83150410D01*
X136274231Y-83087931D01*
X136334320Y-83052279D01*
X136404145Y-83054773D01*
X136452667Y-83084746D01*
X136489707Y-83121786D01*
X136489711Y-83121789D01*
X136620814Y-83209390D01*
X136620827Y-83209397D01*
X136758683Y-83266498D01*
X136766503Y-83269737D01*
X136921153Y-83300499D01*
X136921156Y-83300500D01*
X136921158Y-83300500D01*
X137078844Y-83300500D01*
X137078845Y-83300499D01*
X137233497Y-83269737D01*
X137379179Y-83209394D01*
X137473459Y-83146398D01*
X137540136Y-83125520D01*
X137542350Y-83125500D01*
X138192650Y-83125500D01*
X138259689Y-83145185D01*
X138261541Y-83146398D01*
X138355821Y-83209394D01*
X138355823Y-83209395D01*
X138355827Y-83209397D01*
X138493683Y-83266498D01*
X138501503Y-83269737D01*
X138656153Y-83300499D01*
X138656156Y-83300500D01*
X138656158Y-83300500D01*
X138813844Y-83300500D01*
X138813845Y-83300499D01*
X138968497Y-83269737D01*
X139114179Y-83209394D01*
X139136628Y-83194394D01*
X139181609Y-83164339D01*
X139248286Y-83143461D01*
X139315666Y-83161945D01*
X139362357Y-83213924D01*
X139374500Y-83267441D01*
X139374500Y-85689547D01*
X139365855Y-85718987D01*
X139359332Y-85748974D01*
X139355577Y-85753989D01*
X139354815Y-85756586D01*
X139338181Y-85777228D01*
X139193906Y-85921503D01*
X139132583Y-85954988D01*
X139130416Y-85955439D01*
X139019212Y-85977559D01*
X139019200Y-85977562D01*
X138873529Y-86037900D01*
X138873516Y-86037907D01*
X138742413Y-86125508D01*
X138742409Y-86125511D01*
X138630915Y-86237005D01*
X138630912Y-86237009D01*
X138543311Y-86368112D01*
X138543304Y-86368125D01*
X138482966Y-86513796D01*
X138482963Y-86513808D01*
X138452202Y-86668451D01*
X138452202Y-86826144D01*
X138482963Y-86980787D01*
X138482966Y-86980799D01*
X138543304Y-87126470D01*
X138543311Y-87126483D01*
X138630912Y-87257586D01*
X138630915Y-87257590D01*
X138742409Y-87369084D01*
X138742413Y-87369087D01*
X138873516Y-87456688D01*
X138873529Y-87456695D01*
X139019200Y-87517033D01*
X139019205Y-87517035D01*
X139173855Y-87547797D01*
X139173858Y-87547798D01*
X139173860Y-87547798D01*
X139331546Y-87547798D01*
X139331547Y-87547797D01*
X139486199Y-87517035D01*
X139631881Y-87456692D01*
X139762991Y-87369087D01*
X139874491Y-87257587D01*
X139962096Y-87126477D01*
X140022439Y-86980795D01*
X140044560Y-86869580D01*
X140076942Y-86807673D01*
X140078437Y-86806151D01*
X140398729Y-86485860D01*
X140398733Y-86485858D01*
X140485858Y-86398733D01*
X140554311Y-86296286D01*
X140554312Y-86296285D01*
X140554313Y-86296282D01*
X140554315Y-86296279D01*
X140564672Y-86271272D01*
X140601463Y-86182451D01*
X140625500Y-86061607D01*
X140625500Y-85938393D01*
X140625500Y-82367350D01*
X140645185Y-82300311D01*
X140646398Y-82298459D01*
X140651236Y-82291219D01*
X140709394Y-82204179D01*
X140769737Y-82058497D01*
X140800500Y-81903842D01*
X140800500Y-81746158D01*
X140800500Y-81746155D01*
X140800499Y-81746153D01*
X140795396Y-81720500D01*
X140769737Y-81591503D01*
X140750005Y-81543865D01*
X140709397Y-81445827D01*
X140709390Y-81445814D01*
X140621789Y-81314711D01*
X140621786Y-81314707D01*
X140510292Y-81203213D01*
X140510288Y-81203210D01*
X140379185Y-81115609D01*
X140379172Y-81115602D01*
X140233501Y-81055264D01*
X140233491Y-81055261D01*
X140140092Y-81036683D01*
X140140091Y-81036682D01*
X140078845Y-81024500D01*
X140078842Y-81024500D01*
X139921158Y-81024500D01*
X139921155Y-81024500D01*
X139766510Y-81055261D01*
X139766498Y-81055264D01*
X139620827Y-81115602D01*
X139620814Y-81115609D01*
X139489711Y-81203210D01*
X139489707Y-81203213D01*
X139378213Y-81314707D01*
X139378210Y-81314711D01*
X139290609Y-81445814D01*
X139290602Y-81445827D01*
X139230264Y-81591498D01*
X139230261Y-81591508D01*
X139214313Y-81671683D01*
X139181927Y-81733594D01*
X139121211Y-81768168D01*
X139051442Y-81764427D01*
X139045244Y-81762052D01*
X138968501Y-81730264D01*
X138968489Y-81730261D01*
X138813845Y-81699500D01*
X138813842Y-81699500D01*
X138656158Y-81699500D01*
X138656155Y-81699500D01*
X138501510Y-81730261D01*
X138501498Y-81730264D01*
X138355827Y-81790602D01*
X138355815Y-81790609D01*
X138261541Y-81853602D01*
X138194864Y-81874480D01*
X138192650Y-81874500D01*
X137542350Y-81874500D01*
X137475311Y-81854815D01*
X137473459Y-81853602D01*
X137379184Y-81790609D01*
X137379172Y-81790602D01*
X137233501Y-81730264D01*
X137233489Y-81730261D01*
X137078845Y-81699500D01*
X137078842Y-81699500D01*
X136921158Y-81699500D01*
X136921155Y-81699500D01*
X136766510Y-81730261D01*
X136766498Y-81730264D01*
X136620827Y-81790602D01*
X136620814Y-81790609D01*
X136489711Y-81878210D01*
X136489706Y-81878214D01*
X136452666Y-81915254D01*
X136391343Y-81948739D01*
X136321651Y-81943753D01*
X136265718Y-81901881D01*
X136241302Y-81836417D01*
X136250424Y-81780121D01*
X136269737Y-81733497D01*
X136300500Y-81578842D01*
X136300500Y-81421158D01*
X136300500Y-81421155D01*
X136300499Y-81421153D01*
X136275426Y-81295103D01*
X136269737Y-81266503D01*
X136243521Y-81203211D01*
X136209397Y-81120827D01*
X136209390Y-81120814D01*
X136121789Y-80989711D01*
X136121786Y-80989707D01*
X136053232Y-80921153D01*
X141699500Y-80921153D01*
X141699500Y-81078846D01*
X141730261Y-81233489D01*
X141730264Y-81233501D01*
X141790602Y-81379172D01*
X141790609Y-81379184D01*
X141853602Y-81473459D01*
X141874480Y-81540136D01*
X141874500Y-81542350D01*
X141874500Y-89957650D01*
X141854815Y-90024689D01*
X141853602Y-90026541D01*
X141790609Y-90120815D01*
X141790602Y-90120828D01*
X141730264Y-90266498D01*
X141730261Y-90266510D01*
X141699500Y-90421153D01*
X141699500Y-90578846D01*
X141730261Y-90733489D01*
X141730264Y-90733501D01*
X141790602Y-90879172D01*
X141790609Y-90879185D01*
X141878210Y-91010288D01*
X141878213Y-91010292D01*
X141989707Y-91121786D01*
X141989711Y-91121789D01*
X142120814Y-91209390D01*
X142120827Y-91209397D01*
X142266498Y-91269735D01*
X142266503Y-91269737D01*
X142421153Y-91300499D01*
X142421156Y-91300500D01*
X142421158Y-91300500D01*
X142578844Y-91300500D01*
X142578845Y-91300499D01*
X142733497Y-91269737D01*
X142879179Y-91209394D01*
X143010289Y-91121789D01*
X143121789Y-91010289D01*
X143209394Y-90879179D01*
X143269737Y-90733497D01*
X143300500Y-90578842D01*
X143300500Y-90421158D01*
X143300500Y-90421155D01*
X143300499Y-90421153D01*
X143299675Y-90417007D01*
X143295831Y-90397682D01*
X225700000Y-90397682D01*
X225700000Y-90602317D01*
X225732009Y-90804417D01*
X225795244Y-90999031D01*
X225888141Y-91181350D01*
X225888147Y-91181359D01*
X225920523Y-91225921D01*
X225920524Y-91225922D01*
X226600000Y-90546446D01*
X226600000Y-90552661D01*
X226627259Y-90654394D01*
X226679920Y-90745606D01*
X226754394Y-90820080D01*
X226845606Y-90872741D01*
X226947339Y-90900000D01*
X226953553Y-90900000D01*
X226274076Y-91579474D01*
X226318650Y-91611859D01*
X226500968Y-91704755D01*
X226695582Y-91767990D01*
X226897683Y-91800000D01*
X227102317Y-91800000D01*
X227304417Y-91767990D01*
X227499031Y-91704755D01*
X227681349Y-91611859D01*
X227725921Y-91579474D01*
X227046447Y-90900000D01*
X227052661Y-90900000D01*
X227154394Y-90872741D01*
X227245606Y-90820080D01*
X227320080Y-90745606D01*
X227372741Y-90654394D01*
X227400000Y-90552661D01*
X227400000Y-90546447D01*
X228079474Y-91225921D01*
X228111859Y-91181349D01*
X228204755Y-90999031D01*
X228267990Y-90804417D01*
X228300000Y-90602317D01*
X228300000Y-90397682D01*
X228267990Y-90195582D01*
X228204755Y-90000968D01*
X228111859Y-89818650D01*
X228079474Y-89774077D01*
X228079474Y-89774076D01*
X227400000Y-90453551D01*
X227400000Y-90447339D01*
X227372741Y-90345606D01*
X227320080Y-90254394D01*
X227245606Y-90179920D01*
X227154394Y-90127259D01*
X227052661Y-90100000D01*
X227046446Y-90100000D01*
X227725922Y-89420524D01*
X227725921Y-89420523D01*
X227681359Y-89388147D01*
X227681350Y-89388141D01*
X227499031Y-89295244D01*
X227304417Y-89232009D01*
X227102317Y-89200000D01*
X226897683Y-89200000D01*
X226695582Y-89232009D01*
X226500968Y-89295244D01*
X226318644Y-89388143D01*
X226274077Y-89420523D01*
X226274077Y-89420524D01*
X226953554Y-90100000D01*
X226947339Y-90100000D01*
X226845606Y-90127259D01*
X226754394Y-90179920D01*
X226679920Y-90254394D01*
X226627259Y-90345606D01*
X226600000Y-90447339D01*
X226600000Y-90453553D01*
X225920524Y-89774077D01*
X225920523Y-89774077D01*
X225888143Y-89818644D01*
X225795244Y-90000968D01*
X225732009Y-90195582D01*
X225700000Y-90397682D01*
X143295831Y-90397682D01*
X143269738Y-90266510D01*
X143269737Y-90266503D01*
X143240361Y-90195582D01*
X143209397Y-90120828D01*
X143209396Y-90120827D01*
X143209394Y-90120821D01*
X143146397Y-90026539D01*
X143125520Y-89959863D01*
X143125500Y-89957650D01*
X143125500Y-81542350D01*
X143130271Y-81525659D01*
X143130034Y-81509124D01*
X143143200Y-81480426D01*
X143144234Y-81476813D01*
X143145286Y-81475122D01*
X143181347Y-81421153D01*
X187699500Y-81421153D01*
X187699500Y-81578846D01*
X187730261Y-81733489D01*
X187730264Y-81733501D01*
X187790602Y-81879172D01*
X187790609Y-81879184D01*
X187853602Y-81973459D01*
X187874480Y-82040136D01*
X187874500Y-82042350D01*
X187874500Y-83957650D01*
X187854815Y-84024689D01*
X187853602Y-84026541D01*
X187790609Y-84120815D01*
X187790602Y-84120828D01*
X187730264Y-84266498D01*
X187730261Y-84266510D01*
X187699500Y-84421153D01*
X187699500Y-84578846D01*
X187730261Y-84733489D01*
X187730264Y-84733501D01*
X187790602Y-84879172D01*
X187790609Y-84879185D01*
X187878210Y-85010288D01*
X187878213Y-85010292D01*
X187989707Y-85121786D01*
X187989711Y-85121789D01*
X188120814Y-85209390D01*
X188120827Y-85209397D01*
X188266498Y-85269735D01*
X188266503Y-85269737D01*
X188421153Y-85300499D01*
X188421156Y-85300500D01*
X188421158Y-85300500D01*
X188578844Y-85300500D01*
X188578845Y-85300499D01*
X188733497Y-85269737D01*
X188879179Y-85209394D01*
X189010289Y-85121789D01*
X189121789Y-85010289D01*
X189209394Y-84879179D01*
X189269737Y-84733497D01*
X189300500Y-84578842D01*
X189300500Y-84421158D01*
X189300500Y-84421155D01*
X189300499Y-84421153D01*
X189275362Y-84294781D01*
X189269737Y-84266503D01*
X189269735Y-84266498D01*
X189209397Y-84120828D01*
X189209396Y-84120827D01*
X189209394Y-84120821D01*
X189146397Y-84026539D01*
X189125520Y-83959863D01*
X189125500Y-83957650D01*
X189125500Y-82042350D01*
X189145185Y-81975311D01*
X189146398Y-81973459D01*
X189166247Y-81943753D01*
X189209394Y-81879179D01*
X189269737Y-81733497D01*
X189300500Y-81578842D01*
X189300500Y-81421158D01*
X189300500Y-81421155D01*
X189300499Y-81421153D01*
X196699500Y-81421153D01*
X196699500Y-81578846D01*
X196730261Y-81733489D01*
X196730264Y-81733501D01*
X196790602Y-81879172D01*
X196790609Y-81879185D01*
X196878210Y-82010288D01*
X196878213Y-82010292D01*
X196989707Y-82121786D01*
X196989711Y-82121789D01*
X197120814Y-82209390D01*
X197120827Y-82209397D01*
X197206531Y-82244896D01*
X197266503Y-82269737D01*
X197274691Y-82271365D01*
X197336601Y-82303750D01*
X197371176Y-82364465D01*
X197374500Y-82392983D01*
X197374500Y-84457650D01*
X197354815Y-84524689D01*
X197353602Y-84526541D01*
X197290609Y-84620815D01*
X197290602Y-84620828D01*
X197230264Y-84766498D01*
X197230261Y-84766510D01*
X197199500Y-84921153D01*
X197199500Y-85078846D01*
X197230261Y-85233489D01*
X197230264Y-85233501D01*
X197290602Y-85379172D01*
X197290609Y-85379185D01*
X197378210Y-85510288D01*
X197378213Y-85510292D01*
X197489707Y-85621786D01*
X197489711Y-85621789D01*
X197620814Y-85709390D01*
X197620827Y-85709397D01*
X197734753Y-85756586D01*
X197766503Y-85769737D01*
X197921153Y-85800499D01*
X197921156Y-85800500D01*
X197921158Y-85800500D01*
X198078844Y-85800500D01*
X198078845Y-85800499D01*
X198233497Y-85769737D01*
X198379179Y-85709394D01*
X198510289Y-85621789D01*
X198621789Y-85510289D01*
X198697053Y-85397648D01*
X225699500Y-85397648D01*
X225699500Y-85602351D01*
X225731522Y-85804534D01*
X225794781Y-85999223D01*
X225887715Y-86181613D01*
X226008028Y-86347213D01*
X226152786Y-86491971D01*
X226307749Y-86604556D01*
X226318390Y-86612287D01*
X226428618Y-86668451D01*
X226500776Y-86705218D01*
X226500778Y-86705218D01*
X226500781Y-86705220D01*
X226605137Y-86739127D01*
X226695465Y-86768477D01*
X226796557Y-86784488D01*
X226897648Y-86800500D01*
X226897649Y-86800500D01*
X227102351Y-86800500D01*
X227102352Y-86800500D01*
X227304534Y-86768477D01*
X227499219Y-86705220D01*
X227681610Y-86612287D01*
X227817156Y-86513808D01*
X227847213Y-86491971D01*
X227847215Y-86491968D01*
X227847219Y-86491966D01*
X227991966Y-86347219D01*
X227991968Y-86347215D01*
X227991971Y-86347213D01*
X228044732Y-86274590D01*
X228112287Y-86181610D01*
X228205220Y-85999219D01*
X228268477Y-85804534D01*
X228300500Y-85602352D01*
X228300500Y-85397648D01*
X228274499Y-85233489D01*
X228268477Y-85195465D01*
X228230584Y-85078844D01*
X228205220Y-85000781D01*
X228205218Y-85000778D01*
X228205218Y-85000776D01*
X228164647Y-84921153D01*
X228112287Y-84818390D01*
X228076939Y-84769737D01*
X227991971Y-84652786D01*
X227847213Y-84508028D01*
X227681613Y-84387715D01*
X227681612Y-84387714D01*
X227681610Y-84387713D01*
X227624653Y-84358691D01*
X227499223Y-84294781D01*
X227304534Y-84231522D01*
X227129995Y-84203878D01*
X227102352Y-84199500D01*
X226897648Y-84199500D01*
X226873329Y-84203351D01*
X226695465Y-84231522D01*
X226500776Y-84294781D01*
X226318386Y-84387715D01*
X226152786Y-84508028D01*
X226008028Y-84652786D01*
X225887715Y-84818386D01*
X225794781Y-85000776D01*
X225731522Y-85195465D01*
X225699500Y-85397648D01*
X198697053Y-85397648D01*
X198709394Y-85379179D01*
X198769737Y-85233497D01*
X198800500Y-85078842D01*
X198800500Y-84921158D01*
X198800500Y-84921155D01*
X198800499Y-84921153D01*
X198769738Y-84766510D01*
X198769737Y-84766503D01*
X198709394Y-84620821D01*
X198646397Y-84526539D01*
X198625520Y-84459863D01*
X198625500Y-84457650D01*
X198625500Y-82897648D01*
X212039500Y-82897648D01*
X212039500Y-83102351D01*
X212071522Y-83304534D01*
X212134781Y-83499223D01*
X212175350Y-83578842D01*
X212226730Y-83679681D01*
X212227715Y-83681613D01*
X212348028Y-83847213D01*
X212492786Y-83991971D01*
X212619270Y-84083865D01*
X212658390Y-84112287D01*
X212772867Y-84170616D01*
X212840776Y-84205218D01*
X212840778Y-84205218D01*
X212840781Y-84205220D01*
X212927784Y-84233489D01*
X213035465Y-84268477D01*
X213136557Y-84284488D01*
X213237648Y-84300500D01*
X213237649Y-84300500D01*
X213442351Y-84300500D01*
X213442352Y-84300500D01*
X213644534Y-84268477D01*
X213839219Y-84205220D01*
X214021610Y-84112287D01*
X214114590Y-84044732D01*
X214187213Y-83991971D01*
X214187215Y-83991968D01*
X214187219Y-83991966D01*
X214331966Y-83847219D01*
X214331968Y-83847215D01*
X214331971Y-83847213D01*
X214432644Y-83708646D01*
X214452287Y-83681610D01*
X214545220Y-83499219D01*
X214608477Y-83304534D01*
X214640500Y-83102352D01*
X214640500Y-82897648D01*
X222199500Y-82897648D01*
X222199500Y-83102351D01*
X222231522Y-83304534D01*
X222294781Y-83499223D01*
X222335350Y-83578842D01*
X222386730Y-83679681D01*
X222387715Y-83681613D01*
X222508028Y-83847213D01*
X222652786Y-83991971D01*
X222779270Y-84083865D01*
X222818390Y-84112287D01*
X222932867Y-84170616D01*
X223000776Y-84205218D01*
X223000778Y-84205218D01*
X223000781Y-84205220D01*
X223087784Y-84233489D01*
X223195465Y-84268477D01*
X223296557Y-84284488D01*
X223397648Y-84300500D01*
X223397649Y-84300500D01*
X223602351Y-84300500D01*
X223602352Y-84300500D01*
X223804534Y-84268477D01*
X223999219Y-84205220D01*
X224181610Y-84112287D01*
X224274590Y-84044732D01*
X224347213Y-83991971D01*
X224347215Y-83991968D01*
X224347219Y-83991966D01*
X224491966Y-83847219D01*
X224491968Y-83847215D01*
X224491971Y-83847213D01*
X224592644Y-83708646D01*
X224612287Y-83681610D01*
X224705220Y-83499219D01*
X224768477Y-83304534D01*
X224800500Y-83102352D01*
X224800500Y-82897648D01*
X228699500Y-82897648D01*
X228699500Y-83102351D01*
X228731522Y-83304534D01*
X228794781Y-83499223D01*
X228835350Y-83578842D01*
X228886730Y-83679681D01*
X228887715Y-83681613D01*
X229008028Y-83847213D01*
X229152786Y-83991971D01*
X229279270Y-84083865D01*
X229318390Y-84112287D01*
X229432867Y-84170616D01*
X229500776Y-84205218D01*
X229500778Y-84205218D01*
X229500781Y-84205220D01*
X229587784Y-84233489D01*
X229695465Y-84268477D01*
X229796557Y-84284488D01*
X229897648Y-84300500D01*
X229897649Y-84300500D01*
X230102351Y-84300500D01*
X230102352Y-84300500D01*
X230304534Y-84268477D01*
X230499219Y-84205220D01*
X230681610Y-84112287D01*
X230774590Y-84044732D01*
X230847213Y-83991971D01*
X230847215Y-83991968D01*
X230847219Y-83991966D01*
X230991966Y-83847219D01*
X230991968Y-83847215D01*
X230991971Y-83847213D01*
X231092644Y-83708646D01*
X231112287Y-83681610D01*
X231205220Y-83499219D01*
X231268477Y-83304534D01*
X231300500Y-83102352D01*
X231300500Y-82897648D01*
X233699500Y-82897648D01*
X233699500Y-83102351D01*
X233731522Y-83304534D01*
X233794781Y-83499223D01*
X233835350Y-83578842D01*
X233886730Y-83679681D01*
X233887715Y-83681613D01*
X234008028Y-83847213D01*
X234152786Y-83991971D01*
X234279270Y-84083865D01*
X234318390Y-84112287D01*
X234432867Y-84170616D01*
X234500776Y-84205218D01*
X234500778Y-84205218D01*
X234500781Y-84205220D01*
X234587784Y-84233489D01*
X234695465Y-84268477D01*
X234796557Y-84284488D01*
X234897648Y-84300500D01*
X234897649Y-84300500D01*
X235102351Y-84300500D01*
X235102352Y-84300500D01*
X235304534Y-84268477D01*
X235499219Y-84205220D01*
X235681610Y-84112287D01*
X235774590Y-84044732D01*
X235847213Y-83991971D01*
X235847215Y-83991968D01*
X235847219Y-83991966D01*
X235991966Y-83847219D01*
X235991968Y-83847215D01*
X235991971Y-83847213D01*
X236092644Y-83708646D01*
X236112287Y-83681610D01*
X236205220Y-83499219D01*
X236268477Y-83304534D01*
X236300500Y-83102352D01*
X236300500Y-82943945D01*
X237739500Y-82943945D01*
X237739500Y-83136054D01*
X237769553Y-83325802D01*
X237828916Y-83508506D01*
X237886141Y-83620815D01*
X237916135Y-83679681D01*
X238029055Y-83835102D01*
X238164898Y-83970945D01*
X238320319Y-84083865D01*
X238392849Y-84120821D01*
X238491493Y-84171083D01*
X238578953Y-84199500D01*
X238674199Y-84230447D01*
X238863945Y-84260500D01*
X238863946Y-84260500D01*
X239056054Y-84260500D01*
X239056055Y-84260500D01*
X239245801Y-84230447D01*
X239428509Y-84171082D01*
X239599681Y-84083865D01*
X239755102Y-83970945D01*
X239890945Y-83835102D01*
X240003865Y-83679681D01*
X240091082Y-83508509D01*
X240150447Y-83325801D01*
X240180500Y-83136055D01*
X240180500Y-82943984D01*
X242820000Y-82943984D01*
X242820000Y-83136015D01*
X242850040Y-83325684D01*
X242909383Y-83508321D01*
X242996561Y-83679415D01*
X243017798Y-83708646D01*
X243640000Y-83086445D01*
X243640000Y-83092661D01*
X243667259Y-83194394D01*
X243719920Y-83285606D01*
X243794394Y-83360080D01*
X243885606Y-83412741D01*
X243987339Y-83440000D01*
X243993554Y-83440000D01*
X243371351Y-84062200D01*
X243371352Y-84062201D01*
X243400577Y-84083434D01*
X243571678Y-84170616D01*
X243754315Y-84229959D01*
X243943985Y-84260000D01*
X244136015Y-84260000D01*
X244325684Y-84229959D01*
X244508321Y-84170616D01*
X244679419Y-84083436D01*
X244708646Y-84062201D01*
X244708646Y-84062200D01*
X244086447Y-83440000D01*
X244092661Y-83440000D01*
X244194394Y-83412741D01*
X244285606Y-83360080D01*
X244360080Y-83285606D01*
X244412741Y-83194394D01*
X244440000Y-83092661D01*
X244440000Y-83086446D01*
X245062200Y-83708646D01*
X245062201Y-83708646D01*
X245083436Y-83679419D01*
X245170616Y-83508321D01*
X245229959Y-83325684D01*
X245260000Y-83136015D01*
X245260000Y-82943984D01*
X245229959Y-82754315D01*
X245170616Y-82571678D01*
X245083434Y-82400577D01*
X245062201Y-82371352D01*
X245062200Y-82371351D01*
X244440000Y-82993552D01*
X244440000Y-82987339D01*
X244412741Y-82885606D01*
X244360080Y-82794394D01*
X244285606Y-82719920D01*
X244194394Y-82667259D01*
X244092661Y-82640000D01*
X244086447Y-82640000D01*
X244708646Y-82017798D01*
X244679415Y-81996561D01*
X244508321Y-81909383D01*
X244325684Y-81850040D01*
X244136015Y-81820000D01*
X243943985Y-81820000D01*
X243754315Y-81850040D01*
X243571678Y-81909383D01*
X243400578Y-81996564D01*
X243371352Y-82017798D01*
X243371351Y-82017798D01*
X243993554Y-82640000D01*
X243987339Y-82640000D01*
X243885606Y-82667259D01*
X243794394Y-82719920D01*
X243719920Y-82794394D01*
X243667259Y-82885606D01*
X243640000Y-82987339D01*
X243640000Y-82993553D01*
X243017798Y-82371351D01*
X243017798Y-82371352D01*
X242996564Y-82400578D01*
X242909383Y-82571678D01*
X242850040Y-82754315D01*
X242820000Y-82943984D01*
X240180500Y-82943984D01*
X240180500Y-82943945D01*
X240150447Y-82754199D01*
X240113342Y-82640000D01*
X240091083Y-82571493D01*
X240055053Y-82500781D01*
X240003865Y-82400319D01*
X239890945Y-82244898D01*
X239755102Y-82109055D01*
X239599681Y-81996135D01*
X239506662Y-81948739D01*
X239428506Y-81908916D01*
X239245802Y-81849553D01*
X239150928Y-81834526D01*
X239056055Y-81819500D01*
X238863945Y-81819500D01*
X238800696Y-81829517D01*
X238674197Y-81849553D01*
X238491493Y-81908916D01*
X238320318Y-81996135D01*
X238234496Y-82058489D01*
X238164898Y-82109055D01*
X238164896Y-82109057D01*
X238164895Y-82109057D01*
X238029057Y-82244895D01*
X238029057Y-82244896D01*
X238029055Y-82244898D01*
X238009826Y-82271365D01*
X237916135Y-82400318D01*
X237828916Y-82571493D01*
X237769553Y-82754197D01*
X237739500Y-82943945D01*
X236300500Y-82943945D01*
X236300500Y-82897648D01*
X236268477Y-82695466D01*
X236265546Y-82686446D01*
X236239127Y-82605137D01*
X236205220Y-82500781D01*
X236205218Y-82500778D01*
X236205218Y-82500776D01*
X236150294Y-82392983D01*
X236112287Y-82318390D01*
X236076938Y-82269736D01*
X235991971Y-82152786D01*
X235847213Y-82008028D01*
X235681613Y-81887715D01*
X235681612Y-81887714D01*
X235681610Y-81887713D01*
X235617044Y-81854815D01*
X235499223Y-81794781D01*
X235304534Y-81731522D01*
X235128958Y-81703714D01*
X235102352Y-81699500D01*
X234897648Y-81699500D01*
X234873329Y-81703351D01*
X234695465Y-81731522D01*
X234500776Y-81794781D01*
X234318386Y-81887715D01*
X234152786Y-82008028D01*
X234008028Y-82152786D01*
X233887715Y-82318386D01*
X233794781Y-82500776D01*
X233731522Y-82695465D01*
X233699500Y-82897648D01*
X231300500Y-82897648D01*
X231268477Y-82695466D01*
X231265546Y-82686446D01*
X231239127Y-82605137D01*
X231205220Y-82500781D01*
X231205218Y-82500778D01*
X231205218Y-82500776D01*
X231150294Y-82392983D01*
X231112287Y-82318390D01*
X231076938Y-82269736D01*
X230991971Y-82152786D01*
X230847213Y-82008028D01*
X230681613Y-81887715D01*
X230681612Y-81887714D01*
X230681610Y-81887713D01*
X230617044Y-81854815D01*
X230499223Y-81794781D01*
X230304534Y-81731522D01*
X230128958Y-81703714D01*
X230102352Y-81699500D01*
X229897648Y-81699500D01*
X229873329Y-81703351D01*
X229695465Y-81731522D01*
X229500776Y-81794781D01*
X229318386Y-81887715D01*
X229152786Y-82008028D01*
X229008028Y-82152786D01*
X228887715Y-82318386D01*
X228794781Y-82500776D01*
X228731522Y-82695465D01*
X228699500Y-82897648D01*
X224800500Y-82897648D01*
X224768477Y-82695466D01*
X224765546Y-82686446D01*
X224739127Y-82605137D01*
X224705220Y-82500781D01*
X224705218Y-82500778D01*
X224705218Y-82500776D01*
X224650294Y-82392983D01*
X224612287Y-82318390D01*
X224576938Y-82269736D01*
X224491971Y-82152786D01*
X224347213Y-82008028D01*
X224181613Y-81887715D01*
X224181612Y-81887714D01*
X224181610Y-81887713D01*
X224117044Y-81854815D01*
X223999223Y-81794781D01*
X223804534Y-81731522D01*
X223628958Y-81703714D01*
X223602352Y-81699500D01*
X223397648Y-81699500D01*
X223373329Y-81703351D01*
X223195465Y-81731522D01*
X223000776Y-81794781D01*
X222818386Y-81887715D01*
X222652786Y-82008028D01*
X222508028Y-82152786D01*
X222387715Y-82318386D01*
X222294781Y-82500776D01*
X222231522Y-82695465D01*
X222199500Y-82897648D01*
X214640500Y-82897648D01*
X214608477Y-82695466D01*
X214605546Y-82686446D01*
X214579127Y-82605137D01*
X214545220Y-82500781D01*
X214545218Y-82500778D01*
X214545218Y-82500776D01*
X214490294Y-82392983D01*
X214452287Y-82318390D01*
X214416938Y-82269736D01*
X214331971Y-82152786D01*
X214187213Y-82008028D01*
X214021613Y-81887715D01*
X214021612Y-81887714D01*
X214021610Y-81887713D01*
X213957044Y-81854815D01*
X213839223Y-81794781D01*
X213644534Y-81731522D01*
X213468958Y-81703714D01*
X213442352Y-81699500D01*
X213237648Y-81699500D01*
X213213329Y-81703351D01*
X213035465Y-81731522D01*
X212840776Y-81794781D01*
X212658386Y-81887715D01*
X212492786Y-82008028D01*
X212348028Y-82152786D01*
X212227715Y-82318386D01*
X212134781Y-82500776D01*
X212071522Y-82695465D01*
X212039500Y-82897648D01*
X198625500Y-82897648D01*
X198625500Y-81938389D01*
X198622920Y-81925422D01*
X198622915Y-81925403D01*
X198622544Y-81923535D01*
X198601463Y-81817549D01*
X198597560Y-81808127D01*
X198581659Y-81769737D01*
X198554312Y-81703715D01*
X198513441Y-81642548D01*
X198485858Y-81601267D01*
X198485856Y-81601264D01*
X198395637Y-81511045D01*
X198395606Y-81511016D01*
X198325793Y-81441203D01*
X198292308Y-81379880D01*
X198291887Y-81377864D01*
X198269737Y-81266503D01*
X198217206Y-81139681D01*
X198209397Y-81120827D01*
X198209390Y-81120814D01*
X198121789Y-80989711D01*
X198121786Y-80989707D01*
X198010292Y-80878213D01*
X198010288Y-80878210D01*
X197879185Y-80790609D01*
X197879172Y-80790602D01*
X197733501Y-80730264D01*
X197733489Y-80730261D01*
X197578845Y-80699500D01*
X197578842Y-80699500D01*
X197421158Y-80699500D01*
X197421155Y-80699500D01*
X197266510Y-80730261D01*
X197266498Y-80730264D01*
X197120827Y-80790602D01*
X197120814Y-80790609D01*
X196989711Y-80878210D01*
X196989707Y-80878213D01*
X196878213Y-80989707D01*
X196878210Y-80989711D01*
X196790609Y-81120814D01*
X196790602Y-81120827D01*
X196730264Y-81266498D01*
X196730261Y-81266510D01*
X196699500Y-81421153D01*
X189300499Y-81421153D01*
X189275426Y-81295103D01*
X189269737Y-81266503D01*
X189243521Y-81203211D01*
X189209397Y-81120827D01*
X189209390Y-81120814D01*
X189121789Y-80989711D01*
X189121786Y-80989707D01*
X189010292Y-80878213D01*
X189010288Y-80878210D01*
X188879185Y-80790609D01*
X188879172Y-80790602D01*
X188733501Y-80730264D01*
X188733489Y-80730261D01*
X188578845Y-80699500D01*
X188578842Y-80699500D01*
X188421158Y-80699500D01*
X188421155Y-80699500D01*
X188266510Y-80730261D01*
X188266498Y-80730264D01*
X188120827Y-80790602D01*
X188120814Y-80790609D01*
X187989711Y-80878210D01*
X187989707Y-80878213D01*
X187878213Y-80989707D01*
X187878210Y-80989711D01*
X187790609Y-81120814D01*
X187790602Y-81120827D01*
X187730264Y-81266498D01*
X187730261Y-81266510D01*
X187699500Y-81421153D01*
X143181347Y-81421153D01*
X143209394Y-81379179D01*
X143236098Y-81314711D01*
X143256063Y-81266510D01*
X143269737Y-81233497D01*
X143300500Y-81078842D01*
X143300500Y-80921158D01*
X143300500Y-80921155D01*
X143300499Y-80921153D01*
X143274531Y-80790606D01*
X143269737Y-80766503D01*
X143269735Y-80766498D01*
X143209397Y-80620827D01*
X143209390Y-80620814D01*
X143121789Y-80489711D01*
X143121786Y-80489707D01*
X143036024Y-80403945D01*
X240279500Y-80403945D01*
X240279500Y-80596055D01*
X240283423Y-80620821D01*
X240309553Y-80785802D01*
X240368916Y-80968506D01*
X240413122Y-81055264D01*
X240456135Y-81139681D01*
X240569055Y-81295102D01*
X240704898Y-81430945D01*
X240860319Y-81543865D01*
X240972976Y-81601267D01*
X241031493Y-81631083D01*
X241122845Y-81660764D01*
X241214199Y-81690447D01*
X241403945Y-81720500D01*
X241403946Y-81720500D01*
X241596054Y-81720500D01*
X241596055Y-81720500D01*
X241785801Y-81690447D01*
X241968509Y-81631082D01*
X242139681Y-81543865D01*
X242295102Y-81430945D01*
X242430945Y-81295102D01*
X242543865Y-81139681D01*
X242631082Y-80968509D01*
X242690447Y-80785801D01*
X242720500Y-80596055D01*
X242720500Y-80403945D01*
X242690447Y-80214199D01*
X242631082Y-80031491D01*
X242543865Y-79860319D01*
X242430945Y-79704898D01*
X242295102Y-79569055D01*
X242139681Y-79456135D01*
X241968506Y-79368916D01*
X241785802Y-79309553D01*
X241690928Y-79294526D01*
X241596055Y-79279500D01*
X241403945Y-79279500D01*
X241340696Y-79289517D01*
X241214197Y-79309553D01*
X241031493Y-79368916D01*
X240860318Y-79456135D01*
X240771645Y-79520560D01*
X240704898Y-79569055D01*
X240704896Y-79569057D01*
X240704895Y-79569057D01*
X240569057Y-79704895D01*
X240569057Y-79704896D01*
X240569055Y-79704898D01*
X240520560Y-79771645D01*
X240456135Y-79860318D01*
X240368916Y-80031493D01*
X240309553Y-80214197D01*
X240297452Y-80290602D01*
X240279500Y-80403945D01*
X143036024Y-80403945D01*
X143010292Y-80378213D01*
X143010288Y-80378210D01*
X142879185Y-80290609D01*
X142879172Y-80290602D01*
X142733501Y-80230264D01*
X142733489Y-80230261D01*
X142578845Y-80199500D01*
X142578842Y-80199500D01*
X142421158Y-80199500D01*
X142421155Y-80199500D01*
X142266510Y-80230261D01*
X142266498Y-80230264D01*
X142120827Y-80290602D01*
X142120814Y-80290609D01*
X141989711Y-80378210D01*
X141989707Y-80378213D01*
X141878213Y-80489707D01*
X141878210Y-80489711D01*
X141790609Y-80620814D01*
X141790602Y-80620827D01*
X141730264Y-80766498D01*
X141730261Y-80766510D01*
X141699500Y-80921153D01*
X136053232Y-80921153D01*
X136010292Y-80878213D01*
X136010288Y-80878210D01*
X135879185Y-80790609D01*
X135879172Y-80790602D01*
X135733501Y-80730264D01*
X135733489Y-80730261D01*
X135578845Y-80699500D01*
X135578842Y-80699500D01*
X135421158Y-80699500D01*
X135421155Y-80699500D01*
X135266510Y-80730261D01*
X135266498Y-80730264D01*
X135120827Y-80790602D01*
X135120814Y-80790609D01*
X134989711Y-80878210D01*
X134989707Y-80878213D01*
X134878213Y-80989707D01*
X134878210Y-80989711D01*
X134790609Y-81120814D01*
X134790602Y-81120827D01*
X134730264Y-81266498D01*
X134730261Y-81266510D01*
X134699500Y-81421153D01*
X133681347Y-81421153D01*
X133709394Y-81379179D01*
X133736098Y-81314711D01*
X133756063Y-81266510D01*
X133769737Y-81233497D01*
X133800500Y-81078842D01*
X133800500Y-80921158D01*
X133800500Y-80921155D01*
X133800499Y-80921153D01*
X133774531Y-80790606D01*
X133769737Y-80766503D01*
X133769735Y-80766498D01*
X133709397Y-80620827D01*
X133709390Y-80620814D01*
X133621789Y-80489711D01*
X133621786Y-80489707D01*
X133510292Y-80378213D01*
X133510288Y-80378210D01*
X133379185Y-80290609D01*
X133379172Y-80290602D01*
X133233501Y-80230264D01*
X133233489Y-80230261D01*
X133078845Y-80199500D01*
X133078842Y-80199500D01*
X132921158Y-80199500D01*
X132921155Y-80199500D01*
X132766510Y-80230261D01*
X132766498Y-80230264D01*
X132620827Y-80290602D01*
X132620814Y-80290609D01*
X132489711Y-80378210D01*
X132489707Y-80378213D01*
X132378213Y-80489707D01*
X132378210Y-80489711D01*
X132290609Y-80620814D01*
X132290602Y-80620827D01*
X132230264Y-80766498D01*
X132230261Y-80766510D01*
X132199500Y-80921153D01*
X23000000Y-80921153D01*
X23000000Y-75712648D01*
X251199500Y-75712648D01*
X251199500Y-75917351D01*
X251231522Y-76119534D01*
X251294781Y-76314223D01*
X251387715Y-76496613D01*
X251508028Y-76662213D01*
X251652786Y-76806971D01*
X251807749Y-76919556D01*
X251818390Y-76927287D01*
X251934607Y-76986503D01*
X252000776Y-77020218D01*
X252000778Y-77020218D01*
X252000781Y-77020220D01*
X252105137Y-77054127D01*
X252195465Y-77083477D01*
X252296557Y-77099488D01*
X252397648Y-77115500D01*
X252397649Y-77115500D01*
X252602351Y-77115500D01*
X252602352Y-77115500D01*
X252804534Y-77083477D01*
X252999219Y-77020220D01*
X253181610Y-76927287D01*
X253274590Y-76859732D01*
X253347213Y-76806971D01*
X253347215Y-76806968D01*
X253347219Y-76806966D01*
X253491966Y-76662219D01*
X253491968Y-76662215D01*
X253491971Y-76662213D01*
X253544732Y-76589590D01*
X253612287Y-76496610D01*
X253705220Y-76314219D01*
X253768477Y-76119534D01*
X253800500Y-75917352D01*
X253800500Y-75712648D01*
X253768477Y-75510466D01*
X253705220Y-75315781D01*
X253705218Y-75315778D01*
X253705218Y-75315776D01*
X253671503Y-75249607D01*
X253612287Y-75133390D01*
X253604556Y-75122749D01*
X253491971Y-74967786D01*
X253347213Y-74823028D01*
X253181613Y-74702715D01*
X253181612Y-74702714D01*
X253181610Y-74702713D01*
X253124653Y-74673691D01*
X252999223Y-74609781D01*
X252804534Y-74546522D01*
X252629995Y-74518878D01*
X252602352Y-74514500D01*
X252397648Y-74514500D01*
X252373329Y-74518351D01*
X252195465Y-74546522D01*
X252000776Y-74609781D01*
X251818386Y-74702715D01*
X251652786Y-74823028D01*
X251508028Y-74967786D01*
X251387715Y-75133386D01*
X251294781Y-75315776D01*
X251231522Y-75510465D01*
X251199500Y-75712648D01*
X23000000Y-75712648D01*
X23000000Y-63921153D01*
X157699500Y-63921153D01*
X157699500Y-64078846D01*
X157730261Y-64233489D01*
X157730264Y-64233501D01*
X157790602Y-64379172D01*
X157790609Y-64379184D01*
X157853602Y-64473459D01*
X157874480Y-64540136D01*
X157874500Y-64542350D01*
X157874500Y-69957650D01*
X157854815Y-70024689D01*
X157853602Y-70026541D01*
X157790609Y-70120815D01*
X157790602Y-70120828D01*
X157730264Y-70266498D01*
X157730261Y-70266510D01*
X157699500Y-70421153D01*
X157699500Y-70578846D01*
X157730261Y-70733489D01*
X157730264Y-70733501D01*
X157790602Y-70879172D01*
X157790609Y-70879185D01*
X157878210Y-71010288D01*
X157878213Y-71010292D01*
X157989707Y-71121786D01*
X157989711Y-71121789D01*
X158120814Y-71209390D01*
X158120827Y-71209397D01*
X158266498Y-71269735D01*
X158266503Y-71269737D01*
X158421153Y-71300499D01*
X158421156Y-71300500D01*
X158421158Y-71300500D01*
X158578844Y-71300500D01*
X158578845Y-71300499D01*
X158733497Y-71269737D01*
X158879179Y-71209394D01*
X159010289Y-71121789D01*
X159121789Y-71010289D01*
X159209394Y-70879179D01*
X159269737Y-70733497D01*
X159300500Y-70578842D01*
X159300500Y-70421158D01*
X159300500Y-70421155D01*
X159300499Y-70421153D01*
X159269738Y-70266510D01*
X159269737Y-70266503D01*
X159209394Y-70120821D01*
X159146397Y-70026539D01*
X159125520Y-69959863D01*
X159125500Y-69957650D01*
X159125500Y-65217648D01*
X239699500Y-65217648D01*
X239699500Y-65422351D01*
X239731522Y-65624534D01*
X239794781Y-65819223D01*
X239887715Y-66001613D01*
X240008028Y-66167213D01*
X240152786Y-66311971D01*
X240307749Y-66424556D01*
X240318390Y-66432287D01*
X240434607Y-66491503D01*
X240500776Y-66525218D01*
X240500778Y-66525218D01*
X240500781Y-66525220D01*
X240605137Y-66559127D01*
X240695465Y-66588477D01*
X240796557Y-66604488D01*
X240897648Y-66620500D01*
X240897649Y-66620500D01*
X241102351Y-66620500D01*
X241102352Y-66620500D01*
X241304534Y-66588477D01*
X241499219Y-66525220D01*
X241681610Y-66432287D01*
X241774590Y-66364732D01*
X241847213Y-66311971D01*
X241847215Y-66311968D01*
X241847219Y-66311966D01*
X241991966Y-66167219D01*
X241991968Y-66167215D01*
X241991971Y-66167213D01*
X242044732Y-66094590D01*
X242112287Y-66001610D01*
X242205220Y-65819219D01*
X242268477Y-65624534D01*
X242279863Y-65552648D01*
X251199500Y-65552648D01*
X251199500Y-65757351D01*
X251231522Y-65959534D01*
X251294781Y-66154223D01*
X251358691Y-66279653D01*
X251375156Y-66311966D01*
X251387715Y-66336613D01*
X251508028Y-66502213D01*
X251652786Y-66646971D01*
X251807749Y-66759556D01*
X251818390Y-66767287D01*
X251934607Y-66826503D01*
X252000776Y-66860218D01*
X252000778Y-66860218D01*
X252000781Y-66860220D01*
X252105137Y-66894127D01*
X252195465Y-66923477D01*
X252296557Y-66939488D01*
X252397648Y-66955500D01*
X252397649Y-66955500D01*
X252602351Y-66955500D01*
X252602352Y-66955500D01*
X252804534Y-66923477D01*
X252999219Y-66860220D01*
X253181610Y-66767287D01*
X253274590Y-66699732D01*
X253347213Y-66646971D01*
X253347215Y-66646968D01*
X253347219Y-66646966D01*
X253491966Y-66502219D01*
X253491968Y-66502215D01*
X253491971Y-66502213D01*
X253544732Y-66429590D01*
X253612287Y-66336610D01*
X253705220Y-66154219D01*
X253768477Y-65959534D01*
X253800500Y-65757352D01*
X253800500Y-65552648D01*
X253768477Y-65350466D01*
X253705220Y-65155781D01*
X253705218Y-65155778D01*
X253705218Y-65155776D01*
X253671503Y-65089607D01*
X253612287Y-64973390D01*
X253604556Y-64962749D01*
X253491971Y-64807786D01*
X253347213Y-64663028D01*
X253181613Y-64542715D01*
X253181612Y-64542714D01*
X253181610Y-64542713D01*
X253107074Y-64504735D01*
X252999223Y-64449781D01*
X252804534Y-64386522D01*
X252629995Y-64358878D01*
X252602352Y-64354500D01*
X252397648Y-64354500D01*
X252373329Y-64358351D01*
X252195465Y-64386522D01*
X252000776Y-64449781D01*
X251818386Y-64542715D01*
X251652786Y-64663028D01*
X251508028Y-64807786D01*
X251387715Y-64973386D01*
X251294781Y-65155776D01*
X251231522Y-65350465D01*
X251199500Y-65552648D01*
X242279863Y-65552648D01*
X242300500Y-65422352D01*
X242300500Y-65217648D01*
X242268477Y-65015466D01*
X242254804Y-64973386D01*
X242205218Y-64820776D01*
X242171503Y-64754607D01*
X242112287Y-64638390D01*
X242042776Y-64542715D01*
X241991971Y-64472786D01*
X241847213Y-64328028D01*
X241681613Y-64207715D01*
X241681612Y-64207714D01*
X241681610Y-64207713D01*
X241624653Y-64178691D01*
X241499223Y-64114781D01*
X241304534Y-64051522D01*
X241129995Y-64023878D01*
X241102352Y-64019500D01*
X240897648Y-64019500D01*
X240873329Y-64023351D01*
X240695465Y-64051522D01*
X240500776Y-64114781D01*
X240318386Y-64207715D01*
X240152786Y-64328028D01*
X240008028Y-64472786D01*
X239887715Y-64638386D01*
X239794781Y-64820776D01*
X239731522Y-65015465D01*
X239699500Y-65217648D01*
X159125500Y-65217648D01*
X159125500Y-64542350D01*
X159145185Y-64475311D01*
X159146398Y-64473459D01*
X159162220Y-64449780D01*
X159209394Y-64379179D01*
X159269737Y-64233497D01*
X159300500Y-64078842D01*
X159300500Y-63921158D01*
X159300500Y-63921155D01*
X159300499Y-63921153D01*
X159269738Y-63766510D01*
X159269737Y-63766503D01*
X159269735Y-63766498D01*
X159209397Y-63620827D01*
X159209390Y-63620814D01*
X159121789Y-63489711D01*
X159121786Y-63489707D01*
X159010292Y-63378213D01*
X159010288Y-63378210D01*
X158879185Y-63290609D01*
X158879172Y-63290602D01*
X158733501Y-63230264D01*
X158733489Y-63230261D01*
X158578845Y-63199500D01*
X158578842Y-63199500D01*
X158421158Y-63199500D01*
X158421155Y-63199500D01*
X158266510Y-63230261D01*
X158266498Y-63230264D01*
X158120827Y-63290602D01*
X158120814Y-63290609D01*
X157989711Y-63378210D01*
X157989707Y-63378213D01*
X157878213Y-63489707D01*
X157878210Y-63489711D01*
X157790609Y-63620814D01*
X157790602Y-63620827D01*
X157730264Y-63766498D01*
X157730261Y-63766510D01*
X157699500Y-63921153D01*
X23000000Y-63921153D01*
X23000000Y-61921153D01*
X170199500Y-61921153D01*
X170199500Y-62078846D01*
X170230261Y-62233489D01*
X170230264Y-62233501D01*
X170290602Y-62379172D01*
X170290609Y-62379185D01*
X170378210Y-62510288D01*
X170378213Y-62510292D01*
X170489707Y-62621786D01*
X170489711Y-62621789D01*
X170620814Y-62709390D01*
X170620827Y-62709397D01*
X170766498Y-62769735D01*
X170766503Y-62769737D01*
X170921153Y-62800499D01*
X170921156Y-62800500D01*
X170921158Y-62800500D01*
X171078844Y-62800500D01*
X171078845Y-62800499D01*
X171233497Y-62769737D01*
X171379179Y-62709394D01*
X171473459Y-62646398D01*
X171540136Y-62625520D01*
X171542350Y-62625500D01*
X177457650Y-62625500D01*
X177524689Y-62645185D01*
X177526541Y-62646398D01*
X177620821Y-62709394D01*
X177620823Y-62709395D01*
X177620827Y-62709397D01*
X177766498Y-62769735D01*
X177766503Y-62769737D01*
X177921153Y-62800499D01*
X177921156Y-62800500D01*
X177921158Y-62800500D01*
X178078844Y-62800500D01*
X178078845Y-62800499D01*
X178233497Y-62769737D01*
X178379179Y-62709394D01*
X178510289Y-62621789D01*
X178621789Y-62510289D01*
X178709394Y-62379179D01*
X178769737Y-62233497D01*
X178800500Y-62078842D01*
X178800500Y-61921158D01*
X178800500Y-61921155D01*
X178800499Y-61921153D01*
X178769738Y-61766510D01*
X178769737Y-61766503D01*
X178769735Y-61766498D01*
X178709397Y-61620827D01*
X178709390Y-61620814D01*
X178621789Y-61489711D01*
X178621786Y-61489707D01*
X178510292Y-61378213D01*
X178510288Y-61378210D01*
X178379185Y-61290609D01*
X178379172Y-61290602D01*
X178233501Y-61230264D01*
X178233489Y-61230261D01*
X178078845Y-61199500D01*
X178078842Y-61199500D01*
X177921158Y-61199500D01*
X177921155Y-61199500D01*
X177766510Y-61230261D01*
X177766498Y-61230264D01*
X177620827Y-61290602D01*
X177620815Y-61290609D01*
X177526541Y-61353602D01*
X177459864Y-61374480D01*
X177457650Y-61374500D01*
X171542350Y-61374500D01*
X171475311Y-61354815D01*
X171473459Y-61353602D01*
X171379184Y-61290609D01*
X171379172Y-61290602D01*
X171233501Y-61230264D01*
X171233489Y-61230261D01*
X171078845Y-61199500D01*
X171078842Y-61199500D01*
X170921158Y-61199500D01*
X170921155Y-61199500D01*
X170766510Y-61230261D01*
X170766498Y-61230264D01*
X170620827Y-61290602D01*
X170620814Y-61290609D01*
X170489711Y-61378210D01*
X170489707Y-61378213D01*
X170378213Y-61489707D01*
X170378210Y-61489711D01*
X170290609Y-61620814D01*
X170290602Y-61620827D01*
X170230264Y-61766498D01*
X170230261Y-61766510D01*
X170199500Y-61921153D01*
X23000000Y-61921153D01*
X23000000Y-57897682D01*
X143200000Y-57897682D01*
X143200000Y-58102317D01*
X143232009Y-58304417D01*
X143295244Y-58499031D01*
X143388141Y-58681350D01*
X143388147Y-58681359D01*
X143420523Y-58725921D01*
X143420524Y-58725922D01*
X144100000Y-58046446D01*
X144100000Y-58052661D01*
X144127259Y-58154394D01*
X144179920Y-58245606D01*
X144254394Y-58320080D01*
X144345606Y-58372741D01*
X144447339Y-58400000D01*
X144453553Y-58400000D01*
X143774076Y-59079474D01*
X143818650Y-59111859D01*
X144000968Y-59204755D01*
X144195582Y-59267990D01*
X144397683Y-59300000D01*
X144602317Y-59300000D01*
X144804417Y-59267990D01*
X144999031Y-59204755D01*
X145181349Y-59111859D01*
X145225921Y-59079474D01*
X144546447Y-58400000D01*
X144552661Y-58400000D01*
X144654394Y-58372741D01*
X144745606Y-58320080D01*
X144820080Y-58245606D01*
X144872741Y-58154394D01*
X144900000Y-58052661D01*
X144900000Y-58046448D01*
X145579474Y-58725922D01*
X145579474Y-58725921D01*
X145611859Y-58681349D01*
X145704755Y-58499031D01*
X145767990Y-58304417D01*
X145800000Y-58102317D01*
X145800000Y-57897682D01*
X164700000Y-57897682D01*
X164700000Y-58102317D01*
X164732009Y-58304417D01*
X164795244Y-58499031D01*
X164888141Y-58681350D01*
X164888147Y-58681359D01*
X164920523Y-58725921D01*
X164920524Y-58725922D01*
X165600000Y-58046446D01*
X165600000Y-58052661D01*
X165627259Y-58154394D01*
X165679920Y-58245606D01*
X165754394Y-58320080D01*
X165845606Y-58372741D01*
X165947339Y-58400000D01*
X165953553Y-58400000D01*
X165274076Y-59079474D01*
X165318650Y-59111859D01*
X165500968Y-59204755D01*
X165695582Y-59267990D01*
X165897683Y-59300000D01*
X166102317Y-59300000D01*
X166304417Y-59267990D01*
X166499031Y-59204755D01*
X166681349Y-59111859D01*
X166725921Y-59079474D01*
X166046447Y-58400000D01*
X166052661Y-58400000D01*
X166154394Y-58372741D01*
X166245606Y-58320080D01*
X166320080Y-58245606D01*
X166372741Y-58154394D01*
X166400000Y-58052661D01*
X166400000Y-58046448D01*
X167079474Y-58725922D01*
X167079474Y-58725921D01*
X167111859Y-58681349D01*
X167204755Y-58499031D01*
X167267990Y-58304417D01*
X167300000Y-58102317D01*
X167300000Y-57897682D01*
X167267990Y-57695582D01*
X167204755Y-57500968D01*
X167111859Y-57318650D01*
X167079474Y-57274077D01*
X167079474Y-57274076D01*
X166400000Y-57953551D01*
X166400000Y-57947339D01*
X166372741Y-57845606D01*
X166320080Y-57754394D01*
X166245606Y-57679920D01*
X166154394Y-57627259D01*
X166052661Y-57600000D01*
X166046446Y-57600000D01*
X166725922Y-56920524D01*
X166725921Y-56920523D01*
X166681359Y-56888147D01*
X166681350Y-56888141D01*
X166499031Y-56795244D01*
X166304417Y-56732009D01*
X166102317Y-56700000D01*
X165897683Y-56700000D01*
X165695582Y-56732009D01*
X165500968Y-56795244D01*
X165318644Y-56888143D01*
X165274077Y-56920523D01*
X165274077Y-56920524D01*
X165953554Y-57600000D01*
X165947339Y-57600000D01*
X165845606Y-57627259D01*
X165754394Y-57679920D01*
X165679920Y-57754394D01*
X165627259Y-57845606D01*
X165600000Y-57947339D01*
X165600000Y-57953553D01*
X164920524Y-57274077D01*
X164920523Y-57274077D01*
X164888143Y-57318644D01*
X164795244Y-57500968D01*
X164732009Y-57695582D01*
X164700000Y-57897682D01*
X145800000Y-57897682D01*
X145767990Y-57695582D01*
X145704755Y-57500968D01*
X145611859Y-57318650D01*
X145579474Y-57274077D01*
X145579474Y-57274076D01*
X144900000Y-57953551D01*
X144900000Y-57947339D01*
X144872741Y-57845606D01*
X144820080Y-57754394D01*
X144745606Y-57679920D01*
X144654394Y-57627259D01*
X144552661Y-57600000D01*
X144546446Y-57600000D01*
X145225922Y-56920524D01*
X145225921Y-56920523D01*
X145181359Y-56888147D01*
X145181350Y-56888141D01*
X144999031Y-56795244D01*
X144804417Y-56732009D01*
X144602317Y-56700000D01*
X144397683Y-56700000D01*
X144195582Y-56732009D01*
X144000968Y-56795244D01*
X143818644Y-56888143D01*
X143774077Y-56920523D01*
X143774077Y-56920524D01*
X144453554Y-57600000D01*
X144447339Y-57600000D01*
X144345606Y-57627259D01*
X144254394Y-57679920D01*
X144179920Y-57754394D01*
X144127259Y-57845606D01*
X144100000Y-57947339D01*
X144100000Y-57953553D01*
X143420524Y-57274077D01*
X143420523Y-57274077D01*
X143388143Y-57318644D01*
X143295244Y-57500968D01*
X143232009Y-57695582D01*
X143200000Y-57897682D01*
X23000000Y-57897682D01*
X23000000Y-55057648D01*
X239699500Y-55057648D01*
X239699500Y-55262351D01*
X239731522Y-55464534D01*
X239794781Y-55659223D01*
X239858691Y-55784653D01*
X239874552Y-55815781D01*
X239887715Y-55841613D01*
X240008028Y-56007213D01*
X240152786Y-56151971D01*
X240307749Y-56264556D01*
X240318390Y-56272287D01*
X240434607Y-56331503D01*
X240500776Y-56365218D01*
X240500778Y-56365218D01*
X240500781Y-56365220D01*
X240605137Y-56399127D01*
X240695465Y-56428477D01*
X240796557Y-56444488D01*
X240897648Y-56460500D01*
X240897649Y-56460500D01*
X241102351Y-56460500D01*
X241102352Y-56460500D01*
X241304534Y-56428477D01*
X241499219Y-56365220D01*
X241681610Y-56272287D01*
X241763695Y-56212648D01*
X251199500Y-56212648D01*
X251199500Y-56417351D01*
X251231522Y-56619534D01*
X251294781Y-56814223D01*
X251387715Y-56996613D01*
X251508028Y-57162213D01*
X251652786Y-57306971D01*
X251807749Y-57419556D01*
X251818390Y-57427287D01*
X251934607Y-57486503D01*
X252000776Y-57520218D01*
X252000778Y-57520218D01*
X252000781Y-57520220D01*
X252105137Y-57554127D01*
X252195465Y-57583477D01*
X252296557Y-57599488D01*
X252397648Y-57615500D01*
X252397649Y-57615500D01*
X252602351Y-57615500D01*
X252602352Y-57615500D01*
X252804534Y-57583477D01*
X252999219Y-57520220D01*
X253181610Y-57427287D01*
X253274590Y-57359732D01*
X253347213Y-57306971D01*
X253347215Y-57306968D01*
X253347219Y-57306966D01*
X253491966Y-57162219D01*
X253491968Y-57162215D01*
X253491971Y-57162213D01*
X253544732Y-57089590D01*
X253612287Y-56996610D01*
X253705220Y-56814219D01*
X253768477Y-56619534D01*
X253800500Y-56417352D01*
X253800500Y-56212648D01*
X253768477Y-56010466D01*
X253767421Y-56007217D01*
X253705218Y-55815776D01*
X253671503Y-55749607D01*
X253612287Y-55633390D01*
X253604556Y-55622749D01*
X253491971Y-55467786D01*
X253347213Y-55323028D01*
X253181613Y-55202715D01*
X253181612Y-55202714D01*
X253181610Y-55202713D01*
X253124653Y-55173691D01*
X252999223Y-55109781D01*
X252804534Y-55046522D01*
X252629995Y-55018878D01*
X252602352Y-55014500D01*
X252397648Y-55014500D01*
X252373329Y-55018351D01*
X252195465Y-55046522D01*
X252000776Y-55109781D01*
X251818386Y-55202715D01*
X251652786Y-55323028D01*
X251508028Y-55467786D01*
X251387715Y-55633386D01*
X251294781Y-55815776D01*
X251231522Y-56010465D01*
X251199500Y-56212648D01*
X241763695Y-56212648D01*
X241774590Y-56204732D01*
X241847213Y-56151971D01*
X241847215Y-56151968D01*
X241847219Y-56151966D01*
X241991966Y-56007219D01*
X241991968Y-56007215D01*
X241991971Y-56007213D01*
X242044732Y-55934590D01*
X242112287Y-55841610D01*
X242205220Y-55659219D01*
X242268477Y-55464534D01*
X242300500Y-55262352D01*
X242300500Y-55057648D01*
X242268477Y-54855466D01*
X242205220Y-54660781D01*
X242205218Y-54660778D01*
X242205218Y-54660776D01*
X242171503Y-54594607D01*
X242112287Y-54478390D01*
X242104556Y-54467749D01*
X241991971Y-54312786D01*
X241847213Y-54168028D01*
X241681613Y-54047715D01*
X241681612Y-54047714D01*
X241681610Y-54047713D01*
X241624653Y-54018691D01*
X241499223Y-53954781D01*
X241304534Y-53891522D01*
X241129995Y-53863878D01*
X241102352Y-53859500D01*
X240897648Y-53859500D01*
X240873329Y-53863351D01*
X240695465Y-53891522D01*
X240500776Y-53954781D01*
X240318386Y-54047715D01*
X240152786Y-54168028D01*
X240008028Y-54312786D01*
X239887715Y-54478386D01*
X239794781Y-54660776D01*
X239731522Y-54855465D01*
X239699500Y-55057648D01*
X23000000Y-55057648D01*
X23000000Y-50888146D01*
X76507000Y-50888146D01*
X76507000Y-51211853D01*
X76542778Y-51437746D01*
X76542778Y-51437749D01*
X76613450Y-51655255D01*
X76667628Y-51761585D01*
X76717283Y-51859038D01*
X76851714Y-52044066D01*
X77013434Y-52205786D01*
X77198462Y-52340217D01*
X77288878Y-52386286D01*
X77402244Y-52444049D01*
X77619751Y-52514721D01*
X77619752Y-52514721D01*
X77619755Y-52514722D01*
X77845646Y-52550500D01*
X77845647Y-52550500D01*
X78074353Y-52550500D01*
X78074354Y-52550500D01*
X78300245Y-52514722D01*
X78300248Y-52514721D01*
X78300249Y-52514721D01*
X78517755Y-52444049D01*
X78517755Y-52444048D01*
X78517758Y-52444048D01*
X78721538Y-52340217D01*
X78906566Y-52205786D01*
X79068286Y-52044066D01*
X79129992Y-51959134D01*
X79185319Y-51916470D01*
X79254932Y-51910491D01*
X79316727Y-51943096D01*
X79330626Y-51959135D01*
X79392097Y-52043741D01*
X79392097Y-52043742D01*
X79553757Y-52205402D01*
X79738723Y-52339788D01*
X79942429Y-52443582D01*
X80159871Y-52514234D01*
X80250000Y-52528509D01*
X80250000Y-51540747D01*
X80287708Y-51562518D01*
X80427591Y-51600000D01*
X80572409Y-51600000D01*
X80712292Y-51562518D01*
X80750000Y-51540747D01*
X80750000Y-52528508D01*
X80840128Y-52514234D01*
X81057570Y-52443582D01*
X81261276Y-52339788D01*
X81444059Y-52206988D01*
X81509865Y-52183508D01*
X81577919Y-52199333D01*
X81626614Y-52249439D01*
X81633127Y-52263974D01*
X81643701Y-52292326D01*
X81643706Y-52292335D01*
X81729952Y-52407544D01*
X81729955Y-52407547D01*
X81845164Y-52493793D01*
X81845171Y-52493797D01*
X81980017Y-52544091D01*
X81980016Y-52544091D01*
X81986944Y-52544835D01*
X82039627Y-52550500D01*
X84040372Y-52550499D01*
X84099983Y-52544091D01*
X84234831Y-52493796D01*
X84350046Y-52407546D01*
X84436296Y-52292331D01*
X84486591Y-52157483D01*
X84493000Y-52097873D01*
X84492999Y-50002128D01*
X84486591Y-49942517D01*
X84485149Y-49938652D01*
X84436297Y-49807671D01*
X84436293Y-49807664D01*
X84350047Y-49692455D01*
X84350044Y-49692452D01*
X84234835Y-49606206D01*
X84234828Y-49606202D01*
X84099982Y-49555908D01*
X84099983Y-49555908D01*
X84040383Y-49549501D01*
X84040381Y-49549500D01*
X84040373Y-49549500D01*
X84040364Y-49549500D01*
X82039629Y-49549500D01*
X82039623Y-49549501D01*
X81980016Y-49555908D01*
X81845171Y-49606202D01*
X81845164Y-49606206D01*
X81729955Y-49692452D01*
X81729952Y-49692455D01*
X81643706Y-49807664D01*
X81643702Y-49807671D01*
X81633127Y-49836026D01*
X81591256Y-49891960D01*
X81525791Y-49916377D01*
X81457518Y-49901525D01*
X81444060Y-49893011D01*
X81261279Y-49760213D01*
X81057568Y-49656417D01*
X80840124Y-49585765D01*
X80750000Y-49571490D01*
X80750000Y-50559252D01*
X80712292Y-50537482D01*
X80572409Y-50500000D01*
X80427591Y-50500000D01*
X80287708Y-50537482D01*
X80250000Y-50559252D01*
X80250000Y-49571490D01*
X80249999Y-49571490D01*
X80159875Y-49585765D01*
X79942431Y-49656417D01*
X79738723Y-49760211D01*
X79553757Y-49894597D01*
X79392097Y-50056257D01*
X79330627Y-50140864D01*
X79275297Y-50183529D01*
X79205684Y-50189508D01*
X79143889Y-50156902D01*
X79129991Y-50140864D01*
X79115400Y-50120781D01*
X79068286Y-50055934D01*
X78906566Y-49894214D01*
X78721538Y-49759783D01*
X78517755Y-49655950D01*
X78300248Y-49585278D01*
X78114812Y-49555908D01*
X78074354Y-49549500D01*
X77845646Y-49549500D01*
X77805188Y-49555908D01*
X77619753Y-49585278D01*
X77619750Y-49585278D01*
X77402244Y-49655950D01*
X77198461Y-49759783D01*
X77132550Y-49807671D01*
X77013434Y-49894214D01*
X77013432Y-49894216D01*
X77013431Y-49894216D01*
X76851716Y-50055931D01*
X76851716Y-50055932D01*
X76851714Y-50055934D01*
X76804600Y-50120781D01*
X76717283Y-50240961D01*
X76613450Y-50444744D01*
X76542778Y-50662250D01*
X76542778Y-50662253D01*
X76507000Y-50888146D01*
X23000000Y-50888146D01*
X23000000Y-47947682D01*
X58660000Y-47947682D01*
X58660000Y-48152317D01*
X58692009Y-48354417D01*
X58755244Y-48549031D01*
X58848141Y-48731350D01*
X58848147Y-48731359D01*
X58880523Y-48775921D01*
X58880524Y-48775922D01*
X59560000Y-48096446D01*
X59560000Y-48102661D01*
X59587259Y-48204394D01*
X59639920Y-48295606D01*
X59714394Y-48370080D01*
X59805606Y-48422741D01*
X59907339Y-48450000D01*
X59913553Y-48450000D01*
X59234076Y-49129474D01*
X59278650Y-49161859D01*
X59460968Y-49254755D01*
X59655582Y-49317990D01*
X59857683Y-49350000D01*
X60062317Y-49350000D01*
X60264417Y-49317990D01*
X60459031Y-49254755D01*
X60641349Y-49161859D01*
X60685921Y-49129474D01*
X60006447Y-48450000D01*
X60012661Y-48450000D01*
X60114394Y-48422741D01*
X60205606Y-48370080D01*
X60280080Y-48295606D01*
X60332741Y-48204394D01*
X60360000Y-48102661D01*
X60360000Y-48096448D01*
X61039474Y-48775922D01*
X61039474Y-48775921D01*
X61071859Y-48731349D01*
X61164755Y-48549031D01*
X61227990Y-48354417D01*
X61260000Y-48152317D01*
X61260000Y-47947682D01*
X61259995Y-47947648D01*
X63659500Y-47947648D01*
X63659500Y-48152351D01*
X63691522Y-48354534D01*
X63754781Y-48549223D01*
X63770710Y-48580484D01*
X63847585Y-48731359D01*
X63847715Y-48731613D01*
X63968028Y-48897213D01*
X64112786Y-49041971D01*
X64233226Y-49129474D01*
X64278390Y-49162287D01*
X64394607Y-49221503D01*
X64460776Y-49255218D01*
X64460778Y-49255218D01*
X64460781Y-49255220D01*
X64565137Y-49289127D01*
X64655465Y-49318477D01*
X64756557Y-49334488D01*
X64857648Y-49350500D01*
X64857649Y-49350500D01*
X65062351Y-49350500D01*
X65062352Y-49350500D01*
X65264534Y-49318477D01*
X65459219Y-49255220D01*
X65641610Y-49162287D01*
X65734590Y-49094732D01*
X65807213Y-49041971D01*
X65807215Y-49041968D01*
X65807219Y-49041966D01*
X65951966Y-48897219D01*
X65951968Y-48897215D01*
X65951971Y-48897213D01*
X66004732Y-48824590D01*
X66072287Y-48731610D01*
X66165220Y-48549219D01*
X66228477Y-48354534D01*
X66260500Y-48152352D01*
X66260500Y-47947648D01*
X66252257Y-47895606D01*
X66228477Y-47745465D01*
X66197458Y-47650000D01*
X66165220Y-47550781D01*
X66165218Y-47550778D01*
X66165218Y-47550776D01*
X66072419Y-47368650D01*
X66072287Y-47368390D01*
X66040092Y-47324077D01*
X65951971Y-47202786D01*
X65807213Y-47058028D01*
X65641613Y-46937715D01*
X65641612Y-46937714D01*
X65641610Y-46937713D01*
X65584653Y-46908691D01*
X65459223Y-46844781D01*
X65264534Y-46781522D01*
X65089995Y-46753878D01*
X65062352Y-46749500D01*
X64857648Y-46749500D01*
X64833329Y-46753351D01*
X64655465Y-46781522D01*
X64460776Y-46844781D01*
X64278386Y-46937715D01*
X64112786Y-47058028D01*
X63968028Y-47202786D01*
X63847715Y-47368386D01*
X63754781Y-47550776D01*
X63691522Y-47745465D01*
X63659500Y-47947648D01*
X61259995Y-47947648D01*
X61227990Y-47745582D01*
X61164755Y-47550968D01*
X61071859Y-47368650D01*
X61039474Y-47324077D01*
X61039474Y-47324076D01*
X60360000Y-48003551D01*
X60360000Y-47997339D01*
X60332741Y-47895606D01*
X60280080Y-47804394D01*
X60205606Y-47729920D01*
X60114394Y-47677259D01*
X60012661Y-47650000D01*
X60006446Y-47650000D01*
X60685922Y-46970524D01*
X60685921Y-46970523D01*
X60641359Y-46938147D01*
X60641350Y-46938141D01*
X60459031Y-46845244D01*
X60264417Y-46782009D01*
X60062317Y-46750000D01*
X59857683Y-46750000D01*
X59655582Y-46782009D01*
X59460968Y-46845244D01*
X59278644Y-46938143D01*
X59234077Y-46970523D01*
X59234077Y-46970524D01*
X59913554Y-47650000D01*
X59907339Y-47650000D01*
X59805606Y-47677259D01*
X59714394Y-47729920D01*
X59639920Y-47804394D01*
X59587259Y-47895606D01*
X59560000Y-47997339D01*
X59560000Y-48003553D01*
X58880524Y-47324077D01*
X58880523Y-47324077D01*
X58848143Y-47368644D01*
X58755244Y-47550968D01*
X58692009Y-47745582D01*
X58660000Y-47947682D01*
X23000000Y-47947682D01*
X23000000Y-42447682D01*
X94160000Y-42447682D01*
X94160000Y-42652317D01*
X94192009Y-42854417D01*
X94255244Y-43049031D01*
X94348141Y-43231350D01*
X94348147Y-43231359D01*
X94380523Y-43275921D01*
X94380524Y-43275922D01*
X95060000Y-42596446D01*
X95060000Y-42602661D01*
X95087259Y-42704394D01*
X95139920Y-42795606D01*
X95214394Y-42870080D01*
X95305606Y-42922741D01*
X95407339Y-42950000D01*
X95413553Y-42950000D01*
X94734076Y-43629474D01*
X94778650Y-43661859D01*
X94960968Y-43754755D01*
X95155582Y-43817990D01*
X95357683Y-43850000D01*
X95562317Y-43850000D01*
X95764417Y-43817990D01*
X95959031Y-43754755D01*
X96141349Y-43661859D01*
X96185921Y-43629474D01*
X95506447Y-42950000D01*
X95512661Y-42950000D01*
X95614394Y-42922741D01*
X95705606Y-42870080D01*
X95780080Y-42795606D01*
X95832741Y-42704394D01*
X95860000Y-42602661D01*
X95860000Y-42596447D01*
X96539474Y-43275921D01*
X96571859Y-43231349D01*
X96664755Y-43049031D01*
X96727990Y-42854417D01*
X96760000Y-42652317D01*
X96760000Y-42447682D01*
X96759995Y-42447648D01*
X99159500Y-42447648D01*
X99159500Y-42652351D01*
X99191522Y-42854534D01*
X99254781Y-43049223D01*
X99306186Y-43150109D01*
X99347585Y-43231359D01*
X99347715Y-43231613D01*
X99468028Y-43397213D01*
X99612786Y-43541971D01*
X99733226Y-43629474D01*
X99778390Y-43662287D01*
X99862027Y-43704902D01*
X99960776Y-43755218D01*
X99960778Y-43755218D01*
X99960781Y-43755220D01*
X100037686Y-43780208D01*
X100155465Y-43818477D01*
X100256557Y-43834488D01*
X100357648Y-43850500D01*
X100357649Y-43850500D01*
X100562351Y-43850500D01*
X100562352Y-43850500D01*
X100764534Y-43818477D01*
X100959219Y-43755220D01*
X101141610Y-43662287D01*
X101242593Y-43588919D01*
X101307213Y-43541971D01*
X101307215Y-43541968D01*
X101307219Y-43541966D01*
X101451966Y-43397219D01*
X101451968Y-43397215D01*
X101451971Y-43397213D01*
X101508010Y-43320080D01*
X101572287Y-43231610D01*
X101665220Y-43049219D01*
X101728477Y-42854534D01*
X101760500Y-42652352D01*
X101760500Y-42447648D01*
X101740069Y-42318652D01*
X101728477Y-42245465D01*
X101691175Y-42130663D01*
X101665220Y-42050781D01*
X101572287Y-41868390D01*
X101540092Y-41824077D01*
X101451971Y-41702786D01*
X101307213Y-41558028D01*
X101141613Y-41437715D01*
X101141612Y-41437714D01*
X101141610Y-41437713D01*
X101084653Y-41408691D01*
X100959223Y-41344781D01*
X100764534Y-41281522D01*
X100589995Y-41253878D01*
X100562352Y-41249500D01*
X100357648Y-41249500D01*
X100333329Y-41253351D01*
X100155465Y-41281522D01*
X99960776Y-41344781D01*
X99778386Y-41437715D01*
X99612786Y-41558028D01*
X99468028Y-41702786D01*
X99347715Y-41868386D01*
X99254781Y-42050776D01*
X99191522Y-42245465D01*
X99159500Y-42447648D01*
X96759995Y-42447648D01*
X96727990Y-42245582D01*
X96664755Y-42050968D01*
X96571859Y-41868650D01*
X96539474Y-41824077D01*
X96539474Y-41824076D01*
X95860000Y-42503551D01*
X95860000Y-42497339D01*
X95832741Y-42395606D01*
X95780080Y-42304394D01*
X95705606Y-42229920D01*
X95614394Y-42177259D01*
X95512661Y-42150000D01*
X95506446Y-42150000D01*
X96185922Y-41470524D01*
X96185921Y-41470523D01*
X96141359Y-41438147D01*
X96141350Y-41438141D01*
X95959031Y-41345244D01*
X95764417Y-41282009D01*
X95562317Y-41250000D01*
X95357683Y-41250000D01*
X95155582Y-41282009D01*
X94960968Y-41345244D01*
X94778644Y-41438143D01*
X94734077Y-41470523D01*
X94734077Y-41470524D01*
X95413554Y-42150000D01*
X95407339Y-42150000D01*
X95305606Y-42177259D01*
X95214394Y-42229920D01*
X95139920Y-42304394D01*
X95087259Y-42395606D01*
X95060000Y-42497339D01*
X95060000Y-42503553D01*
X94380524Y-41824077D01*
X94380523Y-41824077D01*
X94348143Y-41868644D01*
X94255244Y-42050968D01*
X94192009Y-42245582D01*
X94160000Y-42447682D01*
X23000000Y-42447682D01*
X23000000Y-36447682D01*
X58160000Y-36447682D01*
X58160000Y-36652317D01*
X58192009Y-36854417D01*
X58255244Y-37049031D01*
X58348141Y-37231350D01*
X58348147Y-37231359D01*
X58380523Y-37275921D01*
X58380524Y-37275922D01*
X59060000Y-36596446D01*
X59060000Y-36602661D01*
X59087259Y-36704394D01*
X59139920Y-36795606D01*
X59214394Y-36870080D01*
X59305606Y-36922741D01*
X59407339Y-36950000D01*
X59413553Y-36950000D01*
X58734076Y-37629474D01*
X58778650Y-37661859D01*
X58960968Y-37754755D01*
X59155582Y-37817990D01*
X59357683Y-37850000D01*
X59562317Y-37850000D01*
X59764417Y-37817990D01*
X59959031Y-37754755D01*
X60141349Y-37661859D01*
X60185921Y-37629474D01*
X59506447Y-36950000D01*
X59512661Y-36950000D01*
X59614394Y-36922741D01*
X59705606Y-36870080D01*
X59780080Y-36795606D01*
X59832741Y-36704394D01*
X59860000Y-36602661D01*
X59860000Y-36596447D01*
X60539474Y-37275921D01*
X60571859Y-37231349D01*
X60664755Y-37049031D01*
X60727990Y-36854417D01*
X60760000Y-36652317D01*
X60760000Y-36447682D01*
X63160000Y-36447682D01*
X63160000Y-36652317D01*
X63192009Y-36854417D01*
X63255244Y-37049031D01*
X63348141Y-37231350D01*
X63348147Y-37231359D01*
X63380523Y-37275921D01*
X63380524Y-37275922D01*
X64060000Y-36596446D01*
X64060000Y-36602661D01*
X64087259Y-36704394D01*
X64139920Y-36795606D01*
X64214394Y-36870080D01*
X64305606Y-36922741D01*
X64407339Y-36950000D01*
X64413553Y-36950000D01*
X63734076Y-37629474D01*
X63778650Y-37661859D01*
X63960968Y-37754755D01*
X64155582Y-37817990D01*
X64357683Y-37850000D01*
X64562317Y-37850000D01*
X64764417Y-37817990D01*
X64959031Y-37754755D01*
X65141349Y-37661859D01*
X65185921Y-37629474D01*
X64506447Y-36950000D01*
X64512661Y-36950000D01*
X64614394Y-36922741D01*
X64705606Y-36870080D01*
X64780080Y-36795606D01*
X64832741Y-36704394D01*
X64860000Y-36602661D01*
X64860000Y-36596447D01*
X65539474Y-37275921D01*
X65571859Y-37231349D01*
X65664755Y-37049031D01*
X65727990Y-36854417D01*
X65760000Y-36652317D01*
X65760000Y-36447682D01*
X65727990Y-36245582D01*
X65664755Y-36050968D01*
X65571859Y-35868650D01*
X65539474Y-35824077D01*
X65539474Y-35824076D01*
X64860000Y-36503551D01*
X64860000Y-36497339D01*
X64832741Y-36395606D01*
X64780080Y-36304394D01*
X64705606Y-36229920D01*
X64614394Y-36177259D01*
X64512661Y-36150000D01*
X64506446Y-36150000D01*
X65185922Y-35470524D01*
X65185921Y-35470523D01*
X65141359Y-35438147D01*
X65141350Y-35438141D01*
X64959031Y-35345244D01*
X64764417Y-35282009D01*
X64562317Y-35250000D01*
X64357683Y-35250000D01*
X64155582Y-35282009D01*
X63960968Y-35345244D01*
X63778644Y-35438143D01*
X63734077Y-35470523D01*
X63734077Y-35470524D01*
X64413554Y-36150000D01*
X64407339Y-36150000D01*
X64305606Y-36177259D01*
X64214394Y-36229920D01*
X64139920Y-36304394D01*
X64087259Y-36395606D01*
X64060000Y-36497339D01*
X64060000Y-36503553D01*
X63380524Y-35824077D01*
X63380523Y-35824077D01*
X63348143Y-35868644D01*
X63255244Y-36050968D01*
X63192009Y-36245582D01*
X63160000Y-36447682D01*
X60760000Y-36447682D01*
X60727990Y-36245582D01*
X60664755Y-36050968D01*
X60571859Y-35868650D01*
X60539474Y-35824077D01*
X60539474Y-35824076D01*
X59860000Y-36503551D01*
X59860000Y-36497339D01*
X59832741Y-36395606D01*
X59780080Y-36304394D01*
X59705606Y-36229920D01*
X59614394Y-36177259D01*
X59512661Y-36150000D01*
X59506446Y-36150000D01*
X60185922Y-35470524D01*
X60185921Y-35470523D01*
X60141359Y-35438147D01*
X60141350Y-35438141D01*
X59959031Y-35345244D01*
X59764417Y-35282009D01*
X59562317Y-35250000D01*
X59357683Y-35250000D01*
X59155582Y-35282009D01*
X58960968Y-35345244D01*
X58778644Y-35438143D01*
X58734077Y-35470523D01*
X58734077Y-35470524D01*
X59413554Y-36150000D01*
X59407339Y-36150000D01*
X59305606Y-36177259D01*
X59214394Y-36229920D01*
X59139920Y-36304394D01*
X59087259Y-36395606D01*
X59060000Y-36497339D01*
X59060000Y-36503553D01*
X58380524Y-35824077D01*
X58380523Y-35824077D01*
X58348143Y-35868644D01*
X58255244Y-36050968D01*
X58192009Y-36245582D01*
X58160000Y-36447682D01*
X23000000Y-36447682D01*
X23000000Y-32893753D01*
X79110000Y-32893753D01*
X79110000Y-33106246D01*
X79143242Y-33316127D01*
X79143242Y-33316130D01*
X79208904Y-33518217D01*
X79305375Y-33707550D01*
X79344728Y-33761716D01*
X79977037Y-33129408D01*
X79994075Y-33192993D01*
X80059901Y-33307007D01*
X80152993Y-33400099D01*
X80267007Y-33465925D01*
X80330590Y-33482962D01*
X79698282Y-34115269D01*
X79698282Y-34115270D01*
X79752449Y-34154624D01*
X79941782Y-34251095D01*
X80143870Y-34316757D01*
X80353754Y-34350000D01*
X80566246Y-34350000D01*
X80776127Y-34316757D01*
X80776130Y-34316757D01*
X80978217Y-34251095D01*
X81167554Y-34154622D01*
X81221716Y-34115270D01*
X81221717Y-34115270D01*
X80589408Y-33482962D01*
X80652993Y-33465925D01*
X80767007Y-33400099D01*
X80860099Y-33307007D01*
X80925925Y-33192993D01*
X80942962Y-33129408D01*
X81575270Y-33761717D01*
X81575270Y-33761716D01*
X81614622Y-33707555D01*
X81619232Y-33698507D01*
X81667205Y-33647709D01*
X81735025Y-33630912D01*
X81801161Y-33653447D01*
X81840204Y-33698504D01*
X81844949Y-33707817D01*
X81969890Y-33879786D01*
X82120213Y-34030109D01*
X82292179Y-34155048D01*
X82292181Y-34155049D01*
X82292184Y-34155051D01*
X82481588Y-34251557D01*
X82683757Y-34317246D01*
X82893713Y-34350500D01*
X82893714Y-34350500D01*
X83106286Y-34350500D01*
X83106287Y-34350500D01*
X83316243Y-34317246D01*
X83518412Y-34251557D01*
X83707816Y-34155051D01*
X83794138Y-34092335D01*
X83879786Y-34030109D01*
X83879788Y-34030106D01*
X83879792Y-34030104D01*
X84030104Y-33879792D01*
X84030106Y-33879788D01*
X84030109Y-33879786D01*
X84155048Y-33707820D01*
X84155050Y-33707817D01*
X84155051Y-33707816D01*
X84159514Y-33699054D01*
X84207488Y-33648259D01*
X84275308Y-33631463D01*
X84341444Y-33653999D01*
X84380486Y-33699056D01*
X84384951Y-33707820D01*
X84509890Y-33879786D01*
X84660213Y-34030109D01*
X84832179Y-34155048D01*
X84832181Y-34155049D01*
X84832184Y-34155051D01*
X85021588Y-34251557D01*
X85223757Y-34317246D01*
X85433713Y-34350500D01*
X85433714Y-34350500D01*
X85646286Y-34350500D01*
X85646287Y-34350500D01*
X85856243Y-34317246D01*
X86058412Y-34251557D01*
X86247816Y-34155051D01*
X86334138Y-34092335D01*
X86419786Y-34030109D01*
X86419788Y-34030106D01*
X86419792Y-34030104D01*
X86570104Y-33879792D01*
X86570106Y-33879788D01*
X86570109Y-33879786D01*
X86695048Y-33707820D01*
X86695050Y-33707817D01*
X86695051Y-33707816D01*
X86699514Y-33699054D01*
X86747488Y-33648259D01*
X86815308Y-33631463D01*
X86881444Y-33653999D01*
X86920486Y-33699056D01*
X86924951Y-33707820D01*
X87049890Y-33879786D01*
X87200213Y-34030109D01*
X87372179Y-34155048D01*
X87372181Y-34155049D01*
X87372184Y-34155051D01*
X87561588Y-34251557D01*
X87763757Y-34317246D01*
X87973713Y-34350500D01*
X87973714Y-34350500D01*
X88186286Y-34350500D01*
X88186287Y-34350500D01*
X88396243Y-34317246D01*
X88598412Y-34251557D01*
X88787816Y-34155051D01*
X88874147Y-34092328D01*
X88959784Y-34030110D01*
X88959784Y-34030109D01*
X88959792Y-34030104D01*
X89073329Y-33916566D01*
X89134648Y-33883084D01*
X89204340Y-33888068D01*
X89260274Y-33929939D01*
X89277189Y-33960917D01*
X89326202Y-34092328D01*
X89326206Y-34092335D01*
X89412452Y-34207544D01*
X89412455Y-34207547D01*
X89527664Y-34293793D01*
X89527671Y-34293797D01*
X89662517Y-34344091D01*
X89662516Y-34344091D01*
X89669444Y-34344835D01*
X89722127Y-34350500D01*
X91517872Y-34350499D01*
X91577483Y-34344091D01*
X91712331Y-34293796D01*
X91827546Y-34207546D01*
X91913796Y-34092331D01*
X91964091Y-33957483D01*
X91970500Y-33897873D01*
X91970500Y-33602135D01*
X113149500Y-33602135D01*
X113149500Y-35397870D01*
X113149501Y-35397876D01*
X113155908Y-35457483D01*
X113206202Y-35592328D01*
X113206206Y-35592335D01*
X113292452Y-35707544D01*
X113292455Y-35707547D01*
X113407664Y-35793793D01*
X113407671Y-35793797D01*
X113539082Y-35842810D01*
X113595016Y-35884681D01*
X113619433Y-35950145D01*
X113604582Y-36018418D01*
X113583431Y-36046673D01*
X113469889Y-36160215D01*
X113344951Y-36332179D01*
X113248444Y-36521585D01*
X113182753Y-36723760D01*
X113149500Y-36933713D01*
X113149500Y-37146286D01*
X113180088Y-37339414D01*
X113182754Y-37356243D01*
X113235920Y-37519871D01*
X113248444Y-37558414D01*
X113344951Y-37747820D01*
X113469890Y-37919786D01*
X113620213Y-38070109D01*
X113792179Y-38195048D01*
X113792181Y-38195049D01*
X113792184Y-38195051D01*
X113801493Y-38199794D01*
X113852290Y-38247766D01*
X113869087Y-38315587D01*
X113846552Y-38381722D01*
X113801505Y-38420760D01*
X113792446Y-38425376D01*
X113792440Y-38425380D01*
X113738282Y-38464727D01*
X113738282Y-38464728D01*
X114370591Y-39097037D01*
X114307007Y-39114075D01*
X114192993Y-39179901D01*
X114099901Y-39272993D01*
X114034075Y-39387007D01*
X114017037Y-39450591D01*
X113384728Y-38818282D01*
X113384727Y-38818282D01*
X113345380Y-38872439D01*
X113248904Y-39061782D01*
X113183242Y-39263869D01*
X113183242Y-39263872D01*
X113150000Y-39473753D01*
X113150000Y-39686246D01*
X113183242Y-39896127D01*
X113183242Y-39896130D01*
X113248904Y-40098217D01*
X113345375Y-40287550D01*
X113384728Y-40341716D01*
X114017037Y-39709408D01*
X114034075Y-39772993D01*
X114099901Y-39887007D01*
X114192993Y-39980099D01*
X114307007Y-40045925D01*
X114370590Y-40062962D01*
X113738282Y-40695269D01*
X113738282Y-40695270D01*
X113792452Y-40734626D01*
X113792451Y-40734626D01*
X113801495Y-40739234D01*
X113852292Y-40787208D01*
X113869087Y-40855029D01*
X113846550Y-40921164D01*
X113801499Y-40960202D01*
X113792182Y-40964949D01*
X113620213Y-41089890D01*
X113469890Y-41240213D01*
X113344951Y-41412179D01*
X113248444Y-41601585D01*
X113182753Y-41803760D01*
X113169388Y-41888143D01*
X113149500Y-42013713D01*
X113149500Y-42226287D01*
X113152538Y-42245465D01*
X113178855Y-42411630D01*
X113182754Y-42436243D01*
X113244819Y-42627259D01*
X113248444Y-42638414D01*
X113344951Y-42827820D01*
X113469890Y-42999786D01*
X113620213Y-43150109D01*
X113792182Y-43275050D01*
X113800946Y-43279516D01*
X113851742Y-43327491D01*
X113868536Y-43395312D01*
X113845998Y-43461447D01*
X113800946Y-43500484D01*
X113792182Y-43504949D01*
X113620213Y-43629890D01*
X113469890Y-43780213D01*
X113344951Y-43952179D01*
X113248444Y-44141585D01*
X113182753Y-44343760D01*
X113149500Y-44553713D01*
X113149500Y-44766286D01*
X113178562Y-44949780D01*
X113182754Y-44976243D01*
X113243446Y-45163034D01*
X113248444Y-45178414D01*
X113344951Y-45367820D01*
X113469890Y-45539786D01*
X113620213Y-45690109D01*
X113792182Y-45815050D01*
X113800946Y-45819516D01*
X113851742Y-45867491D01*
X113868536Y-45935312D01*
X113845998Y-46001447D01*
X113800946Y-46040484D01*
X113792182Y-46044949D01*
X113620213Y-46169890D01*
X113469890Y-46320213D01*
X113344951Y-46492179D01*
X113248444Y-46681585D01*
X113182753Y-46883760D01*
X113169011Y-46970524D01*
X113149500Y-47093713D01*
X113149500Y-47306287D01*
X113182754Y-47516243D01*
X113226214Y-47650000D01*
X113248444Y-47718414D01*
X113344951Y-47907820D01*
X113469890Y-48079786D01*
X113620213Y-48230109D01*
X113792182Y-48355050D01*
X113800946Y-48359516D01*
X113851742Y-48407491D01*
X113868536Y-48475312D01*
X113845998Y-48541447D01*
X113800946Y-48580484D01*
X113792182Y-48584949D01*
X113620213Y-48709890D01*
X113469890Y-48860213D01*
X113344951Y-49032179D01*
X113248444Y-49221585D01*
X113182753Y-49423760D01*
X113149500Y-49633713D01*
X113149500Y-49846286D01*
X113182704Y-50055932D01*
X113182754Y-50056243D01*
X113244819Y-50247259D01*
X113248444Y-50258414D01*
X113344951Y-50447820D01*
X113469890Y-50619786D01*
X113620213Y-50770109D01*
X113792182Y-50895050D01*
X113800946Y-50899516D01*
X113851742Y-50947491D01*
X113868536Y-51015312D01*
X113845998Y-51081447D01*
X113800946Y-51120484D01*
X113792182Y-51124949D01*
X113620213Y-51249890D01*
X113469890Y-51400213D01*
X113344951Y-51572179D01*
X113248444Y-51761585D01*
X113182753Y-51963760D01*
X113149500Y-52173713D01*
X113149500Y-52386286D01*
X113175508Y-52550498D01*
X113182754Y-52596243D01*
X113214993Y-52695465D01*
X113248444Y-52798414D01*
X113344951Y-52987820D01*
X113469890Y-53159786D01*
X113620213Y-53310109D01*
X113792179Y-53435048D01*
X113792181Y-53435049D01*
X113792184Y-53435051D01*
X113981588Y-53531557D01*
X114183757Y-53597246D01*
X114393713Y-53630500D01*
X114393714Y-53630500D01*
X114606286Y-53630500D01*
X114606287Y-53630500D01*
X114816243Y-53597246D01*
X115018412Y-53531557D01*
X115207816Y-53435051D01*
X115229789Y-53419086D01*
X115379786Y-53310109D01*
X115379788Y-53310106D01*
X115379792Y-53310104D01*
X115530104Y-53159792D01*
X115530106Y-53159788D01*
X115530109Y-53159786D01*
X115655048Y-52987820D01*
X115655047Y-52987820D01*
X115655051Y-52987816D01*
X115751557Y-52798412D01*
X115817246Y-52596243D01*
X115850500Y-52386287D01*
X115850500Y-52173713D01*
X115817246Y-51963757D01*
X115751557Y-51761588D01*
X115655051Y-51572184D01*
X115655049Y-51572181D01*
X115655048Y-51572179D01*
X115530109Y-51400213D01*
X115379786Y-51249890D01*
X115207820Y-51124951D01*
X115202831Y-51122409D01*
X115199054Y-51120485D01*
X115148259Y-51072512D01*
X115131463Y-51004692D01*
X115153999Y-50938556D01*
X115199054Y-50899515D01*
X115207816Y-50895051D01*
X115248344Y-50865606D01*
X115379786Y-50770109D01*
X115379788Y-50770106D01*
X115379792Y-50770104D01*
X115530104Y-50619792D01*
X115530106Y-50619788D01*
X115530109Y-50619786D01*
X115604316Y-50517648D01*
X131679500Y-50517648D01*
X131679500Y-50722351D01*
X131711522Y-50924534D01*
X131774781Y-51119223D01*
X131821979Y-51211853D01*
X131867585Y-51301359D01*
X131867715Y-51301613D01*
X131988028Y-51467213D01*
X132132786Y-51611971D01*
X132281226Y-51719817D01*
X132298390Y-51732287D01*
X132401653Y-51784902D01*
X132480776Y-51825218D01*
X132480778Y-51825218D01*
X132480781Y-51825220D01*
X132509727Y-51834625D01*
X132675465Y-51888477D01*
X132725615Y-51896420D01*
X132877648Y-51920500D01*
X132877649Y-51920500D01*
X133082351Y-51920500D01*
X133082352Y-51920500D01*
X133284534Y-51888477D01*
X133479219Y-51825220D01*
X133661610Y-51732287D01*
X133815476Y-51620498D01*
X133827213Y-51611971D01*
X133827215Y-51611968D01*
X133827219Y-51611966D01*
X133971966Y-51467219D01*
X133971968Y-51467215D01*
X133971971Y-51467213D01*
X134092284Y-51301614D01*
X134092286Y-51301611D01*
X134092287Y-51301610D01*
X134139516Y-51208917D01*
X134187489Y-51158123D01*
X134255310Y-51141328D01*
X134321445Y-51163865D01*
X134360483Y-51208917D01*
X134404348Y-51295006D01*
X134407715Y-51301614D01*
X134528028Y-51467213D01*
X134672786Y-51611971D01*
X134821226Y-51719817D01*
X134838390Y-51732287D01*
X134941653Y-51784902D01*
X135020776Y-51825218D01*
X135020778Y-51825218D01*
X135020781Y-51825220D01*
X135049727Y-51834625D01*
X135215465Y-51888477D01*
X135265615Y-51896420D01*
X135417648Y-51920500D01*
X135417649Y-51920500D01*
X135622351Y-51920500D01*
X135622352Y-51920500D01*
X135824534Y-51888477D01*
X136019219Y-51825220D01*
X136201610Y-51732287D01*
X136355476Y-51620498D01*
X136367213Y-51611971D01*
X136367215Y-51611968D01*
X136367219Y-51611966D01*
X136511966Y-51467219D01*
X136511968Y-51467215D01*
X136511971Y-51467213D01*
X136632284Y-51301614D01*
X136632286Y-51301611D01*
X136632287Y-51301610D01*
X136679516Y-51208917D01*
X136727489Y-51158123D01*
X136795310Y-51141328D01*
X136861445Y-51163865D01*
X136900483Y-51208917D01*
X136944348Y-51295006D01*
X136947715Y-51301614D01*
X137068028Y-51467213D01*
X137212786Y-51611971D01*
X137361226Y-51719817D01*
X137378390Y-51732287D01*
X137481653Y-51784902D01*
X137560776Y-51825218D01*
X137560778Y-51825218D01*
X137560781Y-51825220D01*
X137589727Y-51834625D01*
X137755465Y-51888477D01*
X137805615Y-51896420D01*
X137957648Y-51920500D01*
X137957649Y-51920500D01*
X138162351Y-51920500D01*
X138162352Y-51920500D01*
X138364534Y-51888477D01*
X138559219Y-51825220D01*
X138741610Y-51732287D01*
X138895476Y-51620498D01*
X138907213Y-51611971D01*
X138907215Y-51611968D01*
X138907219Y-51611966D01*
X139051966Y-51467219D01*
X139051968Y-51467215D01*
X139051971Y-51467213D01*
X139172284Y-51301614D01*
X139172286Y-51301611D01*
X139172287Y-51301610D01*
X139219516Y-51208917D01*
X139267489Y-51158123D01*
X139335310Y-51141328D01*
X139401445Y-51163865D01*
X139440483Y-51208917D01*
X139484348Y-51295006D01*
X139487715Y-51301614D01*
X139608028Y-51467213D01*
X139752786Y-51611971D01*
X139901226Y-51719817D01*
X139918390Y-51732287D01*
X140021653Y-51784902D01*
X140100776Y-51825218D01*
X140100778Y-51825218D01*
X140100781Y-51825220D01*
X140129727Y-51834625D01*
X140295465Y-51888477D01*
X140345615Y-51896420D01*
X140497648Y-51920500D01*
X140497649Y-51920500D01*
X140702351Y-51920500D01*
X140702352Y-51920500D01*
X140904534Y-51888477D01*
X141099219Y-51825220D01*
X141281610Y-51732287D01*
X141435476Y-51620498D01*
X141447213Y-51611971D01*
X141447215Y-51611968D01*
X141447219Y-51611966D01*
X141591966Y-51467219D01*
X141591968Y-51467215D01*
X141591971Y-51467213D01*
X141712286Y-51301611D01*
X141712415Y-51301359D01*
X141759795Y-51208369D01*
X141807769Y-51157573D01*
X141875590Y-51140778D01*
X141941725Y-51163315D01*
X141980765Y-51208369D01*
X142028141Y-51301350D01*
X142028147Y-51301359D01*
X142060523Y-51345921D01*
X142060524Y-51345922D01*
X142740000Y-50666446D01*
X142740000Y-50672661D01*
X142767259Y-50774394D01*
X142819920Y-50865606D01*
X142894394Y-50940080D01*
X142985606Y-50992741D01*
X143087339Y-51020000D01*
X143093553Y-51020000D01*
X142414076Y-51699474D01*
X142458650Y-51731859D01*
X142640968Y-51824755D01*
X142835582Y-51887990D01*
X143037683Y-51920000D01*
X143242317Y-51920000D01*
X143444418Y-51887989D01*
X143449064Y-51886875D01*
X143518846Y-51890371D01*
X143575660Y-51931039D01*
X143601469Y-51995967D01*
X143588078Y-52064541D01*
X143565683Y-52095132D01*
X143508032Y-52152782D01*
X143508028Y-52152786D01*
X143387715Y-52318386D01*
X143294781Y-52500776D01*
X143231522Y-52695465D01*
X143199500Y-52897648D01*
X143199500Y-53102351D01*
X143231522Y-53304534D01*
X143294781Y-53499223D01*
X143387715Y-53681613D01*
X143508028Y-53847213D01*
X143652786Y-53991971D01*
X143807749Y-54104556D01*
X143818390Y-54112287D01*
X143934607Y-54171503D01*
X144000776Y-54205218D01*
X144000778Y-54205218D01*
X144000781Y-54205220D01*
X144105137Y-54239127D01*
X144195465Y-54268477D01*
X144296557Y-54284488D01*
X144397648Y-54300500D01*
X144397649Y-54300500D01*
X144602351Y-54300500D01*
X144602352Y-54300500D01*
X144804534Y-54268477D01*
X144999219Y-54205220D01*
X145181610Y-54112287D01*
X145274590Y-54044732D01*
X145347213Y-53991971D01*
X145347215Y-53991968D01*
X145347219Y-53991966D01*
X145491966Y-53847219D01*
X145491968Y-53847215D01*
X145491971Y-53847213D01*
X145544732Y-53774590D01*
X145612287Y-53681610D01*
X145705220Y-53499219D01*
X145768477Y-53304534D01*
X145800500Y-53102352D01*
X145800500Y-52897648D01*
X145768477Y-52695466D01*
X145705220Y-52500781D01*
X145705218Y-52500778D01*
X145705218Y-52500776D01*
X145646882Y-52386287D01*
X145612287Y-52318390D01*
X145562192Y-52249439D01*
X145491971Y-52152786D01*
X145469701Y-52130516D01*
X145436216Y-52069193D01*
X145441200Y-51999501D01*
X145483072Y-51943568D01*
X145548536Y-51919151D01*
X145572791Y-51920191D01*
X145572797Y-51920118D01*
X145574855Y-51920280D01*
X145576781Y-51920362D01*
X145577648Y-51920500D01*
X145577653Y-51920500D01*
X145782351Y-51920500D01*
X145782352Y-51920500D01*
X145984534Y-51888477D01*
X146179219Y-51825220D01*
X146361610Y-51732287D01*
X146515476Y-51620498D01*
X146527213Y-51611971D01*
X146527215Y-51611968D01*
X146527219Y-51611966D01*
X146671966Y-51467219D01*
X146671968Y-51467215D01*
X146671971Y-51467213D01*
X146792284Y-51301614D01*
X146792286Y-51301611D01*
X146792287Y-51301610D01*
X146839516Y-51208917D01*
X146887489Y-51158123D01*
X146955310Y-51141328D01*
X147021445Y-51163865D01*
X147060483Y-51208917D01*
X147104348Y-51295006D01*
X147107715Y-51301614D01*
X147228028Y-51467213D01*
X147372786Y-51611971D01*
X147521226Y-51719817D01*
X147538390Y-51732287D01*
X147641653Y-51784902D01*
X147720776Y-51825218D01*
X147720778Y-51825218D01*
X147720781Y-51825220D01*
X147749727Y-51834625D01*
X147915465Y-51888477D01*
X147965615Y-51896420D01*
X148117648Y-51920500D01*
X148117649Y-51920500D01*
X148322351Y-51920500D01*
X148322352Y-51920500D01*
X148524534Y-51888477D01*
X148719219Y-51825220D01*
X148901610Y-51732287D01*
X149055476Y-51620498D01*
X149067213Y-51611971D01*
X149067215Y-51611968D01*
X149067219Y-51611966D01*
X149211966Y-51467219D01*
X149211968Y-51467215D01*
X149211971Y-51467213D01*
X149332284Y-51301614D01*
X149332286Y-51301611D01*
X149332287Y-51301610D01*
X149379516Y-51208917D01*
X149427489Y-51158123D01*
X149495310Y-51141328D01*
X149561445Y-51163865D01*
X149600483Y-51208917D01*
X149644348Y-51295006D01*
X149647715Y-51301614D01*
X149768028Y-51467213D01*
X149912786Y-51611971D01*
X150061226Y-51719817D01*
X150078390Y-51732287D01*
X150181653Y-51784902D01*
X150260776Y-51825218D01*
X150260778Y-51825218D01*
X150260781Y-51825220D01*
X150289727Y-51834625D01*
X150455465Y-51888477D01*
X150505615Y-51896420D01*
X150657648Y-51920500D01*
X150657649Y-51920500D01*
X150862351Y-51920500D01*
X150862352Y-51920500D01*
X151064534Y-51888477D01*
X151259219Y-51825220D01*
X151441610Y-51732287D01*
X151595476Y-51620498D01*
X151607213Y-51611971D01*
X151607215Y-51611968D01*
X151607219Y-51611966D01*
X151751966Y-51467219D01*
X151751968Y-51467215D01*
X151751971Y-51467213D01*
X151872284Y-51301614D01*
X151872286Y-51301611D01*
X151872287Y-51301610D01*
X151919516Y-51208917D01*
X151967489Y-51158123D01*
X152035310Y-51141328D01*
X152101445Y-51163865D01*
X152140483Y-51208917D01*
X152184348Y-51295006D01*
X152187715Y-51301614D01*
X152308028Y-51467213D01*
X152452786Y-51611971D01*
X152601226Y-51719817D01*
X152618390Y-51732287D01*
X152721653Y-51784902D01*
X152800776Y-51825218D01*
X152800778Y-51825218D01*
X152800781Y-51825220D01*
X152829727Y-51834625D01*
X152995465Y-51888477D01*
X153045615Y-51896420D01*
X153197648Y-51920500D01*
X153197649Y-51920500D01*
X153402351Y-51920500D01*
X153402352Y-51920500D01*
X153604534Y-51888477D01*
X153799219Y-51825220D01*
X153981610Y-51732287D01*
X154135476Y-51620498D01*
X154147213Y-51611971D01*
X154147215Y-51611968D01*
X154147219Y-51611966D01*
X154291966Y-51467219D01*
X154291968Y-51467215D01*
X154291971Y-51467213D01*
X154412284Y-51301614D01*
X154412286Y-51301611D01*
X154412287Y-51301610D01*
X154459516Y-51208917D01*
X154507489Y-51158123D01*
X154575310Y-51141328D01*
X154641445Y-51163865D01*
X154680483Y-51208917D01*
X154724348Y-51295006D01*
X154727715Y-51301614D01*
X154848028Y-51467213D01*
X154992786Y-51611971D01*
X155141226Y-51719817D01*
X155158390Y-51732287D01*
X155261653Y-51784902D01*
X155340776Y-51825218D01*
X155340778Y-51825218D01*
X155340781Y-51825220D01*
X155369727Y-51834625D01*
X155535465Y-51888477D01*
X155585615Y-51896420D01*
X155737648Y-51920500D01*
X155737649Y-51920500D01*
X155942351Y-51920500D01*
X155942352Y-51920500D01*
X156144534Y-51888477D01*
X156339219Y-51825220D01*
X156521610Y-51732287D01*
X156675476Y-51620498D01*
X156687213Y-51611971D01*
X156687215Y-51611968D01*
X156687219Y-51611966D01*
X156831966Y-51467219D01*
X156831968Y-51467215D01*
X156831971Y-51467213D01*
X156952284Y-51301614D01*
X156952286Y-51301611D01*
X156952287Y-51301610D01*
X156999516Y-51208917D01*
X157047489Y-51158123D01*
X157115310Y-51141328D01*
X157181445Y-51163865D01*
X157220483Y-51208917D01*
X157264348Y-51295006D01*
X157267715Y-51301614D01*
X157388028Y-51467213D01*
X157532786Y-51611971D01*
X157681226Y-51719817D01*
X157698390Y-51732287D01*
X157801653Y-51784902D01*
X157880776Y-51825218D01*
X157880778Y-51825218D01*
X157880781Y-51825220D01*
X157909727Y-51834625D01*
X158075465Y-51888477D01*
X158125615Y-51896420D01*
X158277648Y-51920500D01*
X158277649Y-51920500D01*
X158482351Y-51920500D01*
X158482352Y-51920500D01*
X158684534Y-51888477D01*
X158879219Y-51825220D01*
X159061610Y-51732287D01*
X159215476Y-51620498D01*
X159227213Y-51611971D01*
X159227215Y-51611968D01*
X159227219Y-51611966D01*
X159371966Y-51467219D01*
X159371968Y-51467215D01*
X159371971Y-51467213D01*
X159492284Y-51301614D01*
X159492286Y-51301611D01*
X159492287Y-51301610D01*
X159539516Y-51208917D01*
X159587489Y-51158123D01*
X159655310Y-51141328D01*
X159721445Y-51163865D01*
X159760483Y-51208917D01*
X159804348Y-51295006D01*
X159807715Y-51301614D01*
X159928028Y-51467213D01*
X160072786Y-51611971D01*
X160221226Y-51719817D01*
X160238390Y-51732287D01*
X160341653Y-51784902D01*
X160420776Y-51825218D01*
X160420778Y-51825218D01*
X160420781Y-51825220D01*
X160449727Y-51834625D01*
X160615465Y-51888477D01*
X160665615Y-51896420D01*
X160817648Y-51920500D01*
X160817649Y-51920500D01*
X161022351Y-51920500D01*
X161022352Y-51920500D01*
X161224534Y-51888477D01*
X161419219Y-51825220D01*
X161601610Y-51732287D01*
X161755476Y-51620498D01*
X161767213Y-51611971D01*
X161767215Y-51611968D01*
X161767219Y-51611966D01*
X161911966Y-51467219D01*
X161911968Y-51467215D01*
X161911971Y-51467213D01*
X162032286Y-51301611D01*
X162032415Y-51301359D01*
X162079795Y-51208369D01*
X162127769Y-51157573D01*
X162195590Y-51140778D01*
X162261725Y-51163315D01*
X162300765Y-51208369D01*
X162348141Y-51301350D01*
X162348147Y-51301359D01*
X162380523Y-51345921D01*
X162380524Y-51345922D01*
X163060000Y-50666446D01*
X163060000Y-50672661D01*
X163087259Y-50774394D01*
X163139920Y-50865606D01*
X163214394Y-50940080D01*
X163305606Y-50992741D01*
X163407339Y-51020000D01*
X163413553Y-51020000D01*
X162734076Y-51699474D01*
X162778650Y-51731859D01*
X162960968Y-51824755D01*
X163155582Y-51887990D01*
X163357683Y-51920000D01*
X163562317Y-51920000D01*
X163764417Y-51887990D01*
X163959031Y-51824755D01*
X164141349Y-51731859D01*
X164185921Y-51699474D01*
X163506447Y-51020000D01*
X163512661Y-51020000D01*
X163614394Y-50992741D01*
X163705606Y-50940080D01*
X163780080Y-50865606D01*
X163832741Y-50774394D01*
X163860000Y-50672661D01*
X163860000Y-50666448D01*
X164539474Y-51345922D01*
X164539474Y-51345921D01*
X164571861Y-51301347D01*
X164571861Y-51301346D01*
X164619234Y-51208371D01*
X164667208Y-51157575D01*
X164735028Y-51140779D01*
X164801164Y-51163316D01*
X164840203Y-51208369D01*
X164887713Y-51301611D01*
X165008028Y-51467213D01*
X165152782Y-51611967D01*
X165152787Y-51611971D01*
X165287275Y-51709682D01*
X165329941Y-51765011D01*
X165335920Y-51834625D01*
X165303315Y-51896420D01*
X165287275Y-51910318D01*
X165152787Y-52008028D01*
X165152782Y-52008032D01*
X165008028Y-52152786D01*
X164887715Y-52318386D01*
X164794781Y-52500776D01*
X164731522Y-52695465D01*
X164699500Y-52897648D01*
X164699500Y-53102351D01*
X164731522Y-53304534D01*
X164794781Y-53499223D01*
X164887715Y-53681613D01*
X165008028Y-53847213D01*
X165152786Y-53991971D01*
X165307749Y-54104556D01*
X165318390Y-54112287D01*
X165434607Y-54171503D01*
X165500776Y-54205218D01*
X165500778Y-54205218D01*
X165500781Y-54205220D01*
X165605137Y-54239127D01*
X165695465Y-54268477D01*
X165796557Y-54284488D01*
X165897648Y-54300500D01*
X165897649Y-54300500D01*
X166102351Y-54300500D01*
X166102352Y-54300500D01*
X166304534Y-54268477D01*
X166499219Y-54205220D01*
X166681610Y-54112287D01*
X166774590Y-54044732D01*
X166847213Y-53991971D01*
X166847215Y-53991968D01*
X166847219Y-53991966D01*
X166991966Y-53847219D01*
X166991968Y-53847215D01*
X166991971Y-53847213D01*
X167044732Y-53774590D01*
X167112287Y-53681610D01*
X167205220Y-53499219D01*
X167268477Y-53304534D01*
X167300500Y-53102352D01*
X167300500Y-52897648D01*
X167268477Y-52695466D01*
X167205220Y-52500781D01*
X167205218Y-52500778D01*
X167205218Y-52500776D01*
X167146882Y-52386287D01*
X167112287Y-52318390D01*
X167062192Y-52249439D01*
X166991971Y-52152786D01*
X166847219Y-52008034D01*
X166830610Y-51995967D01*
X166712723Y-51910317D01*
X166670058Y-51854989D01*
X166664079Y-51785376D01*
X166696684Y-51723580D01*
X166712723Y-51709682D01*
X166847219Y-51611966D01*
X166991966Y-51467219D01*
X166991968Y-51467215D01*
X166991971Y-51467213D01*
X167049734Y-51387708D01*
X167112287Y-51301610D01*
X167205220Y-51119219D01*
X167268477Y-50924534D01*
X167300500Y-50722352D01*
X167300500Y-50517648D01*
X167288953Y-50444742D01*
X167268477Y-50315465D01*
X167205218Y-50120776D01*
X167159515Y-50031080D01*
X167112287Y-49938390D01*
X167080092Y-49894077D01*
X166991971Y-49772786D01*
X166847213Y-49628028D01*
X166681613Y-49507715D01*
X166681612Y-49507714D01*
X166681610Y-49507713D01*
X166624653Y-49478691D01*
X166499223Y-49414781D01*
X166304534Y-49351522D01*
X166129995Y-49323878D01*
X166102352Y-49319500D01*
X165897648Y-49319500D01*
X165873329Y-49323351D01*
X165695465Y-49351522D01*
X165500776Y-49414781D01*
X165318386Y-49507715D01*
X165152786Y-49628028D01*
X165008028Y-49772786D01*
X164887713Y-49938388D01*
X164840203Y-50031630D01*
X164792228Y-50082426D01*
X164724407Y-50099220D01*
X164658272Y-50076682D01*
X164619234Y-50031628D01*
X164571861Y-49938652D01*
X164539474Y-49894077D01*
X164539474Y-49894076D01*
X163860000Y-50573551D01*
X163860000Y-50567339D01*
X163832741Y-50465606D01*
X163780080Y-50374394D01*
X163705606Y-50299920D01*
X163614394Y-50247259D01*
X163512661Y-50220000D01*
X163506446Y-50220000D01*
X164185922Y-49540524D01*
X164185921Y-49540523D01*
X164141359Y-49508147D01*
X164141350Y-49508141D01*
X163959031Y-49415244D01*
X163764417Y-49352009D01*
X163562317Y-49320000D01*
X163357683Y-49320000D01*
X163155582Y-49352009D01*
X162960968Y-49415244D01*
X162778644Y-49508143D01*
X162734077Y-49540523D01*
X162734077Y-49540524D01*
X163413554Y-50220000D01*
X163407339Y-50220000D01*
X163305606Y-50247259D01*
X163214394Y-50299920D01*
X163139920Y-50374394D01*
X163087259Y-50465606D01*
X163060000Y-50567339D01*
X163060000Y-50573553D01*
X162380524Y-49894077D01*
X162380523Y-49894077D01*
X162348143Y-49938644D01*
X162300765Y-50031630D01*
X162252790Y-50082426D01*
X162184969Y-50099221D01*
X162118834Y-50076683D01*
X162079795Y-50031630D01*
X162079515Y-50031080D01*
X162032287Y-49938390D01*
X162032285Y-49938387D01*
X162032284Y-49938385D01*
X161911971Y-49772786D01*
X161767213Y-49628028D01*
X161601613Y-49507715D01*
X161601612Y-49507714D01*
X161601610Y-49507713D01*
X161544653Y-49478691D01*
X161419223Y-49414781D01*
X161224534Y-49351522D01*
X161049995Y-49323878D01*
X161022352Y-49319500D01*
X160817648Y-49319500D01*
X160793329Y-49323351D01*
X160615465Y-49351522D01*
X160420776Y-49414781D01*
X160238386Y-49507715D01*
X160072786Y-49628028D01*
X159928028Y-49772786D01*
X159807715Y-49938386D01*
X159760485Y-50031080D01*
X159712510Y-50081876D01*
X159644689Y-50098671D01*
X159578554Y-50076134D01*
X159539515Y-50031080D01*
X159538883Y-50029840D01*
X159492287Y-49938390D01*
X159460092Y-49894077D01*
X159371971Y-49772786D01*
X159227213Y-49628028D01*
X159061613Y-49507715D01*
X159061612Y-49507714D01*
X159061610Y-49507713D01*
X159004653Y-49478691D01*
X158879223Y-49414781D01*
X158684534Y-49351522D01*
X158509995Y-49323878D01*
X158482352Y-49319500D01*
X158277648Y-49319500D01*
X158253329Y-49323351D01*
X158075465Y-49351522D01*
X157880776Y-49414781D01*
X157698386Y-49507715D01*
X157532786Y-49628028D01*
X157388028Y-49772786D01*
X157267715Y-49938386D01*
X157220485Y-50031080D01*
X157172510Y-50081876D01*
X157104689Y-50098671D01*
X157038554Y-50076134D01*
X156999515Y-50031080D01*
X156998883Y-50029840D01*
X156952287Y-49938390D01*
X156920092Y-49894077D01*
X156831971Y-49772786D01*
X156687213Y-49628028D01*
X156521613Y-49507715D01*
X156521612Y-49507714D01*
X156521610Y-49507713D01*
X156464653Y-49478691D01*
X156339223Y-49414781D01*
X156144534Y-49351522D01*
X155969995Y-49323878D01*
X155942352Y-49319500D01*
X155737648Y-49319500D01*
X155713329Y-49323351D01*
X155535465Y-49351522D01*
X155340776Y-49414781D01*
X155158386Y-49507715D01*
X154992786Y-49628028D01*
X154848028Y-49772786D01*
X154727715Y-49938386D01*
X154680485Y-50031080D01*
X154632510Y-50081876D01*
X154564689Y-50098671D01*
X154498554Y-50076134D01*
X154459515Y-50031080D01*
X154458883Y-50029840D01*
X154412287Y-49938390D01*
X154380092Y-49894077D01*
X154291971Y-49772786D01*
X154147213Y-49628028D01*
X153981613Y-49507715D01*
X153981612Y-49507714D01*
X153981610Y-49507713D01*
X153924653Y-49478691D01*
X153799223Y-49414781D01*
X153604534Y-49351522D01*
X153429995Y-49323878D01*
X153402352Y-49319500D01*
X153197648Y-49319500D01*
X153173329Y-49323351D01*
X152995465Y-49351522D01*
X152800776Y-49414781D01*
X152618386Y-49507715D01*
X152452786Y-49628028D01*
X152308028Y-49772786D01*
X152187715Y-49938386D01*
X152140485Y-50031080D01*
X152092510Y-50081876D01*
X152024689Y-50098671D01*
X151958554Y-50076134D01*
X151919515Y-50031080D01*
X151918883Y-50029840D01*
X151872287Y-49938390D01*
X151840092Y-49894077D01*
X151751971Y-49772786D01*
X151607213Y-49628028D01*
X151441613Y-49507715D01*
X151441612Y-49507714D01*
X151441610Y-49507713D01*
X151384653Y-49478691D01*
X151259223Y-49414781D01*
X151064534Y-49351522D01*
X150889995Y-49323878D01*
X150862352Y-49319500D01*
X150657648Y-49319500D01*
X150633329Y-49323351D01*
X150455465Y-49351522D01*
X150260776Y-49414781D01*
X150078386Y-49507715D01*
X149912786Y-49628028D01*
X149768028Y-49772786D01*
X149647715Y-49938386D01*
X149600485Y-50031080D01*
X149552510Y-50081876D01*
X149484689Y-50098671D01*
X149418554Y-50076134D01*
X149379515Y-50031080D01*
X149378883Y-50029840D01*
X149332287Y-49938390D01*
X149300092Y-49894077D01*
X149211971Y-49772786D01*
X149067213Y-49628028D01*
X148901613Y-49507715D01*
X148901612Y-49507714D01*
X148901610Y-49507713D01*
X148844653Y-49478691D01*
X148719223Y-49414781D01*
X148524534Y-49351522D01*
X148349995Y-49323878D01*
X148322352Y-49319500D01*
X148117648Y-49319500D01*
X148093329Y-49323351D01*
X147915465Y-49351522D01*
X147720776Y-49414781D01*
X147538386Y-49507715D01*
X147372786Y-49628028D01*
X147228028Y-49772786D01*
X147107715Y-49938386D01*
X147060485Y-50031080D01*
X147012510Y-50081876D01*
X146944689Y-50098671D01*
X146878554Y-50076134D01*
X146839515Y-50031080D01*
X146838883Y-50029840D01*
X146792287Y-49938390D01*
X146760092Y-49894077D01*
X146671971Y-49772786D01*
X146527213Y-49628028D01*
X146361613Y-49507715D01*
X146361612Y-49507714D01*
X146361610Y-49507713D01*
X146304653Y-49478691D01*
X146179223Y-49414781D01*
X145984534Y-49351522D01*
X145809995Y-49323878D01*
X145782352Y-49319500D01*
X145577648Y-49319500D01*
X145553329Y-49323351D01*
X145375465Y-49351522D01*
X145180776Y-49414781D01*
X144998386Y-49507715D01*
X144832786Y-49628028D01*
X144688028Y-49772786D01*
X144567713Y-49938388D01*
X144520203Y-50031630D01*
X144472228Y-50082426D01*
X144404407Y-50099220D01*
X144338272Y-50076682D01*
X144299234Y-50031628D01*
X144251861Y-49938652D01*
X144219474Y-49894077D01*
X144219474Y-49894076D01*
X143540000Y-50573551D01*
X143540000Y-50567339D01*
X143512741Y-50465606D01*
X143460080Y-50374394D01*
X143385606Y-50299920D01*
X143294394Y-50247259D01*
X143192661Y-50220000D01*
X143186446Y-50220000D01*
X143865922Y-49540524D01*
X143865921Y-49540523D01*
X143821359Y-49508147D01*
X143821350Y-49508141D01*
X143639031Y-49415244D01*
X143444417Y-49352009D01*
X143242317Y-49320000D01*
X143037683Y-49320000D01*
X142835582Y-49352009D01*
X142640968Y-49415244D01*
X142458644Y-49508143D01*
X142414077Y-49540523D01*
X142414077Y-49540524D01*
X143093554Y-50220000D01*
X143087339Y-50220000D01*
X142985606Y-50247259D01*
X142894394Y-50299920D01*
X142819920Y-50374394D01*
X142767259Y-50465606D01*
X142740000Y-50567339D01*
X142740000Y-50573553D01*
X142060524Y-49894077D01*
X142060523Y-49894077D01*
X142028143Y-49938644D01*
X141980765Y-50031630D01*
X141932790Y-50082426D01*
X141864969Y-50099221D01*
X141798834Y-50076683D01*
X141759795Y-50031630D01*
X141759515Y-50031080D01*
X141712287Y-49938390D01*
X141712285Y-49938387D01*
X141712284Y-49938385D01*
X141591971Y-49772786D01*
X141447213Y-49628028D01*
X141281613Y-49507715D01*
X141281612Y-49507714D01*
X141281610Y-49507713D01*
X141224653Y-49478691D01*
X141099223Y-49414781D01*
X140904534Y-49351522D01*
X140729995Y-49323878D01*
X140702352Y-49319500D01*
X140497648Y-49319500D01*
X140473329Y-49323351D01*
X140295465Y-49351522D01*
X140100776Y-49414781D01*
X139918386Y-49507715D01*
X139752786Y-49628028D01*
X139608028Y-49772786D01*
X139487715Y-49938386D01*
X139440485Y-50031080D01*
X139392510Y-50081876D01*
X139324689Y-50098671D01*
X139258554Y-50076134D01*
X139219515Y-50031080D01*
X139218883Y-50029840D01*
X139172287Y-49938390D01*
X139140092Y-49894077D01*
X139051971Y-49772786D01*
X138907213Y-49628028D01*
X138741613Y-49507715D01*
X138741612Y-49507714D01*
X138741610Y-49507713D01*
X138684653Y-49478691D01*
X138559223Y-49414781D01*
X138364534Y-49351522D01*
X138189995Y-49323878D01*
X138162352Y-49319500D01*
X137957648Y-49319500D01*
X137933329Y-49323351D01*
X137755465Y-49351522D01*
X137560776Y-49414781D01*
X137378386Y-49507715D01*
X137212786Y-49628028D01*
X137068028Y-49772786D01*
X136947715Y-49938386D01*
X136900485Y-50031080D01*
X136852510Y-50081876D01*
X136784689Y-50098671D01*
X136718554Y-50076134D01*
X136679515Y-50031080D01*
X136678883Y-50029840D01*
X136632287Y-49938390D01*
X136600092Y-49894077D01*
X136511971Y-49772786D01*
X136367213Y-49628028D01*
X136201613Y-49507715D01*
X136201612Y-49507714D01*
X136201610Y-49507713D01*
X136144653Y-49478691D01*
X136019223Y-49414781D01*
X135824534Y-49351522D01*
X135649995Y-49323878D01*
X135622352Y-49319500D01*
X135417648Y-49319500D01*
X135393329Y-49323351D01*
X135215465Y-49351522D01*
X135020776Y-49414781D01*
X134838386Y-49507715D01*
X134672786Y-49628028D01*
X134528028Y-49772786D01*
X134407715Y-49938386D01*
X134360485Y-50031080D01*
X134312510Y-50081876D01*
X134244689Y-50098671D01*
X134178554Y-50076134D01*
X134139515Y-50031080D01*
X134138883Y-50029840D01*
X134092287Y-49938390D01*
X134060092Y-49894077D01*
X133971971Y-49772786D01*
X133827213Y-49628028D01*
X133661613Y-49507715D01*
X133661612Y-49507714D01*
X133661610Y-49507713D01*
X133604653Y-49478691D01*
X133479223Y-49414781D01*
X133284534Y-49351522D01*
X133109995Y-49323878D01*
X133082352Y-49319500D01*
X132877648Y-49319500D01*
X132853329Y-49323351D01*
X132675465Y-49351522D01*
X132480776Y-49414781D01*
X132298386Y-49507715D01*
X132132786Y-49628028D01*
X131988028Y-49772786D01*
X131867715Y-49938386D01*
X131774781Y-50120776D01*
X131711522Y-50315465D01*
X131679500Y-50517648D01*
X115604316Y-50517648D01*
X115655045Y-50447824D01*
X115655051Y-50447816D01*
X115751557Y-50258412D01*
X115817246Y-50056243D01*
X115850500Y-49846287D01*
X115850500Y-49633713D01*
X115817246Y-49423757D01*
X115751557Y-49221588D01*
X115655051Y-49032184D01*
X115655049Y-49032181D01*
X115655048Y-49032179D01*
X115530109Y-48860213D01*
X115379786Y-48709890D01*
X115207820Y-48584951D01*
X115207115Y-48584591D01*
X115199054Y-48580485D01*
X115148259Y-48532512D01*
X115131463Y-48464692D01*
X115153999Y-48398556D01*
X115199054Y-48359515D01*
X115207816Y-48355051D01*
X115289636Y-48295606D01*
X115379786Y-48230109D01*
X115379788Y-48230106D01*
X115379792Y-48230104D01*
X115530104Y-48079792D01*
X115530106Y-48079788D01*
X115530109Y-48079786D01*
X115655048Y-47907820D01*
X115655047Y-47907820D01*
X115655051Y-47907816D01*
X115751557Y-47718412D01*
X115817246Y-47516243D01*
X115850500Y-47306287D01*
X115850500Y-47093713D01*
X115817246Y-46883757D01*
X115751557Y-46681588D01*
X115655051Y-46492184D01*
X115655049Y-46492181D01*
X115655048Y-46492179D01*
X115530109Y-46320213D01*
X115379792Y-46169896D01*
X115350510Y-46148621D01*
X115350486Y-46148604D01*
X115218413Y-46052648D01*
X251199500Y-46052648D01*
X251199500Y-46257351D01*
X251231522Y-46459534D01*
X251294781Y-46654223D01*
X251387715Y-46836613D01*
X251508028Y-47002213D01*
X251652786Y-47146971D01*
X251807749Y-47259556D01*
X251818390Y-47267287D01*
X251934607Y-47326503D01*
X252000776Y-47360218D01*
X252000778Y-47360218D01*
X252000781Y-47360220D01*
X252105137Y-47394127D01*
X252195465Y-47423477D01*
X252296557Y-47439488D01*
X252397648Y-47455500D01*
X252397649Y-47455500D01*
X252602351Y-47455500D01*
X252602352Y-47455500D01*
X252804534Y-47423477D01*
X252999219Y-47360220D01*
X253181610Y-47267287D01*
X253274590Y-47199732D01*
X253347213Y-47146971D01*
X253347215Y-47146968D01*
X253347219Y-47146966D01*
X253491966Y-47002219D01*
X253491968Y-47002215D01*
X253491971Y-47002213D01*
X253544732Y-46929590D01*
X253612287Y-46836610D01*
X253705220Y-46654219D01*
X253768477Y-46459534D01*
X253800500Y-46257352D01*
X253800500Y-46052648D01*
X253781074Y-45930000D01*
X253768477Y-45850465D01*
X253705218Y-45655776D01*
X253671503Y-45589607D01*
X253612287Y-45473390D01*
X253535584Y-45367816D01*
X253491971Y-45307786D01*
X253347213Y-45163028D01*
X253181613Y-45042715D01*
X253181612Y-45042714D01*
X253181610Y-45042713D01*
X253124653Y-45013691D01*
X252999223Y-44949781D01*
X252804534Y-44886522D01*
X252629995Y-44858878D01*
X252602352Y-44854500D01*
X252397648Y-44854500D01*
X252373329Y-44858351D01*
X252195465Y-44886522D01*
X252000776Y-44949781D01*
X251818386Y-45042715D01*
X251652786Y-45163028D01*
X251508028Y-45307786D01*
X251387715Y-45473386D01*
X251294781Y-45655776D01*
X251231522Y-45850465D01*
X251199500Y-46052648D01*
X115218413Y-46052648D01*
X115207816Y-46044949D01*
X115191190Y-46036477D01*
X115183975Y-46031399D01*
X115167500Y-46010684D01*
X115148259Y-45992512D01*
X115146093Y-45983766D01*
X115140485Y-45976715D01*
X115137824Y-45950380D01*
X115131463Y-45924692D01*
X115134368Y-45916164D01*
X115133463Y-45907199D01*
X115145462Y-45883608D01*
X115153999Y-45858556D01*
X115161519Y-45852039D01*
X115165140Y-45844922D01*
X115179262Y-45836665D01*
X115199054Y-45819515D01*
X115207816Y-45815051D01*
X115229789Y-45799086D01*
X115379786Y-45690109D01*
X115379788Y-45690106D01*
X115379792Y-45690104D01*
X115530104Y-45539792D01*
X115530106Y-45539788D01*
X115530109Y-45539786D01*
X115655048Y-45367820D01*
X115655047Y-45367820D01*
X115655051Y-45367816D01*
X115751557Y-45178412D01*
X115817246Y-44976243D01*
X115850500Y-44766287D01*
X115850500Y-44553713D01*
X115817246Y-44343757D01*
X115751557Y-44141588D01*
X115655051Y-43952184D01*
X115655049Y-43952181D01*
X115655048Y-43952179D01*
X115530109Y-43780213D01*
X115379786Y-43629890D01*
X115207820Y-43504951D01*
X115207115Y-43504591D01*
X115199054Y-43500485D01*
X115148259Y-43452512D01*
X115131463Y-43384692D01*
X115153999Y-43318556D01*
X115199054Y-43279515D01*
X115207816Y-43275051D01*
X115267608Y-43231610D01*
X115379786Y-43150109D01*
X115379788Y-43150106D01*
X115379792Y-43150104D01*
X115530104Y-42999792D01*
X115530106Y-42999788D01*
X115530109Y-42999786D01*
X115604316Y-42897648D01*
X131679500Y-42897648D01*
X131679500Y-43102351D01*
X131711522Y-43304534D01*
X131774781Y-43499223D01*
X131826135Y-43600009D01*
X131867585Y-43681359D01*
X131867715Y-43681613D01*
X131988028Y-43847213D01*
X132132786Y-43991971D01*
X132253226Y-44079474D01*
X132298390Y-44112287D01*
X132414607Y-44171503D01*
X132480776Y-44205218D01*
X132480778Y-44205218D01*
X132480781Y-44205220D01*
X132571856Y-44234812D01*
X132675465Y-44268477D01*
X132776557Y-44284488D01*
X132877648Y-44300500D01*
X132877649Y-44300500D01*
X133082351Y-44300500D01*
X133082352Y-44300500D01*
X133284534Y-44268477D01*
X133479219Y-44205220D01*
X133661610Y-44112287D01*
X133790482Y-44018657D01*
X133827213Y-43991971D01*
X133827215Y-43991968D01*
X133827219Y-43991966D01*
X133971966Y-43847219D01*
X133971968Y-43847215D01*
X133971971Y-43847213D01*
X134092284Y-43681614D01*
X134092286Y-43681611D01*
X134092287Y-43681610D01*
X134139516Y-43588917D01*
X134187489Y-43538123D01*
X134255310Y-43521328D01*
X134321445Y-43543865D01*
X134360483Y-43588917D01*
X134397649Y-43661859D01*
X134407715Y-43681614D01*
X134528028Y-43847213D01*
X134672786Y-43991971D01*
X134793226Y-44079474D01*
X134838390Y-44112287D01*
X134954607Y-44171503D01*
X135020776Y-44205218D01*
X135020778Y-44205218D01*
X135020781Y-44205220D01*
X135111856Y-44234812D01*
X135215465Y-44268477D01*
X135316557Y-44284488D01*
X135417648Y-44300500D01*
X135417649Y-44300500D01*
X135622351Y-44300500D01*
X135622352Y-44300500D01*
X135824534Y-44268477D01*
X136019219Y-44205220D01*
X136201610Y-44112287D01*
X136330482Y-44018657D01*
X136367213Y-43991971D01*
X136367215Y-43991968D01*
X136367219Y-43991966D01*
X136511966Y-43847219D01*
X136511968Y-43847215D01*
X136511971Y-43847213D01*
X136632284Y-43681614D01*
X136632286Y-43681611D01*
X136632287Y-43681610D01*
X136679516Y-43588917D01*
X136727489Y-43538123D01*
X136795310Y-43521328D01*
X136861445Y-43543865D01*
X136900483Y-43588917D01*
X136937649Y-43661859D01*
X136947715Y-43681614D01*
X137068028Y-43847213D01*
X137212786Y-43991971D01*
X137333226Y-44079474D01*
X137378390Y-44112287D01*
X137494607Y-44171503D01*
X137560776Y-44205218D01*
X137560778Y-44205218D01*
X137560781Y-44205220D01*
X137651856Y-44234812D01*
X137755465Y-44268477D01*
X137856557Y-44284488D01*
X137957648Y-44300500D01*
X137957649Y-44300500D01*
X138162351Y-44300500D01*
X138162352Y-44300500D01*
X138364534Y-44268477D01*
X138559219Y-44205220D01*
X138741610Y-44112287D01*
X138870482Y-44018657D01*
X138907213Y-43991971D01*
X138907215Y-43991968D01*
X138907219Y-43991966D01*
X139051966Y-43847219D01*
X139051968Y-43847215D01*
X139051971Y-43847213D01*
X139172284Y-43681614D01*
X139172286Y-43681611D01*
X139172287Y-43681610D01*
X139219516Y-43588917D01*
X139267489Y-43538123D01*
X139335310Y-43521328D01*
X139401445Y-43543865D01*
X139440483Y-43588917D01*
X139477649Y-43661859D01*
X139487715Y-43681614D01*
X139608028Y-43847213D01*
X139752786Y-43991971D01*
X139873226Y-44079474D01*
X139918390Y-44112287D01*
X140034607Y-44171503D01*
X140100776Y-44205218D01*
X140100778Y-44205218D01*
X140100781Y-44205220D01*
X140191856Y-44234812D01*
X140295465Y-44268477D01*
X140396557Y-44284488D01*
X140497648Y-44300500D01*
X140497649Y-44300500D01*
X140702351Y-44300500D01*
X140702352Y-44300500D01*
X140904534Y-44268477D01*
X141099219Y-44205220D01*
X141281610Y-44112287D01*
X141410482Y-44018657D01*
X141447213Y-43991971D01*
X141447215Y-43991968D01*
X141447219Y-43991966D01*
X141591966Y-43847219D01*
X141591968Y-43847215D01*
X141591971Y-43847213D01*
X141712284Y-43681614D01*
X141712286Y-43681611D01*
X141712287Y-43681610D01*
X141759516Y-43588917D01*
X141807489Y-43538123D01*
X141875310Y-43521328D01*
X141941445Y-43543865D01*
X141980483Y-43588917D01*
X142017649Y-43661859D01*
X142027715Y-43681614D01*
X142148028Y-43847213D01*
X142292786Y-43991971D01*
X142413226Y-44079474D01*
X142458390Y-44112287D01*
X142574607Y-44171503D01*
X142640776Y-44205218D01*
X142640778Y-44205218D01*
X142640781Y-44205220D01*
X142731856Y-44234812D01*
X142835465Y-44268477D01*
X142936557Y-44284488D01*
X143037648Y-44300500D01*
X143037649Y-44300500D01*
X143242351Y-44300500D01*
X143242352Y-44300500D01*
X143444534Y-44268477D01*
X143639219Y-44205220D01*
X143821610Y-44112287D01*
X143950482Y-44018657D01*
X143987213Y-43991971D01*
X143987215Y-43991968D01*
X143987219Y-43991966D01*
X144131966Y-43847219D01*
X144131968Y-43847215D01*
X144131971Y-43847213D01*
X144252284Y-43681614D01*
X144252286Y-43681611D01*
X144252287Y-43681610D01*
X144299516Y-43588917D01*
X144347489Y-43538123D01*
X144415310Y-43521328D01*
X144481445Y-43543865D01*
X144520483Y-43588917D01*
X144557649Y-43661859D01*
X144567715Y-43681614D01*
X144688028Y-43847213D01*
X144832786Y-43991971D01*
X144953226Y-44079474D01*
X144998390Y-44112287D01*
X145114607Y-44171503D01*
X145180776Y-44205218D01*
X145180778Y-44205218D01*
X145180781Y-44205220D01*
X145271856Y-44234812D01*
X145375465Y-44268477D01*
X145476557Y-44284488D01*
X145577648Y-44300500D01*
X145577649Y-44300500D01*
X145782351Y-44300500D01*
X145782352Y-44300500D01*
X145984534Y-44268477D01*
X146179219Y-44205220D01*
X146361610Y-44112287D01*
X146490482Y-44018657D01*
X146527213Y-43991971D01*
X146527215Y-43991968D01*
X146527219Y-43991966D01*
X146671966Y-43847219D01*
X146671968Y-43847215D01*
X146671971Y-43847213D01*
X146771020Y-43710882D01*
X146792287Y-43681610D01*
X146839795Y-43588369D01*
X146887769Y-43537573D01*
X146955590Y-43520778D01*
X147021725Y-43543315D01*
X147060765Y-43588369D01*
X147108141Y-43681350D01*
X147108147Y-43681359D01*
X147140523Y-43725921D01*
X147140524Y-43725922D01*
X147820000Y-43046446D01*
X147820000Y-43052661D01*
X147847259Y-43154394D01*
X147899920Y-43245606D01*
X147974394Y-43320080D01*
X148065606Y-43372741D01*
X148167339Y-43400000D01*
X148173553Y-43400000D01*
X147494076Y-44079474D01*
X147538650Y-44111859D01*
X147720968Y-44204755D01*
X147915582Y-44267990D01*
X148117683Y-44300000D01*
X148322317Y-44300000D01*
X148524417Y-44267990D01*
X148719031Y-44204755D01*
X148901349Y-44111859D01*
X148945921Y-44079474D01*
X148266447Y-43400000D01*
X148272661Y-43400000D01*
X148374394Y-43372741D01*
X148465606Y-43320080D01*
X148540080Y-43245606D01*
X148592741Y-43154394D01*
X148620000Y-43052661D01*
X148620000Y-43046448D01*
X149299474Y-43725922D01*
X149299474Y-43725921D01*
X149331861Y-43681347D01*
X149331861Y-43681346D01*
X149379234Y-43588371D01*
X149427208Y-43537575D01*
X149495028Y-43520779D01*
X149561164Y-43543316D01*
X149600203Y-43588369D01*
X149647713Y-43681611D01*
X149768028Y-43847213D01*
X149912786Y-43991971D01*
X150033226Y-44079474D01*
X150078390Y-44112287D01*
X150194607Y-44171503D01*
X150260776Y-44205218D01*
X150260778Y-44205218D01*
X150260781Y-44205220D01*
X150351856Y-44234812D01*
X150455465Y-44268477D01*
X150556557Y-44284488D01*
X150657648Y-44300500D01*
X150657649Y-44300500D01*
X150862351Y-44300500D01*
X150862352Y-44300500D01*
X151064534Y-44268477D01*
X151259219Y-44205220D01*
X151441610Y-44112287D01*
X151570482Y-44018657D01*
X151607213Y-43991971D01*
X151607215Y-43991968D01*
X151607219Y-43991966D01*
X151751966Y-43847219D01*
X151751968Y-43847215D01*
X151751971Y-43847213D01*
X151872284Y-43681614D01*
X151872286Y-43681611D01*
X151872287Y-43681610D01*
X151919516Y-43588917D01*
X151967489Y-43538123D01*
X152035310Y-43521328D01*
X152101445Y-43543865D01*
X152140483Y-43588917D01*
X152177649Y-43661859D01*
X152187715Y-43681614D01*
X152308028Y-43847213D01*
X152452786Y-43991971D01*
X152573226Y-44079474D01*
X152618390Y-44112287D01*
X152734607Y-44171503D01*
X152800776Y-44205218D01*
X152800778Y-44205218D01*
X152800781Y-44205220D01*
X152891856Y-44234812D01*
X152995465Y-44268477D01*
X153096557Y-44284488D01*
X153197648Y-44300500D01*
X153197649Y-44300500D01*
X153402351Y-44300500D01*
X153402352Y-44300500D01*
X153604534Y-44268477D01*
X153799219Y-44205220D01*
X153981610Y-44112287D01*
X154110482Y-44018657D01*
X154147213Y-43991971D01*
X154147215Y-43991968D01*
X154147219Y-43991966D01*
X154291966Y-43847219D01*
X154291968Y-43847215D01*
X154291971Y-43847213D01*
X154412284Y-43681614D01*
X154412286Y-43681611D01*
X154412287Y-43681610D01*
X154459516Y-43588917D01*
X154507489Y-43538123D01*
X154575310Y-43521328D01*
X154641445Y-43543865D01*
X154680483Y-43588917D01*
X154717649Y-43661859D01*
X154727715Y-43681614D01*
X154848028Y-43847213D01*
X154992786Y-43991971D01*
X155113226Y-44079474D01*
X155158390Y-44112287D01*
X155274607Y-44171503D01*
X155340776Y-44205218D01*
X155340778Y-44205218D01*
X155340781Y-44205220D01*
X155431856Y-44234812D01*
X155535465Y-44268477D01*
X155636557Y-44284488D01*
X155737648Y-44300500D01*
X155737649Y-44300500D01*
X155942351Y-44300500D01*
X155942352Y-44300500D01*
X156144534Y-44268477D01*
X156339219Y-44205220D01*
X156521610Y-44112287D01*
X156650482Y-44018657D01*
X156687213Y-43991971D01*
X156687215Y-43991968D01*
X156687219Y-43991966D01*
X156831966Y-43847219D01*
X156831968Y-43847215D01*
X156831971Y-43847213D01*
X156952284Y-43681614D01*
X156952286Y-43681611D01*
X156952287Y-43681610D01*
X156999516Y-43588917D01*
X157047489Y-43538123D01*
X157115310Y-43521328D01*
X157181445Y-43543865D01*
X157220483Y-43588917D01*
X157257649Y-43661859D01*
X157267715Y-43681614D01*
X157388028Y-43847213D01*
X157532786Y-43991971D01*
X157653226Y-44079474D01*
X157698390Y-44112287D01*
X157814607Y-44171503D01*
X157880776Y-44205218D01*
X157880778Y-44205218D01*
X157880781Y-44205220D01*
X157971856Y-44234812D01*
X158075465Y-44268477D01*
X158176557Y-44284488D01*
X158277648Y-44300500D01*
X158277649Y-44300500D01*
X158482351Y-44300500D01*
X158482352Y-44300500D01*
X158684534Y-44268477D01*
X158879219Y-44205220D01*
X159061610Y-44112287D01*
X159190482Y-44018657D01*
X159227213Y-43991971D01*
X159227215Y-43991968D01*
X159227219Y-43991966D01*
X159371966Y-43847219D01*
X159371968Y-43847215D01*
X159371971Y-43847213D01*
X159492284Y-43681614D01*
X159492286Y-43681611D01*
X159492287Y-43681610D01*
X159539516Y-43588917D01*
X159587489Y-43538123D01*
X159655310Y-43521328D01*
X159721445Y-43543865D01*
X159760483Y-43588917D01*
X159797649Y-43661859D01*
X159807715Y-43681614D01*
X159928028Y-43847213D01*
X160072786Y-43991971D01*
X160193226Y-44079474D01*
X160238390Y-44112287D01*
X160354607Y-44171503D01*
X160420776Y-44205218D01*
X160420778Y-44205218D01*
X160420781Y-44205220D01*
X160511856Y-44234812D01*
X160615465Y-44268477D01*
X160716557Y-44284488D01*
X160817648Y-44300500D01*
X160817649Y-44300500D01*
X161022351Y-44300500D01*
X161022352Y-44300500D01*
X161224534Y-44268477D01*
X161419219Y-44205220D01*
X161601610Y-44112287D01*
X161730482Y-44018657D01*
X161767213Y-43991971D01*
X161767215Y-43991968D01*
X161767219Y-43991966D01*
X161911966Y-43847219D01*
X161911968Y-43847215D01*
X161911971Y-43847213D01*
X162032284Y-43681614D01*
X162032286Y-43681611D01*
X162032287Y-43681610D01*
X162079516Y-43588917D01*
X162127489Y-43538123D01*
X162195310Y-43521328D01*
X162261445Y-43543865D01*
X162300483Y-43588917D01*
X162337649Y-43661859D01*
X162347715Y-43681614D01*
X162468028Y-43847213D01*
X162612786Y-43991971D01*
X162733226Y-44079474D01*
X162778390Y-44112287D01*
X162894607Y-44171503D01*
X162960776Y-44205218D01*
X162960778Y-44205218D01*
X162960781Y-44205220D01*
X163051856Y-44234812D01*
X163155465Y-44268477D01*
X163256557Y-44284488D01*
X163357648Y-44300500D01*
X163357649Y-44300500D01*
X163562351Y-44300500D01*
X163562352Y-44300500D01*
X163764534Y-44268477D01*
X163959219Y-44205220D01*
X164141610Y-44112287D01*
X164270482Y-44018657D01*
X164307213Y-43991971D01*
X164307215Y-43991968D01*
X164307219Y-43991966D01*
X164451966Y-43847219D01*
X164520021Y-43753547D01*
X164575349Y-43710882D01*
X164644963Y-43704902D01*
X164706758Y-43737507D01*
X164738044Y-43787427D01*
X164765186Y-43869334D01*
X164857288Y-44018656D01*
X164981344Y-44142712D01*
X165130666Y-44234814D01*
X165297203Y-44289999D01*
X165399991Y-44300500D01*
X166600008Y-44300499D01*
X166702797Y-44289999D01*
X166869334Y-44234814D01*
X167018656Y-44142712D01*
X167142712Y-44018656D01*
X167234814Y-43869334D01*
X167289999Y-43702797D01*
X167300500Y-43600009D01*
X167300499Y-42399992D01*
X167289999Y-42297203D01*
X167234814Y-42130666D01*
X167142712Y-41981344D01*
X167018656Y-41857288D01*
X166869334Y-41765186D01*
X166702797Y-41710001D01*
X166702795Y-41710000D01*
X166600010Y-41699500D01*
X165399998Y-41699500D01*
X165399981Y-41699501D01*
X165297203Y-41710000D01*
X165297200Y-41710001D01*
X165130668Y-41765185D01*
X165130663Y-41765187D01*
X164981342Y-41857289D01*
X164857289Y-41981342D01*
X164765187Y-42130663D01*
X164765186Y-42130666D01*
X164738045Y-42212571D01*
X164698271Y-42270016D01*
X164633755Y-42296838D01*
X164564979Y-42284522D01*
X164520021Y-42246452D01*
X164451966Y-42152781D01*
X164307219Y-42008034D01*
X164307213Y-42008028D01*
X164141613Y-41887715D01*
X164141612Y-41887714D01*
X164141610Y-41887713D01*
X164078169Y-41855388D01*
X163959223Y-41794781D01*
X163764534Y-41731522D01*
X163589995Y-41703878D01*
X163562352Y-41699500D01*
X163357648Y-41699500D01*
X163336933Y-41702781D01*
X163155465Y-41731522D01*
X162960776Y-41794781D01*
X162778386Y-41887715D01*
X162612786Y-42008028D01*
X162468028Y-42152786D01*
X162347715Y-42318386D01*
X162300485Y-42411080D01*
X162252510Y-42461876D01*
X162184689Y-42478671D01*
X162118554Y-42456134D01*
X162079515Y-42411080D01*
X162073860Y-42399981D01*
X162032287Y-42318390D01*
X162000092Y-42274077D01*
X161911971Y-42152786D01*
X161767213Y-42008028D01*
X161601613Y-41887715D01*
X161601612Y-41887714D01*
X161601610Y-41887713D01*
X161538169Y-41855388D01*
X161419223Y-41794781D01*
X161224534Y-41731522D01*
X161049995Y-41703878D01*
X161022352Y-41699500D01*
X160817648Y-41699500D01*
X160796933Y-41702781D01*
X160615465Y-41731522D01*
X160420776Y-41794781D01*
X160238386Y-41887715D01*
X160072786Y-42008028D01*
X159928028Y-42152786D01*
X159807715Y-42318386D01*
X159760485Y-42411080D01*
X159712510Y-42461876D01*
X159644689Y-42478671D01*
X159578554Y-42456134D01*
X159539515Y-42411080D01*
X159533860Y-42399981D01*
X159492287Y-42318390D01*
X159460092Y-42274077D01*
X159371971Y-42152786D01*
X159227213Y-42008028D01*
X159061613Y-41887715D01*
X159061612Y-41887714D01*
X159061610Y-41887713D01*
X158998169Y-41855388D01*
X158879223Y-41794781D01*
X158684534Y-41731522D01*
X158509995Y-41703878D01*
X158482352Y-41699500D01*
X158277648Y-41699500D01*
X158256933Y-41702781D01*
X158075465Y-41731522D01*
X157880776Y-41794781D01*
X157698386Y-41887715D01*
X157532786Y-42008028D01*
X157388028Y-42152786D01*
X157267715Y-42318386D01*
X157220485Y-42411080D01*
X157172510Y-42461876D01*
X157104689Y-42478671D01*
X157038554Y-42456134D01*
X156999515Y-42411080D01*
X156993860Y-42399981D01*
X156952287Y-42318390D01*
X156920092Y-42274077D01*
X156831971Y-42152786D01*
X156687213Y-42008028D01*
X156521613Y-41887715D01*
X156521612Y-41887714D01*
X156521610Y-41887713D01*
X156458169Y-41855388D01*
X156339223Y-41794781D01*
X156144534Y-41731522D01*
X155969995Y-41703878D01*
X155942352Y-41699500D01*
X155737648Y-41699500D01*
X155716933Y-41702781D01*
X155535465Y-41731522D01*
X155340776Y-41794781D01*
X155158386Y-41887715D01*
X154992786Y-42008028D01*
X154848028Y-42152786D01*
X154727715Y-42318386D01*
X154680485Y-42411080D01*
X154632510Y-42461876D01*
X154564689Y-42478671D01*
X154498554Y-42456134D01*
X154459515Y-42411080D01*
X154453860Y-42399981D01*
X154412287Y-42318390D01*
X154380092Y-42274077D01*
X154291971Y-42152786D01*
X154147213Y-42008028D01*
X153981613Y-41887715D01*
X153981612Y-41887714D01*
X153981610Y-41887713D01*
X153918169Y-41855388D01*
X153799223Y-41794781D01*
X153604534Y-41731522D01*
X153429995Y-41703878D01*
X153402352Y-41699500D01*
X153197648Y-41699500D01*
X153176933Y-41702781D01*
X152995465Y-41731522D01*
X152800776Y-41794781D01*
X152618386Y-41887715D01*
X152452786Y-42008028D01*
X152308028Y-42152786D01*
X152187715Y-42318386D01*
X152140485Y-42411080D01*
X152092510Y-42461876D01*
X152024689Y-42478671D01*
X151958554Y-42456134D01*
X151919515Y-42411080D01*
X151913860Y-42399981D01*
X151872287Y-42318390D01*
X151840092Y-42274077D01*
X151751971Y-42152786D01*
X151607213Y-42008028D01*
X151441613Y-41887715D01*
X151441612Y-41887714D01*
X151441610Y-41887713D01*
X151378169Y-41855388D01*
X151259223Y-41794781D01*
X151064534Y-41731522D01*
X150889995Y-41703878D01*
X150862352Y-41699500D01*
X150657648Y-41699500D01*
X150636933Y-41702781D01*
X150455465Y-41731522D01*
X150260776Y-41794781D01*
X150078386Y-41887715D01*
X149912786Y-42008028D01*
X149768028Y-42152786D01*
X149647713Y-42318388D01*
X149600203Y-42411630D01*
X149552228Y-42462426D01*
X149484407Y-42479220D01*
X149418272Y-42456682D01*
X149379234Y-42411628D01*
X149331861Y-42318652D01*
X149299474Y-42274077D01*
X149299474Y-42274076D01*
X148620000Y-42953551D01*
X148620000Y-42947339D01*
X148592741Y-42845606D01*
X148540080Y-42754394D01*
X148465606Y-42679920D01*
X148374394Y-42627259D01*
X148272661Y-42600000D01*
X148266446Y-42600000D01*
X148945922Y-41920524D01*
X148945921Y-41920523D01*
X148901359Y-41888147D01*
X148901350Y-41888141D01*
X148719031Y-41795244D01*
X148524417Y-41732009D01*
X148322317Y-41700000D01*
X148117683Y-41700000D01*
X147915582Y-41732009D01*
X147720968Y-41795244D01*
X147538644Y-41888143D01*
X147494077Y-41920523D01*
X147494077Y-41920524D01*
X148173554Y-42600000D01*
X148167339Y-42600000D01*
X148065606Y-42627259D01*
X147974394Y-42679920D01*
X147899920Y-42754394D01*
X147847259Y-42845606D01*
X147820000Y-42947339D01*
X147820000Y-42953553D01*
X147140524Y-42274077D01*
X147140523Y-42274077D01*
X147108143Y-42318644D01*
X147060765Y-42411630D01*
X147012790Y-42462426D01*
X146944969Y-42479221D01*
X146878834Y-42456683D01*
X146839795Y-42411630D01*
X146833860Y-42399981D01*
X146792287Y-42318390D01*
X146792285Y-42318387D01*
X146792284Y-42318385D01*
X146671971Y-42152786D01*
X146527213Y-42008028D01*
X146361613Y-41887715D01*
X146361612Y-41887714D01*
X146361610Y-41887713D01*
X146298169Y-41855388D01*
X146179223Y-41794781D01*
X145984534Y-41731522D01*
X145809995Y-41703878D01*
X145782352Y-41699500D01*
X145577648Y-41699500D01*
X145556933Y-41702781D01*
X145375465Y-41731522D01*
X145180776Y-41794781D01*
X144998386Y-41887715D01*
X144832786Y-42008028D01*
X144688028Y-42152786D01*
X144567715Y-42318386D01*
X144520485Y-42411080D01*
X144472510Y-42461876D01*
X144404689Y-42478671D01*
X144338554Y-42456134D01*
X144299515Y-42411080D01*
X144293860Y-42399981D01*
X144252287Y-42318390D01*
X144220092Y-42274077D01*
X144131971Y-42152786D01*
X143987213Y-42008028D01*
X143821613Y-41887715D01*
X143821612Y-41887714D01*
X143821610Y-41887713D01*
X143758169Y-41855388D01*
X143639223Y-41794781D01*
X143444534Y-41731522D01*
X143269995Y-41703878D01*
X143242352Y-41699500D01*
X143037648Y-41699500D01*
X143016933Y-41702781D01*
X142835465Y-41731522D01*
X142640776Y-41794781D01*
X142458386Y-41887715D01*
X142292786Y-42008028D01*
X142148028Y-42152786D01*
X142027715Y-42318386D01*
X141980485Y-42411080D01*
X141932510Y-42461876D01*
X141864689Y-42478671D01*
X141798554Y-42456134D01*
X141759515Y-42411080D01*
X141753860Y-42399981D01*
X141712287Y-42318390D01*
X141680092Y-42274077D01*
X141591971Y-42152786D01*
X141447213Y-42008028D01*
X141281613Y-41887715D01*
X141281612Y-41887714D01*
X141281610Y-41887713D01*
X141218169Y-41855388D01*
X141099223Y-41794781D01*
X140904534Y-41731522D01*
X140729995Y-41703878D01*
X140702352Y-41699500D01*
X140497648Y-41699500D01*
X140476933Y-41702781D01*
X140295465Y-41731522D01*
X140100776Y-41794781D01*
X139918386Y-41887715D01*
X139752786Y-42008028D01*
X139608028Y-42152786D01*
X139487715Y-42318386D01*
X139440485Y-42411080D01*
X139392510Y-42461876D01*
X139324689Y-42478671D01*
X139258554Y-42456134D01*
X139219515Y-42411080D01*
X139213860Y-42399981D01*
X139172287Y-42318390D01*
X139140092Y-42274077D01*
X139051971Y-42152786D01*
X138907213Y-42008028D01*
X138741613Y-41887715D01*
X138741612Y-41887714D01*
X138741610Y-41887713D01*
X138678169Y-41855388D01*
X138559223Y-41794781D01*
X138364534Y-41731522D01*
X138189995Y-41703878D01*
X138162352Y-41699500D01*
X137957648Y-41699500D01*
X137936933Y-41702781D01*
X137755465Y-41731522D01*
X137560776Y-41794781D01*
X137378386Y-41887715D01*
X137212786Y-42008028D01*
X137068028Y-42152786D01*
X136947715Y-42318386D01*
X136900485Y-42411080D01*
X136852510Y-42461876D01*
X136784689Y-42478671D01*
X136718554Y-42456134D01*
X136679515Y-42411080D01*
X136673860Y-42399981D01*
X136632287Y-42318390D01*
X136600092Y-42274077D01*
X136511971Y-42152786D01*
X136367213Y-42008028D01*
X136201611Y-41887713D01*
X136138171Y-41855388D01*
X136087376Y-41807413D01*
X136070581Y-41739592D01*
X136093119Y-41673458D01*
X136138172Y-41634419D01*
X136181610Y-41612287D01*
X136231144Y-41576298D01*
X136347213Y-41491971D01*
X136347215Y-41491968D01*
X136347219Y-41491966D01*
X136491966Y-41347219D01*
X136491968Y-41347215D01*
X136491971Y-41347213D01*
X136562962Y-41249500D01*
X136612287Y-41181610D01*
X136705220Y-40999219D01*
X136768477Y-40804534D01*
X136800500Y-40602352D01*
X136800500Y-40397648D01*
X136768477Y-40195466D01*
X136750617Y-40140500D01*
X136724420Y-40059873D01*
X136705220Y-40000781D01*
X136705218Y-40000778D01*
X136705218Y-40000776D01*
X136670966Y-39933554D01*
X136612287Y-39818390D01*
X136592792Y-39791557D01*
X136491971Y-39652786D01*
X136347213Y-39508028D01*
X136181613Y-39387715D01*
X136181612Y-39387714D01*
X136181610Y-39387713D01*
X136124653Y-39358691D01*
X135999223Y-39294781D01*
X135804534Y-39231522D01*
X135629995Y-39203878D01*
X135602352Y-39199500D01*
X135397648Y-39199500D01*
X135373329Y-39203351D01*
X135195465Y-39231522D01*
X135000776Y-39294781D01*
X134818386Y-39387715D01*
X134652786Y-39508028D01*
X134508028Y-39652786D01*
X134387715Y-39818386D01*
X134294781Y-40000776D01*
X134231522Y-40195465D01*
X134199500Y-40397648D01*
X134199500Y-40602351D01*
X134231522Y-40804534D01*
X134294781Y-40999223D01*
X134387715Y-41181613D01*
X134508028Y-41347213D01*
X134652786Y-41491971D01*
X134803660Y-41601585D01*
X134818390Y-41612287D01*
X134871637Y-41639417D01*
X134881827Y-41644610D01*
X134932623Y-41692585D01*
X134949418Y-41760406D01*
X134926880Y-41826541D01*
X134881828Y-41865579D01*
X134838388Y-41887713D01*
X134672786Y-42008028D01*
X134528028Y-42152786D01*
X134407715Y-42318386D01*
X134360485Y-42411080D01*
X134312510Y-42461876D01*
X134244689Y-42478671D01*
X134178554Y-42456134D01*
X134139515Y-42411080D01*
X134133860Y-42399981D01*
X134092287Y-42318390D01*
X134060092Y-42274077D01*
X133971971Y-42152786D01*
X133827213Y-42008028D01*
X133661613Y-41887715D01*
X133661612Y-41887714D01*
X133661610Y-41887713D01*
X133598169Y-41855388D01*
X133479223Y-41794781D01*
X133284534Y-41731522D01*
X133109995Y-41703878D01*
X133082352Y-41699500D01*
X132877648Y-41699500D01*
X132856933Y-41702781D01*
X132675465Y-41731522D01*
X132480776Y-41794781D01*
X132298386Y-41887715D01*
X132132786Y-42008028D01*
X131988028Y-42152786D01*
X131867715Y-42318386D01*
X131774781Y-42500776D01*
X131711522Y-42695465D01*
X131679500Y-42897648D01*
X115604316Y-42897648D01*
X115655045Y-42827824D01*
X115655051Y-42827816D01*
X115751557Y-42638412D01*
X115817246Y-42436243D01*
X115850500Y-42226287D01*
X115850500Y-42013713D01*
X115817246Y-41803757D01*
X115751557Y-41601588D01*
X115655051Y-41412184D01*
X115655049Y-41412181D01*
X115655048Y-41412179D01*
X115530109Y-41240213D01*
X115379786Y-41089890D01*
X115207817Y-40964949D01*
X115198504Y-40960204D01*
X115147707Y-40912230D01*
X115130912Y-40844409D01*
X115153449Y-40778274D01*
X115198507Y-40739232D01*
X115207555Y-40734622D01*
X115261716Y-40695270D01*
X115261717Y-40695270D01*
X114629408Y-40062962D01*
X114692993Y-40045925D01*
X114807007Y-39980099D01*
X114900099Y-39887007D01*
X114965925Y-39772993D01*
X114982962Y-39709409D01*
X115615270Y-40341717D01*
X115615270Y-40341716D01*
X115654622Y-40287554D01*
X115751095Y-40098217D01*
X115816757Y-39896130D01*
X115816757Y-39896127D01*
X115850000Y-39686246D01*
X115850000Y-39473753D01*
X115816757Y-39263872D01*
X115816757Y-39263869D01*
X115751094Y-39061780D01*
X115722068Y-39004813D01*
X115722067Y-39004812D01*
X115695865Y-38953389D01*
X239899500Y-38953389D01*
X239899500Y-39126610D01*
X239926135Y-39294781D01*
X239926598Y-39297701D01*
X239980127Y-39462445D01*
X240058768Y-39616788D01*
X240160586Y-39756928D01*
X240283072Y-39879414D01*
X240423212Y-39981232D01*
X240577555Y-40059873D01*
X240742299Y-40113402D01*
X240913389Y-40140500D01*
X240913390Y-40140500D01*
X241086610Y-40140500D01*
X241086611Y-40140500D01*
X241257701Y-40113402D01*
X241422445Y-40059873D01*
X241576788Y-39981232D01*
X241716928Y-39879414D01*
X241839414Y-39756928D01*
X241941232Y-39616788D01*
X242019873Y-39462445D01*
X242073402Y-39297701D01*
X242100500Y-39126611D01*
X242100500Y-38953389D01*
X242073402Y-38782299D01*
X242019873Y-38617555D01*
X241941232Y-38463212D01*
X241839414Y-38323072D01*
X241716928Y-38200586D01*
X241576788Y-38098768D01*
X241422445Y-38020127D01*
X241257701Y-37966598D01*
X241257699Y-37966597D01*
X241257698Y-37966597D01*
X241126271Y-37945781D01*
X241086611Y-37939500D01*
X240913389Y-37939500D01*
X240873728Y-37945781D01*
X240742302Y-37966597D01*
X240577552Y-38020128D01*
X240423211Y-38098768D01*
X240343256Y-38156859D01*
X240283072Y-38200586D01*
X240283070Y-38200588D01*
X240283069Y-38200588D01*
X240160588Y-38323069D01*
X240160588Y-38323070D01*
X240160586Y-38323072D01*
X240135757Y-38357246D01*
X240058768Y-38463211D01*
X239980128Y-38617552D01*
X239926597Y-38782302D01*
X239899500Y-38953389D01*
X115695865Y-38953389D01*
X115654624Y-38872449D01*
X115615270Y-38818282D01*
X115615269Y-38818282D01*
X114982962Y-39450590D01*
X114965925Y-39387007D01*
X114900099Y-39272993D01*
X114807007Y-39179901D01*
X114692993Y-39114075D01*
X114629409Y-39097037D01*
X115261716Y-38464728D01*
X115207547Y-38425373D01*
X115207547Y-38425372D01*
X115198500Y-38420763D01*
X115147706Y-38372788D01*
X115130912Y-38304966D01*
X115153451Y-38238832D01*
X115198508Y-38199793D01*
X115207816Y-38195051D01*
X115287007Y-38137515D01*
X115379786Y-38070109D01*
X115379788Y-38070106D01*
X115379792Y-38070104D01*
X115530104Y-37919792D01*
X115530106Y-37919788D01*
X115530109Y-37919786D01*
X115639086Y-37769789D01*
X115655051Y-37747816D01*
X115751557Y-37558412D01*
X115817246Y-37356243D01*
X115850500Y-37146287D01*
X115850500Y-36933713D01*
X115817246Y-36723757D01*
X115751557Y-36521588D01*
X115655051Y-36332184D01*
X115655049Y-36332181D01*
X115655048Y-36332179D01*
X115530109Y-36160213D01*
X115416569Y-36046673D01*
X115383084Y-35985350D01*
X115388068Y-35915658D01*
X115429940Y-35859725D01*
X115460915Y-35842810D01*
X115592331Y-35793796D01*
X115707546Y-35707546D01*
X115793796Y-35592331D01*
X115844091Y-35457483D01*
X115850500Y-35397873D01*
X115850500Y-35397682D01*
X134200000Y-35397682D01*
X134200000Y-35602317D01*
X134232009Y-35804417D01*
X134295244Y-35999031D01*
X134388141Y-36181350D01*
X134388147Y-36181359D01*
X134420523Y-36225921D01*
X134420524Y-36225922D01*
X135100000Y-35546446D01*
X135100000Y-35552661D01*
X135127259Y-35654394D01*
X135179920Y-35745606D01*
X135254394Y-35820080D01*
X135345606Y-35872741D01*
X135447339Y-35900000D01*
X135453553Y-35900000D01*
X134774076Y-36579474D01*
X134818650Y-36611859D01*
X135000968Y-36704755D01*
X135195582Y-36767990D01*
X135397683Y-36800000D01*
X135602317Y-36800000D01*
X135804417Y-36767990D01*
X135859784Y-36750000D01*
X237185885Y-36750000D01*
X237187085Y-36757584D01*
X237240591Y-36922255D01*
X237319195Y-37076524D01*
X237420967Y-37216602D01*
X237543397Y-37339032D01*
X237683475Y-37440804D01*
X237837742Y-37519408D01*
X238002415Y-37572914D01*
X238173429Y-37600000D01*
X238210000Y-37600000D01*
X238710000Y-37600000D01*
X238746571Y-37600000D01*
X238917584Y-37572914D01*
X239082257Y-37519408D01*
X239236524Y-37440804D01*
X239376602Y-37339032D01*
X239499032Y-37216602D01*
X239600804Y-37076524D01*
X239679408Y-36922255D01*
X239732914Y-36757584D01*
X239734115Y-36750000D01*
X238710000Y-36750000D01*
X238710000Y-37600000D01*
X238210000Y-37600000D01*
X238210000Y-36750000D01*
X237185885Y-36750000D01*
X135859784Y-36750000D01*
X135999031Y-36704755D01*
X136181350Y-36611859D01*
X136225921Y-36579474D01*
X135546447Y-35900000D01*
X135552661Y-35900000D01*
X135654394Y-35872741D01*
X135745606Y-35820080D01*
X135820080Y-35745606D01*
X135872741Y-35654394D01*
X135900000Y-35552661D01*
X135900000Y-35546448D01*
X136579474Y-36225922D01*
X136579474Y-36225921D01*
X136611859Y-36181349D01*
X136704755Y-35999031D01*
X136767990Y-35804417D01*
X136800000Y-35602317D01*
X136800000Y-35397682D01*
X136767990Y-35195582D01*
X136734039Y-35091095D01*
X136734038Y-35091093D01*
X136723171Y-35057648D01*
X164699500Y-35057648D01*
X164699500Y-35262351D01*
X164731522Y-35464534D01*
X164794781Y-35659223D01*
X164819404Y-35707547D01*
X164878779Y-35824077D01*
X164887715Y-35841613D01*
X165008028Y-36007213D01*
X165152786Y-36151971D01*
X165277274Y-36242415D01*
X165318390Y-36272287D01*
X165434607Y-36331503D01*
X165500776Y-36365218D01*
X165500778Y-36365218D01*
X165500781Y-36365220D01*
X165605137Y-36399127D01*
X165695465Y-36428477D01*
X165796557Y-36444488D01*
X165897648Y-36460500D01*
X165897649Y-36460500D01*
X166102351Y-36460500D01*
X166102352Y-36460500D01*
X166143883Y-36453922D01*
X238110000Y-36453922D01*
X238110000Y-36546078D01*
X238133852Y-36635095D01*
X238179930Y-36714905D01*
X238245095Y-36780070D01*
X238324905Y-36826148D01*
X238413922Y-36850000D01*
X238506078Y-36850000D01*
X238595095Y-36826148D01*
X238674905Y-36780070D01*
X238740070Y-36714905D01*
X238786148Y-36635095D01*
X238810000Y-36546078D01*
X238810000Y-36453922D01*
X238799139Y-36413389D01*
X242439500Y-36413389D01*
X242439500Y-36586611D01*
X242466598Y-36757701D01*
X242520127Y-36922445D01*
X242598768Y-37076788D01*
X242700586Y-37216928D01*
X242823072Y-37339414D01*
X242963212Y-37441232D01*
X243117555Y-37519873D01*
X243282299Y-37573402D01*
X243453389Y-37600500D01*
X243453390Y-37600500D01*
X243626610Y-37600500D01*
X243626611Y-37600500D01*
X243797701Y-37573402D01*
X243962445Y-37519873D01*
X244116788Y-37441232D01*
X244256928Y-37339414D01*
X244379414Y-37216928D01*
X244481232Y-37076788D01*
X244559873Y-36922445D01*
X244613402Y-36757701D01*
X244640500Y-36586611D01*
X244640500Y-36413389D01*
X244613402Y-36242299D01*
X244559873Y-36077555D01*
X244481232Y-35923212D01*
X244379414Y-35783072D01*
X244256928Y-35660586D01*
X244116788Y-35558768D01*
X243962445Y-35480127D01*
X243797701Y-35426598D01*
X243797699Y-35426597D01*
X243797698Y-35426597D01*
X243666271Y-35405781D01*
X243626611Y-35399500D01*
X243453389Y-35399500D01*
X243413728Y-35405781D01*
X243282302Y-35426597D01*
X243117552Y-35480128D01*
X242963211Y-35558768D01*
X242917011Y-35592335D01*
X242823072Y-35660586D01*
X242823070Y-35660588D01*
X242823069Y-35660588D01*
X242700588Y-35783069D01*
X242700588Y-35783070D01*
X242700586Y-35783072D01*
X242700350Y-35783397D01*
X242598768Y-35923211D01*
X242520128Y-36077552D01*
X242466597Y-36242302D01*
X242439500Y-36413389D01*
X238799139Y-36413389D01*
X238786148Y-36364905D01*
X238740070Y-36285095D01*
X238704975Y-36250000D01*
X238710000Y-36250000D01*
X239734115Y-36250000D01*
X239734115Y-36249999D01*
X239732914Y-36242415D01*
X239679408Y-36077744D01*
X239600804Y-35923475D01*
X239499032Y-35783397D01*
X239376602Y-35660967D01*
X239236524Y-35559195D01*
X239082257Y-35480591D01*
X238917584Y-35427085D01*
X238746571Y-35400000D01*
X238710000Y-35400000D01*
X238710000Y-36250000D01*
X238704975Y-36250000D01*
X238674905Y-36219930D01*
X238595095Y-36173852D01*
X238506078Y-36150000D01*
X238413922Y-36150000D01*
X238324905Y-36173852D01*
X238245095Y-36219930D01*
X238179930Y-36285095D01*
X238133852Y-36364905D01*
X238110000Y-36453922D01*
X166143883Y-36453922D01*
X166304534Y-36428477D01*
X166499219Y-36365220D01*
X166681610Y-36272287D01*
X166712287Y-36249999D01*
X237185884Y-36249999D01*
X237185885Y-36250000D01*
X238210000Y-36250000D01*
X238210000Y-35400000D01*
X238173429Y-35400000D01*
X238002415Y-35427085D01*
X237837742Y-35480591D01*
X237683475Y-35559195D01*
X237543397Y-35660967D01*
X237420967Y-35783397D01*
X237319195Y-35923475D01*
X237240591Y-36077744D01*
X237187085Y-36242415D01*
X237185884Y-36249999D01*
X166712287Y-36249999D01*
X166806763Y-36181359D01*
X166847213Y-36151971D01*
X166847215Y-36151968D01*
X166847219Y-36151966D01*
X166991966Y-36007219D01*
X166991968Y-36007215D01*
X166991971Y-36007213D01*
X167058488Y-35915658D01*
X167112287Y-35841610D01*
X167204522Y-35660588D01*
X167205218Y-35659223D01*
X167205218Y-35659222D01*
X167205220Y-35659219D01*
X167268477Y-35464534D01*
X167300500Y-35262352D01*
X167300500Y-35102135D01*
X251149500Y-35102135D01*
X251149500Y-36897870D01*
X251149501Y-36897876D01*
X251155908Y-36957483D01*
X251206202Y-37092328D01*
X251206206Y-37092335D01*
X251292452Y-37207544D01*
X251292455Y-37207547D01*
X251407664Y-37293793D01*
X251407671Y-37293797D01*
X251539082Y-37342810D01*
X251595016Y-37384681D01*
X251619433Y-37450145D01*
X251604582Y-37518418D01*
X251583431Y-37546673D01*
X251469889Y-37660215D01*
X251344951Y-37832179D01*
X251248444Y-38021585D01*
X251248443Y-38021587D01*
X251248443Y-38021588D01*
X251223366Y-38098768D01*
X251182753Y-38223760D01*
X251149500Y-38433713D01*
X251149500Y-38646286D01*
X251176741Y-38818282D01*
X251182754Y-38856243D01*
X251231027Y-39004812D01*
X251248444Y-39058414D01*
X251344951Y-39247820D01*
X251469890Y-39419786D01*
X251620213Y-39570109D01*
X251792179Y-39695048D01*
X251792181Y-39695049D01*
X251792184Y-39695051D01*
X251981588Y-39791557D01*
X252183757Y-39857246D01*
X252393713Y-39890500D01*
X252393714Y-39890500D01*
X252606286Y-39890500D01*
X252606287Y-39890500D01*
X252816243Y-39857246D01*
X253018412Y-39791557D01*
X253207816Y-39695051D01*
X253315537Y-39616788D01*
X253379786Y-39570109D01*
X253379788Y-39570106D01*
X253379792Y-39570104D01*
X253530104Y-39419792D01*
X253530106Y-39419788D01*
X253530109Y-39419786D01*
X253655048Y-39247820D01*
X253655047Y-39247820D01*
X253655051Y-39247816D01*
X253751557Y-39058412D01*
X253817246Y-38856243D01*
X253850500Y-38646287D01*
X253850500Y-38433713D01*
X253817246Y-38223757D01*
X253751557Y-38021588D01*
X253655051Y-37832184D01*
X253655049Y-37832181D01*
X253655048Y-37832179D01*
X253530109Y-37660213D01*
X253416569Y-37546673D01*
X253383084Y-37485350D01*
X253388068Y-37415658D01*
X253429940Y-37359725D01*
X253460915Y-37342810D01*
X253592331Y-37293796D01*
X253707546Y-37207546D01*
X253793796Y-37092331D01*
X253844091Y-36957483D01*
X253850500Y-36897873D01*
X253850499Y-35102128D01*
X253844091Y-35042517D01*
X253828594Y-35000968D01*
X253793797Y-34907671D01*
X253793793Y-34907664D01*
X253707547Y-34792455D01*
X253707544Y-34792452D01*
X253592335Y-34706206D01*
X253592328Y-34706202D01*
X253457482Y-34655908D01*
X253457483Y-34655908D01*
X253397883Y-34649501D01*
X253397881Y-34649500D01*
X253397873Y-34649500D01*
X253397864Y-34649500D01*
X251602129Y-34649500D01*
X251602123Y-34649501D01*
X251542516Y-34655908D01*
X251407671Y-34706202D01*
X251407664Y-34706206D01*
X251292455Y-34792452D01*
X251292452Y-34792455D01*
X251206206Y-34907664D01*
X251206202Y-34907671D01*
X251155908Y-35042517D01*
X251149501Y-35102116D01*
X251149501Y-35102123D01*
X251149500Y-35102135D01*
X167300500Y-35102135D01*
X167300500Y-35057648D01*
X167276745Y-34907669D01*
X167268477Y-34855465D01*
X167205218Y-34660776D01*
X167171503Y-34594607D01*
X167112287Y-34478390D01*
X167104556Y-34467749D01*
X166991971Y-34312786D01*
X166847213Y-34168028D01*
X166681613Y-34047715D01*
X166681612Y-34047714D01*
X166681610Y-34047713D01*
X166624653Y-34018691D01*
X166499223Y-33954781D01*
X166304534Y-33891522D01*
X166129995Y-33863878D01*
X166102352Y-33859500D01*
X165897648Y-33859500D01*
X165873329Y-33863351D01*
X165695465Y-33891522D01*
X165500776Y-33954781D01*
X165318386Y-34047715D01*
X165152786Y-34168028D01*
X165008028Y-34312786D01*
X164887715Y-34478386D01*
X164794781Y-34660776D01*
X164731522Y-34855465D01*
X164699500Y-35057648D01*
X136723171Y-35057648D01*
X136704755Y-35000970D01*
X136611859Y-34818650D01*
X136579474Y-34774077D01*
X136579474Y-34774076D01*
X135900000Y-35453551D01*
X135900000Y-35447339D01*
X135872741Y-35345606D01*
X135820080Y-35254394D01*
X135745606Y-35179920D01*
X135654394Y-35127259D01*
X135552661Y-35100000D01*
X135546446Y-35100000D01*
X136225922Y-34420524D01*
X136225921Y-34420523D01*
X136181359Y-34388147D01*
X136181350Y-34388141D01*
X135999031Y-34295244D01*
X135804417Y-34232009D01*
X135602317Y-34200000D01*
X135397683Y-34200000D01*
X135195582Y-34232009D01*
X135000968Y-34295244D01*
X134818644Y-34388143D01*
X134774077Y-34420523D01*
X134774077Y-34420524D01*
X135453554Y-35100000D01*
X135447339Y-35100000D01*
X135345606Y-35127259D01*
X135254394Y-35179920D01*
X135179920Y-35254394D01*
X135127259Y-35345606D01*
X135100000Y-35447339D01*
X135100000Y-35453553D01*
X134420524Y-34774077D01*
X134420523Y-34774077D01*
X134388143Y-34818644D01*
X134295244Y-35000968D01*
X134232009Y-35195582D01*
X134200000Y-35397682D01*
X115850500Y-35397682D01*
X115850499Y-33602128D01*
X115844091Y-33542517D01*
X115835100Y-33518412D01*
X115793797Y-33407671D01*
X115793793Y-33407664D01*
X115707547Y-33292455D01*
X115707544Y-33292452D01*
X115592335Y-33206206D01*
X115592328Y-33206202D01*
X115457482Y-33155908D01*
X115457483Y-33155908D01*
X115397883Y-33149501D01*
X115397881Y-33149500D01*
X115397873Y-33149500D01*
X115397864Y-33149500D01*
X113602129Y-33149500D01*
X113602123Y-33149501D01*
X113542516Y-33155908D01*
X113407671Y-33206202D01*
X113407664Y-33206206D01*
X113292455Y-33292452D01*
X113292452Y-33292455D01*
X113206206Y-33407664D01*
X113206202Y-33407671D01*
X113155908Y-33542517D01*
X113149857Y-33598805D01*
X113149501Y-33602123D01*
X113149500Y-33602135D01*
X91970500Y-33602135D01*
X91970499Y-33000000D01*
X91970499Y-32102129D01*
X91970498Y-32102123D01*
X91964091Y-32042516D01*
X91913797Y-31907671D01*
X91913793Y-31907664D01*
X91827547Y-31792455D01*
X91827544Y-31792452D01*
X91712335Y-31706206D01*
X91712328Y-31706202D01*
X91577482Y-31655908D01*
X91577483Y-31655908D01*
X91517883Y-31649501D01*
X91517881Y-31649500D01*
X91517873Y-31649500D01*
X91517864Y-31649500D01*
X89722129Y-31649500D01*
X89722123Y-31649501D01*
X89662516Y-31655908D01*
X89527671Y-31706202D01*
X89527664Y-31706206D01*
X89412455Y-31792452D01*
X89412452Y-31792455D01*
X89326206Y-31907664D01*
X89326203Y-31907669D01*
X89277189Y-32039083D01*
X89235317Y-32095016D01*
X89169853Y-32119433D01*
X89101580Y-32104581D01*
X89073326Y-32083430D01*
X88959786Y-31969890D01*
X88787820Y-31844951D01*
X88598414Y-31748444D01*
X88598413Y-31748443D01*
X88598412Y-31748443D01*
X88396243Y-31682754D01*
X88396241Y-31682753D01*
X88396240Y-31682753D01*
X88234957Y-31657208D01*
X88186287Y-31649500D01*
X87973713Y-31649500D01*
X87925042Y-31657208D01*
X87763760Y-31682753D01*
X87561585Y-31748444D01*
X87372179Y-31844951D01*
X87200213Y-31969890D01*
X87049890Y-32120213D01*
X86924949Y-32292182D01*
X86920484Y-32300946D01*
X86872509Y-32351742D01*
X86804688Y-32368536D01*
X86738553Y-32345998D01*
X86699516Y-32300946D01*
X86695050Y-32292182D01*
X86570109Y-32120213D01*
X86419786Y-31969890D01*
X86247820Y-31844951D01*
X86058414Y-31748444D01*
X86058413Y-31748443D01*
X86058412Y-31748443D01*
X85856243Y-31682754D01*
X85856241Y-31682753D01*
X85856240Y-31682753D01*
X85694957Y-31657208D01*
X85646287Y-31649500D01*
X85433713Y-31649500D01*
X85385042Y-31657208D01*
X85223760Y-31682753D01*
X85021585Y-31748444D01*
X84832179Y-31844951D01*
X84660213Y-31969890D01*
X84509890Y-32120213D01*
X84384949Y-32292182D01*
X84380484Y-32300946D01*
X84332509Y-32351742D01*
X84264688Y-32368536D01*
X84198553Y-32345998D01*
X84159516Y-32300946D01*
X84155050Y-32292182D01*
X84030109Y-32120213D01*
X83879786Y-31969890D01*
X83707820Y-31844951D01*
X83518414Y-31748444D01*
X83518413Y-31748443D01*
X83518412Y-31748443D01*
X83316243Y-31682754D01*
X83316241Y-31682753D01*
X83316240Y-31682753D01*
X83154957Y-31657208D01*
X83106287Y-31649500D01*
X82893713Y-31649500D01*
X82845042Y-31657208D01*
X82683760Y-31682753D01*
X82481585Y-31748444D01*
X82292179Y-31844951D01*
X82120213Y-31969890D01*
X81969890Y-32120213D01*
X81844949Y-32292182D01*
X81840202Y-32301499D01*
X81792227Y-32352293D01*
X81724405Y-32369087D01*
X81658271Y-32346548D01*
X81619234Y-32301495D01*
X81614626Y-32292452D01*
X81575270Y-32238282D01*
X81575269Y-32238282D01*
X80942962Y-32870590D01*
X80925925Y-32807007D01*
X80860099Y-32692993D01*
X80767007Y-32599901D01*
X80652993Y-32534075D01*
X80589409Y-32517037D01*
X81221716Y-31884728D01*
X81167550Y-31845375D01*
X80978217Y-31748904D01*
X80776129Y-31683242D01*
X80566246Y-31650000D01*
X80353754Y-31650000D01*
X80143872Y-31683242D01*
X80143869Y-31683242D01*
X79941782Y-31748904D01*
X79752439Y-31845380D01*
X79698282Y-31884727D01*
X79698282Y-31884728D01*
X80330591Y-32517037D01*
X80267007Y-32534075D01*
X80152993Y-32599901D01*
X80059901Y-32692993D01*
X79994075Y-32807007D01*
X79977037Y-32870591D01*
X79344728Y-32238282D01*
X79344727Y-32238282D01*
X79305380Y-32292439D01*
X79208904Y-32481782D01*
X79143242Y-32683869D01*
X79143242Y-32683872D01*
X79110000Y-32893753D01*
X23000000Y-32893753D01*
X23000000Y-24897648D01*
X164699500Y-24897648D01*
X164699500Y-25102351D01*
X164731522Y-25304534D01*
X164794781Y-25499223D01*
X164887715Y-25681613D01*
X165008028Y-25847213D01*
X165152786Y-25991971D01*
X165307749Y-26104556D01*
X165318390Y-26112287D01*
X165434607Y-26171503D01*
X165500776Y-26205218D01*
X165500778Y-26205218D01*
X165500781Y-26205220D01*
X165605137Y-26239127D01*
X165695465Y-26268477D01*
X165796557Y-26284488D01*
X165897648Y-26300500D01*
X165897649Y-26300500D01*
X166102351Y-26300500D01*
X166102352Y-26300500D01*
X166304534Y-26268477D01*
X166499219Y-26205220D01*
X166681610Y-26112287D01*
X166774590Y-26044732D01*
X166847213Y-25991971D01*
X166847215Y-25991968D01*
X166847219Y-25991966D01*
X166991966Y-25847219D01*
X166991968Y-25847215D01*
X166991971Y-25847213D01*
X167044732Y-25774590D01*
X167112287Y-25681610D01*
X167205220Y-25499219D01*
X167268477Y-25304534D01*
X167300500Y-25102352D01*
X167300500Y-24897648D01*
X167268477Y-24695466D01*
X167205220Y-24500781D01*
X167205218Y-24500778D01*
X167205218Y-24500776D01*
X167171503Y-24434607D01*
X167112287Y-24318390D01*
X167104556Y-24307749D01*
X166991971Y-24152786D01*
X166847213Y-24008028D01*
X166681613Y-23887715D01*
X166681612Y-23887714D01*
X166681610Y-23887713D01*
X166624653Y-23858691D01*
X166499223Y-23794781D01*
X166304534Y-23731522D01*
X166129995Y-23703878D01*
X166102352Y-23699500D01*
X165897648Y-23699500D01*
X165873329Y-23703351D01*
X165695465Y-23731522D01*
X165500776Y-23794781D01*
X165318386Y-23887715D01*
X165152786Y-24008028D01*
X165008028Y-24152786D01*
X164887715Y-24318386D01*
X164794781Y-24500776D01*
X164731522Y-24695465D01*
X164699500Y-24897648D01*
X23000000Y-24897648D01*
X23000000Y-18624000D01*
X23019685Y-18556961D01*
X23072489Y-18511206D01*
X23124000Y-18500000D01*
X274376000Y-18500000D01*
X274443039Y-18519685D01*
G37*
%TD.AperFunction*%
%TD*%
M02*
